<?xml version="1.0" encoding="UTF-8"?>
<svg xmlns="http://www.w3.org/2000/svg" width="1000" height="668">
  <rect width="1000" height="668" fill="#06060f"/>
  <text x="500" y="18" font-family="monospace" font-size="12" fill="#aaa" text-anchor="middle">EQUATION SPECTROGRAPH — The Shape of Equals</text>
  <text x="500" y="34" font-family="monospace" font-size="11" fill="#ff9050" text-anchor="middle">1 + 1  =  2</text>
  <text x="500" y="50" font-family="monospace" font-size="9" fill="#555" text-anchor="middle">J_red = LEFT (process arriving)  ◈  J_blue = RIGHT (result departing)  ◈  L_dynamic = ∫J·J ds = the crossing = the equals sign</text>
  <text x="500" y="64" font-family="monospace" font-size="8" fill="#404040" text-anchor="middle">dashed = 3-pulse (femtosecond) truncation N=3  ·  solid = full Dirichlet N=∞  ·  caustic crosses ZD boundary → see past event horizon</text>
  <text x="177.6" y="76" font-family="monospace" font-size="7" fill="#223322" text-anchor="middle">e0/p2</text>
  <text x="228.9" y="76" font-family="monospace" font-size="7" fill="#223322" text-anchor="middle">e1/p3</text>
  <text x="280.1" y="76" font-family="monospace" font-size="7" fill="#223322" text-anchor="middle">e2/p5</text>
  <text x="331.4" y="76" font-family="monospace" font-size="7" fill="#223322" text-anchor="middle">e3/p7</text>
  <text x="382.6" y="76" font-family="monospace" font-size="7" fill="#223322" text-anchor="middle">e4/p11</text>
  <text x="433.9" y="76" font-family="monospace" font-size="7" fill="#223322" text-anchor="middle">e5/p13</text>
  <text x="485.1" y="76" font-family="monospace" font-size="7" fill="#223322" text-anchor="middle">e6/p17</text>
  <text x="536.4" y="76" font-family="monospace" font-size="7" fill="#223322" text-anchor="middle">e7/p19</text>
  <text x="587.6" y="76" font-family="monospace" font-size="7" fill="#223322" text-anchor="middle">e8/p23</text>
  <text x="638.9" y="76" font-family="monospace" font-size="7" fill="#223322" text-anchor="middle">e9/p29</text>
  <text x="690.1" y="76" font-family="monospace" font-size="7" fill="#223322" text-anchor="middle">e10/p31</text>
  <text x="741.4" y="76" font-family="monospace" font-size="7" fill="#223322" text-anchor="middle">e11/p37</text>
  <text x="792.6" y="76" font-family="monospace" font-size="7" fill="#223322" text-anchor="middle">e12/p41</text>
  <text x="843.9" y="76" font-family="monospace" font-size="7" fill="#223322" text-anchor="middle">e13/p43</text>
  <text x="895.1" y="76" font-family="monospace" font-size="7" fill="#223322" text-anchor="middle">e14/p47</text>
  <text x="946.4" y="76" font-family="monospace" font-size="7" fill="#223322" text-anchor="middle">e15/p53</text>
  <rect x="152" y="80" width="820" height="100" fill="#4a1020" opacity="0.5"/>
  <line x1="152" y1="130.0" x2="972" y2="130.0" stroke="#1a3a1a" stroke-width="0.6" stroke-dasharray="2,4"/>
  <rect x="156.1" y="130.0" width="16.4" height="13.4" fill="#c04040" opacity="0.25"/>
  <rect x="174.5" y="130.0" width="16.4" height="38.0" fill="#4060c0" opacity="0.25"/>
  <rect x="156.1" y="130.0" width="16.4" height="11.9" fill="none" stroke="#c04040" stroke-width="0.6" stroke-dasharray="2,2" opacity="0.5"/>
  <rect x="174.5" y="130.0" width="16.4" height="26.6" fill="none" stroke="#4060c0" stroke-width="0.6" stroke-dasharray="2,2" opacity="0.5"/>
  <rect x="207.3" y="130.0" width="16.4" height="7.0" fill="#c04040" opacity="0.25"/>
  <rect x="225.8" y="130.0" width="16.4" height="19.0" fill="#4060c0" opacity="0.25"/>
  <rect x="207.3" y="130.0" width="16.4" height="2.6" fill="none" stroke="#c04040" stroke-width="0.6" stroke-dasharray="2,2" opacity="0.5"/>
  <rect x="225.8" y="130.0" width="16.4" height="13.3" fill="none" stroke="#4060c0" stroke-width="0.6" stroke-dasharray="2,2" opacity="0.5"/>
  <rect x="258.6" y="128.5" width="16.4" height="1.5" fill="#c04040" opacity="0.25"/>
  <rect x="277.0" y="118.3" width="16.4" height="11.7" fill="#4060c0" opacity="0.25"/>
  <rect x="258.6" y="130.0" width="16.4" height="5.4" fill="none" stroke="#c04040" stroke-width="0.6" stroke-dasharray="2,2" opacity="0.5"/>
  <rect x="277.0" y="121.8" width="16.4" height="8.2" fill="none" stroke="#4060c0" stroke-width="0.6" stroke-dasharray="2,2" opacity="0.5"/>
  <rect x="309.9" y="130.0" width="16.4" height="3.8" fill="#c04040" opacity="0.25"/>
  <rect x="328.2" y="106.3" width="16.4" height="23.7" fill="#4060c0" opacity="0.25"/>
  <rect x="309.9" y="129.0" width="16.4" height="1.0" fill="none" stroke="#c04040" stroke-width="0.6" stroke-dasharray="2,2" opacity="0.5"/>
  <rect x="328.2" y="113.4" width="16.4" height="16.6" fill="none" stroke="#4060c0" stroke-width="0.6" stroke-dasharray="2,2" opacity="0.5"/>
  <rect x="361.1" y="126.3" width="16.4" height="3.7" fill="#c04040" opacity="0.25"/>
  <rect x="379.5" y="98.0" width="16.4" height="32.0" fill="#4060c0" opacity="0.25"/>
  <rect x="361.1" y="119.0" width="16.4" height="11.0" fill="none" stroke="#c04040" stroke-width="0.6" stroke-dasharray="2,2" opacity="0.5"/>
  <rect x="379.5" y="107.6" width="16.4" height="22.4" fill="none" stroke="#4060c0" stroke-width="0.6" stroke-dasharray="2,2" opacity="0.5"/>
  <rect x="412.4" y="121.3" width="16.4" height="8.7" fill="#c04040" opacity="0.25"/>
  <rect x="430.8" y="96.4" width="16.4" height="33.6" fill="#4060c0" opacity="0.25"/>
  <rect x="412.4" y="116.2" width="16.4" height="13.8" fill="none" stroke="#c04040" stroke-width="0.6" stroke-dasharray="2,2" opacity="0.5"/>
  <rect x="430.8" y="106.4" width="16.4" height="23.6" fill="none" stroke="#4060c0" stroke-width="0.6" stroke-dasharray="2,2" opacity="0.5"/>
  <rect x="463.6" y="113.8" width="16.4" height="16.2" fill="#c04040" opacity="0.25"/>
  <rect x="482.0" y="94.6" width="16.4" height="35.4" fill="#4060c0" opacity="0.25"/>
  <rect x="463.6" y="112.9" width="16.4" height="17.1" fill="none" stroke="#c04040" stroke-width="0.6" stroke-dasharray="2,2" opacity="0.5"/>
  <rect x="482.0" y="105.2" width="16.4" height="24.8" fill="none" stroke="#4060c0" stroke-width="0.6" stroke-dasharray="2,2" opacity="0.5"/>
  <rect x="514.9" y="111.2" width="16.4" height="18.8" fill="#c04040" opacity="0.25"/>
  <rect x="533.2" y="94.1" width="16.4" height="35.9" fill="#4060c0" opacity="0.25"/>
  <rect x="514.9" y="111.9" width="16.4" height="18.1" fill="none" stroke="#c04040" stroke-width="0.6" stroke-dasharray="2,2" opacity="0.5"/>
  <rect x="533.2" y="104.8" width="16.4" height="25.2" fill="none" stroke="#4060c0" stroke-width="0.6" stroke-dasharray="2,2" opacity="0.5"/>
  <rect x="566.1" y="107.6" width="16.4" height="22.4" fill="#c04040" opacity="0.90"/>
  <rect x="566.1" y="107.6" width="16.4" height="2" fill="#ff6060" opacity="1.0"/>
  <rect x="584.5" y="93.4" width="16.4" height="36.6" fill="#4060c0" opacity="0.90"/>
  <rect x="584.5" y="93.4" width="16.4" height="2" fill="#60a0ff" opacity="1.0"/>
  <rect x="566.1" y="110.6" width="16.4" height="19.4" fill="none" stroke="#c04040" stroke-width="0.6" stroke-dasharray="2,2" opacity="0.5"/>
  <rect x="584.5" y="104.4" width="16.4" height="25.6" fill="none" stroke="#4060c0" stroke-width="0.6" stroke-dasharray="2,2" opacity="0.5"/>
  <circle cx="587.6" cy="134.6" r="2.5" fill="#ff8040" opacity="0.7"/>
  <circle cx="587.6" cy="131.3" r="2.5" fill="#40c0ff" opacity="0.7"/>
  <rect x="617.4" y="104.4" width="16.4" height="25.6" fill="#c04040" opacity="0.90"/>
  <rect x="617.4" y="104.4" width="16.4" height="2" fill="#ff6060" opacity="1.0"/>
  <rect x="635.8" y="92.9" width="16.4" height="37.1" fill="#4060c0" opacity="0.90"/>
  <rect x="635.8" y="92.9" width="16.4" height="2" fill="#60a0ff" opacity="1.0"/>
  <rect x="617.4" y="109.5" width="16.4" height="20.5" fill="none" stroke="#c04040" stroke-width="0.6" stroke-dasharray="2,2" opacity="0.5"/>
  <rect x="635.8" y="104.0" width="16.4" height="26.0" fill="none" stroke="#4060c0" stroke-width="0.6" stroke-dasharray="2,2" opacity="0.5"/>
  <circle cx="638.9" cy="155.4" r="2.5" fill="#ff8040" opacity="0.7"/>
  <circle cx="638.9" cy="134.2" r="2.5" fill="#40c0ff" opacity="0.7"/>
  <rect x="668.6" y="103.7" width="16.4" height="26.3" fill="#c04040" opacity="0.90"/>
  <rect x="668.6" y="103.7" width="16.4" height="2" fill="#ff6060" opacity="1.0"/>
  <rect x="687.0" y="92.8" width="16.4" height="37.2" fill="#4060c0" opacity="0.90"/>
  <rect x="687.0" y="92.8" width="16.4" height="2" fill="#60a0ff" opacity="1.0"/>
  <rect x="668.6" y="109.2" width="16.4" height="20.8" fill="none" stroke="#c04040" stroke-width="0.6" stroke-dasharray="2,2" opacity="0.5"/>
  <rect x="687.0" y="103.9" width="16.4" height="26.1" fill="none" stroke="#4060c0" stroke-width="0.6" stroke-dasharray="2,2" opacity="0.5"/>
  <circle cx="690.1" cy="121.7" r="2.5" fill="#ff8040" opacity="0.7"/>
  <circle cx="690.1" cy="128.8" r="2.5" fill="#40c0ff" opacity="0.7"/>
  <rect x="719.9" y="102.2" width="16.4" height="27.8" fill="#c04040" opacity="0.90"/>
  <rect x="719.9" y="102.2" width="16.4" height="2" fill="#ff6060" opacity="1.0"/>
  <rect x="738.2" y="92.5" width="16.4" height="37.5" fill="#4060c0" opacity="0.90"/>
  <rect x="738.2" y="92.5" width="16.4" height="2" fill="#60a0ff" opacity="1.0"/>
  <rect x="719.9" y="108.7" width="16.4" height="21.3" fill="none" stroke="#c04040" stroke-width="0.6" stroke-dasharray="2,2" opacity="0.5"/>
  <rect x="738.2" y="103.8" width="16.4" height="26.2" fill="none" stroke="#4060c0" stroke-width="0.6" stroke-dasharray="2,2" opacity="0.5"/>
  <circle cx="741.4" cy="138.6" r="2.5" fill="#ff8040" opacity="0.7"/>
  <circle cx="741.4" cy="131.3" r="2.5" fill="#40c0ff" opacity="0.7"/>
  <rect x="771.1" y="101.5" width="16.4" height="28.5" fill="#c04040" opacity="0.90"/>
  <rect x="771.1" y="101.5" width="16.4" height="2" fill="#ff6060" opacity="1.0"/>
  <rect x="789.5" y="92.4" width="16.4" height="37.6" fill="#4060c0" opacity="0.90"/>
  <rect x="789.5" y="92.4" width="16.4" height="2" fill="#60a0ff" opacity="1.0"/>
  <rect x="771.1" y="108.5" width="16.4" height="21.5" fill="none" stroke="#c04040" stroke-width="0.6" stroke-dasharray="2,2" opacity="0.5"/>
  <rect x="789.5" y="103.7" width="16.4" height="26.3" fill="none" stroke="#4060c0" stroke-width="0.6" stroke-dasharray="2,2" opacity="0.5"/>
  <circle cx="792.6" cy="134.2" r="2.5" fill="#ff8040" opacity="0.7"/>
  <circle cx="792.6" cy="130.6" r="2.5" fill="#40c0ff" opacity="0.7"/>
  <rect x="822.4" y="101.2" width="16.4" height="28.8" fill="#c04040" opacity="0.90"/>
  <rect x="822.4" y="101.2" width="16.4" height="2" fill="#ff6060" opacity="1.0"/>
  <rect x="840.8" y="92.4" width="16.4" height="37.6" fill="#4060c0" opacity="0.90"/>
  <rect x="840.8" y="92.4" width="16.4" height="2" fill="#60a0ff" opacity="1.0"/>
  <rect x="822.4" y="108.4" width="16.4" height="21.6" fill="none" stroke="#c04040" stroke-width="0.6" stroke-dasharray="2,2" opacity="0.5"/>
  <rect x="840.8" y="103.7" width="16.4" height="26.3" fill="none" stroke="#4060c0" stroke-width="0.6" stroke-dasharray="2,2" opacity="0.5"/>
  <circle cx="843.9" cy="128.2" r="2.5" fill="#ff8040" opacity="0.7"/>
  <circle cx="843.9" cy="129.7" r="2.5" fill="#40c0ff" opacity="0.7"/>
  <circle cx="843.9" cy="129.0" r="5" fill="none" stroke="#ffffff" stroke-width="1.2" opacity="0.8"/>
  <text x="843.9" y="88.0" font-family="monospace" font-size="7" fill="#ffffff" text-anchor="middle" opacity="0.7">⊛</text>
  <rect x="873.6" y="100.8" width="16.4" height="29.2" fill="#c04040" opacity="0.90"/>
  <rect x="873.6" y="100.8" width="16.4" height="2" fill="#ff6060" opacity="1.0"/>
  <rect x="892.0" y="92.3" width="16.4" height="37.7" fill="#4060c0" opacity="0.90"/>
  <rect x="892.0" y="92.3" width="16.4" height="2" fill="#60a0ff" opacity="1.0"/>
  <rect x="873.6" y="108.3" width="16.4" height="21.7" fill="none" stroke="#c04040" stroke-width="0.6" stroke-dasharray="2,2" opacity="0.5"/>
  <rect x="892.0" y="103.6" width="16.4" height="26.4" fill="none" stroke="#4060c0" stroke-width="0.6" stroke-dasharray="2,2" opacity="0.5"/>
  <circle cx="895.1" cy="129.5" r="2.5" fill="#ff8040" opacity="0.7"/>
  <circle cx="895.1" cy="129.9" r="2.5" fill="#40c0ff" opacity="0.7"/>
  <circle cx="895.1" cy="129.7" r="5" fill="none" stroke="#ffffff" stroke-width="1.2" opacity="0.8"/>
  <text x="895.1" y="88.0" font-family="monospace" font-size="7" fill="#ffffff" text-anchor="middle" opacity="0.7">⊛</text>
  <rect x="924.9" y="100.3" width="16.4" height="29.7" fill="#c04040" opacity="0.90"/>
  <rect x="924.9" y="100.3" width="16.4" height="2" fill="#ff6060" opacity="1.0"/>
  <rect x="943.2" y="92.3" width="16.4" height="37.7" fill="#4060c0" opacity="0.90"/>
  <rect x="943.2" y="92.3" width="16.4" height="2" fill="#60a0ff" opacity="1.0"/>
  <rect x="924.9" y="108.1" width="16.4" height="21.9" fill="none" stroke="#c04040" stroke-width="0.6" stroke-dasharray="2,2" opacity="0.5"/>
  <rect x="943.2" y="103.6" width="16.4" height="26.4" fill="none" stroke="#4060c0" stroke-width="0.6" stroke-dasharray="2,2" opacity="0.5"/>
  <circle cx="946.4" cy="130.0" r="2.5" fill="#ff8040" opacity="0.7"/>
  <circle cx="946.4" cy="130.0" r="2.5" fill="#40c0ff" opacity="0.7"/>
  <line x1="255.7" y1="80.0" x2="255.7" y2="180.0" stroke="#ffd700" stroke-width="0.8" stroke-dasharray="3,3" opacity="0.4"/>
  <text x="144" y="120.0" font-family="monospace" font-size="20" fill="#ff5070" text-anchor="end" opacity="0.9">𝕊</text>
  <text x="144" y="138.0" font-family="monospace" font-size="7" fill="#ff5070" text-anchor="end" opacity="0.5">SEDENION 16D</text>
  <rect x="152" y="80" width="820" height="100" fill="none" stroke="#ff5070" stroke-width="0.3" opacity="0.25"/>
  <rect x="152" y="212" width="820" height="100" fill="#4a2010" opacity="0.5"/>
  <line x1="152" y1="262.0" x2="972" y2="262.0" stroke="#1a3a1a" stroke-width="0.6" stroke-dasharray="2,4"/>
  <rect x="156.1" y="262.0" width="16.4" height="13.4" fill="#c04040" opacity="0.25"/>
  <rect x="174.5" y="262.0" width="16.4" height="38.0" fill="#4060c0" opacity="0.25"/>
  <rect x="156.1" y="262.0" width="16.4" height="11.9" fill="none" stroke="#c04040" stroke-width="0.6" stroke-dasharray="2,2" opacity="0.5"/>
  <rect x="174.5" y="262.0" width="16.4" height="26.6" fill="none" stroke="#4060c0" stroke-width="0.6" stroke-dasharray="2,2" opacity="0.5"/>
  <rect x="207.3" y="262.0" width="16.4" height="7.0" fill="#c04040" opacity="0.25"/>
  <rect x="225.8" y="262.0" width="16.4" height="19.0" fill="#4060c0" opacity="0.25"/>
  <rect x="207.3" y="262.0" width="16.4" height="2.6" fill="none" stroke="#c04040" stroke-width="0.6" stroke-dasharray="2,2" opacity="0.5"/>
  <rect x="225.8" y="262.0" width="16.4" height="13.3" fill="none" stroke="#4060c0" stroke-width="0.6" stroke-dasharray="2,2" opacity="0.5"/>
  <rect x="258.6" y="260.5" width="16.4" height="1.5" fill="#c04040" opacity="0.25"/>
  <rect x="277.0" y="250.3" width="16.4" height="11.7" fill="#4060c0" opacity="0.25"/>
  <rect x="258.6" y="262.0" width="16.4" height="5.4" fill="none" stroke="#c04040" stroke-width="0.6" stroke-dasharray="2,2" opacity="0.5"/>
  <rect x="277.0" y="253.8" width="16.4" height="8.2" fill="none" stroke="#4060c0" stroke-width="0.6" stroke-dasharray="2,2" opacity="0.5"/>
  <rect x="309.9" y="262.0" width="16.4" height="3.8" fill="#c04040" opacity="0.25"/>
  <rect x="328.2" y="238.3" width="16.4" height="23.7" fill="#4060c0" opacity="0.25"/>
  <rect x="309.9" y="261.0" width="16.4" height="1.0" fill="none" stroke="#c04040" stroke-width="0.6" stroke-dasharray="2,2" opacity="0.5"/>
  <rect x="328.2" y="245.4" width="16.4" height="16.6" fill="none" stroke="#4060c0" stroke-width="0.6" stroke-dasharray="2,2" opacity="0.5"/>
  <rect x="361.1" y="258.3" width="16.4" height="3.7" fill="#c04040" opacity="0.90"/>
  <rect x="361.1" y="258.3" width="16.4" height="2" fill="#ff6060" opacity="1.0"/>
  <rect x="379.5" y="230.0" width="16.4" height="32.0" fill="#4060c0" opacity="0.90"/>
  <rect x="379.5" y="230.0" width="16.4" height="2" fill="#60a0ff" opacity="1.0"/>
  <rect x="361.1" y="251.0" width="16.4" height="11.0" fill="none" stroke="#c04040" stroke-width="0.6" stroke-dasharray="2,2" opacity="0.5"/>
  <rect x="379.5" y="239.6" width="16.4" height="22.4" fill="none" stroke="#4060c0" stroke-width="0.6" stroke-dasharray="2,2" opacity="0.5"/>
  <circle cx="382.6" cy="286.5" r="2.5" fill="#ff8040" opacity="0.7"/>
  <circle cx="382.6" cy="262.0" r="2.5" fill="#40c0ff" opacity="0.7"/>
  <rect x="412.4" y="253.3" width="16.4" height="8.7" fill="#c04040" opacity="0.90"/>
  <rect x="412.4" y="253.3" width="16.4" height="2" fill="#ff6060" opacity="1.0"/>
  <rect x="430.8" y="228.4" width="16.4" height="33.6" fill="#4060c0" opacity="0.90"/>
  <rect x="430.8" y="228.4" width="16.4" height="2" fill="#60a0ff" opacity="1.0"/>
  <rect x="412.4" y="248.2" width="16.4" height="13.8" fill="none" stroke="#c04040" stroke-width="0.6" stroke-dasharray="2,2" opacity="0.5"/>
  <rect x="430.8" y="238.4" width="16.4" height="23.6" fill="none" stroke="#4060c0" stroke-width="0.6" stroke-dasharray="2,2" opacity="0.5"/>
  <circle cx="433.9" cy="237.3" r="2.5" fill="#ff8040" opacity="0.7"/>
  <circle cx="433.9" cy="260.9" r="2.5" fill="#40c0ff" opacity="0.7"/>
  <rect x="463.6" y="245.8" width="16.4" height="16.2" fill="#c04040" opacity="0.90"/>
  <rect x="463.6" y="245.8" width="16.4" height="2" fill="#ff6060" opacity="1.0"/>
  <rect x="482.0" y="226.6" width="16.4" height="35.4" fill="#4060c0" opacity="0.90"/>
  <rect x="482.0" y="226.6" width="16.4" height="2" fill="#60a0ff" opacity="1.0"/>
  <rect x="463.6" y="244.9" width="16.4" height="17.1" fill="none" stroke="#c04040" stroke-width="0.6" stroke-dasharray="2,2" opacity="0.5"/>
  <rect x="482.0" y="237.2" width="16.4" height="24.8" fill="none" stroke="#4060c0" stroke-width="0.6" stroke-dasharray="2,2" opacity="0.5"/>
  <circle cx="485.1" cy="262.0" r="2.5" fill="#ff8040" opacity="0.7"/>
  <circle cx="485.1" cy="275.2" r="2.5" fill="#40c0ff" opacity="0.7"/>
  <rect x="514.9" y="243.2" width="16.4" height="18.8" fill="#c04040" opacity="0.90"/>
  <rect x="514.9" y="243.2" width="16.4" height="2" fill="#ff6060" opacity="1.0"/>
  <rect x="533.2" y="226.1" width="16.4" height="35.9" fill="#4060c0" opacity="0.90"/>
  <rect x="533.2" y="226.1" width="16.4" height="2" fill="#60a0ff" opacity="1.0"/>
  <rect x="514.9" y="243.9" width="16.4" height="18.1" fill="none" stroke="#c04040" stroke-width="0.6" stroke-dasharray="2,2" opacity="0.5"/>
  <rect x="533.2" y="236.8" width="16.4" height="25.2" fill="none" stroke="#4060c0" stroke-width="0.6" stroke-dasharray="2,2" opacity="0.5"/>
  <circle cx="536.4" cy="262.0" r="2.5" fill="#ff8040" opacity="0.7"/>
  <circle cx="536.4" cy="262.0" r="2.5" fill="#40c0ff" opacity="0.7"/>
  <rect x="567.1" y="261.0" width="41.0" height="2" fill="#111" opacity="0.5"/>
  <rect x="618.4" y="261.0" width="41.0" height="2" fill="#111" opacity="0.5"/>
  <rect x="669.6" y="261.0" width="41.0" height="2" fill="#111" opacity="0.5"/>
  <rect x="720.9" y="261.0" width="41.0" height="2" fill="#111" opacity="0.5"/>
  <rect x="772.1" y="261.0" width="41.0" height="2" fill="#111" opacity="0.5"/>
  <rect x="823.4" y="261.0" width="41.0" height="2" fill="#111" opacity="0.5"/>
  <rect x="874.6" y="261.0" width="41.0" height="2" fill="#111" opacity="0.5"/>
  <rect x="925.9" y="261.0" width="41.0" height="2" fill="#111" opacity="0.5"/>
  <line x1="255.7" y1="212.0" x2="255.7" y2="312.0" stroke="#ffd700" stroke-width="0.8" stroke-dasharray="3,3" opacity="0.4"/>
  <text x="144" y="252.0" font-family="monospace" font-size="20" fill="#ffa040" text-anchor="end" opacity="0.9">𝕆</text>
  <text x="144" y="270.0" font-family="monospace" font-size="7" fill="#ffa040" text-anchor="end" opacity="0.5">OCTONION 8D</text>
  <rect x="152" y="212" width="820" height="100" fill="none" stroke="#ffa040" stroke-width="0.3" opacity="0.25"/>
  <rect x="152" y="312" width="820" height="100" fill="#1a3020" opacity="0.5"/>
  <line x1="152" y1="362.0" x2="972" y2="362.0" stroke="#1a3a1a" stroke-width="0.6" stroke-dasharray="2,4"/>
  <rect x="156.1" y="362.0" width="16.4" height="13.4" fill="#c04040" opacity="0.25"/>
  <rect x="174.5" y="362.0" width="16.4" height="38.0" fill="#4060c0" opacity="0.25"/>
  <rect x="156.1" y="362.0" width="16.4" height="11.9" fill="none" stroke="#c04040" stroke-width="0.6" stroke-dasharray="2,2" opacity="0.5"/>
  <rect x="174.5" y="362.0" width="16.4" height="26.6" fill="none" stroke="#4060c0" stroke-width="0.6" stroke-dasharray="2,2" opacity="0.5"/>
  <rect x="207.3" y="362.0" width="16.4" height="7.0" fill="#c04040" opacity="0.25"/>
  <rect x="225.8" y="362.0" width="16.4" height="19.0" fill="#4060c0" opacity="0.25"/>
  <rect x="207.3" y="362.0" width="16.4" height="2.6" fill="none" stroke="#c04040" stroke-width="0.6" stroke-dasharray="2,2" opacity="0.5"/>
  <rect x="225.8" y="362.0" width="16.4" height="13.3" fill="none" stroke="#4060c0" stroke-width="0.6" stroke-dasharray="2,2" opacity="0.5"/>
  <rect x="258.6" y="360.5" width="16.4" height="1.5" fill="#c04040" opacity="0.90"/>
  <rect x="258.6" y="360.5" width="16.4" height="2" fill="#ff6060" opacity="1.0"/>
  <rect x="277.0" y="350.3" width="16.4" height="11.7" fill="#4060c0" opacity="0.90"/>
  <rect x="277.0" y="350.3" width="16.4" height="2" fill="#60a0ff" opacity="1.0"/>
  <rect x="258.6" y="362.0" width="16.4" height="5.4" fill="none" stroke="#c04040" stroke-width="0.6" stroke-dasharray="2,2" opacity="0.5"/>
  <rect x="277.0" y="353.8" width="16.4" height="8.2" fill="none" stroke="#4060c0" stroke-width="0.6" stroke-dasharray="2,2" opacity="0.5"/>
  <circle cx="280.1" cy="362.0" r="2.5" fill="#ff8040" opacity="0.7"/>
  <circle cx="280.1" cy="362.0" r="2.5" fill="#40c0ff" opacity="0.7"/>
  <rect x="309.9" y="362.0" width="16.4" height="3.8" fill="#c04040" opacity="0.90"/>
  <rect x="309.9" y="363.8" width="16.4" height="2" fill="#ff6060" opacity="1.0"/>
  <rect x="328.2" y="338.3" width="16.4" height="23.7" fill="#4060c0" opacity="0.90"/>
  <rect x="328.2" y="338.3" width="16.4" height="2" fill="#60a0ff" opacity="1.0"/>
  <rect x="309.9" y="361.0" width="16.4" height="1.0" fill="none" stroke="#c04040" stroke-width="0.6" stroke-dasharray="2,2" opacity="0.5"/>
  <rect x="328.2" y="345.4" width="16.4" height="16.6" fill="none" stroke="#4060c0" stroke-width="0.6" stroke-dasharray="2,2" opacity="0.5"/>
  <circle cx="331.4" cy="362.0" r="2.5" fill="#ff8040" opacity="0.7"/>
  <circle cx="331.4" cy="362.0" r="2.5" fill="#40c0ff" opacity="0.7"/>
  <rect x="362.1" y="361.0" width="41.0" height="2" fill="#111" opacity="0.5"/>
  <rect x="413.4" y="361.0" width="41.0" height="2" fill="#111" opacity="0.5"/>
  <rect x="464.6" y="361.0" width="41.0" height="2" fill="#111" opacity="0.5"/>
  <rect x="515.9" y="361.0" width="41.0" height="2" fill="#111" opacity="0.5"/>
  <rect x="567.1" y="361.0" width="41.0" height="2" fill="#111" opacity="0.5"/>
  <rect x="618.4" y="361.0" width="41.0" height="2" fill="#111" opacity="0.5"/>
  <rect x="669.6" y="361.0" width="41.0" height="2" fill="#111" opacity="0.5"/>
  <rect x="720.9" y="361.0" width="41.0" height="2" fill="#111" opacity="0.5"/>
  <rect x="772.1" y="361.0" width="41.0" height="2" fill="#111" opacity="0.5"/>
  <rect x="823.4" y="361.0" width="41.0" height="2" fill="#111" opacity="0.5"/>
  <rect x="874.6" y="361.0" width="41.0" height="2" fill="#111" opacity="0.5"/>
  <rect x="925.9" y="361.0" width="41.0" height="2" fill="#111" opacity="0.5"/>
  <line x1="255.7" y1="312.0" x2="255.7" y2="412.0" stroke="#ffd700" stroke-width="0.8" stroke-dasharray="3,3" opacity="0.4"/>
  <text x="144" y="352.0" font-family="monospace" font-size="20" fill="#40c080" text-anchor="end" opacity="0.9">ℍ</text>
  <text x="144" y="370.0" font-family="monospace" font-size="7" fill="#40c080" text-anchor="end" opacity="0.5">QUATERNION 4D</text>
  <rect x="152" y="312" width="820" height="100" fill="none" stroke="#40c080" stroke-width="0.3" opacity="0.25"/>
  <rect x="152" y="412" width="820" height="100" fill="#1a2840" opacity="0.5"/>
  <line x1="152" y1="462.0" x2="972" y2="462.0" stroke="#1a3a1a" stroke-width="0.6" stroke-dasharray="2,4"/>
  <rect x="156.1" y="462.0" width="16.4" height="13.4" fill="#c04040" opacity="0.25"/>
  <rect x="174.5" y="462.0" width="16.4" height="38.0" fill="#4060c0" opacity="0.25"/>
  <rect x="156.1" y="462.0" width="16.4" height="11.9" fill="none" stroke="#c04040" stroke-width="0.6" stroke-dasharray="2,2" opacity="0.5"/>
  <rect x="174.5" y="462.0" width="16.4" height="26.6" fill="none" stroke="#4060c0" stroke-width="0.6" stroke-dasharray="2,2" opacity="0.5"/>
  <rect x="207.3" y="462.0" width="16.4" height="7.0" fill="#c04040" opacity="0.90"/>
  <rect x="207.3" y="467.0" width="16.4" height="2" fill="#ff6060" opacity="1.0"/>
  <rect x="225.8" y="462.0" width="16.4" height="19.0" fill="#4060c0" opacity="0.90"/>
  <rect x="225.8" y="479.0" width="16.4" height="2" fill="#60a0ff" opacity="1.0"/>
  <rect x="207.3" y="462.0" width="16.4" height="2.6" fill="none" stroke="#c04040" stroke-width="0.6" stroke-dasharray="2,2" opacity="0.5"/>
  <rect x="225.8" y="462.0" width="16.4" height="13.3" fill="none" stroke="#4060c0" stroke-width="0.6" stroke-dasharray="2,2" opacity="0.5"/>
  <circle cx="228.9" cy="455.3" r="2.5" fill="#ff8040" opacity="0.7"/>
  <circle cx="228.9" cy="462.0" r="2.5" fill="#40c0ff" opacity="0.7"/>
  <rect x="259.6" y="461.0" width="41.0" height="2" fill="#111" opacity="0.5"/>
  <rect x="310.9" y="461.0" width="41.0" height="2" fill="#111" opacity="0.5"/>
  <rect x="362.1" y="461.0" width="41.0" height="2" fill="#111" opacity="0.5"/>
  <rect x="413.4" y="461.0" width="41.0" height="2" fill="#111" opacity="0.5"/>
  <rect x="464.6" y="461.0" width="41.0" height="2" fill="#111" opacity="0.5"/>
  <rect x="515.9" y="461.0" width="41.0" height="2" fill="#111" opacity="0.5"/>
  <rect x="567.1" y="461.0" width="41.0" height="2" fill="#111" opacity="0.5"/>
  <rect x="618.4" y="461.0" width="41.0" height="2" fill="#111" opacity="0.5"/>
  <rect x="669.6" y="461.0" width="41.0" height="2" fill="#111" opacity="0.5"/>
  <rect x="720.9" y="461.0" width="41.0" height="2" fill="#111" opacity="0.5"/>
  <rect x="772.1" y="461.0" width="41.0" height="2" fill="#111" opacity="0.5"/>
  <rect x="823.4" y="461.0" width="41.0" height="2" fill="#111" opacity="0.5"/>
  <rect x="874.6" y="461.0" width="41.0" height="2" fill="#111" opacity="0.5"/>
  <rect x="925.9" y="461.0" width="41.0" height="2" fill="#111" opacity="0.5"/>
  <line x1="255.7" y1="412.0" x2="255.7" y2="512.0" stroke="#ffd700" stroke-width="0.8" stroke-dasharray="3,3" opacity="0.4"/>
  <text x="144" y="452.0" font-family="monospace" font-size="20" fill="#60a0ff" text-anchor="end" opacity="0.9">ℂ</text>
  <text x="144" y="470.0" font-family="monospace" font-size="7" fill="#60a0ff" text-anchor="end" opacity="0.5">COMPLEX 2D</text>
  <rect x="152" y="412" width="820" height="100" fill="none" stroke="#60a0ff" stroke-width="0.3" opacity="0.25"/>
  <rect x="152" y="512" width="820" height="100" fill="#303030" opacity="0.5"/>
  <line x1="152" y1="562.0" x2="972" y2="562.0" stroke="#1a3a1a" stroke-width="0.6" stroke-dasharray="2,4"/>
  <rect x="156.1" y="562.0" width="16.4" height="13.4" fill="#c04040" opacity="0.90"/>
  <rect x="156.1" y="573.4" width="16.4" height="2" fill="#ff6060" opacity="1.0"/>
  <rect x="174.5" y="562.0" width="16.4" height="38.0" fill="#4060c0" opacity="0.90"/>
  <rect x="174.5" y="598.0" width="16.4" height="2" fill="#60a0ff" opacity="1.0"/>
  <rect x="156.1" y="562.0" width="16.4" height="11.9" fill="none" stroke="#c04040" stroke-width="0.6" stroke-dasharray="2,2" opacity="0.5"/>
  <rect x="174.5" y="562.0" width="16.4" height="26.6" fill="none" stroke="#4060c0" stroke-width="0.6" stroke-dasharray="2,2" opacity="0.5"/>
  <circle cx="177.6" cy="562.0" r="2.5" fill="#ff8040" opacity="0.7"/>
  <circle cx="177.6" cy="562.0" r="2.5" fill="#40c0ff" opacity="0.7"/>
  <rect x="208.4" y="561.0" width="41.0" height="2" fill="#111" opacity="0.5"/>
  <rect x="259.6" y="561.0" width="41.0" height="2" fill="#111" opacity="0.5"/>
  <rect x="310.9" y="561.0" width="41.0" height="2" fill="#111" opacity="0.5"/>
  <rect x="362.1" y="561.0" width="41.0" height="2" fill="#111" opacity="0.5"/>
  <rect x="413.4" y="561.0" width="41.0" height="2" fill="#111" opacity="0.5"/>
  <rect x="464.6" y="561.0" width="41.0" height="2" fill="#111" opacity="0.5"/>
  <rect x="515.9" y="561.0" width="41.0" height="2" fill="#111" opacity="0.5"/>
  <rect x="567.1" y="561.0" width="41.0" height="2" fill="#111" opacity="0.5"/>
  <rect x="618.4" y="561.0" width="41.0" height="2" fill="#111" opacity="0.5"/>
  <rect x="669.6" y="561.0" width="41.0" height="2" fill="#111" opacity="0.5"/>
  <rect x="720.9" y="561.0" width="41.0" height="2" fill="#111" opacity="0.5"/>
  <rect x="772.1" y="561.0" width="41.0" height="2" fill="#111" opacity="0.5"/>
  <rect x="823.4" y="561.0" width="41.0" height="2" fill="#111" opacity="0.5"/>
  <rect x="874.6" y="561.0" width="41.0" height="2" fill="#111" opacity="0.5"/>
  <rect x="925.9" y="561.0" width="41.0" height="2" fill="#111" opacity="0.5"/>
  <text x="144" y="552.0" font-family="monospace" font-size="20" fill="#c0c0c0" text-anchor="end" opacity="0.9">ℝ</text>
  <text x="144" y="570.0" font-family="monospace" font-size="7" fill="#c0c0c0" text-anchor="end" opacity="0.5">REAL 1D</text>
  <rect x="152" y="512" width="820" height="100" fill="none" stroke="#c0c0c0" stroke-width="0.3" opacity="0.25"/>
  <rect x="152" y="180" width="820" height="32" fill="#180010" opacity="0.9"/>
  <line x1="152" y1="180" x2="972" y2="180" stroke="#c04080" stroke-width="1.0" stroke-dasharray="5,3"/>
  <line x1="152" y1="212" x2="972" y2="212" stroke="#c04080" stroke-width="1.0" stroke-dasharray="5,3"/>
  <line x1="677.3" y1="180" x2="677.3" y2="212" stroke="#ffffff" stroke-width="1.5" opacity="0.6"/>
  <circle cx="677.3" cy="196.0" r="4" fill="#ffffff" opacity="0.5"/>
  <line x1="715.4" y1="180" x2="715.4" y2="212" stroke="#ffffff" stroke-width="1.5" opacity="0.6"/>
  <circle cx="715.4" cy="196.0" r="4" fill="#ffffff" opacity="0.5"/>
  <line x1="828.3" y1="180" x2="828.3" y2="212" stroke="#ffffff" stroke-width="1.5" opacity="0.6"/>
  <circle cx="828.3" cy="196.0" r="4" fill="#ffffff" opacity="0.5"/>
  <text x="562.0" y="200.0" font-family="monospace" font-size="9" fill="#c04080" text-anchor="middle">◈ EVENT HORIZON — ZD FAULT — caustic crosses here — Laplacian sees through ◈</text>
  <line x1="316.0" y1="183" x2="316.0" y2="209" stroke="#c04040" stroke-width="1.0" opacity="0.5"/>
  <line x1="324.0" y1="209" x2="324.0" y2="183" stroke="#4060c0" stroke-width="1.0" opacity="0.5"/>
  <line x1="562.0" y1="183" x2="562.0" y2="209" stroke="#c04040" stroke-width="1.0" opacity="0.5"/>
  <line x1="570.0" y1="209" x2="570.0" y2="183" stroke="#4060c0" stroke-width="1.0" opacity="0.5"/>
  <line x1="808.0" y1="183" x2="808.0" y2="209" stroke="#c04040" stroke-width="1.0" opacity="0.5"/>
  <line x1="816.0" y1="209" x2="816.0" y2="183" stroke="#4060c0" stroke-width="1.0" opacity="0.5"/>
  <rect x="152" y="618" width="10" height="10" fill="#ff6060" opacity="0.8"/>
  <text x="166" y="626" font-family="monospace" font-size="8" fill="#ff6060" opacity="0.7">J_red: LEFT "1 + 1"</text>
  <rect x="372" y="618" width="10" height="10" fill="#60a0ff" opacity="0.8"/>
  <text x="386" y="626" font-family="monospace" font-size="8" fill="#60a0ff" opacity="0.7">J_blue: RIGHT "2"</text>
  <rect x="592" y="618" width="10" height="10" fill="#ffd700" opacity="0.8"/>
  <text x="606" y="626" font-family="monospace" font-size="8" fill="#ffd700" opacity="0.7">= crossing (projection equal)</text>
  <rect x="812" y="618" width="10" height="10" fill="#ffffff" opacity="0.8"/>
  <text x="826" y="626" font-family="monospace" font-size="8" fill="#ffffff" opacity="0.7">⊛ caustic crossing (Laplacian equal)</text>
  <rect x="152" y="634" width="10" height="10" fill="#ff8040" opacity="0.8"/>
  <text x="166" y="642" font-family="monospace" font-size="8" fill="#ff8040" opacity="0.7">● Laplacian LEFT  ∇²J_red</text>
  <rect x="372" y="634" width="10" height="10" fill="#40c0ff" opacity="0.8"/>
  <text x="386" y="642" font-family="monospace" font-size="8" fill="#40c0ff" opacity="0.7">● Laplacian RIGHT ∇²J_blue</text>
  <rect x="592" y="634" width="10" height="10" fill="#c04080" opacity="0.8"/>
  <text x="606" y="642" font-family="monospace" font-size="8" fill="#c04080" opacity="0.7">EVENT HORIZON (ZD fault)</text>
  <rect x="812" y="634" width="10" height="10" fill="gray" opacity="0.8"/>
  <text x="826" y="642" font-family="monospace" font-size="8" fill="gray" opacity="0.7">dashed = 3-pulse / solid = full</text>
  <text x="152" y="660" font-family="monospace" font-size="8" fill="#404050">σ=½  ·  16 prime channels p∈[2,53]  ·  L_dynamic=∫J_red·J_blue ds  ·  Laplacian caustic crosses event horizon</text>
</svg>