<?xml version="1.0" encoding="UTF-8"?>
<svg xmlns="http://www.w3.org/2000/svg" width="1200" height="680" viewBox="0 0 1200 680">
<rect width="1200" height="680" fill="#060609"/>
<rect x="50" y="50" width="333" height="580" fill="none" stroke="#1a1a2a" stroke-width="0.5"/>
<text x="216" y="36" font-family="monospace" font-size="11" fill="#aaa" text-anchor="middle" font-weight="bold">𝕆 FANO PROJECTION</text>
<text x="216" y="47" font-family="monospace" font-size="8" fill="#555" text-anchor="middle">channels e4-e7  ·  primes {11,13,17,19}</text>
<rect x="433" y="50" width="333" height="580" fill="none" stroke="#1a1a2a" stroke-width="0.5"/>
<text x="599" y="36" font-family="monospace" font-size="11" fill="#aaa" text-anchor="middle" font-weight="bold">𝕊 SEDENION PATH</text>
<text x="599" y="47" font-family="monospace" font-size="8" fill="#555" text-anchor="middle">all 16 channels  ·  primes {2,...,53}</text>
<rect x="816" y="50" width="333" height="580" fill="none" stroke="#1a1a2a" stroke-width="0.5"/>
<text x="982" y="36" font-family="monospace" font-size="11" fill="#aaa" text-anchor="middle" font-weight="bold">WOBBLE  Δ(t)</text>
<text x="982" y="47" font-family="monospace" font-size="8" fill="#555" text-anchor="middle">|sedenion − fano|  ·  ZD crossings = ★</text>
<path d="M 79.33 276.62 L 177.88 445.41 L 191.10 387.17 L 199.78 392.93 L 205.21 375.94 L 207.49 379.62 L 211.38 367.86 L 214.38 372.66 L 214.45 368.75 L 215.10 366.36 L 217.28 363.16 L 218.13 362.41 L 219.01 361.19 L 220.06 358.62 L 220.62 360.43 L 220.04 355.85 L 221.60 355.76 L 222.30 352.81 L 222.74 355.15 L 222.52 350.62 L 223.51 352.45 L 222.90 348.70 L 223.78 348.66 L 224.48 345.80 L 224.82 347.89 L 223.96 344.81 L 224.59 343.70 L 224.83 342.05 L 224.90 340.79 L 225.57 339.37 L 225.57 339.04 L 224.73 338.47 L 224.23 333.68 L 225.71 332.94 L 225.27 330.74 L 225.43 330.64 L 224.20 326.93 L 222.76 325.49 L 219.73 313.00 L 221.23 293.06 L 194.09 353.88 L 214.71 340.82 L 219.90 334.45 L 223.51 336.53 L 220.70 334.52 L 219.92 321.86 L 226.73 307.28 L 186.90 308.30 L 211.43 348.94 L 210.28 346.06 L 213.69 341.04 L 215.69 339.05 L 216.56 341.09 L 215.59 334.14 L 219.28 336.32 L 216.44 333.25 L 218.10 333.24 L 215.24 325.83 L 219.18 326.72 L 212.34 319.98 L 218.14 310.36 L 187.16 300.53 L 193.09 368.01 L 210.71 342.35 L 208.58 350.42 L 212.94 336.39 L 207.61 343.71 L 211.15 324.86 L 185.10 333.73 L 195.34 388.79 L 220.73 370.40 L 215.08 362.22 L 221.17 361.07 L 217.20 352.73 L 221.86 351.61 L 219.60 345.31 L 223.00 344.51 L 221.01 341.04 L 218.26 338.77 L 197.28 305.89 L 211.31 378.14 L 214.44 364.18 L 216.89 357.01 L 220.64 351.97 L 222.42 352.64 L 222.88 352.02 L 222.11 348.50 L 224.36 346.73 L 222.71 344.79 L 224.53 339.80 L 225.64 337.47 L 226.13 338.71 L 221.31 328.16 L 228.20 303.11 L 187.79 330.98 L 215.22 350.13 L 214.47 354.14 L 216.00 348.35 L 218.73 346.64 L 219.66 347.75 L 219.50 345.14 L 221.17 343.17 L 222.19 344.52 L 220.60 343.18 L 222.00 340.02 L 222.01 339.33 L 223.19 338.70 L 221.91 337.14 L 223.87 336.15 L 221.46 335.81 L 222.79 331.74 L 222.12 330.29 L 224.05 329.03 L 221.63 329.17 L 222.12 324.81 L 220.10 323.31 L 219.87 315.21 L 220.47 310.77 L 220.43 302.30 L 182.66 318.25 L 210.04 330.08 L 216.57 329.88 L 195.34 304.32 L 184.27 363.15 L 211.69 359.67 L 210.40 353.52 L 215.57 351.00 L 215.15 349.17 L 216.58 346.12 L 216.44 345.35 L 216.26 338.62 L 219.19 340.25 L 216.04 335.96 L 217.79 336.33 L 213.70 326.35 L 216.37 331.82 L 201.52 305.90 L 187.72 354.84 L 218.55 375.94 L 217.02 344.28 L 217.67 313.56 L 188.47 355.67 L 210.52 360.68 L 215.47 361.59 L 213.13 361.27 L 217.80 353.42 L 217.79 356.43 L 219.36 352.23 L 219.28 351.00 L 221.96 349.81 L 220.00 350.57 L 220.65 345.87 L 221.30 343.60 L 222.37 342.72 L 222.13 340.79 L 222.06 340.05 L 220.24 336.72 L 216.98 328.53 L 215.11 300.70 L 196.46 374.14 L 212.93 354.67 L 217.92 352.66 L 221.49 351.01 L 220.85 353.70 L 221.16 348.75 L 221.46 348.08 L 222.77 344.57 L 222.95 344.83 L 224.09 342.13 L 224.00 343.65 L 223.16 340.63 L 223.90 338.21 L 224.40 336.99 L 224.81 336.08 L 223.93 334.74 L 225.17 332.01 L 223.37 332.80 L 224.15 326.02 L 223.92 327.22 L 224.78 321.80 L 221.99 324.26 L 222.37 310.02 L 221.58 316.29 L 212.58 282.11 L 186.19 323.75 L 217.43 347.06 L 212.10 330.73 L 209.25 290.13 L 187.42 353.16 L 208.56 342.70 L 210.84 347.26 L 212.81 346.75 L 211.02 341.31 L 215.25 338.83 L 213.26 336.78 L 215.73 332.40 L 215.46 330.66 L 212.61 329.95 L 185.51 302.58 L 206.39 366.40 L 208.27 354.66 L 207.72 350.84 L 211.29 339.78 L 208.86 344.23 L 211.15 330.34 L 183.41 340.96 L 198.92 397.92 L 219.17 374.10 L 215.40 367.75 L 221.95 364.42 L 219.88 361.56 L 222.13 361.15 L 221.14 355.07 L 223.58 356.57 L 222.69 351.55 L 224.49 352.97 L 224.23 349.14 L 224.45 351.28 L 223.94 345.07 L 225.62 346.22 L 225.43 343.48 L 225.52 343.87 L 225.76 340.40 L 225.82 341.04 L 225.15 337.40 L 226.21 334.69 L 227.11 334.97 L 225.65 333.47 L 225.61 330.01 L 226.21 326.36 L 225.71 326.36 L 224.55 317.15 L 228.25 314.66 L 225.37 312.42 L 204.59 271.49 L 198.49 336.23 L 209.38 318.35 L 215.09 309.90 L 179.13 343.72 L 206.99 345.59 L 214.66 345.59 L 212.31 346.22 L 213.76 337.62 L 211.07 334.73 L 214.30 312.72 L 181.99 329.60 L 202.70 380.23 L 211.77 358.07 L 213.04 364.16 L 214.75 353.43 L 217.64 355.97 L 217.86 352.91 L 218.87 352.93 L 218.80 350.29 L 220.17 349.19 L 219.45 347.98 L 221.43 344.70 L 221.15 346.89 L 221.46 343.63 L 220.59 343.88 L 222.16 339.36 L 221.30 341.72 L 222.32 336.64 L 221.75 339.08 L 222.13 335.47 L 220.16 335.43 L 222.04 330.09 L 220.75 331.51 L 221.48 328.75 L 218.59 326.41 L 220.15 324.91 L 214.31 318.38 L 217.12 316.27 L 203.23 296.73 L 188.03 353.77 L 216.83 362.44 L 214.36 329.54 L 209.99 306.55 L 198.96 370.59 L 212.95 346.49 L 221.87 337.23 L 192.49 309.35 L 205.08 373.33 L 206.66 362.32 L 214.40 357.16 L 214.74 358.91 L 216.97 355.71 L 217.52 353.02 L 220.78 354.33 L 218.08 353.18 L 220.53 349.39 L 220.49 348.38 L 222.18 348.02 L 221.07 346.39 L 222.85 344.88 L 221.83 345.00 L 221.97 341.33 L 222.98 340.12 L 223.03 338.77 L 223.23 338.83 L 221.70 334.70 L 223.72 334.22 L 220.30 330.15 L 223.90 327.01 L 218.30 323.47 L 223.57 314.29 L 192.61 302.23 L 198.39 366.37 L 216.95 348.95 L 215.82 351.74 L 219.57 343.03 L 219.31 347.13 L 218.72 338.51 L 219.91 337.46 L 220.95 330.31 L 221.95 332.45 L 218.53 325.44 L 189.19 312.04 L 214.21 361.59 L 215.62 356.29 L 216.78 347.77 L 219.21 345.96 L 219.53 341.33 L 221.97 338.30 L 223.07 339.09 L 220.21 335.94 L 220.89 324.04 L 226.68 314.32 L 189.10 306.05 L 208.93 354.12 L 209.62 350.88 L 212.20 342.44 L 216.33 346.24 L 214.33 342.73 L 216.69 342.33 L 216.70 338.85 L 216.94 342.85 L 215.10 334.71 L 216.31 337.18 L 215.65 330.07 L 212.43 334.91 L 212.16 317.03 L 185.56 334.71 L 202.48 388.70 L 221.52 359.72 L 217.78 359.69 L 222.91 353.91 L 219.81 351.72 L 222.99 347.82 L 221.39 345.28 L 223.22 342.31 L 223.51 339.74 L 223.46 340.75 L 221.65 335.79 L 220.51 331.25 L 221.31 320.95 L 221.51 310.13 L 188.40 350.03 L 214.81 349.53 L 219.91 346.29 L 219.42 348.60 L 220.61 341.20 L 219.86 342.82 L 220.16 332.43 L 222.04 334.36 L 220.05 325.69 L 221.39 326.77 L 203.73 295.66 L 189.98 357.98 L 217.24 358.84 L 213.83 348.17 L 222.62 345.72 L 218.22 345.29 L 219.46 331.75 L 224.75 313.34 L 186.09 327.46 L 211.33 357.70 L 211.41 357.70 L 213.31 352.04 L 216.69 350.15 L 217.74 351.91 L 217.27 348.22 L 220.28 347.60 L 219.21 348.26 L 219.84 346.19 L 219.46 342.97 L 222.14 342.78 L 220.43 342.40 L 222.03 340.54 L 220.69 339.87 L 221.20 337.76 L 220.26 333.86 L 222.60 332.07 L 221.63 332.24 L 219.97 330.39 L 215.98 322.79 L 203.96 292.83 L 204.05 368.99 L 210.98 351.40 L 216.27 344.63 L 217.36 344.50 L 219.94 341.83 L 218.47 343.18 L 219.69 339.86 L 216.92 337.77 L 220.71 333.52 L 217.29 334.35 L 219.90 331.31 L 213.87 327.86 L 217.75 326.24 L 198.70 309.65 L 189.90 364.75 L 221.87 374.10 L 219.02 350.81 L 222.48 353.71 L 222.81 341.44 L 223.99 345.73 L 222.93 334.64 L 225.83 334.38 L 225.07 331.16 L 221.38 323.76 L 224.11 290.09 L 188.53 330.37 L 212.90 339.59 L 214.03 341.46 L 212.85 338.74 L 214.96 326.02 L 215.52 332.37 L 208.23 300.08 L 182.12 341.47 L 209.66 370.79 L 209.11 353.08 L 213.97 350.64 L 214.33 343.38 L 218.08 341.24 L 215.31 337.76 L 183.11 331.50 L 211.82 371.88 L 214.59 366.59 L 214.34 363.99 L 217.25 357.92 L 217.63 357.60 L 220.50 353.39 L 220.86 356.21 L 221.07 353.64 L 220.66 352.59 L 222.16 349.24 L 222.54 349.76 L 222.97 347.68 L 223.69 347.24 L 223.41 347.13 L 223.20 344.41 L 223.82 342.86 L 225.00 341.56 L 224.20 342.58 L 224.70 338.72 L 224.61 339.91 L 224.60 336.43 L 224.29 335.72 L 226.01 332.39 L 224.98 335.24 L 224.37 330.00 L 224.68 328.65 L 225.43 326.41 L 223.59 324.58 L 225.23 317.88 L 225.89 318.45 L 221.41 313.69 L 216.22 271.32 L 191.14 332.52 L 210.42 324.42 L 213.97 333.31 L 210.67 326.88 L 210.80 322.84 L 210.51 309.63 L 209.61 297.78 L 180.03 343.86 L 201.36 341.18 L 204.00 320.75 L 178.99 346.53 L 200.12 393.59 L 216.42 366.34 L 211.32 362.27 L 219.69 354.37 L 215.99 353.35 L 220.86 350.13 L 215.66 346.56 L 221.11 340.34 L 214.44 339.15 L 219.28 317.79 L 185.83 329.05 L 205.20 385.40 L 213.59 359.47 L 216.68 366.06 L 218.12 355.59 L 220.11 360.19 L 220.23 352.73 L 222.10 356.27 L 220.88 351.00 L 222.61 350.35 L 223.17 347.48 L 223.95 348.43 L 223.25 345.82 L 224.22 343.98 L 223.94 343.40 L 223.89 339.35 L 225.36 338.40 L 225.43 337.44 L 224.22 337.37 L 223.72 330.24 L 225.32 329.89 L 223.81 324.95 L 224.69 320.10 L 225.64 314.92 L 219.61 312.73 L 186.08 238.33 L 185.20 386.08 L 201.18 357.84 L 210.44 356.59 L 212.33 355.29 L 214.85 352.01 L 217.57 352.25 L 217.16 352.90 L 217.23 349.67 L 218.75 346.07 L 220.57 347.71 L 219.64 345.62 L 221.13 345.48 L 220.46 343.48 L 221.13 343.77 L 220.60 339.17 L 222.88 340.85 L 221.34 339.04 L 222.00 339.05 L 221.32 335.42 L 222.17 336.23 L 221.32 332.65 L 222.29 332.60 L 221.90 331.43 L 220.46 330.40 L 220.97 326.71 L 219.84 325.09 L 221.04 323.91 L 217.33 320.27 L 220.19 319.53 L 212.03 313.59 L 216.72 310.19 L 194.53 291.51 L 191.34 353.80 L 214.94 349.09 L 216.59 320.96 L 191.73 308.83 L 192.00 362.58 L 215.12 345.20 L 213.87 339.35 L 179.92 345.51 L 211.10 366.06 L 215.93 362.80 L 216.28 361.82 L 214.86 350.84 L 220.76 342.10 L 222.07 340.37 L 198.57 305.43 L 200.79 374.56 L 208.42 361.23 L 213.15 358.60 L 216.49 361.32 L 215.14 357.73 L 219.22 356.25 L 218.62 357.31 L 219.19 355.64 L 219.47 352.19 L 221.78 352.25 L 221.24 352.21 L 221.73 350.30 L 222.50 349.62 L 222.04 348.91 L 222.74 346.40 L 223.30 345.29 L 224.40 345.83 L 222.75 344.70 L 224.18 342.41 L 223.34 341.62 L 224.61 339.93 L 223.90 338.58 L 225.52 338.37 L 223.31 337.92 L 223.98 334.29 L 223.76 332.11 L 224.95 330.86 L 224.05 329.71 L 223.89 328.12 L 221.49 325.36 L 218.55 315.62 L 217.33 290.45 L 195.90 359.99 L 213.70 342.57 L 218.11 339.02 L 222.11 338.76 L 219.96 339.83 L 221.06 334.47 L 220.28 332.27 L 222.70 329.34 L 220.18 327.61 L 223.61 322.22 L 221.28 324.58 L 220.16 316.78 L 219.38 306.95 L 225.01 298.24 L 187.79 279.54 L 202.02 330.79 L 203.11 320.92 L 191.56 291.22 L 175.25 346.97 L 201.03 359.16 L 195.22 328.55 L 177.34 359.20 L 198.37 404.11 L 214.43 370.01 L 211.76 373.32 L 218.51 364.19 L 215.21 365.63 L 219.81 358.90 L 217.77 360.07 L 220.14 354.68 L 220.03 353.33 L 222.22 352.27 L 220.85 351.71 L 220.98 348.56 L 221.28 344.95 L 221.52 342.94 L 222.64 338.58 L 222.43 339.15 L 219.16 334.85 L 194.06 309.53 L 213.64 372.74 L 215.03 364.94 L 217.53 355.68 L 219.63 353.19 L 222.80 350.83 L 222.38 352.94 L 223.00 349.25 L 223.09 349.02 L 223.55 346.28 L 223.79 344.27 L 225.42 342.66 L 225.33 343.53 L 224.32 341.37 L 225.26 337.44 L 225.79 337.86 L 225.30 334.68 L 225.70 332.00 L 227.41 329.92 L 224.55 330.46 L 223.91 315.88 L 230.39 304.77 L 190.15 305.95 L 213.67 347.53 L 212.76 343.21 L 215.36 338.35 L 218.70 336.46 L 218.57 338.69 L 218.68 334.03 L 220.37 334.13 L 219.23 333.78 L 219.04 329.69 L 219.44 327.33 L 220.88 324.99 L 218.82 326.43 L 218.99 318.75 L 216.48 320.55 L 215.56 304.88 L 214.11 304.70 L 211.13 266.60 L 142.94 333.50 L 200.58 374.05 L 204.90 359.26 L 210.70 360.97 L 207.23 354.16 L 213.19 348.61 L 210.11 347.46 L 215.27 343.43 L 208.31 342.46 L 214.24 336.53 L 190.19 327.39 L 190.06 385.81 L 219.89 381.86 L 216.62 364.84 L 220.93 367.87 L 220.22 356.92 L 222.44 360.95 L 221.75 352.03 L 223.92 354.10 L 224.29 349.52 L 223.79 351.69 L 223.94 344.18 L 225.43 345.13 L 225.03 342.11 L 224.82 338.85 L 227.00 335.41 L 225.59 335.99 L 222.62 325.20 L 227.85 298.76 L 189.43 329.36 L 214.70 346.48 L 215.04 351.84 L 214.64 343.07 L 218.80 341.80 L 219.07 340.33 L 219.80 339.96 L 219.85 336.09 L 219.18 337.10 L 214.51 326.79 L 210.26 298.36 L 198.39 373.33 L 211.25 355.98 L 216.13 349.80 L 219.85 349.89 L 220.14 351.09 L 219.65 348.36 L 220.55 346.39 L 220.94 343.60 L 221.99 343.40 L 222.14 340.20 L 223.34 342.47 L 221.27 338.61 L 222.90 337.86 L 221.96 333.84 L 223.88 335.26 L 221.31 331.02 L 223.94 330.71 L 220.01 327.82 L 222.55 322.57 L 217.91 320.07 L 221.54 303.44 L 187.83 310.13 L 203.87 366.85 L 215.76 342.96 L 215.63 349.49 L 218.47 337.57 L 219.71 342.23 L 219.56 336.96 L 218.87 335.74 L 220.43 330.01 L 220.39 330.17 L 219.60 326.09 L 220.36 319.78 L 220.61 321.68 L 214.35 309.23 L 214.19 274.38 L 181.46 316.73 L 202.87 324.87 L 196.72 307.35 L 141.85 324.29 L 195.91 415.28 L 208.16 383.76 L 206.45 381.13 L 213.44 368.03 L 214.40 368.14 L 218.43 366.41 L 216.30 364.41 L 220.06 362.26 L 218.04 360.55 L 220.90 357.88 L 220.57 355.60 L 223.10 356.71 L 221.05 354.84 L 222.85 352.92 L 222.58 351.20 L 223.57 350.56 L 223.67 348.36 L 224.59 348.53 L 224.15 347.70 L 223.68 345.39 L 225.19 343.31 L 224.80 343.32 L 225.61 341.88 L 224.74 340.72 L 225.98 339.79 L 224.00 338.01 L 226.20 334.83 L 225.44 335.11 L 226.30 334.06 L 224.24 332.27 L 225.86 329.08 L 224.28 328.39 L 225.24 323.58 L 225.47 323.33 L 224.82 321.67 L 222.22 318.92 L 221.06 308.51 L 222.57 302.95 L 219.97 286.85 L 187.26 321.48 L 212.04 315.12 L 218.17 309.38 L 181.77 251.84 L 162.65 385.63 L 200.30 361.23 L 204.28 366.00 L 208.66 360.07 L 210.32 359.42 L 213.54 355.38 L 213.75 358.76 L 213.76 350.81 L 217.10 352.55 L 216.72 349.79 L 217.84 351.63 L 217.24 346.43 L 218.99 348.98 L 217.51 344.06 L 219.49 344.63 L 219.33 341.91 L 219.16 344.10 L 218.52 338.86 L 218.59 339.48 L 219.08 335.79 L 216.94 335.82 L 219.09 331.59 L 213.10 332.23 L 215.99 324.11 L 192.27 316.34 L 195.47 380.15 L 222.50 368.67 L 217.96 355.52 L 222.76 355.30 L 220.53 347.23 L 222.62 345.47 L 223.74 339.26 L 223.74 342.22 L 221.87 335.45 L 218.19 330.39 L 208.66 296.59 L 204.79 376.13 L 214.75 352.84 L 218.99 350.55 L 221.79 346.12 L 222.32 345.55 L 224.37 342.62 L 222.41 343.00 L 222.29 333.17 L 225.89 328.12 L 225.99 328.08 L 205.23 288.05 L 201.46 360.12 L 210.46 344.37 L 216.34 345.92 L 217.44 346.07 L 216.90 344.52 L 219.83 340.06 L 218.99 344.02 L 219.02 336.65 L 219.60 337.82 L 220.62 331.75 L 219.69 336.12 L 217.90 323.44 L 219.71 327.63 L 205.01 296.17 L 185.88 353.39 L 215.94 362.41 L 212.06 354.06 L 218.40 351.85 L 215.95 348.20 L 220.49 345.80 L 218.47 344.82 L 221.53 342.03 L 219.86 342.81 L 219.97 339.07 L 219.13 334.89 L 220.96 330.30 L 221.35 328.84 L 219.39 325.35 L 186.14 317.10 L 214.38 359.83 L 216.06 355.48 L 215.69 350.55 L 218.62 346.26 L 217.99 344.12 L 221.46 341.11 L 220.26 342.46 L 221.21 340.69 L 218.77 337.11 L 222.14 334.49 L 219.57 333.64 L 221.11 330.71 L 219.61 326.27 L 220.52 328.56 L 214.73 316.77 L 217.41 312.57 L 212.60 290.82 L 158.38 304.16 L 197.86 403.59 L 206.86 362.78 L 212.60 365.02 L 216.94 359.00 L 215.66 359.75 L 219.11 353.26 L 219.08 354.65 L 219.80 352.06 L 219.60 347.66 L 222.54 347.82 L 221.25 346.34 L 222.09 345.95 L 221.38 341.44 L 222.53 342.37 L 221.43 336.46 L 223.86 337.33 L 222.39 334.85 L 221.82 335.05 L 218.97 326.58 L 219.98 319.74 L 218.80 301.26 L 189.70 354.50 L 212.46 344.34 L 218.48 342.19 L 217.52 343.06 L 218.56 334.06 L 216.15 336.51 L 212.93 305.64 L 184.33 337.95 L 210.75 376.19 L 213.51 356.61 L 217.52 359.56 L 217.73 352.66 L 220.30 352.94 L 219.87 348.95 L 222.95 348.04 L 221.40 348.73 L 222.30 343.97 L 222.52 342.83 L 224.31 340.40 L 222.66 340.53 L 224.62 334.01 L 224.70 336.76 L 222.94 330.98 L 222.76 321.45 L 229.69 310.82 L 190.14 304.89 L 211.28 351.72 L 210.25 347.48 L 214.63 339.81 L 217.53 341.62 L 217.32 341.81 L 217.67 338.09 L 218.82 338.78 L 217.69 336.09 L 217.56 333.51 L 219.20 328.07 L 219.41 331.54 L 217.36 326.20 L 213.23 323.67 L 197.38 288.96 L 202.96 368.35 L 208.48 346.13 L 210.36 344.50 L 213.82 335.98 L 210.24 338.96 L 213.65 328.43 L 188.19 329.44 L 193.70 388.59 L 221.32 371.42 L 216.21 362.14 L 222.61 360.96 L 219.76 355.01 L 223.29 355.04 L 221.19 350.29 L 223.65 348.42 L 223.88 346.15 L 224.07 346.39 L 223.81 342.96 L 223.90 340.87 L 224.95 339.35 L 223.32 336.39 L 226.11 334.14 L 223.44 333.62 L 224.95 330.11 L 221.45 325.40 L 226.21 320.70 L 218.73 319.73 L 223.68 298.75 L 191.41 301.78 L 204.41 361.32 L 214.18 327.42 L 222.20 314.98 L 183.04 323.62 L 209.76 357.00 L 207.88 351.65 L 210.66 346.17 L 213.57 338.17 L 216.12 339.40 L 214.79 331.45 L 180.46 337.79 L 211.44 366.05 L 213.59 365.76 L 214.13 360.97 L 215.99 358.11 L 216.88 355.62 L 218.77 352.51 L 220.53 353.99 L 219.83 352.93 L 220.20 351.81 L 220.57 348.12 L 222.00 349.30 L 221.42 346.11 L 223.11 347.17 L 222.12 345.32 L 222.52 345.39 L 222.25 341.07 L 223.94 342.34 L 223.04 340.49 L 223.49 340.26 L 223.38 338.12 L 223.08 338.00 L 223.20 334.67 L 223.70 333.96 L 224.17 334.02 L 222.18 332.20 L 223.52 329.87 L 221.92 327.95 L 223.23 326.97 L 221.08 322.75 L 223.59 324.38 L 218.41 319.76 L 220.32 317.72 L 216.41 308.01 L 218.39 313.08 L 205.32 287.95 L 187.24 331.03 L 213.93 357.00 L 213.05 311.80 L 214.29 266.32 L 157.61 364.41 L 199.81 362.96 L 208.63 359.61 L 209.11 360.34 L 213.49 351.74 L 213.72 355.67 L 213.04 346.19 L 215.92 344.15 L 214.29 338.01 L 217.74 334.59 L 193.60 313.14 L 189.92 378.55 L 214.14 368.98 L 211.04 365.78 L 218.22 360.94 L 216.67 362.85 L 218.65 358.16 L 218.95 357.30 L 220.53 354.54 L 221.06 354.83 L 221.38 351.89 L 222.81 352.64 L 221.36 350.61 L 223.02 348.41 L 222.80 346.71 L 224.60 346.99 L 222.82 345.48 L 224.72 343.94 L 223.13 343.05 L 224.42 340.36 L 224.15 338.52 L 225.80 338.58 L 223.77 338.06 L 223.99 334.42 L 223.81 331.84 L 224.08 329.10 L 224.45 325.77 L 224.46 324.80 L 220.33 322.03 L 196.55 292.36 L 214.25 358.81 L 215.85 348.78 L 217.65 339.33 L 219.97 331.58 L 224.89 330.66 L 219.83 328.83 L 216.32 287.58 L 189.57 349.54 L 210.67 341.19 L 213.85 347.31 L 214.51 345.49 L 215.37 341.92 L 217.78 342.68 L 216.33 341.39 L 217.19 338.23 L 218.79 336.22 L 218.13 338.53 L 217.98 333.80 L 217.09 334.46 L 218.34 329.50 L 215.05 331.35 L 217.92 322.52 L 211.86 328.18 L 214.37 312.92 L 186.48 318.45 L 198.43 374.75 L 220.67 357.76 L 215.53 344.33 L 221.18 345.99 L 216.03 331.56 L 219.64 334.38 L 206.00 298.06 L 187.07 356.03 L 214.27 365.96 L 212.11 355.11 L 217.39 350.30 L 214.72 345.24 L 219.38 334.65 L 219.33 331.21 L 183.50 348.26 L 213.05 364.14 L 218.63 360.94 L 217.58 363.20 L 218.56 355.38 L 219.71 353.17 L 222.36 350.06 L 221.92 350.61 L 223.15 346.03 L 223.93 346.50 L 222.60 343.83 L 223.02 336.23 L 226.48 333.04 L 224.94 332.77 L 209.14 291.26 L 198.87 361.23 L 210.71 348.75 L 217.46 349.86 L 216.82 353.42 L 218.06 347.45 L 219.76 349.00 L 220.12 347.44 L 219.62 346.41 L 221.77 342.67 L 222.12 345.48 L 221.64 343.10 L 221.79 341.80 L 222.48 340.24 L 222.23 339.26 L 222.87 337.23 L 223.54 336.80 L 222.59 337.46 L 221.93 333.06 L 222.44 331.90 L 222.99 328.53 L 222.73 329.49 L 222.45 325.43 L 220.14 326.23 L 216.59 313.96 L 212.22 288.85 L 197.70 359.67 L 211.10 344.36 L 216.25 336.08 L 218.93 338.48 L 218.83 336.42 L 217.77 334.99 L 218.15 330.30 L 218.03 327.75 L 217.89 325.97 L 217.31 319.54 L 216.83 322.96 L 212.19 308.26 L 211.13 313.08 L 197.35 265.34 L 148.41 347.86 L 203.80 407.10 L 211.07 359.24 L 215.61 371.36 L 215.02 348.73 L 220.74 347.62 L 222.54 340.15 L 196.93 307.88 L 201.45 373.17 L 207.48 360.12 L 214.51 357.31 L 215.84 359.78 L 216.11 357.54 L 217.73 353.57 L 219.07 355.63 L 218.08 350.95 L 220.31 349.93 L 221.05 347.75 L 221.20 350.30 L 219.91 344.75 L 221.12 344.42 L 220.47 339.34 L 221.89 337.80 L 222.09 334.50 L 219.49 334.79 L 190.41 311.54 L 214.35 370.21 L 215.70 362.63 L 216.71 356.69 L 219.16 351.75 L 221.47 350.40 L 222.45 351.50 L 221.98 349.19 L 223.01 348.87 L 222.35 346.09 L 223.59 345.07 L 223.96 342.24" fill="none" stroke="#4080ff" stroke-width="1.0" opacity="1.0"/>
<path d="M 559.68 320.89 L 572.43 360.25 L 583.47 363.51 L 587.69 359.39 L 592.29 352.08 L 594.92 352.00 L 596.92 349.83 L 600.60 348.85 L 592.14 348.30 L 596.27 347.60 L 596.72 345.28 L 597.70 363.54 L 598.63 351.83 L 601.01 348.87 L 603.08 347.97 L 595.77 347.14 L 598.42 345.87 L 599.25 344.40 L 591.18 344.08 L 597.24 342.70 L 599.47 341.77 L 601.23 340.50 L 594.36 351.52 L 597.71 345.05 L 598.58 340.52 L 599.39 329.34 L 600.26 346.65 L 601.66 346.52 L 603.54 345.85 L 594.55 343.47 L 598.96 342.98 L 599.49 343.25 L 600.38 341.91 L 601.51 349.57 L 602.74 346.33 L 604.39 344.75 L 607.25 342.83 L 594.64 342.34 L 595.88 341.40 L 597.00 340.30 L 591.61 339.29 L 598.48 338.55 L 601.36 336.26 L 605.24 332.53 L 596.41 344.45 L 598.78 338.71 L 599.37 333.59 L 600.93 332.63 L 601.40 341.18 L 603.00 339.70 L 605.08 330.81 L 597.60 347.60 L 600.29 343.19 L 600.44 342.11 L 594.70 351.52 L 598.00 347.48 L 600.50 345.16 L 601.59 343.51 L 594.81 342.94 L 597.45 341.30 L 599.13 341.19 L 593.33 339.83 L 595.24 339.41 L 601.00 337.46 L 601.88 337.15 L 591.26 360.10 L 598.49 343.73 L 598.93 338.83 L 600.68 339.12 L 601.09 350.44 L 602.76 345.10 L 603.54 343.15 L 611.93 341.72 L 595.00 339.00 L 596.40 338.26 L 597.94 335.91 L 599.69 356.72 L 600.09 348.21 L 600.70 345.37 L 599.49 344.08 L 592.92 343.76 L 595.93 341.63 L 594.09 340.86 L 592.60 339.94 L 598.60 339.51 L 602.24 337.89 L 604.08 335.81 L 597.72 347.36 L 599.53 342.50 L 600.16 339.70 L 596.34 337.79 L 597.86 336.95 L 600.37 334.13 L 602.68 327.49 L 595.02 333.19 L 599.28 337.36 L 599.48 337.29 L 600.50 334.43 L 601.21 342.01 L 602.91 338.14 L 604.14 333.37 L 591.36 335.11 L 599.97 341.97 L 600.19 336.45 L 601.24 328.39 L 602.19 330.61 L 603.66 337.43 L 603.08 338.45 L 612.44 336.91 L 595.54 344.42 L 595.75 342.33 L 593.84 339.70 L 594.02 339.38 L 598.61 339.40 L 601.83 337.63 L 606.99 336.30 L 596.99 336.94 L 598.66 335.63 L 600.56 333.62 L 590.38 360.35 L 599.13 341.27 L 601.73 337.97 L 600.77 336.52 L 590.93 334.61 L 598.01 332.80 L 598.50 329.39 L 597.44 321.28 L 596.93 335.04 L 599.94 335.88 L 602.74 335.74 L 596.50 342.69 L 598.78 335.15 L 600.04 333.47 L 600.60 335.97 L 601.59 339.28 L 603.25 342.68 L 605.23 335.16 L 595.26 341.49 L 600.04 345.33 L 601.30 338.63 L 602.56 328.64 L 604.10 352.15 L 604.42 347.52 L 605.05 346.07 L 612.27 344.19 L 598.12 342.01 L 600.58 341.89 L 600.40 339.52 L 598.50 337.34 L 597.79 336.85 L 598.52 335.38 L 604.99 325.55 L 597.03 346.72 L 597.66 339.57 L 598.87 338.52 L 598.99 341.60 L 600.54 345.14 L 599.97 347.32 L 602.79 345.88 L 590.52 343.48 L 595.16 341.46 L 598.33 341.35 L 597.25 337.00 L 594.07 349.47 L 596.69 345.30 L 596.99 343.56 L 589.84 342.35 L 594.92 341.95 L 595.80 341.25 L 593.46 339.70 L 594.59 337.98 L 595.67 337.45 L 599.64 337.28 L 598.43 359.37 L 596.06 340.65 L 598.27 338.05 L 598.17 333.45 L 599.72 346.60 L 600.61 340.95 L 602.54 339.24 L 606.50 339.38 L 591.67 337.49 L 594.82 335.65 L 595.31 333.93 L 590.74 347.75 L 598.00 339.02 L 599.01 336.47 L 603.45 323.81 L 595.46 337.29 L 598.20 332.25 L 598.82 334.00 L 599.72 336.38 L 599.99 337.84 L 601.85 340.59 L 604.63 340.34 L 597.47 351.36 L 598.60 343.56 L 598.51 341.91 L 592.48 339.07 L 593.76 338.09 L 597.13 336.29 L 600.89 335.14 L 594.60 339.17 L 596.68 341.68 L 598.55 335.78 L 598.81 336.88 L 600.46 357.38 L 601.11 347.98 L 603.54 338.48 L 608.35 334.53 L 598.13 340.02 L 600.08 344.59 L 600.13 342.35 L 601.38 341.48 L 602.05 341.34 L 603.63 339.96 L 607.15 333.93 L 592.89 349.31 L 596.76 345.10 L 597.56 342.90 L 599.37 341.86 L 600.56 341.23 L 599.48 338.93 L 598.12 338.81 L 590.95 338.24 L 597.31 335.57 L 599.68 332.28 L 600.03 343.77 L 600.20 345.76 L 602.89 344.53 L 604.57 342.78 L 596.51 339.52 L 599.48 337.71 L 599.81 337.55 L 601.86 327.14 L 595.29 343.81 L 599.56 340.01 L 601.95 339.10 L 582.93 360.97 L 595.36 346.28 L 597.37 344.06 L 597.70 342.78 L 599.34 341.90 L 599.11 340.73 L 601.73 339.82 L 605.34 338.64 L 593.40 338.40 L 596.86 337.62 L 593.26 335.92 L 593.50 345.27 L 600.00 340.54 L 602.42 336.16 L 607.61 324.39 L 592.69 341.86 L 596.69 341.37 L 598.13 340.83 L 600.37 338.47 L 600.65 338.01 L 602.83 337.81 L 604.34 336.60 L 597.33 344.50 L 600.30 340.56 L 600.52 339.52 L 601.84 338.32 L 602.22 334.37 L 604.01 332.30 L 605.59 334.19 L 597.35 339.65 L 600.95 342.66 L 601.32 340.61 L 604.33 334.75 L 597.68 343.47 L 601.25 341.40 L 603.48 335.57 L 591.90 344.36 L 598.98 345.35 L 598.41 339.52 L 597.98 333.89 L 596.29 346.08 L 600.87 339.69 L 602.99 338.14 L 618.36 337.44 L 599.83 352.70 L 600.78 347.15 L 602.38 345.22 L 602.46 345.88 L 603.59 343.95 L 605.00 342.34 L 612.95 342.34 L 595.81 341.34 L 598.80 339.64 L 600.45 338.54 L 602.40 365.01 L 604.39 345.20 L 605.68 342.99 L 606.00 341.93 L 595.29 340.26 L 595.52 338.38 L 596.99 338.15 L 599.57 336.28 L 600.43 334.67 L 601.90 334.08 L 602.77 331.96 L 595.51 349.86 L 597.92 343.78 L 599.90 341.19 L 595.86 338.69 L 589.61 335.88 L 598.15 332.50 L 600.10 330.23 L 588.27 333.44 L 596.02 338.72 L 596.96 335.85 L 598.47 327.69 L 599.57 341.31 L 601.09 342.48 L 600.73 342.62 L 605.43 341.10 L 595.84 340.56 L 597.24 339.48 L 598.08 337.10 L 598.69 337.57 L 600.71 337.09 L 601.79 334.90 L 609.60 333.88 L 592.68 340.59 L 595.00 333.55 L 597.08 328.82 L 596.68 327.61 L 598.82 346.75 L 599.06 344.30 L 597.23 341.32 L 590.44 341.79 L 595.76 340.66 L 594.67 339.33 L 592.85 336.62 L 596.69 347.22 L 598.82 342.76 L 600.50 341.96 L 590.68 339.49 L 592.37 339.99 L 596.45 335.60 L 600.36 338.96 L 594.41 349.53 L 598.35 342.97 L 600.43 341.78 L 591.12 367.25 L 595.92 347.37 L 597.75 344.12 L 599.00 341.68 L 599.46 340.97 L 600.99 339.14 L 601.90 335.54 L 610.31 325.82 L 597.45 342.17 L 598.45 342.29 L 599.37 341.49 L 590.83 350.76 L 599.39 345.39 L 602.38 343.71 L 608.70 342.09 L 592.49 340.24 L 595.60 339.78 L 597.44 338.79 L 598.66 338.00 L 599.27 337.24 L 600.76 336.01 L 600.27 333.04 L 590.04 346.13 L 597.07 340.44 L 597.57 337.92 L 599.50 336.28 L 600.60 334.47 L 601.84 330.77 L 604.50 324.82 L 598.24 328.31 L 598.75 335.23 L 601.01 333.66 L 602.97 321.52 L 597.28 343.48 L 600.08 337.62 L 602.78 336.69 L 600.63 337.96 L 597.32 341.50 L 599.46 343.55 L 600.11 343.35 L 601.61 341.84 L 602.02 339.89 L 603.74 337.91 L 608.15 332.48 L 598.74 346.63 L 600.26 343.36 L 601.08 342.16 L 601.68 339.62 L 602.16 337.46 L 603.17 337.09 L 604.24 337.81 L 589.49 334.33 L 594.76 331.22 L 597.39 331.71 L 599.17 356.87 L 600.30 345.35 L 601.68 345.05 L 604.47 338.04 L 596.92 348.86 L 599.03 343.38 L 599.78 342.40 L 600.93 340.67 L 601.61 338.56 L 602.30 338.13 L 605.02 333.11 L 596.52 361.54 L 598.87 352.85 L 599.93 345.40 L 596.57 343.99 L 592.31 341.86 L 599.98 340.07 L 602.20 331.04 L 608.44 328.25 L 597.58 333.13 L 599.39 336.18 L 600.16 326.86 L 601.76 348.19 L 601.85 345.65 L 604.34 345.10 L 606.22 342.21 L 598.32 341.00 L 600.42 339.95 L 598.95 337.45 L 593.60 343.13 L 600.48 345.87 L 603.02 343.88 L 606.73 342.02 L 592.44 350.59 L 597.83 346.78 L 597.70 344.67 L 590.46 343.76 L 599.38 343.55 L 601.17 341.86 L 602.47 341.21 L 596.28 340.65 L 600.99 339.73 L 600.72 338.23 L 598.81 334.34 L 597.40 346.99 L 596.53 343.11 L 595.45 341.65 L 586.23 340.56 L 594.26 338.93 L 598.44 337.48 L 599.67 337.32 L 594.81 336.49 L 598.57 334.05 L 600.98 330.19 L 612.90 336.75 L 596.13 344.54 L 598.23 343.70 L 599.46 340.20 L 599.93 337.86 L 600.95 337.55 L 602.89 337.81 L 606.46 335.28 L 597.97 332.15 L 599.67 329.30 L 600.18 327.62 L 601.24 353.67 L 602.30 343.10 L 604.16 342.72 L 606.15 330.93 L 593.24 343.45 L 597.76 340.16 L 597.90 342.02 L 599.08 341.00 L 599.44 339.83 L 601.17 337.80 L 602.54 337.71 L 586.36 344.33 L 596.40 341.58 L 598.23 333.67 L 600.07 326.96 L 600.53 354.67 L 601.71 348.58 L 602.41 348.45 L 591.53 345.33 L 599.33 344.43 L 600.50 343.62 L 600.40 341.44 L 596.66 352.48 L 598.52 347.54 L 600.11 345.52 L 607.85 343.83 L 593.15 343.68 L 595.86 342.32 L 598.07 341.35 L 598.00 340.01 L 600.16 339.67 L 599.27 338.65 L 600.20 337.15 L 593.18 345.11 L 598.97 341.75 L 599.13 340.33 L 600.46 338.80 L 601.69 336.51 L 602.91 335.56 L 606.60 329.39 L 594.58 344.29 L 596.31 338.68 L 595.74 338.30 L 594.26 340.00 L 594.68 343.06 L 597.11 340.76 L 600.97 338.96 L 594.66 336.32 L 597.12 334.86 L 596.80 334.31 L 592.97 322.28 L 596.54 339.79 L 599.28 335.63 L 601.47 333.95 L 589.85 360.98 L 598.65 341.75 L 599.42 335.19 L 600.55 328.20 L 596.43 328.17 L 599.25 334.74 L 600.72 337.44 L 613.49 334.10 L 597.84 331.65 L 598.58 331.95 L 600.05 331.24 L 600.23 349.24 L 601.73 341.16 L 602.76 336.97 L 608.71 340.28 L 599.04 346.10 L 599.65 347.79 L 600.59 343.61 L 601.45 341.52 L 603.06 340.69 L 603.91 340.25 L 606.56 336.99 L 594.58 350.25 L 596.80 343.48 L 598.55 342.13 L 599.18 341.00 L 600.52 338.89 L 601.62 336.49 L 603.58 333.61 L 597.24 346.54 L 597.31 345.21 L 599.38 339.99 L 592.97 341.36 L 594.79 344.74 L 600.45 340.27 L 600.83 336.30 L 583.28 336.85 L 596.15 343.49 L 596.21 342.42 L 592.78 339.56 L 589.02 337.85 L 595.39 335.96 L 599.87 335.14 L 608.23 321.63 L 595.90 351.02 L 597.90 344.19 L 599.23 341.75 L 599.83 342.09 L 600.95 341.48 L 602.88 339.96 L 607.03 337.74 L 598.59 335.07 L 599.47 332.31 L 600.41 332.64 L 601.29 359.84 L 602.65 344.91 L 603.59 344.98 L 606.02 345.11 L 593.09 343.05 L 596.23 340.08 L 596.41 335.55 L 592.74 326.34 L 597.61 342.93 L 601.99 343.99 L 604.44 342.79 L 598.90 353.88 L 599.94 346.20 L 600.57 344.94 L 601.83 343.48 L 603.95 342.29 L 605.50 341.91 L 606.65 340.22 L 601.54 339.14 L 595.03 338.81 L 595.31 338.26 L 595.78 335.45 L 588.12 348.65 L 595.08 342.73 L 598.58 340.32 L 604.01 338.32 L 595.33 337.82 L 597.84 336.55 L 597.85 335.42 L 599.38 333.78 L 600.28 331.97 L 602.35 329.82 L 605.30 322.25 L 596.99 344.97 L 598.57 335.93 L 599.61 334.40 L 600.99 328.20 L 601.34 341.67 L 602.48 338.24 L 600.47 337.10 L 584.60 334.19 L 594.44 334.92 L 595.65 329.76 L 598.39 330.35 L 599.29 351.73 L 601.09 339.96 L 603.01 338.92 L 596.16 340.00 L 597.98 344.57 L 599.80 345.07 L 600.42 342.56 L 601.16 340.42 L 601.95 337.47 L 604.44 331.73 L 611.36 345.34 L 598.88 338.56 L 600.18 341.43 L 599.91 337.47 L 596.23 348.95 L 598.59 345.76 L 600.75 343.56 L 597.25 342.49 L 594.14 341.93 L 596.97 341.56 L 597.92 339.52 L 599.73 359.55 L 600.72 346.70 L 602.99 343.99 L 604.78 342.92 L 596.75 342.63 L 599.59 340.81 L 600.29 339.16 L 601.53 339.31 L 602.34 338.97 L 603.30 337.33 L 604.33 335.79 L 590.32 346.42 L 596.42 340.57 L 597.96 338.18 L 599.32 336.76 L 600.42 334.75 L 601.91 329.96 L 602.70 326.03 L 593.29 331.27 L 598.32 344.06 L 599.37 342.23 L 599.91 339.00 L 599.42 347.75 L 601.55 344.49 L 599.69 342.43 L 609.23 340.88 L 595.63 338.56 L 599.16 335.86 L 597.17 337.61 L 593.63 343.46 L 597.52 347.03 L 597.21 344.35 L 597.93 338.95 L 589.67 349.55 L 594.90 346.51 L 596.89 344.24 L 580.66 343.32 L 595.72 341.14 L 597.31 340.48 L 598.10 339.42 L 588.43 338.63 L 592.44 335.33 L 595.15 333.03 L 598.57 334.04 L 599.49 345.88 L 601.22 343.61 L 601.26 340.18 L 586.70 351.62 L 594.86 349.89 L 597.00 345.99 L 598.63 345.34 L 599.03 343.00 L 600.98 343.20 L 602.22 339.83 L 590.60 365.31 L 599.00 347.73 L 599.31 345.72 L 600.30 342.22 L 601.11 341.59 L 602.64 340.88 L 604.00 339.05 L 618.44 337.25 L 599.95 337.42 L 600.02 334.21 L 601.07 327.10 L 594.17 342.77 L 599.55 342.92 L 601.41 340.28 L 607.20 327.80 L 598.06 344.73 L 599.21 343.57 L 600.42 343.67 L 600.86 341.91 L 601.62 340.87 L 601.59 340.10 L 603.52 338.42 L 592.38 349.92 L 597.21 344.83 L 599.54 343.03 L 601.44 341.86 L 602.43 340.61 L 603.16 339.96 L 604.64 338.48 L 588.76 337.42 L 596.53 337.36 L 598.88 336.56 L 600.46 334.45 L 600.68 341.77 L 602.36 339.13 L 603.69 335.98 L 592.29 334.21 L 599.57 333.27 L 600.32 328.47 L 601.27 316.42 L 602.43 333.88 L 602.32 335.70 L 604.18 337.59 L 609.00 334.79 L 597.85 342.86 L 600.53 340.69 L 600.31 338.96 L 589.00 337.23 L 593.20 337.12 L 595.68 336.27 L 603.32 334.92 L 594.05 333.88 L 595.65 332.56 L 593.04 330.94 L 590.91 357.09 L 596.99 337.94 L 600.49 332.37 L 602.85 322.98 L 596.56 333.61 L 597.33 334.31 L 598.46 331.04 L 591.20 337.29 L 598.32 342.55 L 599.60 335.18 L 603.00 335.23 L 586.33 352.99 L 594.14 347.08 L 597.04 342.98 L 598.18 340.03 L 599.55 336.89 L 600.20 334.50 L 602.58 333.65 L 594.30 335.50 L 598.26 339.43 L 599.46 340.93 L 599.65 339.07 L 600.57 351.25 L 602.07 344.52 L 603.65 341.51 L 611.00 340.35 L 598.63 337.46 L 599.49 334.25 L 600.66 333.65 L 590.79 337.69 L 598.93 340.79 L 600.16 341.81 L 604.82 342.00 L 596.83 346.11 L 597.31 340.19 L 595.16 337.16 L 593.71 336.37 L 597.07 344.97 L 601.21 343.76 L 604.91 341.67 L 597.20 340.63 L 598.39 340.11 L 600.38 339.05 L 600.07 332.21 L 600.33 345.32 L 601.67 343.20 L 604.90 341.42 L 577.59 337.11 L 591.73 335.71 L 597.03 335.41 L 591.83 325.04 L 592.83 339.42 L 598.68 333.98 L 600.84 335.22 L 601.26 363.02 L 596.91 351.80 L 599.15 350.14 L 599.12 345.63 L 600.58 342.46 L 601.62 341.85 L 603.94 338.70 L 607.85 328.13 L 598.10 343.40 L 600.20 344.18 L 601.04 343.35 L 590.67 357.97 L 599.06 347.09 L 601.69 346.05 L 604.56 344.36 L 596.75 343.43 L 598.84 341.46 L 600.00 341.23 L 600.74 339.26 L 601.85 338.88 L 602.50 336.76 L 604.83 334.12 L 597.87 358.87 L 599.32 351.42 L 600.65 346.72 L 600.41 345.09 L 600.72 342.99 L 602.22 342.90 L 601.40 339.55 L 578.84 338.43 L 593.57 337.74 L 596.46 335.85 L 594.09 325.39 L 595.74 350.81 L 598.40 342.61 L 601.68 335.98 L 610.45 331.99 L 597.78 336.12 L 600.01 340.99 L 600.30 340.40 L 601.01 336.90 L 601.98 335.97 L 604.26 335.73 L 608.12 320.82 L 598.98 352.62 L 599.74 345.80 L 598.68 344.48 L 585.23 344.13 L 593.79 342.99 L 598.22 341.59 L 601.50 341.72 L 595.15 340.50 L 597.78 339.35 L 598.22 339.03 L 599.49 351.84 L 599.60 342.28 L 602.20 340.11 L 600.29 337.05 L 587.83 349.27 L 597.81 344.30 L 597.85 342.48 L 600.59 341.98 L 600.37 341.07 L 602.59 340.19 L 604.59 338.65 L 581.71 360.85 L 596.12 345.83 L 597.94 343.94 L 598.61 342.22 L 599.64 341.23 L 601.41 339.91 L 602.83 339.33 L 606.87 338.56 L 596.61 338.34 L 598.43 336.72 L 599.13 336.13 L 600.58 345.39 L 601.97 340.47 L 603.95 337.86 L 607.95 337.22 L 599.15 335.50 L 600.63 332.24 L 602.06 330.72 L 590.34 335.00 L 601.75 338.55 L 603.55 335.13 L 602.95 333.87 L 592.74 342.24 L 593.82 337.22 L 594.76 330.30 L 597.30 331.27 L 599.14 353.94 L 598.72 344.57 L 596.16 344.09 L 587.60 342.18 L 595.29 341.95 L 598.03 339.96 L 598.96 338.21 L 598.51 347.41 L 601.63 343.50 L 603.86 341.89 L 577.37 341.15 L 594.90 339.98 L 596.18 338.08 L 597.71 337.33 L 598.13 336.51 L 599.58 334.78 L 600.96 330.79 L 614.72 328.07 L 595.46 345.06 L 596.27 343.90 L 592.47 341.51 L 584.12 340.04 L 597.04 338.98 L 600.66 338.37 L 604.79 337.07 L 596.65 336.43 L 596.89 335.25 L 598.59 333.16 L 579.26 359.34 L 595.26 341.07 L 597.99 338.75 L 602.06 335.40 L 594.56 332.99 L 597.32 333.01 L 598.01 333.26 L 599.78 330.24 L 600.35 326.37 L 601.74 323.53 L 603.70 323.88 L 596.46 334.87 L 599.37 333.01 L 600.14 330.25 L 600.73 322.30 L 601.78 343.31 L 603.30 341.14 L 605.46 336.41 L 580.47 331.80 L 596.70 342.79 L 598.15 336.82 L 599.31 327.04 L 600.42 342.27 L 601.86 344.79 L 603.00 345.16 L 614.74 342.03 L 599.09 340.43 L 599.31 340.46 L 601.01 338.80 L 601.47 338.65 L 602.69 337.84 L 602.07 337.17 L 603.22 334.95 L 595.87 340.09 L 597.72 334.31 L 600.93 333.83 L 589.17 334.52 L 599.40 337.83 L 600.62 337.30 L 604.59 333.18 L 597.31 360.64 L 598.48 350.67 L 600.15 346.67 L 600.97 344.01 L 601.68 353.54 L 602.55 351.12 L 605.42 349.02 L 598.66 347.55 L 599.81 345.16 L 601.02 345.35 L 601.39 344.27 L 602.36 343.75 L 603.68 342.49 L 606.17 341.56 L 586.14 365.85 L 596.17 347.09 L 598.59 344.83 L 598.58 343.38 L 600.55 341.79 L 600.45 340.25 L 602.92 338.52 L 602.45 337.80 L 593.66 336.48 L 598.05 331.98 L 599.00 326.30 L 599.96 351.88 L 601.57 352.12 L 602.01 348.47 L 606.31 345.97 L 597.61 345.77 L 599.07 345.41 L 600.64 343.24 L 578.83 342.74 L 596.05 342.39 L 597.73 341.42 L 595.80 339.18 L 589.26 352.78 L 596.14 346.43 L 598.34 344.21 L 598.26 343.31 L 600.80 342.56 L 600.65 341.34 L 603.39 340.34 L 597.69 339.82 L 598.40 338.66 L 597.79 338.00 L 594.22 338.24 L 596.44 343.77 L 601.24 338.67 L 605.79 335.59 L 594.03 332.96 L 594.84 343.21 L 597.80 342.13 L 599.41 340.63 L 600.91 339.34 L 601.65 339.02 L 601.61 337.18 L 602.53 331.71 L 592.64 345.82 L 595.78 342.55 L 598.34 340.21 L 600.49 338.47 L 601.63 338.00 L 602.98 336.71 L 605.23 335.78 L 597.64 333.46 L 600.78 334.08 L 601.58 328.06 L 592.59 355.68 L 598.49 348.40 L 599.59 338.73 L 601.96 330.55 L 589.82 337.67 L 598.44 339.64 L 599.78 336.96 L 598.16 325.40 L 596.36 341.04 L 596.64 342.11 L 599.66 340.26 L 593.92 356.91 L 595.73 345.92 L 597.72 343.10 L 592.40 340.35 L 593.49 340.13 L 600.06 338.37 L 601.20 330.56 L 601.43 327.51 L 592.94 333.39 L 595.93 338.61 L 596.74 335.88 L 598.43 345.93 L 599.55 342.39 L 601.71 340.86 L 605.01 338.10 L 596.34 337.89 L 598.36 337.40 L 599.06 335.64 L 600.84 334.02 L 601.11 333.67 L 602.78 332.21 L 604.09 323.64 L 597.20 348.40 L 600.00 340.68 L 600.40 340.46 L 593.20 339.34 L 597.34 335.12 L 599.69 332.50 L 601.72 335.90 L 594.25 340.42 L 597.88 342.95 L 596.99 341.49 L 592.35 335.29 L 596.98 345.42 L 598.64 342.81 L 601.39 340.62 L 590.65 337.36 L 597.29 336.13 L 597.20 335.46 L 593.46 324.22 L 595.16 337.27 L 601.71 335.42 L 602.81 337.61 L 609.29 344.83 L 595.11 336.05 L 596.41 332.16 L 598.43 330.37 L 599.55 346.68 L 600.82 346.54 L 602.74 346.69 L 606.66 344.38 L 597.58 343.01 L 599.56 340.10 L 600.00 339.63 L 601.51 363.77 L 601.79 347.78 L 603.53 341.45 L 605.29 341.18 L 597.83 353.73 L 600.54 348.91 L 600.63 346.28 L 595.19 345.09 L 597.39 343.54 L 599.81 343.09 L 598.91 342.01 L 586.48 350.50 L 597.11 344.65 L 596.61 343.54 L 598.51 342.25 L 598.81 340.58 L 601.51 337.01 L 602.00 335.84 L 580.10 338.79 L 596.67 344.05 L 597.57 341.53 L 598.33 338.65 L 599.77 350.24 L 601.34 345.55 L 598.77 343.42 L 605.85 341.99 L 590.29 340.61 L 595.25 339.28 L 598.19 338.19 L 598.64 336.52 L 600.46 335.49 L 602.35 334.10 L 607.40 322.63 L 598.17 348.61 L 599.23 342.28 L 600.74 341.35 L 601.11 341.29 L 602.37 339.23 L 603.62 338.16 L 606.67 337.07 L 599.07 335.61 L 600.78 333.72 L 601.43 331.30 L 597.92 323.80 L 598.66 344.42 L 600.64 342.87 L 603.75 340.71 L 596.43 338.66 L 599.53 338.82 L 599.97 338.04 L 600.59 334.08 L 601.60 331.67 L 603.11 330.01 L 604.47 328.10 L 592.64 357.15 L 599.05 342.79 L 599.07 338.84 L 598.81 332.54 L 595.57 332.84 L 600.91 338.72 L 602.14 338.63 L 611.39 336.48 L 594.39 337.28 L 596.16 338.13 L 598.36 335.45 L 598.86 343.78 L 600.47 339.34 L 600.10 335.25 L 600.33 324.60 L 593.87 340.94 L 598.13 339.08 L 598.52 334.45 L 592.03 344.73 L 599.85 347.08 L 601.08 340.53 L 606.47 340.73 L 598.62 350.82 L 599.61 343.32 L 601.08 340.74 L 599.92 331.91 L 598.42 347.26 L 600.52 343.65 L 604.15 342.87 L 598.90 342.76 L 599.53 341.04 L 600.96 340.49 L 601.50 341.29 L 603.48 346.31 L 605.18 343.27 L 606.41 341.56 L 596.75 339.85 L 595.17 338.21 L 594.35 337.98 L 594.36 332.42 L 595.17 346.61 L 595.92 341.32 L 597.58 339.99 L 596.72 334.84 L 589.57 347.40 L 592.65 344.23 L 594.46 343.01 L 596.03 340.87 L 598.26 339.20 L 600.41 338.96 L 604.52 338.98 L 595.59 336.46 L 596.97 332.89 L 598.72 333.42 L 599.65 362.50" fill="none" stroke="#ff5060" stroke-width="1.0" opacity="1.0"/>
<path d="M 462.33 276.62 L 560.88 445.41 L 574.10 387.17 L 582.78 392.93 L 588.21 375.94 L 590.49 379.62 L 594.38 367.86 L 597.38 372.66 L 597.45 368.75 L 598.10 366.36 L 600.28 363.16 L 601.13 362.41 L 602.01 361.19 L 603.06 358.62 L 603.62 360.43 L 603.04 355.85 L 604.60 355.76 L 605.30 352.81 L 605.74 355.15 L 605.52 350.62 L 606.51 352.45 L 605.90 348.70 L 606.78 348.66 L 607.48 345.80 L 607.82 347.89 L 606.96 344.81 L 607.59 343.70 L 607.83 342.05 L 607.90 340.79 L 608.57 339.37 L 608.57 339.04 L 607.73 338.47 L 607.23 333.68 L 608.71 332.94 L 608.27 330.74 L 608.43 330.64 L 607.20 326.93 L 605.76 325.49 L 602.73 313.00 L 604.23 293.06 L 577.09 353.88 L 597.71 340.82 L 602.90 334.45 L 606.51 336.53 L 603.70 334.52 L 602.92 321.86 L 609.73 307.28 L 569.90 308.30 L 594.43 348.94 L 593.28 346.06 L 596.69 341.04 L 598.69 339.05 L 599.56 341.09 L 598.59 334.14 L 602.28 336.32 L 599.44 333.25 L 601.10 333.24 L 598.24 325.83 L 602.18 326.72 L 595.34 319.98 L 601.14 310.36 L 570.16 300.53 L 576.09 368.01 L 593.71 342.35 L 591.58 350.42 L 595.94 336.39 L 590.61 343.71 L 594.15 324.86 L 568.10 333.73 L 578.34 388.79 L 603.73 370.40 L 598.08 362.22 L 604.17 361.07 L 600.20 352.73 L 604.86 351.61 L 602.60 345.31 L 606.00 344.51 L 604.01 341.04 L 601.26 338.77 L 580.28 305.89 L 594.31 378.14 L 597.44 364.18 L 599.89 357.01 L 603.64 351.97 L 605.42 352.64 L 605.88 352.02 L 605.11 348.50 L 607.36 346.73 L 605.71 344.79 L 607.53 339.80 L 608.64 337.47 L 609.13 338.71 L 604.31 328.16 L 611.20 303.11 L 570.79 330.98 L 598.22 350.13 L 597.47 354.14 L 599.00 348.35 L 601.73 346.64 L 602.66 347.75 L 602.50 345.14 L 604.17 343.17 L 605.19 344.52 L 603.60 343.18 L 605.00 340.02 L 605.01 339.33 L 606.19 338.70 L 604.91 337.14 L 606.87 336.15 L 604.46 335.81 L 605.79 331.74 L 605.12 330.29 L 607.05 329.03 L 604.63 329.17 L 605.12 324.81 L 603.10 323.31 L 602.87 315.21 L 603.47 310.77 L 603.43 302.30 L 565.66 318.25 L 593.04 330.08 L 599.57 329.88 L 578.34 304.32 L 567.27 363.15 L 594.69 359.67 L 593.40 353.52 L 598.57 351.00 L 598.15 349.17 L 599.58 346.12 L 599.44 345.35 L 599.26 338.62 L 602.19 340.25 L 599.04 335.96 L 600.79 336.33 L 596.70 326.35 L 599.37 331.82 L 584.52 305.90 L 570.72 354.84 L 601.55 375.94 L 600.02 344.28 L 600.67 313.56 L 571.47 355.67 L 593.52 360.68 L 598.47 361.59 L 596.13 361.27 L 600.80 353.42 L 600.79 356.43 L 602.36 352.23 L 602.28 351.00 L 604.96 349.81 L 603.00 350.57 L 603.65 345.87 L 604.30 343.60 L 605.37 342.72 L 605.13 340.79 L 605.06 340.05 L 603.24 336.72 L 599.98 328.53 L 598.11 300.70 L 579.46 374.14 L 595.93 354.67 L 600.92 352.66 L 604.49 351.01 L 603.85 353.70 L 604.16 348.75 L 604.46 348.08 L 605.77 344.57 L 605.95 344.83 L 607.09 342.13 L 607.00 343.65 L 606.16 340.63 L 606.90 338.21 L 607.40 336.99 L 607.81 336.08 L 606.93 334.74 L 608.17 332.01 L 606.37 332.80 L 607.15 326.02 L 606.92 327.22 L 607.78 321.80 L 604.99 324.26 L 605.37 310.02 L 604.58 316.29 L 595.58 282.11 L 569.19 323.75 L 600.43 347.06 L 595.10 330.73 L 592.25 290.13 L 570.42 353.16 L 591.56 342.70 L 593.84 347.26 L 595.81 346.75 L 594.02 341.31 L 598.25 338.83 L 596.26 336.78 L 598.73 332.40 L 598.46 330.66 L 595.61 329.95 L 568.51 302.58 L 589.39 366.40 L 591.27 354.66 L 590.72 350.84 L 594.29 339.78 L 591.86 344.23 L 594.15 330.34 L 566.41 340.96 L 581.92 397.92 L 602.17 374.10 L 598.40 367.75 L 604.95 364.42 L 602.88 361.56 L 605.13 361.15 L 604.14 355.07 L 606.58 356.57 L 605.69 351.55 L 607.49 352.97 L 607.23 349.14 L 607.45 351.28 L 606.94 345.07 L 608.62 346.22 L 608.43 343.48 L 608.52 343.87 L 608.76 340.40 L 608.82 341.04 L 608.15 337.40 L 609.21 334.69 L 610.11 334.97 L 608.65 333.47 L 608.61 330.01 L 609.21 326.36 L 608.71 326.36 L 607.55 317.15 L 611.25 314.66 L 608.37 312.42 L 587.59 271.49 L 581.49 336.23 L 592.38 318.35 L 598.09 309.90 L 562.13 343.72 L 589.99 345.59 L 597.66 345.59 L 595.31 346.22 L 596.76 337.62 L 594.07 334.73 L 597.30 312.72 L 564.99 329.60 L 585.70 380.23 L 594.77 358.07 L 596.04 364.16 L 597.75 353.43 L 600.64 355.97 L 600.86 352.91 L 601.87 352.93 L 601.80 350.29 L 603.17 349.19 L 602.45 347.98 L 604.43 344.70 L 604.15 346.89 L 604.46 343.63 L 603.59 343.88 L 605.16 339.36 L 604.30 341.72 L 605.32 336.64 L 604.75 339.08 L 605.13 335.47 L 603.16 335.43 L 605.04 330.09 L 603.75 331.51 L 604.48 328.75 L 601.59 326.41 L 603.15 324.91 L 597.31 318.38 L 600.12 316.27 L 586.23 296.73 L 571.03 353.77 L 599.83 362.44 L 597.36 329.54 L 592.99 306.55 L 581.96 370.59 L 595.95 346.49 L 604.87 337.23 L 575.49 309.35 L 588.08 373.33 L 589.66 362.32 L 597.40 357.16 L 597.74 358.91 L 599.97 355.71 L 600.52 353.02 L 603.78 354.33 L 601.08 353.18 L 603.53 349.39 L 603.49 348.38 L 605.18 348.02 L 604.07 346.39 L 605.85 344.88 L 604.83 345.00 L 604.97 341.33 L 605.98 340.12 L 606.03 338.77 L 606.23 338.83 L 604.70 334.70 L 606.72 334.22 L 603.30 330.15 L 606.90 327.01 L 601.30 323.47 L 606.57 314.29 L 575.61 302.23 L 581.39 366.37 L 599.95 348.95 L 598.82 351.74 L 602.57 343.03 L 602.31 347.13 L 601.72 338.51 L 602.91 337.46 L 603.95 330.31 L 604.95 332.45 L 601.53 325.44 L 572.19 312.04 L 597.21 361.59 L 598.62 356.29 L 599.78 347.77 L 602.21 345.96 L 602.53 341.33 L 604.97 338.30 L 606.07 339.09 L 603.21 335.94 L 603.89 324.04 L 609.68 314.32 L 572.10 306.05 L 591.93 354.12 L 592.62 350.88 L 595.20 342.44 L 599.33 346.24 L 597.33 342.73 L 599.69 342.33 L 599.70 338.85 L 599.94 342.85 L 598.10 334.71 L 599.31 337.18 L 598.65 330.07 L 595.43 334.91 L 595.16 317.03 L 568.56 334.71 L 585.48 388.70 L 604.52 359.72 L 600.78 359.69 L 605.91 353.91 L 602.81 351.72 L 605.99 347.82 L 604.39 345.28 L 606.22 342.31 L 606.51 339.74 L 606.46 340.75 L 604.65 335.79 L 603.51 331.25 L 604.31 320.95 L 604.51 310.13 L 571.40 350.03 L 597.81 349.53 L 602.91 346.29 L 602.42 348.60 L 603.61 341.20 L 602.86 342.82 L 603.16 332.43 L 605.04 334.36 L 603.05 325.69 L 604.39 326.77 L 586.73 295.66 L 572.98 357.98 L 600.24 358.84 L 596.83 348.17 L 605.62 345.72 L 601.22 345.29 L 602.46 331.75 L 607.75 313.34 L 569.09 327.46 L 594.33 357.70 L 594.41 357.70 L 596.31 352.04 L 599.69 350.15 L 600.74 351.91 L 600.27 348.22 L 603.28 347.60 L 602.21 348.26 L 602.84 346.19 L 602.46 342.97 L 605.14 342.78 L 603.43 342.40 L 605.03 340.54 L 603.69 339.87 L 604.20 337.76 L 603.26 333.86 L 605.60 332.07 L 604.63 332.24 L 602.97 330.39 L 598.98 322.79 L 586.96 292.83 L 587.05 368.99 L 593.98 351.40 L 599.27 344.63 L 600.36 344.50 L 602.94 341.83 L 601.47 343.18 L 602.69 339.86 L 599.92 337.77 L 603.71 333.52 L 600.29 334.35 L 602.90 331.31 L 596.87 327.86 L 600.75 326.24 L 581.70 309.65 L 572.90 364.75 L 604.87 374.10 L 602.02 350.81 L 605.48 353.71 L 605.81 341.44 L 606.99 345.73 L 605.93 334.64 L 608.83 334.38 L 608.07 331.16 L 604.38 323.76 L 607.11 290.09 L 571.53 330.37 L 595.90 339.59 L 597.03 341.46 L 595.85 338.74 L 597.96 326.02 L 598.52 332.37 L 591.23 300.08 L 565.12 341.47 L 592.66 370.79 L 592.11 353.08 L 596.97 350.64 L 597.33 343.38 L 601.08 341.24 L 598.31 337.76 L 566.11 331.50 L 594.82 371.88 L 597.59 366.59 L 597.34 363.99 L 600.25 357.92 L 600.63 357.60 L 603.50 353.39 L 603.86 356.21 L 604.07 353.64 L 603.66 352.59 L 605.16 349.24 L 605.54 349.76 L 605.97 347.68 L 606.69 347.24 L 606.41 347.13 L 606.20 344.41 L 606.82 342.86 L 608.00 341.56 L 607.20 342.58 L 607.70 338.72 L 607.61 339.91 L 607.60 336.43 L 607.29 335.72 L 609.01 332.39 L 607.98 335.24 L 607.37 330.00 L 607.68 328.65 L 608.43 326.41 L 606.59 324.58 L 608.23 317.88 L 608.89 318.45 L 604.41 313.69 L 599.22 271.32 L 574.14 332.52 L 593.42 324.42 L 596.97 333.31 L 593.67 326.88 L 593.80 322.84 L 593.51 309.63 L 592.61 297.78 L 563.03 343.86 L 584.36 341.18 L 587.00 320.75 L 561.99 346.53 L 583.12 393.59 L 599.42 366.34 L 594.32 362.27 L 602.69 354.37 L 598.99 353.35 L 603.86 350.13 L 598.66 346.56 L 604.11 340.34 L 597.44 339.15 L 602.28 317.79 L 568.83 329.05 L 588.20 385.40 L 596.59 359.47 L 599.68 366.06 L 601.12 355.59 L 603.11 360.19 L 603.23 352.73 L 605.10 356.27 L 603.88 351.00 L 605.61 350.35 L 606.17 347.48 L 606.95 348.43 L 606.25 345.82 L 607.22 343.98 L 606.94 343.40 L 606.89 339.35 L 608.36 338.40 L 608.43 337.44 L 607.22 337.37 L 606.72 330.24 L 608.32 329.89 L 606.81 324.95 L 607.69 320.10 L 608.64 314.92 L 602.61 312.73 L 569.08 238.33 L 568.20 386.08 L 584.18 357.84 L 593.44 356.59 L 595.33 355.29 L 597.85 352.01 L 600.57 352.25 L 600.16 352.90 L 600.23 349.67 L 601.75 346.07 L 603.57 347.71 L 602.64 345.62 L 604.13 345.48 L 603.46 343.48 L 604.13 343.77 L 603.60 339.17 L 605.88 340.85 L 604.34 339.04 L 605.00 339.05 L 604.32 335.42 L 605.17 336.23 L 604.32 332.65 L 605.29 332.60 L 604.90 331.43 L 603.46 330.40 L 603.97 326.71 L 602.84 325.09 L 604.04 323.91 L 600.33 320.27 L 603.19 319.53 L 595.03 313.59 L 599.72 310.19 L 577.53 291.51 L 574.34 353.80 L 597.94 349.09 L 599.59 320.96 L 574.73 308.83 L 575.00 362.58 L 598.12 345.20 L 596.87 339.35 L 562.92 345.51 L 594.10 366.06 L 598.93 362.80 L 599.28 361.82 L 597.86 350.84 L 603.76 342.10 L 605.07 340.37 L 581.57 305.43 L 583.79 374.56 L 591.42 361.23 L 596.15 358.60 L 599.49 361.32 L 598.14 357.73 L 602.22 356.25 L 601.62 357.31 L 602.19 355.64 L 602.47 352.19 L 604.78 352.25 L 604.24 352.21 L 604.73 350.30 L 605.50 349.62 L 605.04 348.91 L 605.74 346.40 L 606.30 345.29 L 607.40 345.83 L 605.75 344.70 L 607.18 342.41 L 606.34 341.62 L 607.61 339.93 L 606.90 338.58 L 608.52 338.37 L 606.31 337.92 L 606.98 334.29 L 606.76 332.11 L 607.95 330.86 L 607.05 329.71 L 606.89 328.12 L 604.49 325.36 L 601.55 315.62 L 600.33 290.45 L 578.90 359.99 L 596.70 342.57 L 601.11 339.02 L 605.11 338.76 L 602.96 339.83 L 604.06 334.47 L 603.28 332.27 L 605.70 329.34 L 603.18 327.61 L 606.61 322.22 L 604.28 324.58 L 603.16 316.78 L 602.38 306.95 L 608.01 298.24 L 570.79 279.54 L 585.02 330.79 L 586.11 320.92 L 574.56 291.22 L 558.25 346.97 L 584.03 359.16 L 578.22 328.55 L 560.34 359.20 L 581.37 404.11 L 597.43 370.01 L 594.76 373.32 L 601.51 364.19 L 598.21 365.63 L 602.81 358.90 L 600.77 360.07 L 603.14 354.68 L 603.03 353.33 L 605.22 352.27 L 603.85 351.71 L 603.98 348.56 L 604.28 344.95 L 604.52 342.94 L 605.64 338.58 L 605.43 339.15 L 602.16 334.85 L 577.06 309.53 L 596.64 372.74 L 598.03 364.94 L 600.53 355.68 L 602.63 353.19 L 605.80 350.83 L 605.38 352.94 L 606.00 349.25 L 606.09 349.02 L 606.55 346.28 L 606.79 344.27 L 608.42 342.66 L 608.33 343.53 L 607.32 341.37 L 608.26 337.44 L 608.79 337.86 L 608.30 334.68 L 608.70 332.00 L 610.41 329.92 L 607.55 330.46 L 606.91 315.88 L 613.39 304.77 L 573.15 305.95 L 596.67 347.53 L 595.76 343.21 L 598.36 338.35 L 601.70 336.46 L 601.57 338.69 L 601.68 334.03 L 603.37 334.13 L 602.23 333.78 L 602.04 329.69 L 602.44 327.33 L 603.88 324.99 L 601.82 326.43 L 601.99 318.75 L 599.48 320.55 L 598.56 304.88 L 597.11 304.70 L 594.13 266.60 L 525.94 333.50 L 583.58 374.05 L 587.90 359.26 L 593.70 360.97 L 590.23 354.16 L 596.19 348.61 L 593.11 347.46 L 598.27 343.43 L 591.31 342.46 L 597.24 336.53 L 573.19 327.39 L 573.06 385.81 L 602.89 381.86 L 599.62 364.84 L 603.93 367.87 L 603.22 356.92 L 605.44 360.95 L 604.75 352.03 L 606.92 354.10 L 607.29 349.52 L 606.79 351.69 L 606.94 344.18 L 608.43 345.13 L 608.03 342.11 L 607.82 338.85 L 610.00 335.41 L 608.59 335.99 L 605.62 325.20 L 610.85 298.76 L 572.43 329.36 L 597.70 346.48 L 598.04 351.84 L 597.64 343.07 L 601.80 341.80 L 602.07 340.33 L 602.80 339.96 L 602.85 336.09 L 602.18 337.10 L 597.51 326.79 L 593.26 298.36 L 581.39 373.33 L 594.25 355.98 L 599.13 349.80 L 602.85 349.89 L 603.14 351.09 L 602.65 348.36 L 603.55 346.39 L 603.94 343.60 L 604.99 343.40 L 605.14 340.20 L 606.34 342.47 L 604.27 338.61 L 605.90 337.86 L 604.96 333.84 L 606.88 335.26 L 604.31 331.02 L 606.94 330.71 L 603.01 327.82 L 605.55 322.57 L 600.91 320.07 L 604.54 303.44 L 570.83 310.13 L 586.87 366.85 L 598.76 342.96 L 598.63 349.49 L 601.47 337.57 L 602.71 342.23 L 602.56 336.96 L 601.87 335.74 L 603.43 330.01 L 603.39 330.17 L 602.60 326.09 L 603.36 319.78 L 603.61 321.68 L 597.35 309.23 L 597.19 274.38 L 564.46 316.73 L 585.87 324.87 L 579.72 307.35 L 524.85 324.29 L 578.91 415.28 L 591.16 383.76 L 589.45 381.13 L 596.44 368.03 L 597.40 368.14 L 601.43 366.41 L 599.30 364.41 L 603.06 362.26 L 601.04 360.55 L 603.90 357.88 L 603.57 355.60 L 606.10 356.71 L 604.05 354.84 L 605.85 352.92 L 605.58 351.20 L 606.57 350.56 L 606.67 348.36 L 607.59 348.53 L 607.15 347.70 L 606.68 345.39 L 608.19 343.31 L 607.80 343.32 L 608.61 341.88 L 607.74 340.72 L 608.98 339.79 L 607.00 338.01 L 609.20 334.83 L 608.44 335.11 L 609.30 334.06 L 607.24 332.27 L 608.86 329.08 L 607.28 328.39 L 608.24 323.58 L 608.47 323.33 L 607.82 321.67 L 605.22 318.92 L 604.06 308.51 L 605.57 302.95 L 602.97 286.85 L 570.26 321.48 L 595.04 315.12 L 601.17 309.38 L 564.77 251.84 L 545.65 385.63 L 583.30 361.23 L 587.28 366.00 L 591.66 360.07 L 593.32 359.42 L 596.54 355.38 L 596.75 358.76 L 596.76 350.81 L 600.10 352.55 L 599.72 349.79 L 600.84 351.63 L 600.24 346.43 L 601.99 348.98 L 600.51 344.06 L 602.49 344.63 L 602.33 341.91 L 602.16 344.10 L 601.52 338.86 L 601.59 339.48 L 602.08 335.79 L 599.94 335.82 L 602.09 331.59 L 596.10 332.23 L 598.99 324.11 L 575.27 316.34 L 578.47 380.15 L 605.50 368.67 L 600.96 355.52 L 605.76 355.30 L 603.53 347.23 L 605.62 345.47 L 606.74 339.26 L 606.74 342.22 L 604.87 335.45 L 601.19 330.39 L 591.66 296.59 L 587.79 376.13 L 597.75 352.84 L 601.99 350.55 L 604.79 346.12 L 605.32 345.55 L 607.37 342.62 L 605.41 343.00 L 605.29 333.17 L 608.89 328.12 L 608.99 328.08 L 588.23 288.05 L 584.46 360.12 L 593.46 344.37 L 599.34 345.92 L 600.44 346.07 L 599.90 344.52 L 602.83 340.06 L 601.99 344.02 L 602.02 336.65 L 602.60 337.82 L 603.62 331.75 L 602.69 336.12 L 600.90 323.44 L 602.71 327.63 L 588.01 296.17 L 568.88 353.39 L 598.94 362.41 L 595.06 354.06 L 601.40 351.85 L 598.95 348.20 L 603.49 345.80 L 601.47 344.82 L 604.53 342.03 L 602.86 342.81 L 602.97 339.07 L 602.13 334.89 L 603.96 330.30 L 604.35 328.84 L 602.39 325.35 L 569.14 317.10 L 597.38 359.83 L 599.06 355.48 L 598.69 350.55 L 601.62 346.26 L 600.99 344.12 L 604.46 341.11 L 603.26 342.46 L 604.21 340.69 L 601.77 337.11 L 605.14 334.49 L 602.57 333.64 L 604.11 330.71 L 602.61 326.27 L 603.52 328.56 L 597.73 316.77 L 600.41 312.57 L 595.60 290.82 L 541.38 304.16 L 580.86 403.59 L 589.86 362.78 L 595.60 365.02 L 599.94 359.00 L 598.66 359.75 L 602.11 353.26 L 602.08 354.65 L 602.80 352.06 L 602.60 347.66 L 605.54 347.82 L 604.25 346.34 L 605.09 345.95 L 604.38 341.44 L 605.53 342.37 L 604.43 336.46 L 606.86 337.33 L 605.39 334.85 L 604.82 335.05 L 601.97 326.58 L 602.98 319.74 L 601.80 301.26 L 572.70 354.50 L 595.46 344.34 L 601.48 342.19 L 600.52 343.06 L 601.56 334.06 L 599.15 336.51 L 595.93 305.64 L 567.33 337.95 L 593.75 376.19 L 596.51 356.61 L 600.52 359.56 L 600.73 352.66 L 603.30 352.94 L 602.87 348.95 L 605.95 348.04 L 604.40 348.73 L 605.30 343.97 L 605.52 342.83 L 607.31 340.40 L 605.66 340.53 L 607.62 334.01 L 607.70 336.76 L 605.94 330.98 L 605.76 321.45 L 612.69 310.82 L 573.14 304.89 L 594.28 351.72 L 593.25 347.48 L 597.63 339.81 L 600.53 341.62 L 600.32 341.81 L 600.67 338.09 L 601.82 338.78 L 600.69 336.09 L 600.56 333.51 L 602.20 328.07 L 602.41 331.54 L 600.36 326.20 L 596.23 323.67 L 580.38 288.96 L 585.96 368.35 L 591.48 346.13 L 593.36 344.50 L 596.82 335.98 L 593.24 338.96 L 596.65 328.43 L 571.19 329.44 L 576.70 388.59 L 604.32 371.42 L 599.21 362.14 L 605.61 360.96 L 602.76 355.01 L 606.29 355.04 L 604.19 350.29 L 606.65 348.42 L 606.88 346.15 L 607.07 346.39 L 606.81 342.96 L 606.90 340.87 L 607.95 339.35 L 606.32 336.39 L 609.11 334.14 L 606.44 333.62 L 607.95 330.11 L 604.45 325.40 L 609.21 320.70 L 601.73 319.73 L 606.68 298.75 L 574.41 301.78 L 587.41 361.32 L 597.18 327.42 L 605.20 314.98 L 566.04 323.62 L 592.76 357.00 L 590.88 351.65 L 593.66 346.17 L 596.57 338.17 L 599.12 339.40 L 597.79 331.45 L 563.46 337.79 L 594.44 366.05 L 596.59 365.76 L 597.13 360.97 L 598.99 358.11 L 599.88 355.62 L 601.77 352.51 L 603.53 353.99 L 602.83 352.93 L 603.20 351.81 L 603.57 348.12 L 605.00 349.30 L 604.42 346.11 L 606.11 347.17 L 605.12 345.32 L 605.52 345.39 L 605.25 341.07 L 606.94 342.34 L 606.04 340.49 L 606.49 340.26 L 606.38 338.12 L 606.08 338.00 L 606.20 334.67 L 606.70 333.96 L 607.17 334.02 L 605.18 332.20 L 606.52 329.87 L 604.92 327.95 L 606.23 326.97 L 604.08 322.75 L 606.59 324.38 L 601.41 319.76 L 603.32 317.72 L 599.41 308.01 L 601.39 313.08 L 588.32 287.95 L 570.24 331.03 L 596.93 357.00 L 596.05 311.80 L 597.29 266.32 L 540.61 364.41 L 582.81 362.96 L 591.63 359.61 L 592.11 360.34 L 596.49 351.74 L 596.72 355.67 L 596.04 346.19 L 598.92 344.15 L 597.29 338.01 L 600.74 334.59 L 576.60 313.14 L 572.92 378.55 L 597.14 368.98 L 594.04 365.78 L 601.22 360.94 L 599.67 362.85 L 601.65 358.16 L 601.95 357.30 L 603.53 354.54 L 604.06 354.83 L 604.38 351.89 L 605.81 352.64 L 604.36 350.61 L 606.02 348.41 L 605.80 346.71 L 607.60 346.99 L 605.82 345.48 L 607.72 343.94 L 606.13 343.05 L 607.42 340.36 L 607.15 338.52 L 608.80 338.58 L 606.77 338.06 L 606.99 334.42 L 606.81 331.84 L 607.08 329.10 L 607.45 325.77 L 607.46 324.80 L 603.33 322.03 L 579.55 292.36 L 597.25 358.81 L 598.85 348.78 L 600.65 339.33 L 602.97 331.58 L 607.89 330.66 L 602.83 328.83 L 599.32 287.58 L 572.57 349.54 L 593.67 341.19 L 596.85 347.31 L 597.51 345.49 L 598.37 341.92 L 600.78 342.68 L 599.33 341.39 L 600.19 338.23 L 601.79 336.22 L 601.13 338.53 L 600.98 333.80 L 600.09 334.46 L 601.34 329.50 L 598.05 331.35 L 600.92 322.52 L 594.86 328.18 L 597.37 312.92 L 569.48 318.45 L 581.43 374.75 L 603.67 357.76 L 598.53 344.33 L 604.18 345.99 L 599.03 331.56 L 602.64 334.38 L 589.00 298.06 L 570.07 356.03 L 597.27 365.96 L 595.11 355.11 L 600.39 350.30 L 597.72 345.24 L 602.38 334.65 L 602.33 331.21 L 566.50 348.26 L 596.05 364.14 L 601.63 360.94 L 600.58 363.20 L 601.56 355.38 L 602.71 353.17 L 605.36 350.06 L 604.92 350.61 L 606.15 346.03 L 606.93 346.50 L 605.60 343.83 L 606.02 336.23 L 609.48 333.04 L 607.94 332.77 L 592.14 291.26 L 581.87 361.23 L 593.71 348.75 L 600.46 349.86 L 599.82 353.42 L 601.06 347.45 L 602.76 349.00 L 603.12 347.44 L 602.62 346.41 L 604.77 342.67 L 605.12 345.48 L 604.64 343.10 L 604.79 341.80 L 605.48 340.24 L 605.23 339.26 L 605.87 337.23 L 606.54 336.80 L 605.59 337.46 L 604.93 333.06 L 605.44 331.90 L 605.99 328.53 L 605.73 329.49 L 605.45 325.43 L 603.14 326.23 L 599.59 313.96 L 595.22 288.85 L 580.70 359.67 L 594.10 344.36 L 599.25 336.08 L 601.93 338.48 L 601.83 336.42 L 600.77 334.99 L 601.15 330.30 L 601.03 327.75 L 600.89 325.97 L 600.31 319.54 L 599.83 322.96 L 595.19 308.26 L 594.13 313.08 L 580.35 265.34 L 531.41 347.86 L 586.80 407.10 L 594.07 359.24 L 598.61 371.36 L 598.02 348.73 L 603.74 347.62 L 605.54 340.15 L 579.93 307.88 L 584.45 373.17 L 590.48 360.12 L 597.51 357.31 L 598.84 359.78 L 599.11 357.54 L 600.73 353.57 L 602.07 355.63 L 601.08 350.95 L 603.31 349.93 L 604.05 347.75 L 604.20 350.30 L 602.91 344.75 L 604.12 344.42 L 603.47 339.34 L 604.89 337.80 L 605.09 334.50 L 602.49 334.79 L 573.41 311.54 L 597.35 370.21 L 598.70 362.63 L 599.71 356.69 L 602.16 351.75 L 604.47 350.40 L 605.45 351.50 L 604.98 349.19 L 606.01 348.87 L 605.35 346.09 L 606.59 345.07 L 606.96 342.24" fill="none" stroke="#2040a0" stroke-width="0.5" opacity="0.4"/>
<path d="M 176.68 320.89 L 189.43 360.25 L 200.47 363.51 L 204.69 359.39 L 209.29 352.08 L 211.92 352.00 L 213.92 349.83 L 217.60 348.85 L 209.14 348.30 L 213.27 347.60 L 213.72 345.28 L 214.70 363.54 L 215.63 351.83 L 218.01 348.87 L 220.08 347.97 L 212.77 347.14 L 215.42 345.87 L 216.25 344.40 L 208.18 344.08 L 214.24 342.70 L 216.47 341.77 L 218.23 340.50 L 211.36 351.52 L 214.71 345.05 L 215.58 340.52 L 216.39 329.34 L 217.26 346.65 L 218.66 346.52 L 220.54 345.85 L 211.55 343.47 L 215.96 342.98 L 216.49 343.25 L 217.38 341.91 L 218.51 349.57 L 219.74 346.33 L 221.39 344.75 L 224.25 342.83 L 211.64 342.34 L 212.88 341.40 L 214.00 340.30 L 208.61 339.29 L 215.48 338.55 L 218.36 336.26 L 222.24 332.53 L 213.41 344.45 L 215.78 338.71 L 216.37 333.59 L 217.93 332.63 L 218.40 341.18 L 220.00 339.70 L 222.08 330.81 L 214.60 347.60 L 217.29 343.19 L 217.44 342.11 L 211.70 351.52 L 215.00 347.48 L 217.50 345.16 L 218.59 343.51 L 211.81 342.94 L 214.45 341.30 L 216.13 341.19 L 210.33 339.83 L 212.24 339.41 L 218.00 337.46 L 218.88 337.15 L 208.26 360.10 L 215.49 343.73 L 215.93 338.83 L 217.68 339.12 L 218.09 350.44 L 219.76 345.10 L 220.54 343.15 L 228.93 341.72 L 212.00 339.00 L 213.40 338.26 L 214.94 335.91 L 216.69 356.72 L 217.09 348.21 L 217.70 345.37 L 216.49 344.08 L 209.92 343.76 L 212.93 341.63 L 211.09 340.86 L 209.60 339.94 L 215.60 339.51 L 219.24 337.89 L 221.08 335.81 L 214.72 347.36 L 216.53 342.50 L 217.16 339.70 L 213.34 337.79 L 214.86 336.95 L 217.37 334.13 L 219.68 327.49 L 212.02 333.19 L 216.28 337.36 L 216.48 337.29 L 217.50 334.43 L 218.21 342.01 L 219.91 338.14 L 221.14 333.37 L 208.36 335.11 L 216.97 341.97 L 217.19 336.45 L 218.24 328.39 L 219.19 330.61 L 220.66 337.43 L 220.08 338.45 L 229.44 336.91 L 212.54 344.42 L 212.75 342.33 L 210.84 339.70 L 211.02 339.38 L 215.61 339.40 L 218.83 337.63 L 223.99 336.30 L 213.99 336.94 L 215.66 335.63 L 217.56 333.62 L 207.38 360.35 L 216.13 341.27 L 218.73 337.97 L 217.77 336.52 L 207.93 334.61 L 215.01 332.80 L 215.50 329.39 L 214.44 321.28 L 213.93 335.04 L 216.94 335.88 L 219.74 335.74 L 213.50 342.69 L 215.78 335.15 L 217.04 333.47 L 217.60 335.97 L 218.59 339.28 L 220.25 342.68 L 222.23 335.16 L 212.26 341.49 L 217.04 345.33 L 218.30 338.63 L 219.56 328.64 L 221.10 352.15 L 221.42 347.52 L 222.05 346.07 L 229.27 344.19 L 215.12 342.01 L 217.58 341.89 L 217.40 339.52 L 215.50 337.34 L 214.79 336.85 L 215.52 335.38 L 221.99 325.55 L 214.03 346.72 L 214.66 339.57 L 215.87 338.52 L 215.99 341.60 L 217.54 345.14 L 216.97 347.32 L 219.79 345.88 L 207.52 343.48 L 212.16 341.46 L 215.33 341.35 L 214.25 337.00 L 211.07 349.47 L 213.69 345.30 L 213.99 343.56 L 206.84 342.35 L 211.92 341.95 L 212.80 341.25 L 210.46 339.70 L 211.59 337.98 L 212.67 337.45 L 216.64 337.28 L 215.43 359.37 L 213.06 340.65 L 215.27 338.05 L 215.17 333.45 L 216.72 346.60 L 217.61 340.95 L 219.54 339.24 L 223.50 339.38 L 208.67 337.49 L 211.82 335.65 L 212.31 333.93 L 207.74 347.75 L 215.00 339.02 L 216.01 336.47 L 220.45 323.81 L 212.46 337.29 L 215.20 332.25 L 215.82 334.00 L 216.72 336.38 L 216.99 337.84 L 218.85 340.59 L 221.63 340.34 L 214.47 351.36 L 215.60 343.56 L 215.51 341.91 L 209.48 339.07 L 210.76 338.09 L 214.13 336.29 L 217.89 335.14 L 211.60 339.17 L 213.68 341.68 L 215.55 335.78 L 215.81 336.88 L 217.46 357.38 L 218.11 347.98 L 220.54 338.48 L 225.35 334.53 L 215.13 340.02 L 217.08 344.59 L 217.13 342.35 L 218.38 341.48 L 219.05 341.34 L 220.63 339.96 L 224.15 333.93 L 209.89 349.31 L 213.76 345.10 L 214.56 342.90 L 216.37 341.86 L 217.56 341.23 L 216.48 338.93 L 215.12 338.81 L 207.95 338.24 L 214.31 335.57 L 216.68 332.28 L 217.03 343.77 L 217.20 345.76 L 219.89 344.53 L 221.57 342.78 L 213.51 339.52 L 216.48 337.71 L 216.81 337.55 L 218.86 327.14 L 212.29 343.81 L 216.56 340.01 L 218.95 339.10 L 199.93 360.97 L 212.36 346.28 L 214.37 344.06 L 214.70 342.78 L 216.34 341.90 L 216.11 340.73 L 218.73 339.82 L 222.34 338.64 L 210.40 338.40 L 213.86 337.62 L 210.26 335.92 L 210.50 345.27 L 217.00 340.54 L 219.42 336.16 L 224.61 324.39 L 209.69 341.86 L 213.69 341.37 L 215.13 340.83 L 217.37 338.47 L 217.65 338.01 L 219.83 337.81 L 221.34 336.60 L 214.33 344.50 L 217.30 340.56 L 217.52 339.52 L 218.84 338.32 L 219.22 334.37 L 221.01 332.30 L 222.59 334.19 L 214.35 339.65 L 217.95 342.66 L 218.32 340.61 L 221.33 334.75 L 214.68 343.47 L 218.25 341.40 L 220.48 335.57 L 208.90 344.36 L 215.98 345.35 L 215.41 339.52 L 214.98 333.89 L 213.29 346.08 L 217.87 339.69 L 219.99 338.14 L 235.36 337.44 L 216.83 352.70 L 217.78 347.15 L 219.38 345.22 L 219.46 345.88 L 220.59 343.95 L 222.00 342.34 L 229.95 342.34 L 212.81 341.34 L 215.80 339.64 L 217.45 338.54 L 219.40 365.01 L 221.39 345.20 L 222.68 342.99 L 223.00 341.93 L 212.29 340.26 L 212.52 338.38 L 213.99 338.15 L 216.57 336.28 L 217.43 334.67 L 218.90 334.08 L 219.77 331.96 L 212.51 349.86 L 214.92 343.78 L 216.90 341.19 L 212.86 338.69 L 206.61 335.88 L 215.15 332.50 L 217.10 330.23 L 205.27 333.44 L 213.02 338.72 L 213.96 335.85 L 215.47 327.69 L 216.57 341.31 L 218.09 342.48 L 217.73 342.62 L 222.43 341.10 L 212.84 340.56 L 214.24 339.48 L 215.08 337.10 L 215.69 337.57 L 217.71 337.09 L 218.79 334.90 L 226.60 333.88 L 209.68 340.59 L 212.00 333.55 L 214.08 328.82 L 213.68 327.61 L 215.82 346.75 L 216.06 344.30 L 214.23 341.32 L 207.44 341.79 L 212.76 340.66 L 211.67 339.33 L 209.85 336.62 L 213.69 347.22 L 215.82 342.76 L 217.50 341.96 L 207.68 339.49 L 209.37 339.99 L 213.45 335.60 L 217.36 338.96 L 211.41 349.53 L 215.35 342.97 L 217.43 341.78 L 208.12 367.25 L 212.92 347.37 L 214.75 344.12 L 216.00 341.68 L 216.46 340.97 L 217.99 339.14 L 218.90 335.54 L 227.31 325.82 L 214.45 342.17 L 215.45 342.29 L 216.37 341.49 L 207.83 350.76 L 216.39 345.39 L 219.38 343.71 L 225.70 342.09 L 209.49 340.24 L 212.60 339.78 L 214.44 338.79 L 215.66 338.00 L 216.27 337.24 L 217.76 336.01 L 217.27 333.04 L 207.04 346.13 L 214.07 340.44 L 214.57 337.92 L 216.50 336.28 L 217.60 334.47 L 218.84 330.77 L 221.50 324.82 L 215.24 328.31 L 215.75 335.23 L 218.01 333.66 L 219.97 321.52 L 214.28 343.48 L 217.08 337.62 L 219.78 336.69 L 217.63 337.96 L 214.32 341.50 L 216.46 343.55 L 217.11 343.35 L 218.61 341.84 L 219.02 339.89 L 220.74 337.91 L 225.15 332.48 L 215.74 346.63 L 217.26 343.36 L 218.08 342.16 L 218.68 339.62 L 219.16 337.46 L 220.17 337.09 L 221.24 337.81 L 206.49 334.33 L 211.76 331.22 L 214.39 331.71 L 216.17 356.87 L 217.30 345.35 L 218.68 345.05 L 221.47 338.04 L 213.92 348.86 L 216.03 343.38 L 216.78 342.40 L 217.93 340.67 L 218.61 338.56 L 219.30 338.13 L 222.02 333.11 L 213.52 361.54 L 215.87 352.85 L 216.93 345.40 L 213.57 343.99 L 209.31 341.86 L 216.98 340.07 L 219.20 331.04 L 225.44 328.25 L 214.58 333.13 L 216.39 336.18 L 217.16 326.86 L 218.76 348.19 L 218.85 345.65 L 221.34 345.10 L 223.22 342.21 L 215.32 341.00 L 217.42 339.95 L 215.95 337.45 L 210.60 343.13 L 217.48 345.87 L 220.02 343.88 L 223.73 342.02 L 209.44 350.59 L 214.83 346.78 L 214.70 344.67 L 207.46 343.76 L 216.38 343.55 L 218.17 341.86 L 219.47 341.21 L 213.28 340.65 L 217.99 339.73 L 217.72 338.23 L 215.81 334.34 L 214.40 346.99 L 213.53 343.11 L 212.45 341.65 L 203.23 340.56 L 211.26 338.93 L 215.44 337.48 L 216.67 337.32 L 211.81 336.49 L 215.57 334.05 L 217.98 330.19 L 229.90 336.75 L 213.13 344.54 L 215.23 343.70 L 216.46 340.20 L 216.93 337.86 L 217.95 337.55 L 219.89 337.81 L 223.46 335.28 L 214.97 332.15 L 216.67 329.30 L 217.18 327.62 L 218.24 353.67 L 219.30 343.10 L 221.16 342.72 L 223.15 330.93 L 210.24 343.45 L 214.76 340.16 L 214.90 342.02 L 216.08 341.00 L 216.44 339.83 L 218.17 337.80 L 219.54 337.71 L 203.36 344.33 L 213.40 341.58 L 215.23 333.67 L 217.07 326.96 L 217.53 354.67 L 218.71 348.58 L 219.41 348.45 L 208.53 345.33 L 216.33 344.43 L 217.50 343.62 L 217.40 341.44 L 213.66 352.48 L 215.52 347.54 L 217.11 345.52 L 224.85 343.83 L 210.15 343.68 L 212.86 342.32 L 215.07 341.35 L 215.00 340.01 L 217.16 339.67 L 216.27 338.65 L 217.20 337.15 L 210.18 345.11 L 215.97 341.75 L 216.13 340.33 L 217.46 338.80 L 218.69 336.51 L 219.91 335.56 L 223.60 329.39 L 211.58 344.29 L 213.31 338.68 L 212.74 338.30 L 211.26 340.00 L 211.68 343.06 L 214.11 340.76 L 217.97 338.96 L 211.66 336.32 L 214.12 334.86 L 213.80 334.31 L 209.97 322.28 L 213.54 339.79 L 216.28 335.63 L 218.47 333.95 L 206.85 360.98 L 215.65 341.75 L 216.42 335.19 L 217.55 328.20 L 213.43 328.17 L 216.25 334.74 L 217.72 337.44 L 230.49 334.10 L 214.84 331.65 L 215.58 331.95 L 217.05 331.24 L 217.23 349.24 L 218.73 341.16 L 219.76 336.97 L 225.71 340.28 L 216.04 346.10 L 216.65 347.79 L 217.59 343.61 L 218.45 341.52 L 220.06 340.69 L 220.91 340.25 L 223.56 336.99 L 211.58 350.25 L 213.80 343.48 L 215.55 342.13 L 216.18 341.00 L 217.52 338.89 L 218.62 336.49 L 220.58 333.61 L 214.24 346.54 L 214.31 345.21 L 216.38 339.99 L 209.97 341.36 L 211.79 344.74 L 217.45 340.27 L 217.83 336.30 L 200.28 336.85 L 213.15 343.49 L 213.21 342.42 L 209.78 339.56 L 206.02 337.85 L 212.39 335.96 L 216.87 335.14 L 225.23 321.63 L 212.90 351.02 L 214.90 344.19 L 216.23 341.75 L 216.83 342.09 L 217.95 341.48 L 219.88 339.96 L 224.03 337.74 L 215.59 335.07 L 216.47 332.31 L 217.41 332.64 L 218.29 359.84 L 219.65 344.91 L 220.59 344.98 L 223.02 345.11 L 210.09 343.05 L 213.23 340.08 L 213.41 335.55 L 209.74 326.34 L 214.61 342.93 L 218.99 343.99 L 221.44 342.79 L 215.90 353.88 L 216.94 346.20 L 217.57 344.94 L 218.83 343.48 L 220.95 342.29 L 222.50 341.91 L 223.65 340.22 L 218.54 339.14 L 212.03 338.81 L 212.31 338.26 L 212.78 335.45 L 205.12 348.65 L 212.08 342.73 L 215.58 340.32 L 221.01 338.32 L 212.33 337.82 L 214.84 336.55 L 214.85 335.42 L 216.38 333.78 L 217.28 331.97 L 219.35 329.82 L 222.30 322.25 L 213.99 344.97 L 215.57 335.93 L 216.61 334.40 L 217.99 328.20 L 218.34 341.67 L 219.48 338.24 L 217.47 337.10 L 201.60 334.19 L 211.44 334.92 L 212.65 329.76 L 215.39 330.35 L 216.29 351.73 L 218.09 339.96 L 220.01 338.92 L 213.16 340.00 L 214.98 344.57 L 216.80 345.07 L 217.42 342.56 L 218.16 340.42 L 218.95 337.47 L 221.44 331.73 L 228.36 345.34 L 215.88 338.56 L 217.18 341.43 L 216.91 337.47 L 213.23 348.95 L 215.59 345.76 L 217.75 343.56 L 214.25 342.49 L 211.14 341.93 L 213.97 341.56 L 214.92 339.52 L 216.73 359.55 L 217.72 346.70 L 219.99 343.99 L 221.78 342.92 L 213.75 342.63 L 216.59 340.81 L 217.29 339.16 L 218.53 339.31 L 219.34 338.97 L 220.30 337.33 L 221.33 335.79 L 207.32 346.42 L 213.42 340.57 L 214.96 338.18 L 216.32 336.76 L 217.42 334.75 L 218.91 329.96 L 219.70 326.03 L 210.29 331.27 L 215.32 344.06 L 216.37 342.23 L 216.91 339.00 L 216.42 347.75 L 218.55 344.49 L 216.69 342.43 L 226.23 340.88 L 212.63 338.56 L 216.16 335.86 L 214.17 337.61 L 210.63 343.46 L 214.52 347.03 L 214.21 344.35 L 214.93 338.95 L 206.67 349.55 L 211.90 346.51 L 213.89 344.24 L 197.66 343.32 L 212.72 341.14 L 214.31 340.48 L 215.10 339.42 L 205.43 338.63 L 209.44 335.33 L 212.15 333.03 L 215.57 334.04 L 216.49 345.88 L 218.22 343.61 L 218.26 340.18 L 203.70 351.62 L 211.86 349.89 L 214.00 345.99 L 215.63 345.34 L 216.03 343.00 L 217.98 343.20 L 219.22 339.83 L 207.60 365.31 L 216.00 347.73 L 216.31 345.72 L 217.30 342.22 L 218.11 341.59 L 219.64 340.88 L 221.00 339.05 L 235.44 337.25 L 216.95 337.42 L 217.02 334.21 L 218.07 327.10 L 211.17 342.77 L 216.55 342.92 L 218.41 340.28 L 224.20 327.80 L 215.06 344.73 L 216.21 343.57 L 217.42 343.67 L 217.86 341.91 L 218.62 340.87 L 218.59 340.10 L 220.52 338.42 L 209.38 349.92 L 214.21 344.83 L 216.54 343.03 L 218.44 341.86 L 219.43 340.61 L 220.16 339.96 L 221.64 338.48 L 205.76 337.42 L 213.53 337.36 L 215.88 336.56 L 217.46 334.45 L 217.68 341.77 L 219.36 339.13 L 220.69 335.98 L 209.29 334.21 L 216.57 333.27 L 217.32 328.47 L 218.27 316.42 L 219.43 333.88 L 219.32 335.70 L 221.18 337.59 L 226.00 334.79 L 214.85 342.86 L 217.53 340.69 L 217.31 338.96 L 206.00 337.23 L 210.20 337.12 L 212.68 336.27 L 220.32 334.92 L 211.05 333.88 L 212.65 332.56 L 210.04 330.94 L 207.91 357.09 L 213.99 337.94 L 217.49 332.37 L 219.85 322.98 L 213.56 333.61 L 214.33 334.31 L 215.46 331.04 L 208.20 337.29 L 215.32 342.55 L 216.60 335.18 L 220.00 335.23 L 203.33 352.99 L 211.14 347.08 L 214.04 342.98 L 215.18 340.03 L 216.55 336.89 L 217.20 334.50 L 219.58 333.65 L 211.30 335.50 L 215.26 339.43 L 216.46 340.93 L 216.65 339.07 L 217.57 351.25 L 219.07 344.52 L 220.65 341.51 L 228.00 340.35 L 215.63 337.46 L 216.49 334.25 L 217.66 333.65 L 207.79 337.69 L 215.93 340.79 L 217.16 341.81 L 221.82 342.00 L 213.83 346.11 L 214.31 340.19 L 212.16 337.16 L 210.71 336.37 L 214.07 344.97 L 218.21 343.76 L 221.91 341.67 L 214.20 340.63 L 215.39 340.11 L 217.38 339.05 L 217.07 332.21 L 217.33 345.32 L 218.67 343.20 L 221.90 341.42 L 194.59 337.11 L 208.73 335.71 L 214.03 335.41 L 208.83 325.04 L 209.83 339.42 L 215.68 333.98 L 217.84 335.22 L 218.26 363.02 L 213.91 351.80 L 216.15 350.14 L 216.12 345.63 L 217.58 342.46 L 218.62 341.85 L 220.94 338.70 L 224.85 328.13 L 215.10 343.40 L 217.20 344.18 L 218.04 343.35 L 207.67 357.97 L 216.06 347.09 L 218.69 346.05 L 221.56 344.36 L 213.75 343.43 L 215.84 341.46 L 217.00 341.23 L 217.74 339.26 L 218.85 338.88 L 219.50 336.76 L 221.83 334.12 L 214.87 358.87 L 216.32 351.42 L 217.65 346.72 L 217.41 345.09 L 217.72 342.99 L 219.22 342.90 L 218.40 339.55 L 195.84 338.43 L 210.57 337.74 L 213.46 335.85 L 211.09 325.39 L 212.74 350.81 L 215.40 342.61 L 218.68 335.98 L 227.45 331.99 L 214.78 336.12 L 217.01 340.99 L 217.30 340.40 L 218.01 336.90 L 218.98 335.97 L 221.26 335.73 L 225.12 320.82 L 215.98 352.62 L 216.74 345.80 L 215.68 344.48 L 202.23 344.13 L 210.79 342.99 L 215.22 341.59 L 218.50 341.72 L 212.15 340.50 L 214.78 339.35 L 215.22 339.03 L 216.49 351.84 L 216.60 342.28 L 219.20 340.11 L 217.29 337.05 L 204.83 349.27 L 214.81 344.30 L 214.85 342.48 L 217.59 341.98 L 217.37 341.07 L 219.59 340.19 L 221.59 338.65 L 198.71 360.85 L 213.12 345.83 L 214.94 343.94 L 215.61 342.22 L 216.64 341.23 L 218.41 339.91 L 219.83 339.33 L 223.87 338.56 L 213.61 338.34 L 215.43 336.72 L 216.13 336.13 L 217.58 345.39 L 218.97 340.47 L 220.95 337.86 L 224.95 337.22 L 216.15 335.50 L 217.63 332.24 L 219.06 330.72 L 207.34 335.00 L 218.75 338.55 L 220.55 335.13 L 219.95 333.87 L 209.74 342.24 L 210.82 337.22 L 211.76 330.30 L 214.30 331.27 L 216.14 353.94 L 215.72 344.57 L 213.16 344.09 L 204.60 342.18 L 212.29 341.95 L 215.03 339.96 L 215.96 338.21 L 215.51 347.41 L 218.63 343.50 L 220.86 341.89 L 194.37 341.15 L 211.90 339.98 L 213.18 338.08 L 214.71 337.33 L 215.13 336.51 L 216.58 334.78 L 217.96 330.79 L 231.72 328.07 L 212.46 345.06 L 213.27 343.90 L 209.47 341.51 L 201.12 340.04 L 214.04 338.98 L 217.66 338.37 L 221.79 337.07 L 213.65 336.43 L 213.89 335.25 L 215.59 333.16 L 196.26 359.34 L 212.26 341.07 L 214.99 338.75 L 219.06 335.40 L 211.56 332.99 L 214.32 333.01 L 215.01 333.26 L 216.78 330.24 L 217.35 326.37 L 218.74 323.53 L 220.70 323.88 L 213.46 334.87 L 216.37 333.01 L 217.14 330.25 L 217.73 322.30 L 218.78 343.31 L 220.30 341.14 L 222.46 336.41 L 197.47 331.80 L 213.70 342.79 L 215.15 336.82 L 216.31 327.04 L 217.42 342.27 L 218.86 344.79 L 220.00 345.16 L 231.74 342.03 L 216.09 340.43 L 216.31 340.46 L 218.01 338.80 L 218.47 338.65 L 219.69 337.84 L 219.07 337.17 L 220.22 334.95 L 212.87 340.09 L 214.72 334.31 L 217.93 333.83 L 206.17 334.52 L 216.40 337.83 L 217.62 337.30 L 221.59 333.18 L 214.31 360.64 L 215.48 350.67 L 217.15 346.67 L 217.97 344.01 L 218.68 353.54 L 219.55 351.12 L 222.42 349.02 L 215.66 347.55 L 216.81 345.16 L 218.02 345.35 L 218.39 344.27 L 219.36 343.75 L 220.68 342.49 L 223.17 341.56 L 203.14 365.85 L 213.17 347.09 L 215.59 344.83 L 215.58 343.38 L 217.55 341.79 L 217.45 340.25 L 219.92 338.52 L 219.45 337.80 L 210.66 336.48 L 215.05 331.98 L 216.00 326.30 L 216.96 351.88 L 218.57 352.12 L 219.01 348.47 L 223.31 345.97 L 214.61 345.77 L 216.07 345.41 L 217.64 343.24 L 195.83 342.74 L 213.05 342.39 L 214.73 341.42 L 212.80 339.18 L 206.26 352.78 L 213.14 346.43 L 215.34 344.21 L 215.26 343.31 L 217.80 342.56 L 217.65 341.34 L 220.39 340.34 L 214.69 339.82 L 215.40 338.66 L 214.79 338.00 L 211.22 338.24 L 213.44 343.77 L 218.24 338.67 L 222.79 335.59 L 211.03 332.96 L 211.84 343.21 L 214.80 342.13 L 216.41 340.63 L 217.91 339.34 L 218.65 339.02 L 218.61 337.18 L 219.53 331.71 L 209.64 345.82 L 212.78 342.55 L 215.34 340.21 L 217.49 338.47 L 218.63 338.00 L 219.98 336.71 L 222.23 335.78 L 214.64 333.46 L 217.78 334.08 L 218.58 328.06 L 209.59 355.68 L 215.49 348.40 L 216.59 338.73 L 218.96 330.55 L 206.82 337.67 L 215.44 339.64 L 216.78 336.96 L 215.16 325.40 L 213.36 341.04 L 213.64 342.11 L 216.66 340.26 L 210.92 356.91 L 212.73 345.92 L 214.72 343.10 L 209.40 340.35 L 210.49 340.13 L 217.06 338.37 L 218.20 330.56 L 218.43 327.51 L 209.94 333.39 L 212.93 338.61 L 213.74 335.88 L 215.43 345.93 L 216.55 342.39 L 218.71 340.86 L 222.01 338.10 L 213.34 337.89 L 215.36 337.40 L 216.06 335.64 L 217.84 334.02 L 218.11 333.67 L 219.78 332.21 L 221.09 323.64 L 214.20 348.40 L 217.00 340.68 L 217.40 340.46 L 210.20 339.34 L 214.34 335.12 L 216.69 332.50 L 218.72 335.90 L 211.25 340.42 L 214.88 342.95 L 213.99 341.49 L 209.35 335.29 L 213.98 345.42 L 215.64 342.81 L 218.39 340.62 L 207.65 337.36 L 214.29 336.13 L 214.20 335.46 L 210.46 324.22 L 212.16 337.27 L 218.71 335.42 L 219.81 337.61 L 226.29 344.83 L 212.11 336.05 L 213.41 332.16 L 215.43 330.37 L 216.55 346.68 L 217.82 346.54 L 219.74 346.69 L 223.66 344.38 L 214.58 343.01 L 216.56 340.10 L 217.00 339.63 L 218.51 363.77 L 218.79 347.78 L 220.53 341.45 L 222.29 341.18 L 214.83 353.73 L 217.54 348.91 L 217.63 346.28 L 212.19 345.09 L 214.39 343.54 L 216.81 343.09 L 215.91 342.01 L 203.48 350.50 L 214.11 344.65 L 213.61 343.54 L 215.51 342.25 L 215.81 340.58 L 218.51 337.01 L 219.00 335.84 L 197.10 338.79 L 213.67 344.05 L 214.57 341.53 L 215.33 338.65 L 216.77 350.24 L 218.34 345.55 L 215.77 343.42 L 222.85 341.99 L 207.29 340.61 L 212.25 339.28 L 215.19 338.19 L 215.64 336.52 L 217.46 335.49 L 219.35 334.10 L 224.40 322.63 L 215.17 348.61 L 216.23 342.28 L 217.74 341.35 L 218.11 341.29 L 219.37 339.23 L 220.62 338.16 L 223.67 337.07 L 216.07 335.61 L 217.78 333.72 L 218.43 331.30 L 214.92 323.80 L 215.66 344.42 L 217.64 342.87 L 220.75 340.71 L 213.43 338.66 L 216.53 338.82 L 216.97 338.04 L 217.59 334.08 L 218.60 331.67 L 220.11 330.01 L 221.47 328.10 L 209.64 357.15 L 216.05 342.79 L 216.07 338.84 L 215.81 332.54 L 212.57 332.84 L 217.91 338.72 L 219.14 338.63 L 228.39 336.48 L 211.39 337.28 L 213.16 338.13 L 215.36 335.45 L 215.86 343.78 L 217.47 339.34 L 217.10 335.25 L 217.33 324.60 L 210.87 340.94 L 215.13 339.08 L 215.52 334.45 L 209.03 344.73 L 216.85 347.08 L 218.08 340.53 L 223.47 340.73 L 215.62 350.82 L 216.61 343.32 L 218.08 340.74 L 216.92 331.91 L 215.42 347.26 L 217.52 343.65 L 221.15 342.87 L 215.90 342.76 L 216.53 341.04 L 217.96 340.49 L 218.50 341.29 L 220.48 346.31 L 222.18 343.27 L 223.41 341.56 L 213.75 339.85 L 212.17 338.21 L 211.35 337.98 L 211.36 332.42 L 212.17 346.61 L 212.92 341.32 L 214.58 339.99 L 213.72 334.84 L 206.57 347.40 L 209.65 344.23 L 211.46 343.01 L 213.03 340.87 L 215.26 339.20 L 217.41 338.96 L 221.52 338.98 L 212.59 336.46 L 213.97 332.89 L 215.72 333.42 L 216.65 362.50" fill="none" stroke="#601030" stroke-width="0.5" opacity="0.3"/>
<path d="M 841.0 100.0 L 841.2 365.3 L 841.5 543.1 L 841.7 525.3 L 841.9 554.7 L 842.2 543.3 L 842.4 573.9 L 842.7 556.0 L 842.9 562.1 L 843.1 572.4 L 843.4 572.8 L 843.6 611.6 L 843.8 596.5 L 844.1 598.6 L 844.3 592.2 L 844.5 583.5 L 844.8 585.8 L 845.0 589.2 L 845.2 546.3 L 845.5 580.2 L 845.7 580.8 L 846.0 595.1 L 846.2 564.0 L 846.4 578.5 L 846.7 576.5 L 846.9 568.5 L 847.1 590.4 L 847.4 594.8 L 847.6 602.4 L 847.8 555.1 L 848.1 578.0 L 848.3 584.2 L 848.5 586.1 L 848.8 567.0 L 849.0 574.5 L 849.3 582.3 L 849.5 581.9 L 849.7 552.3 L 850.0 536.8 L 850.2 482.1 L 850.4 541.7 L 850.7 622.0 L 850.9 620.2 L 851.1 616.2 L 851.4 581.2 L 851.6 574.6 L 851.8 533.5 L 852.1 450.8 L 852.3 586.4 L 852.6 575.3 L 852.8 576.1 L 853.0 603.5 L 853.3 622.6 L 853.5 604.0 L 853.7 569.1 L 854.0 586.3 L 854.2 593.8 L 854.4 573.7 L 854.7 567.4 L 854.9 564.6 L 855.1 536.1 L 855.4 459.6 L 855.6 497.1 L 855.9 588.9 L 856.1 562.5 L 856.3 554.2 L 856.6 588.5 L 856.8 580.8 L 857.0 457.6 L 857.3 463.2 L 857.5 553.3 L 857.7 565.5 L 858.0 558.6 L 858.2 580.2 L 858.5 569.9 L 858.7 592.5 L 858.9 580.3 L 859.2 600.1 L 859.4 609.8 L 859.6 476.5 L 859.9 525.8 L 860.1 561.3 L 860.3 572.4 L 860.6 561.4 L 860.8 576.4 L 861.0 583.2 L 861.3 591.2 L 861.5 579.2 L 861.8 596.7 L 862.0 591.2 L 862.2 565.2 L 862.5 570.4 L 862.7 602.5 L 862.9 543.7 L 863.2 502.2 L 863.4 591.0 L 863.6 577.9 L 863.9 587.2 L 864.1 615.7 L 864.3 600.9 L 864.6 593.3 L 864.8 558.2 L 865.1 601.4 L 865.3 602.8 L 865.5 589.6 L 865.8 599.7 L 866.0 616.1 L 866.2 619.6 L 866.5 600.5 L 866.7 576.3 L 866.9 568.2 L 867.2 564.1 L 867.4 554.6 L 867.6 585.7 L 867.9 587.5 L 868.1 585.7 L 868.4 557.4 L 868.6 550.7 L 868.8 534.1 L 869.1 447.9 L 869.3 583.4 L 869.5 603.0 L 869.8 476.9 L 870.0 478.4 L 870.2 546.9 L 870.5 552.2 L 870.7 539.9 L 871.0 586.8 L 871.2 599.0 L 871.4 596.1 L 871.7 610.9 L 871.9 606.3 L 872.1 620.8 L 872.4 628.5 L 872.6 583.2 L 872.8 591.3 L 873.1 489.5 L 873.3 494.6 L 873.5 537.1 L 873.8 611.6 L 874.0 583.3 L 874.3 457.8 L 874.5 560.2 L 874.7 571.6 L 875.0 530.5 L 875.2 592.7 L 875.4 586.0 L 875.7 590.2 L 875.9 584.1 L 876.1 575.6 L 876.4 578.3 L 876.6 568.1 L 876.8 590.6 L 877.1 588.2 L 877.3 596.3 L 877.6 597.7 L 877.8 600.8 L 878.0 573.2 L 878.3 491.2 L 878.5 520.5 L 878.7 589.8 L 879.0 593.2 L 879.2 573.0 L 879.4 576.9 L 879.7 589.3 L 879.9 588.3 L 880.1 545.8 L 880.4 571.3 L 880.6 570.5 L 880.9 557.7 L 881.1 568.5 L 881.3 570.8 L 881.6 589.1 L 881.8 544.0 L 882.0 570.0 L 882.3 574.7 L 882.5 586.8 L 882.7 556.5 L 883.0 576.8 L 883.2 570.5 L 883.5 583.6 L 883.7 520.0 L 883.9 552.1 L 884.2 473.2 L 884.4 495.2 L 884.6 602.5 L 884.9 603.1 L 885.1 512.3 L 885.3 489.6 L 885.6 582.9 L 885.8 582.1 L 886.0 592.5 L 886.3 596.8 L 886.5 610.3 L 886.8 584.6 L 887.0 572.3 L 887.2 591.0 L 887.5 590.7 L 887.7 462.3 L 887.9 541.3 L 888.2 566.4 L 888.4 558.4 L 888.6 627.5 L 888.9 603.5 L 889.1 601.6 L 889.3 458.9 L 889.6 473.2 L 889.8 550.8 L 890.1 537.4 L 890.3 537.8 L 890.5 560.2 L 890.8 573.3 L 891.0 586.1 L 891.2 576.8 L 891.5 593.7 L 891.7 585.7 L 891.9 584.0 L 892.2 553.1 L 892.4 576.4 L 892.6 570.8 L 892.9 582.0 L 893.1 587.3 L 893.4 580.9 L 893.6 573.3 L 893.8 539.4 L 894.1 567.3 L 894.3 574.4 L 894.5 575.0 L 894.8 564.9 L 895.0 565.7 L 895.2 575.8 L 895.5 540.8 L 895.7 536.7 L 895.9 541.6 L 896.2 445.7 L 896.4 553.8 L 896.7 554.3 L 896.9 539.4 L 897.1 508.6 L 897.4 601.6 L 897.6 625.1 L 897.8 613.7 L 898.1 611.2 L 898.3 597.9 L 898.5 544.8 L 898.8 415.7 L 899.0 497.1 L 899.3 567.2 L 899.5 543.3 L 899.7 596.6 L 900.0 583.2 L 900.2 578.7 L 900.4 538.5 L 900.7 575.7 L 900.9 588.5 L 901.1 598.6 L 901.4 601.5 L 901.6 597.4 L 901.8 610.4 L 902.1 607.6 L 902.3 585.9 L 902.6 608.7 L 902.8 603.2 L 903.0 614.5 L 903.3 614.3 L 903.5 619.5 L 903.7 617.3 L 904.0 588.3 L 904.2 584.0 L 904.4 587.0 L 904.7 599.6 L 904.9 554.1 L 905.1 553.8 L 905.4 481.5 L 905.6 516.4 L 905.9 578.1 L 906.1 599.3 L 906.3 543.2 L 906.6 524.2 L 906.8 596.9 L 907.0 619.7 L 907.3 388.7 L 907.5 542.1 L 907.7 555.6 L 908.0 585.4 L 908.2 583.4 L 908.4 589.7 L 908.7 590.0 L 908.9 569.6 L 909.2 584.7 L 909.4 591.4 L 909.6 596.2 L 909.9 576.6 L 910.1 626.0 L 910.3 624.2 L 910.6 618.9 L 910.8 578.9 L 911.0 574.7 L 911.3 582.3 L 911.5 594.1 L 911.8 607.6 L 912.0 604.6 L 912.2 623.9 L 912.5 538.5 L 912.7 566.0 L 912.9 541.4 L 913.2 476.6 L 913.4 528.1 L 913.6 579.3 L 913.9 564.6 L 914.1 549.3 L 914.3 588.2 L 914.6 603.7 L 914.8 592.3 L 915.1 589.5 L 915.3 593.5 L 915.5 577.9 L 915.8 434.1 L 916.0 566.0 L 916.2 578.6 L 916.5 596.5 L 916.7 598.6 L 916.9 614.0 L 917.2 610.3 L 917.4 605.6 L 917.6 572.7 L 917.9 575.1 L 918.1 550.4 L 918.4 485.0 L 918.6 587.4 L 918.8 590.7 L 919.1 618.8 L 919.3 581.3 L 919.5 619.6 L 919.8 602.0 L 920.0 593.3 L 920.2 608.4 L 920.5 605.4 L 920.7 614.3 L 920.9 579.2 L 921.2 607.7 L 921.4 573.4 L 921.7 462.0 L 921.9 502.5 L 922.1 569.8 L 922.4 575.8 L 922.6 542.3 L 922.8 591.4 L 923.1 585.1 L 923.3 599.6 L 923.5 594.1 L 923.8 600.9 L 924.0 601.3 L 924.2 587.6 L 924.5 584.1 L 924.7 558.5 L 925.0 531.4 L 925.2 527.7 L 925.4 615.0 L 925.7 621.7 L 925.9 591.5 L 926.1 571.4 L 926.4 590.7 L 926.6 594.3 L 926.8 594.7 L 927.1 589.8 L 927.3 596.1 L 927.6 496.3 L 927.8 533.2 L 928.0 571.9 L 928.3 598.8 L 928.5 586.9 L 928.7 597.1 L 929.0 625.6 L 929.2 591.3 L 929.4 476.4 L 929.7 558.1 L 929.9 549.4 L 930.1 531.2 L 930.4 606.2 L 930.6 586.6 L 930.9 592.7 L 931.1 597.7 L 931.3 597.1 L 931.6 610.5 L 931.8 617.6 L 932.0 611.2 L 932.3 619.4 L 932.5 619.5 L 932.7 597.6 L 933.0 590.7 L 933.2 597.2 L 933.4 591.3 L 933.7 602.8 L 933.9 608.2 L 934.2 581.4 L 934.4 466.3 L 934.6 524.4 L 934.9 568.8 L 935.1 589.7 L 935.3 592.1 L 935.6 612.4 L 935.8 624.2 L 936.0 619.1 L 936.3 592.9 L 936.5 591.3 L 936.7 605.5 L 937.0 599.8 L 937.2 589.1 L 937.5 593.1 L 937.7 488.1 L 937.9 505.2 L 938.2 558.4 L 938.4 610.3 L 938.6 574.6 L 938.9 558.9 L 939.1 589.3 L 939.3 607.5 L 939.6 611.3 L 939.8 574.4 L 940.0 584.2 L 940.3 512.9 L 940.5 461.9 L 940.8 593.7 L 941.0 590.0 L 941.2 574.4 L 941.5 584.7 L 941.7 605.0 L 941.9 509.9 L 942.2 479.9 L 942.4 544.1 L 942.6 566.1 L 942.9 572.4 L 943.1 596.2 L 943.4 606.1 L 943.6 608.9 L 943.8 496.5 L 944.1 541.0 L 944.3 552.8 L 944.5 556.0 L 944.8 573.7 L 945.0 575.9 L 945.2 581.9 L 945.5 558.7 L 945.7 589.5 L 945.9 582.7 L 946.2 573.9 L 946.4 524.6 L 946.7 562.9 L 946.9 577.5 L 947.1 583.7 L 947.4 565.4 L 947.6 579.0 L 947.8 579.5 L 948.1 595.1 L 948.3 566.6 L 948.5 579.3 L 948.8 585.6 L 949.0 590.7 L 949.2 584.8 L 949.5 602.1 L 949.7 613.3 L 950.0 577.8 L 950.2 583.0 L 950.4 595.0 L 950.7 515.7 L 950.9 547.8 L 951.1 542.2 L 951.4 446.1 L 951.6 524.1 L 951.8 577.2 L 952.1 603.2 L 952.3 578.7 L 952.5 570.6 L 952.8 535.7 L 953.0 498.4 L 953.3 507.1 L 953.5 566.5 L 953.7 559.1 L 954.0 420.8 L 954.2 480.8 L 954.4 575.0 L 954.7 570.3 L 954.9 565.2 L 955.1 603.0 L 955.4 603.5 L 955.6 612.0 L 955.9 576.3 L 956.1 604.0 L 956.3 545.3 L 956.6 419.6 L 956.8 501.2 L 957.0 578.0 L 957.3 554.8 L 957.5 580.1 L 957.7 566.0 L 958.0 582.6 L 958.2 566.7 L 958.4 570.9 L 958.7 586.4 L 958.9 587.1 L 959.2 585.1 L 959.4 593.0 L 959.6 595.9 L 959.9 587.6 L 960.1 563.4 L 960.3 566.5 L 960.6 563.1 L 960.8 561.2 L 961.0 555.7 L 961.3 562.4 L 961.5 577.6 L 961.7 545.6 L 962.0 544.4 L 962.2 557.9 L 962.5 346.6 L 962.7 425.3 L 962.9 525.9 L 963.2 549.5 L 963.4 596.4 L 963.6 598.7 L 963.9 578.0 L 964.1 555.3 L 964.3 562.0 L 964.6 593.3 L 964.8 595.5 L 965.0 563.1 L 965.3 576.7 L 965.5 586.7 L 965.8 586.4 L 966.0 594.7 L 966.2 608.1 L 966.5 619.6 L 966.7 610.1 L 966.9 587.4 L 967.2 584.5 L 967.4 591.5 L 967.6 596.3 L 967.9 600.4 L 968.1 600.1 L 968.4 596.0 L 968.6 542.4 L 968.8 559.6 L 969.1 563.2 L 969.3 561.7 L 969.5 548.2 L 969.8 549.8 L 970.0 442.8 L 970.2 507.3 L 970.5 617.8 L 970.7 572.4 L 970.9 492.5 L 971.2 512.6 L 971.4 610.7 L 971.7 607.2 L 971.9 519.6 L 972.1 560.9 L 972.4 566.7 L 972.6 554.5 L 972.8 569.1 L 973.1 582.2 L 973.3 598.3 L 973.5 481.3 L 973.8 534.4 L 974.0 568.2 L 974.2 576.5 L 974.5 571.8 L 974.7 578.7 L 975.0 580.6 L 975.2 564.3 L 975.4 564.9 L 975.7 567.8 L 975.9 566.4 L 976.1 602.2 L 976.4 610.3 L 976.6 612.7 L 976.8 617.4 L 977.1 562.6 L 977.3 574.6 L 977.5 564.3 L 977.8 541.8 L 978.0 579.6 L 978.3 606.0 L 978.5 611.2 L 978.7 567.4 L 979.0 579.0 L 979.2 593.1 L 979.4 591.1 L 979.7 595.8 L 979.9 594.2 L 980.1 598.2 L 980.4 586.3 L 980.6 565.7 L 980.8 554.1 L 981.1 491.8 L 981.3 570.6 L 981.6 621.4 L 981.8 616.1 L 982.0 624.1 L 982.3 589.4 L 982.5 596.6 L 982.7 599.9 L 983.0 594.1 L 983.2 609.8 L 983.4 597.9 L 983.7 621.1 L 983.9 538.8 L 984.2 540.1 L 984.4 512.0 L 984.6 413.3 L 984.9 538.0 L 985.1 529.1 L 985.3 435.3 L 985.6 485.9 L 985.8 538.5 L 986.0 538.1 L 986.3 411.4 L 986.5 445.6 L 986.7 537.1 L 987.0 517.2 L 987.2 551.6 L 987.5 566.3 L 987.7 585.3 L 987.9 577.0 L 988.2 585.6 L 988.4 581.7 L 988.6 567.7 L 988.9 586.0 L 989.1 589.5 L 989.3 605.9 L 989.6 600.6 L 989.8 571.3 L 990.0 588.8 L 990.3 602.6 L 990.5 484.2 L 990.8 535.9 L 991.0 559.1 L 991.2 579.2 L 991.5 605.4 L 991.7 600.5 L 991.9 600.1 L 992.2 609.8 L 992.4 577.1 L 992.6 589.8 L 992.9 592.5 L 993.1 592.3 L 993.3 595.6 L 993.6 605.6 L 993.8 608.7 L 994.1 529.3 L 994.3 564.9 L 994.5 570.4 L 994.8 568.1 L 995.0 590.3 L 995.2 579.9 L 995.5 544.5 L 995.7 499.1 L 995.9 616.4 L 996.2 610.8 L 996.4 621.6 L 996.6 593.8 L 996.9 612.5 L 997.1 602.5 L 997.4 593.0 L 997.6 592.3 L 997.8 606.0 L 998.1 588.3 L 998.3 552.3 L 998.5 563.7 L 998.8 548.6 L 999.0 573.8 L 999.2 487.0 L 999.5 503.0 L 999.7 394.7 L 1000.0 340.2 L 1000.2 511.7 L 1000.4 554.6 L 1000.7 560.8 L 1000.9 582.1 L 1001.1 585.3 L 1001.4 585.1 L 1001.6 601.5 L 1001.8 585.7 L 1002.1 600.0 L 1002.3 477.1 L 1002.5 504.1 L 1002.8 524.4 L 1003.0 571.4 L 1003.3 556.3 L 1003.5 582.5 L 1003.7 571.4 L 1004.0 590.8 L 1004.2 537.6 L 1004.4 586.0 L 1004.7 586.6 L 1004.9 594.5 L 1005.1 590.0 L 1005.4 601.4 L 1005.6 609.8 L 1005.8 585.2 L 1006.1 584.3 L 1006.3 589.8 L 1006.6 530.0 L 1006.8 508.5 L 1007.0 615.5 L 1007.3 590.8 L 1007.5 561.7 L 1007.7 608.4 L 1008.0 612.0 L 1008.2 613.2 L 1008.4 609.5 L 1008.7 618.2 L 1008.9 584.4 L 1009.1 497.3 L 1009.4 538.6 L 1009.6 592.9 L 1009.9 609.4 L 1010.1 604.6 L 1010.3 598.1 L 1010.6 604.4 L 1010.8 605.4 L 1011.0 547.9 L 1011.3 581.9 L 1011.5 595.2 L 1011.7 590.6 L 1012.0 608.8 L 1012.2 611.0 L 1012.5 620.7 L 1012.7 553.1 L 1012.9 604.1 L 1013.2 594.5 L 1013.4 594.3 L 1013.6 592.0 L 1013.9 582.1 L 1014.1 526.7 L 1014.3 415.5 L 1014.6 537.2 L 1014.8 618.4 L 1015.0 596.9 L 1015.3 564.3 L 1015.5 577.6 L 1015.8 593.7 L 1016.0 622.0 L 1016.2 579.2 L 1016.5 588.6 L 1016.7 577.6 L 1016.9 499.4 L 1017.2 569.7 L 1017.4 558.1 L 1017.6 480.0 L 1017.9 453.4 L 1018.1 563.2 L 1018.3 508.0 L 1018.6 278.3 L 1018.8 387.4 L 1019.1 476.5 L 1019.3 473.9 L 1019.5 559.9 L 1019.8 564.0 L 1020.0 555.4 L 1020.2 556.0 L 1020.5 551.1 L 1020.7 551.1 L 1020.9 556.4 L 1021.2 552.0 L 1021.4 563.4 L 1021.6 581.5 L 1021.9 576.9 L 1022.1 603.6 L 1022.4 600.1 L 1022.6 603.9 L 1022.8 599.4 L 1023.1 575.4 L 1023.3 579.3 L 1023.5 580.7 L 1023.8 538.8 L 1024.0 578.9 L 1024.2 589.9 L 1024.5 607.1 L 1024.7 571.1 L 1025.0 565.3 L 1025.2 559.8 L 1025.4 547.6 L 1025.7 564.1 L 1025.9 570.1 L 1026.1 588.0 L 1026.4 552.3 L 1026.6 556.6 L 1026.8 564.5 L 1027.1 581.5 L 1027.3 517.0 L 1027.5 506.5 L 1027.8 464.6 L 1028.0 569.0 L 1028.3 565.3 L 1028.5 548.3 L 1028.7 366.7 L 1029.0 344.9 L 1029.2 514.4 L 1029.4 512.7 L 1029.7 578.6 L 1029.9 600.2 L 1030.1 609.0 L 1030.4 588.4 L 1030.6 597.7 L 1030.8 596.7 L 1031.1 589.7 L 1031.3 549.9 L 1031.6 615.5 L 1031.8 612.7 L 1032.0 626.5 L 1032.3 555.8 L 1032.5 606.7 L 1032.7 623.6 L 1033.0 606.9 L 1033.2 601.8 L 1033.4 605.8 L 1033.7 613.6 L 1033.9 605.7 L 1034.1 593.6 L 1034.4 587.5 L 1034.6 465.3 L 1034.9 509.3 L 1035.1 568.5 L 1035.3 603.3 L 1035.6 588.2 L 1035.8 610.4 L 1036.0 610.5 L 1036.3 601.9 L 1036.5 482.6 L 1036.7 570.1 L 1037.0 600.1 L 1037.2 542.0 L 1037.4 542.7 L 1037.7 598.8 L 1037.9 585.9 L 1038.2 577.9 L 1038.4 581.1 L 1038.6 590.9 L 1038.9 602.0 L 1039.1 604.8 L 1039.3 586.6 L 1039.6 596.0 L 1039.8 485.8 L 1040.0 550.2 L 1040.3 596.6 L 1040.5 624.4 L 1040.8 549.6 L 1041.0 597.5 L 1041.2 605.3 L 1041.5 622.6 L 1041.7 592.0 L 1041.9 604.2 L 1042.2 594.0 L 1042.4 579.6 L 1042.6 572.6 L 1042.9 592.2 L 1043.1 490.5 L 1043.3 529.4 L 1043.6 574.9 L 1043.8 592.0 L 1044.1 599.8 L 1044.3 607.2 L 1044.5 612.4 L 1044.8 605.1 L 1045.0 497.0 L 1045.2 593.3 L 1045.5 599.7 L 1045.7 601.1 L 1045.9 589.9 L 1046.2 593.1 L 1046.4 587.7 L 1046.6 420.9 L 1046.9 564.9 L 1047.1 573.2 L 1047.4 586.3 L 1047.6 623.9 L 1047.8 617.8 L 1048.1 619.8 L 1048.3 600.7 L 1048.5 599.0 L 1048.8 614.1 L 1049.0 610.2 L 1049.2 565.4 L 1049.5 603.2 L 1049.7 602.7 L 1049.9 613.7 L 1050.2 548.6 L 1050.4 547.7 L 1050.7 510.5 L 1050.9 324.2 L 1051.1 451.6 L 1051.4 557.8 L 1051.6 566.6 L 1051.8 547.5 L 1052.1 573.3 L 1052.3 584.4 L 1052.5 577.6 L 1052.8 603.4 L 1053.0 616.4 L 1053.2 610.0 L 1053.5 487.5 L 1053.7 573.4 L 1054.0 585.6 L 1054.2 586.0 L 1054.4 596.8 L 1054.7 590.9 L 1054.9 603.7 L 1055.1 573.7 L 1055.4 564.4 L 1055.6 548.8 L 1055.8 498.7 L 1056.1 555.6 L 1056.3 611.8 L 1056.6 617.6 L 1056.8 601.1 L 1057.0 603.2 L 1057.3 617.5 L 1057.5 545.6 L 1057.7 539.8 L 1058.0 523.5 L 1058.2 575.4 L 1058.4 556.5 L 1058.7 562.2 L 1058.9 562.0 L 1059.1 576.1 L 1059.4 567.1 L 1059.6 559.1 L 1059.9 565.4 L 1060.1 571.9 L 1060.3 570.5 L 1060.6 589.8 L 1060.8 589.0 L 1061.0 572.9 L 1061.3 586.8 L 1061.5 569.0 L 1061.7 543.7 L 1062.0 539.9 L 1062.2 600.1 L 1062.4 588.7 L 1062.7 590.4 L 1062.9 628.0 L 1063.2 617.9 L 1063.4 605.3 L 1063.6 561.3 L 1063.9 614.4 L 1064.1 608.0 L 1064.3 596.9 L 1064.6 607.9 L 1064.8 592.7 L 1065.0 578.8 L 1065.3 446.1 L 1065.5 529.8 L 1065.7 581.4 L 1066.0 578.7 L 1066.2 589.5 L 1066.5 597.4 L 1066.7 596.0 L 1066.9 453.7 L 1067.2 492.4 L 1067.4 560.1 L 1067.6 582.9 L 1067.9 573.2 L 1068.1 622.8 L 1068.3 607.0 L 1068.6 622.5 L 1068.8 587.8 L 1069.1 592.6 L 1069.3 598.0 L 1069.5 601.2 L 1069.8 604.5 L 1070.0 605.6 L 1070.2 614.4 L 1070.5 475.6 L 1070.7 562.3 L 1070.9 563.5 L 1071.2 567.4 L 1071.4 551.6 L 1071.6 567.6 L 1071.9 508.1 L 1072.1 446.5 L 1072.4 548.0 L 1072.6 615.5 L 1072.8 582.7 L 1073.1 432.0 L 1073.3 581.3 L 1073.5 570.6 L 1073.8 563.4 L 1074.0 606.4 L 1074.2 611.8 L 1074.5 591.3 L 1074.7 547.6 L 1074.9 557.9 L 1075.2 556.1 L 1075.4 563.7 L 1075.7 576.3 L 1075.9 595.9 L 1076.1 599.1 L 1076.4 587.4 L 1076.6 596.9 L 1076.8 595.6 L 1077.1 606.5 L 1077.3 582.0 L 1077.5 591.1 L 1077.8 578.1 L 1078.0 568.7 L 1078.2 581.9 L 1078.5 607.6 L 1078.7 608.7 L 1079.0 562.8 L 1079.2 568.0 L 1079.4 583.2 L 1079.7 594.0 L 1079.9 598.8 L 1080.1 599.3 L 1080.4 599.2 L 1080.6 615.9 L 1080.8 542.4 L 1081.1 564.7 L 1081.3 572.3 L 1081.5 578.8 L 1081.8 581.2 L 1082.0 578.1 L 1082.3 574.5 L 1082.5 552.5 L 1082.7 566.4 L 1083.0 490.0 L 1083.2 490.6 L 1083.4 602.7 L 1083.7 546.4 L 1083.9 434.2 L 1084.1 358.4 L 1084.4 521.6 L 1084.6 549.1 L 1084.9 519.6 L 1085.1 597.6 L 1085.3 589.0 L 1085.6 603.8 L 1085.8 583.3 L 1086.0 604.7 L 1086.3 599.7 L 1086.5 512.9 L 1086.7 471.1 L 1087.0 536.1 L 1087.2 517.0 L 1087.4 528.9 L 1087.7 534.1 L 1087.9 563.6 L 1088.2 559.6 L 1088.4 592.6 L 1088.6 585.5 L 1088.9 593.8 L 1089.1 585.8 L 1089.3 572.8 L 1089.6 577.7 L 1089.8 581.2 L 1090.0 577.0 L 1090.3 586.5 L 1090.5 586.0 L 1090.7 570.3 L 1091.0 570.9 L 1091.2 591.7 L 1091.5 585.4 L 1091.7 558.4 L 1091.9 579.1 L 1092.2 592.5 L 1092.4 595.1 L 1092.6 547.5 L 1092.9 555.5 L 1093.1 562.3 L 1093.3 483.7 L 1093.6 589.5 L 1093.8 611.9 L 1094.0 624.4 L 1094.3 562.8 L 1094.5 571.8 L 1094.8 594.2 L 1095.0 515.0 L 1095.2 505.4 L 1095.5 584.2 L 1095.7 587.0 L 1095.9 567.9 L 1096.2 605.3 L 1096.4 590.7 L 1096.6 596.3 L 1096.9 604.2 L 1097.1 598.4 L 1097.4 603.9 L 1097.6 586.2 L 1097.8 601.0 L 1098.1 596.6 L 1098.3 602.9 L 1098.5 505.2 L 1098.8 560.4 L 1099.0 537.8 L 1099.2 429.2 L 1099.5 522.7 L 1099.7 598.6 L 1099.9 617.4 L 1100.2 582.5 L 1100.4 592.8 L 1100.7 599.7 L 1100.9 487.2 L 1101.1 541.9 L 1101.4 565.5 L 1101.6 594.1 L 1101.8 603.7 L 1102.1 614.8 L 1102.3 621.5 L 1102.5 615.9 L 1102.8 552.8 L 1103.0 569.1 L 1103.2 567.5 L 1103.5 554.8 L 1103.7 611.8 L 1104.0 605.8 L 1104.2 589.9 L 1104.4 603.5 L 1104.7 544.8 L 1104.9 564.7 L 1105.1 587.4 L 1105.4 591.1 L 1105.6 581.9 L 1105.8 600.3 L 1106.1 505.6 L 1106.3 536.0 L 1106.5 594.9 L 1106.8 604.2 L 1107.0 592.7 L 1107.3 604.2 L 1107.5 596.9 L 1107.7 593.5 L 1108.0 592.4 L 1108.2 595.7 L 1108.4 582.9 L 1108.7 561.7 L 1108.9 596.8 L 1109.1 603.3 L 1109.4 621.0 L 1109.6 580.1 L 1109.8 592.6 L 1110.1 600.3 L 1110.3 607.0 L 1110.6 609.8 L 1110.8 614.2 L 1111.0 622.1 L 1111.3 512.7 L 1111.5 575.5 L 1111.7 554.7 L 1112.0 496.5 L 1112.2 517.2 L 1112.4 590.3 L 1112.7 612.9 L 1112.9 579.8 L 1113.2 590.7 L 1113.4 603.9 L 1113.6 608.6 L 1113.9 580.2 L 1114.1 589.5 L 1114.3 582.5 L 1114.6 624.4 L 1114.8 530.9 L 1115.0 548.6 L 1115.3 400.1 L 1115.5 310.5 L 1115.7 435.9 L 1116.0 562.4 L 1116.2 528.5 L 1116.5 622.9 L 1116.7 604.6 L 1116.9 606.4 L 1117.2 502.1 L 1117.4 522.5 L 1117.6 557.3 L 1117.9 574.0 L 1118.1 578.5 L 1118.3 580.0 L 1118.6 590.4 L 1118.8 586.5 L 1119.0 611.1 L 1119.3 607.6 L 1119.5 607.5 L 1119.8 579.6 L 1120.0 584.7 L 1120.2 574.9 L 1120.5 577.7 L 1120.7 572.3 L 1120.9 577.4 L 1121.2 599.7 L 1121.4 488.4 L 1121.6 549.8 L 1121.9 565.9 L 1122.1 580.2 L 1122.3 583.9 L 1122.6 582.9 L 1122.8 583.7 L 1123.1 599.0 L 1123.3 563.5 L 1123.5 570.5 L 1123.8 575.6 L 1124.0 557.6 " fill="none" stroke="#c09030" stroke-width="0.8"/>
<text x="1018.6" y="274.3" font-family="monospace" font-size="9" fill="#ff8040" text-anchor="middle" opacity="0.8">★</text>
<text x="1050.9" y="320.2" font-family="monospace" font-size="9" fill="#ff8040" text-anchor="middle" opacity="0.8">★</text>
<text x="1115.5" y="306.5" font-family="monospace" font-size="9" fill="#ff8040" text-anchor="middle" opacity="0.8">★</text>
<circle cx="141.9" cy="324.3" r="3.5" fill="none" stroke="#ff8040" stroke-width="0.8" opacity="0.7"/>
<circle cx="591.2" cy="337.3" r="3.5" fill="none" stroke="#ff8040" stroke-width="0.8" opacity="0.7"/>
<circle cx="158.4" cy="304.2" r="3.5" fill="none" stroke="#ff8040" stroke-width="0.8" opacity="0.7"/>
<circle cx="597.3" cy="331.3" r="3.5" fill="none" stroke="#ff8040" stroke-width="0.8" opacity="0.7"/>
<circle cx="148.4" cy="347.9" r="3.5" fill="none" stroke="#ff8040" stroke-width="0.8" opacity="0.7"/>
<circle cx="592.0" cy="344.7" r="3.5" fill="none" stroke="#ff8040" stroke-width="0.8" opacity="0.7"/>
<line x1="216" y1="50" x2="216" y2="630" stroke="#1a1a28" stroke-width="0.4" stroke-dasharray="2,3"/>
<line x1="50" y1="340" x2="382" y2="340" stroke="#1a1a28" stroke-width="0.4" stroke-dasharray="2,3"/>
<line x1="599" y1="50" x2="599" y2="630" stroke="#1a1a28" stroke-width="0.4" stroke-dasharray="2,3"/>
<line x1="433" y1="340" x2="765" y2="340" stroke="#1a1a28" stroke-width="0.4" stroke-dasharray="2,3"/>
<text x="50" y="672" font-family="monospace" font-size="8" fill="#444">Input: "What is 1 plus 1"  ·  max wobble = 0.6714  ·  ZD crossings (wobble peaks) = 3  ·  oscillators: 1200 steps over T=2π×53</text>
<text x="982" y="622" font-family="monospace" font-size="8" fill="#c09030" text-anchor="middle">max=0.6714  ·  mean=0.0776</text>
</svg>