<?xml version="1.0" encoding="UTF-8"?>
<svg xmlns="http://www.w3.org/2000/svg" width="1200" height="680" viewBox="0 0 1200 680">
<rect width="1200" height="680" fill="#060609"/>
<rect x="50" y="50" width="333" height="580" fill="none" stroke="#1a1a2a" stroke-width="0.5"/>
<text x="216" y="36" font-family="monospace" font-size="11" fill="#aaa" text-anchor="middle" font-weight="bold">𝕆 FANO PROJECTION</text>
<text x="216" y="47" font-family="monospace" font-size="8" fill="#555" text-anchor="middle">channels e4-e7  ·  primes {11,13,17,19}</text>
<rect x="433" y="50" width="333" height="580" fill="none" stroke="#1a1a2a" stroke-width="0.5"/>
<text x="599" y="36" font-family="monospace" font-size="11" fill="#aaa" text-anchor="middle" font-weight="bold">𝕊 SEDENION PATH</text>
<text x="599" y="47" font-family="monospace" font-size="8" fill="#555" text-anchor="middle">all 16 channels  ·  primes {2,...,53}</text>
<rect x="816" y="50" width="333" height="580" fill="none" stroke="#1a1a2a" stroke-width="0.5"/>
<text x="982" y="36" font-family="monospace" font-size="11" fill="#aaa" text-anchor="middle" font-weight="bold">WOBBLE  Δ(t)</text>
<text x="982" y="47" font-family="monospace" font-size="8" fill="#555" text-anchor="middle">|sedenion − fano|  ·  ZD crossings = ★</text>
<path d="M 112.58 420.07 L 231.72 437.06 L 213.37 394.39 L 224.21 385.49 L 219.64 371.58 L 224.80 371.14 L 221.55 360.61 L 226.92 361.65 L 223.56 359.08 L 224.59 356.82 L 223.99 351.88 L 225.51 351.80 L 224.71 349.50 L 225.26 347.88 L 225.53 347.61 L 224.00 345.89 L 224.99 343.12 L 224.75 341.86 L 225.70 342.31 L 223.81 340.29 L 225.36 339.55 L 223.42 338.31 L 224.58 336.64 L 223.75 334.86 L 225.09 335.71 L 222.76 334.60 L 223.54 332.57 L 222.76 331.33 L 223.07 330.48 L 222.54 328.84 L 222.86 328.87 L 221.47 328.58 L 220.17 325.50 L 221.01 322.87 L 220.41 322.64 L 220.13 321.66 L 217.99 320.20 L 216.53 318.10 L 211.14 310.16 L 209.11 288.70 L 192.58 362.01 L 210.54 338.91 L 213.20 332.26 L 217.27 330.78 L 213.82 332.81 L 209.86 322.55 L 210.54 304.46 L 179.07 345.14 L 211.93 355.03 L 210.69 354.40 L 211.21 346.62 L 213.07 343.76 L 214.07 344.10 L 211.77 341.03 L 215.04 338.39 L 212.15 340.61 L 213.31 337.41 L 208.97 336.53 L 212.73 331.80 L 204.93 336.27 L 206.92 320.91 L 178.02 347.71 L 206.95 394.32 L 211.61 359.11 L 215.16 366.76 L 211.77 355.59 L 214.74 367.29 L 206.64 355.99 L 210.08 403.79 L 243.81 385.38 L 236.48 342.33 L 231.49 350.30 L 231.21 339.80 L 226.38 341.56 L 228.11 332.65 L 224.88 333.73 L 226.65 327.30 L 223.52 329.11 L 220.27 325.20 L 193.81 307.59 L 218.84 367.61 L 218.69 354.83 L 220.20 345.99 L 221.51 340.51 L 223.98 339.62 L 223.18 339.77 L 222.08 337.38 L 222.71 333.81 L 221.67 334.26 L 220.92 328.59 L 221.65 326.54 L 221.74 326.64 L 214.82 323.49 L 212.00 295.26 L 188.30 359.43 L 216.88 347.46 L 217.64 352.82 L 216.88 345.57 L 218.58 342.47 L 219.96 341.62 L 218.86 340.86 L 219.87 337.10 L 220.70 338.08 L 219.37 337.92 L 219.11 334.39 L 219.60 333.69 L 219.87 332.53 L 218.85 332.76 L 219.47 329.87 L 218.05 332.11 L 217.47 326.97 L 217.23 327.31 L 217.97 324.02 L 216.36 327.50 L 214.96 322.02 L 213.43 323.17 L 211.15 315.19 L 211.12 312.27 L 209.10 304.14 L 175.45 339.12 L 203.08 339.52 L 208.04 335.61 L 183.13 335.67 L 193.96 395.63 L 216.52 364.58 L 212.87 362.61 L 217.44 355.84 L 215.34 355.46 L 217.00 352.19 L 215.61 351.52 L 215.20 348.42 L 216.92 346.16 L 214.89 349.99 L 215.17 346.17 L 211.14 349.93 L 214.65 347.12 L 199.38 366.20 L 229.52 393.25 L 243.65 341.49 L 224.00 334.97 L 215.10 303.47 L 201.44 373.14 L 222.51 353.28 L 224.28 352.14 L 223.47 353.24 L 222.76 343.17 L 225.08 345.60 L 223.52 340.94 L 224.08 340.92 L 224.54 336.88 L 223.88 340.26 L 222.11 334.51 L 222.70 333.20 L 222.94 330.54 L 222.34 330.80 L 221.57 328.65 L 219.10 327.73 L 214.69 320.72 L 207.50 296.26 L 201.95 374.74 L 213.73 349.37 L 218.65 344.50 L 220.64 341.79 L 221.42 344.48 L 219.55 340.46 L 220.49 339.38 L 220.12 335.75 L 221.06 336.45 L 220.48 333.35 L 221.37 335.15 L 219.26 333.00 L 219.70 331.03 L 219.50 329.20 L 219.84 329.29 L 218.40 328.43 L 218.63 325.94 L 217.50 327.44 L 216.00 322.33 L 216.49 322.93 L 215.10 318.98 L 213.96 322.99 L 209.16 311.87 L 211.30 317.14 L 192.11 299.49 L 185.57 360.11 L 218.06 347.60 L 208.91 339.62 L 192.68 308.62 L 196.27 382.73 L 209.68 352.93 L 213.83 355.76 L 214.53 352.41 L 212.02 350.85 L 214.54 342.84 L 213.23 345.16 L 214.01 337.72 L 213.41 339.19 L 210.93 337.43 L 179.88 328.96 L 211.12 377.60 L 209.63 369.86 L 211.26 365.47 L 209.48 359.11 L 213.99 365.29 L 206.77 362.75 L 210.98 409.90 L 246.06 386.63 L 233.95 348.62 L 231.94 354.09 L 231.13 343.33 L 229.85 347.48 L 229.11 342.45 L 227.06 341.86 L 228.53 338.41 L 226.35 338.47 L 227.79 335.96 L 225.99 335.63 L 226.89 335.26 L 224.03 332.64 L 226.25 330.69 L 224.52 330.41 L 225.18 329.84 L 223.39 327.67 L 224.34 327.50 L 221.95 325.70 L 222.71 322.57 L 222.75 322.22 L 221.58 322.76 L 219.74 319.39 L 219.73 316.22 L 219.04 316.13 L 215.57 310.89 L 217.37 304.47 L 214.36 306.14 L 183.91 291.15 L 200.70 350.72 L 204.88 323.79 L 208.10 312.09 L 179.61 360.15 L 205.69 351.29 L 212.46 345.06 L 210.37 348.98 L 209.48 339.79 L 206.40 340.82 L 202.56 320.17 L 181.67 367.74 L 216.05 387.98 L 215.33 360.63 L 219.14 364.64 L 216.66 353.89 L 220.52 354.20 L 219.26 351.15 L 220.41 351.29 L 219.27 348.21 L 220.36 347.22 L 219.53 346.05 L 220.11 343.16 L 220.80 344.30 L 219.66 342.83 L 219.64 342.73 L 219.05 338.97 L 220.11 341.17 L 218.45 337.52 L 219.91 339.76 L 217.94 337.21 L 217.98 339.30 L 216.63 333.50 L 218.04 337.65 L 216.13 334.40 L 215.29 338.52 L 214.47 333.68 L 211.04 341.19 L 211.36 332.91 L 201.28 356.73 L 231.23 386.03 L 237.72 329.39 L 219.68 320.14 L 211.92 292.15 L 206.93 368.31 L 215.87 334.89 L 219.32 323.86 L 187.42 329.97 L 216.70 372.47 L 215.50 361.35 L 218.83 349.93 L 221.02 351.49 L 220.71 347.00 L 221.12 345.46 L 223.11 342.84 L 221.16 345.60 L 221.35 339.07 L 221.57 339.80 L 222.44 337.06 L 221.12 338.43 L 221.83 334.30 L 221.03 336.63 L 220.13 332.45 L 220.44 331.86 L 220.28 330.12 L 219.98 331.01 L 217.74 328.47 L 218.82 326.59 L 215.36 326.48 L 216.74 320.88 L 211.53 323.91 L 212.03 311.10 L 183.51 333.01 L 209.51 378.59 L 219.35 346.18 L 218.99 349.34 L 219.39 339.29 L 220.19 341.74 L 217.27 335.65 L 218.28 332.29 L 217.33 326.66 L 219.07 326.56 L 213.65 323.97 L 183.60 323.35 L 215.04 360.76 L 215.80 354.09 L 214.40 346.70 L 217.20 342.73 L 215.80 340.15 L 217.60 335.79 L 217.98 335.92 L 215.46 336.31 L 211.63 325.70 L 214.32 313.01 L 180.11 343.24 L 212.89 364.85 L 211.77 360.48 L 211.89 352.91 L 216.35 350.43 L 214.17 352.51 L 216.05 348.15 L 214.95 348.95 L 217.11 349.57 L 212.56 349.20 L 216.30 347.55 L 212.05 349.06 L 215.28 354.29 L 205.18 353.21 L 214.22 400.16 L 245.97 373.07 L 232.41 336.18 L 232.60 344.46 L 229.48 334.09 L 227.93 338.43 L 226.65 330.04 L 225.73 332.40 L 224.97 326.35 L 224.77 326.91 L 224.16 325.59 L 221.06 324.84 L 218.96 319.24 L 217.09 311.01 L 216.10 299.56 L 189.12 356.00 L 215.27 341.45 L 218.04 337.51 L 218.93 339.77 L 216.82 333.14 L 217.81 334.80 L 214.26 326.76 L 217.28 327.12 L 212.01 322.56 L 213.95 322.50 L 188.67 314.88 L 199.27 380.12 L 221.34 352.50 L 215.40 348.59 L 221.35 337.04 L 217.76 342.13 L 214.27 328.68 L 212.79 309.50 L 185.71 358.72 L 216.16 359.91 L 216.37 359.10 L 215.78 353.30 L 218.46 347.76 L 219.59 348.95 L 218.56 346.33 L 220.22 343.35 L 220.09 344.86 L 219.43 342.38 L 218.87 340.41 L 220.59 337.52 L 219.65 339.84 L 219.76 336.10 L 218.94 337.52 L 218.53 334.02 L 217.22 332.95 L 218.63 328.34 L 217.99 331.03 L 215.93 329.03 L 210.45 325.54 L 194.53 301.44 L 206.27 376.64 L 210.69 355.65 L 213.59 347.87 L 216.05 347.39 L 216.29 344.80 L 216.95 347.43 L 215.65 344.21 L 214.99 346.17 L 215.29 339.50 L 215.46 346.73 L 214.49 341.04 L 212.21 350.77 L 212.41 342.78 L 201.60 373.82 L 234.43 390.64 L 242.34 338.00 L 228.25 339.30 L 230.77 331.76 L 225.02 328.24 L 227.85 327.25 L 221.57 323.33 L 224.62 318.42 L 221.22 318.73 L 216.77 315.17 L 206.71 285.90 L 191.62 354.24 L 213.41 338.31 L 215.67 339.19 L 212.77 337.66 L 211.10 325.83 L 213.11 329.80 L 196.95 312.44 L 189.21 371.91 L 221.56 368.44 L 214.91 352.89 L 218.60 346.52 L 217.04 339.08 L 219.70 334.92 L 216.47 333.12 L 183.31 342.69 L 218.17 367.05 L 218.62 361.24 L 218.62 358.54 L 219.16 351.35 L 220.45 351.13 L 220.98 345.85 L 222.71 348.29 L 221.41 345.90 L 221.42 345.69 L 221.27 341.24 L 222.39 342.30 L 221.66 339.94 L 222.38 339.88 L 221.86 339.21 L 221.12 338.18 L 221.22 335.56 L 221.83 334.79 L 221.59 335.70 L 220.50 333.18 L 221.20 333.28 L 219.82 331.49 L 220.01 330.73 L 219.79 327.43 L 220.51 330.48 L 217.59 327.24 L 218.36 325.67 L 217.66 323.34 L 216.58 324.38 L 214.91 317.21 L 216.49 317.99 L 210.57 317.44 L 193.59 289.21 L 192.65 363.17 L 206.68 340.26 L 212.17 342.18 L 207.68 342.94 L 207.18 335.66 L 203.72 328.31 L 203.44 314.35 L 179.56 382.58 L 204.93 365.85 L 197.97 365.23 L 212.08 413.31 L 241.34 377.28 L 227.87 347.75 L 225.98 351.84 L 225.16 338.22 L 223.77 343.91 L 223.69 335.59 L 219.49 340.24 L 220.26 328.06 L 215.33 336.45 L 211.17 312.83 L 188.13 358.74 L 222.28 382.82 L 220.28 355.14 L 225.11 355.78 L 222.54 347.79 L 225.95 348.49 L 222.94 343.82 L 226.04 343.79 L 222.71 341.59 L 224.63 338.78 L 223.51 336.72 L 225.03 336.74 L 222.82 335.47 L 223.61 332.99 L 222.71 332.47 L 222.04 329.83 L 222.48 327.35 L 222.53 327.39 L 221.06 327.51 L 218.71 322.64 L 220.08 319.59 L 217.67 318.26 L 216.88 312.68 L 215.70 308.02 L 210.24 308.62 L 160.56 268.58 L 197.42 405.42 L 203.79 367.39 L 212.86 357.50 L 214.17 356.37 L 215.86 351.91 L 217.53 350.07 L 218.04 351.00 L 216.69 348.16 L 217.68 344.40 L 219.32 344.01 L 218.41 344.41 L 219.07 342.18 L 218.37 342.29 L 218.90 340.87 L 217.41 339.34 L 219.81 337.58 L 217.95 339.53 L 218.67 337.52 L 216.81 336.99 L 218.47 335.61 L 216.18 335.64 L 217.87 333.83 L 216.23 335.06 L 216.11 334.93 L 214.20 332.75 L 214.85 332.99 L 213.80 331.99 L 212.25 334.78 L 212.00 331.26 L 207.75 339.91 L 207.37 331.09 L 195.76 362.96 L 233.07 375.42 L 228.36 324.65 L 218.07 315.63 L 192.09 324.33 L 209.84 373.80 L 223.30 332.43 L 219.52 332.74 L 187.07 351.62 L 218.27 359.33 L 222.03 351.72 L 220.94 351.83 L 217.60 343.55 L 218.90 331.56 L 220.54 329.64 L 188.67 324.67 L 213.71 380.06 L 214.79 360.93 L 218.65 355.01 L 221.78 353.41 L 219.98 353.33 L 222.32 347.30 L 222.35 350.00 L 222.13 346.90 L 221.41 345.11 L 223.43 342.12 L 222.78 344.04 L 222.68 341.18 L 222.75 340.71 L 222.61 339.85 L 222.05 337.94 L 222.68 336.33 L 223.15 336.29 L 221.92 336.83 L 221.82 333.47 L 221.60 333.83 L 221.68 331.17 L 221.20 331.53 L 221.88 329.31 L 220.34 331.64 L 219.50 326.94 L 219.24 326.30 L 219.81 323.48 L 218.80 324.72 L 217.99 322.12 L 215.23 322.00 L 210.89 313.76 L 204.96 291.38 L 196.12 368.03 L 209.68 343.82 L 213.79 338.56 L 216.45 336.44 L 215.77 339.50 L 214.31 334.26 L 214.27 333.47 L 214.77 329.09 L 213.29 331.51 L 213.42 323.54 L 213.29 329.29 L 209.14 322.86 L 206.48 317.95 L 207.86 303.91 L 171.92 329.04 L 200.16 355.08 L 198.21 350.65 L 179.87 335.35 L 185.40 405.05 L 213.41 384.66 L 196.58 384.22 L 218.76 422.69 L 243.90 386.49 L 229.63 354.68 L 231.69 360.36 L 228.97 348.38 L 228.69 354.10 L 227.17 343.66 L 227.38 348.19 L 225.82 340.33 L 226.31 341.55 L 226.49 337.25 L 225.52 340.04 L 223.97 335.25 L 223.46 333.47 L 223.20 330.00 L 222.77 327.32 L 222.76 326.46 L 218.07 325.41 L 190.39 312.84 L 218.01 364.84 L 219.00 355.98 L 218.58 346.95 L 220.87 343.35 L 222.25 339.66 L 223.15 342.35 L 221.71 338.75 L 222.43 338.66 L 221.58 335.75 L 221.82 334.84 L 222.18 331.76 L 222.67 333.59 L 220.81 331.99 L 220.62 328.76 L 221.24 327.86 L 219.90 327.10 L 219.38 323.86 L 219.88 321.54 L 217.99 323.88 L 212.52 313.47 L 214.78 297.43 L 181.60 339.27 L 215.00 349.90 L 212.24 347.69 L 213.52 340.83 L 215.20 336.23 L 216.60 338.63 L 214.54 334.80 L 216.52 333.76 L 214.95 333.89 L 214.20 331.47 L 213.61 328.43 L 214.54 326.68 L 213.04 328.92 L 210.75 323.66 L 209.58 325.46 L 204.26 314.66 L 204.46 314.26 L 190.16 288.28 L 148.08 394.69 L 210.33 388.62 L 210.23 373.31 L 214.44 370.80 L 211.63 368.23 L 213.50 359.46 L 213.81 363.34 L 214.30 356.59 L 212.92 367.47 L 211.79 357.26 L 204.24 396.96 L 240.29 399.20 L 240.59 348.45 L 231.53 352.97 L 233.04 345.36 L 228.16 343.79 L 230.77 341.06 L 226.43 338.94 L 229.10 336.15 L 226.68 335.09 L 227.53 335.59 L 224.06 331.03 L 226.52 329.40 L 224.12 328.60 L 223.68 326.01 L 223.19 321.45 L 222.98 323.35 L 216.21 317.14 L 212.72 290.93 L 190.41 353.83 L 217.21 343.99 L 218.61 347.05 L 215.83 340.96 L 218.80 334.57 L 218.96 334.46 L 219.40 332.64 L 217.95 330.38 L 217.79 329.59 L 211.14 324.20 L 202.40 297.67 L 202.52 376.44 L 212.54 352.80 L 215.32 345.74 L 219.17 343.24 L 219.16 344.83 L 218.45 342.98 L 218.25 340.38 L 218.54 338.26 L 219.01 337.26 L 218.56 335.55 L 219.80 335.75 L 217.25 335.47 L 218.22 332.41 L 216.56 331.42 L 218.52 330.05 L 215.05 330.64 L 217.11 326.72 L 212.92 329.53 L 213.67 321.76 L 208.90 325.92 L 206.73 308.25 L 181.13 349.24 L 213.98 378.06 L 214.99 347.22 L 218.15 352.60 L 215.72 340.65 L 219.30 343.78 L 216.42 339.45 L 216.67 339.96 L 215.36 332.94 L 216.73 335.25 L 214.02 331.55 L 213.52 328.76 L 213.90 327.43 L 205.73 327.69 L 195.04 295.61 L 182.70 371.21 L 205.34 352.04 L 193.79 362.98 L 180.43 403.99 L 238.66 395.48 L 225.14 371.84 L 226.43 369.55 L 223.73 355.60 L 226.91 355.85 L 226.65 351.72 L 225.62 353.48 L 226.01 347.29 L 225.05 349.45 L 225.38 343.54 L 225.10 344.24 L 226.61 341.50 L 224.57 343.86 L 225.03 338.91 L 224.43 339.60 L 225.05 336.96 L 224.18 336.92 L 225.07 335.08 L 223.99 336.04 L 223.32 333.63 L 223.45 331.49 L 223.71 331.59 L 223.20 330.38 L 222.62 330.07 L 222.69 328.13 L 221.24 328.72 L 221.51 323.96 L 221.56 325.68 L 221.27 323.60 L 219.41 324.70 L 219.39 319.51 L 218.47 321.37 L 217.60 315.88 L 217.85 316.70 L 216.53 314.85 L 213.56 315.31 L 209.89 305.95 L 210.28 300.02 L 205.14 288.08 L 177.54 337.78 L 200.15 321.72 L 203.00 313.96 L 155.00 303.95 L 183.30 432.26 L 206.99 374.34 L 211.67 374.89 L 214.06 366.62 L 214.60 364.54 L 216.46 358.87 L 217.34 360.63 L 215.47 355.39 L 218.61 352.76 L 217.79 352.87 L 219.12 352.11 L 217.05 350.34 L 219.60 349.13 L 216.80 348.90 L 219.27 346.15 L 217.69 346.70 L 219.28 347.33 L 216.08 345.97 L 218.24 345.50 L 215.98 344.53 L 217.07 347.19 L 214.88 343.94 L 215.08 353.48 L 210.40 346.58 L 205.98 384.96 L 243.45 385.09 L 238.66 336.10 L 231.10 342.85 L 231.28 332.35 L 226.98 333.96 L 227.30 326.74 L 225.84 325.09 L 226.54 324.82 L 221.79 323.12 L 217.93 317.83 L 201.57 292.26 L 211.74 369.84 L 215.24 344.04 L 220.17 338.93 L 220.41 334.67 L 221.41 334.33 L 221.10 330.15 L 220.49 332.57 L 216.66 324.40 L 218.82 317.77 L 218.27 317.52 L 188.49 306.27 L 208.42 368.44 L 211.04 347.60 L 216.35 342.25 L 217.44 342.75 L 216.46 341.34 L 217.18 335.96 L 218.00 339.08 L 215.40 333.99 L 216.78 333.82 L 215.18 328.96 L 216.28 333.11 L 210.02 325.12 L 213.52 326.33 L 190.63 316.16 L 195.17 382.34 L 221.98 359.06 L 216.48 356.70 L 220.37 347.80 L 217.83 347.84 L 220.54 340.67 L 219.05 343.16 L 220.30 337.06 L 219.30 340.25 L 218.22 335.41 L 216.65 333.53 L 217.39 326.89 L 217.41 326.78 L 215.00 323.99 L 181.01 333.16 L 215.77 360.12 L 215.61 356.11 L 215.23 351.81 L 216.17 346.24 L 216.53 345.98 L 217.57 341.04 L 218.19 344.52 L 217.34 341.70 L 215.67 342.76 L 216.84 336.34 L 215.97 341.49 L 215.48 335.93 L 214.01 338.62 L 215.28 336.37 L 207.91 340.74 L 210.23 329.74 L 200.40 339.74 L 187.30 388.91 L 239.09 384.82 L 220.94 358.70 L 228.54 351.55 L 225.67 346.89 L 226.65 348.20 L 224.36 340.95 L 226.23 342.35 L 224.01 339.42 L 223.70 337.14 L 224.75 333.90 L 223.94 335.60 L 223.40 333.17 L 221.87 331.52 L 222.74 329.57 L 220.34 327.65 L 222.42 324.84 L 220.18 325.82 L 219.73 324.47 L 214.75 320.42 L 214.77 311.26 L 210.07 296.72 L 190.62 360.92 L 210.22 341.70 L 215.53 336.23 L 214.38 339.29 L 212.82 330.78 L 211.41 335.15 L 199.40 313.91 L 186.89 369.70 L 221.68 374.65 L 216.73 355.64 L 221.42 354.57 L 219.10 348.05 L 221.74 346.79 L 219.98 343.50 L 222.22 340.95 L 221.14 342.20 L 220.25 338.34 L 220.43 336.38 L 220.94 333.83 L 220.02 335.12 L 218.99 328.76 L 220.48 330.35 L 216.68 327.86 L 214.24 320.06 L 215.92 305.01 L 182.12 339.60 L 214.06 357.16 L 212.59 355.04 L 213.25 343.88 L 217.08 343.63 L 216.52 343.45 L 216.04 341.55 L 216.87 339.52 L 215.56 339.81 L 214.98 336.16 L 214.95 332.49 L 216.65 333.71 L 212.73 333.24 L 209.52 330.87 L 187.12 308.64 L 207.67 381.09 L 206.62 360.85 L 211.77 358.09 L 210.02 352.33 L 213.21 361.07 L 207.70 354.62 L 206.87 398.93 L 241.56 390.16 L 235.98 341.07 L 230.51 350.12 L 231.00 338.82 L 227.19 342.68 L 228.48 335.68 L 225.28 338.07 L 226.27 331.63 L 225.24 333.00 L 225.45 331.07 L 223.33 330.76 L 223.23 327.41 L 222.84 326.81 L 221.24 325.38 L 221.79 321.93 L 220.08 323.86 L 219.23 319.72 L 215.69 319.44 L 217.29 310.93 L 211.58 318.47 L 207.76 296.08 L 183.17 332.19 L 213.31 366.05 L 210.47 329.27 L 212.90 310.31 L 183.54 357.56 L 216.17 357.39 L 212.83 355.42 L 213.77 346.37 L 214.02 337.67 L 217.39 335.36 L 213.72 330.71 L 181.78 351.46 L 215.58 364.36 L 217.90 362.56 L 216.62 358.31 L 218.38 353.96 L 218.29 351.64 L 219.64 348.19 L 221.00 347.97 L 220.53 348.44 L 220.10 346.51 L 219.86 344.03 L 221.29 343.11 L 220.12 342.59 L 221.62 341.01 L 220.30 341.75 L 220.79 340.25 L 219.26 338.48 L 221.43 337.06 L 219.78 338.08 L 220.53 336.56 L 219.23 336.06 L 219.84 335.56 L 218.26 333.85 L 219.51 332.83 L 218.93 333.15 L 217.89 333.97 L 217.23 330.60 L 216.90 331.87 L 216.66 329.31 L 215.09 330.73 L 216.51 328.00 L 212.43 333.49 L 212.77 326.72 L 208.52 330.92 L 212.31 328.30 L 196.45 345.08 L 222.06 376.36 L 237.00 326.88 L 212.44 306.10 L 203.34 259.45 L 170.38 399.03 L 211.26 361.98 L 215.52 355.36 L 217.64 356.35 L 216.24 345.84 L 219.10 349.14 L 214.20 341.93 L 217.13 338.82 L 212.70 335.36 L 214.87 330.69 L 187.32 336.90 L 206.91 395.01 L 223.04 361.34 L 219.70 363.75 L 223.74 351.60 L 222.91 356.24 L 223.04 349.20 L 222.82 349.36 L 223.62 344.81 L 223.74 345.72 L 223.41 342.59 L 224.20 342.35 L 222.93 341.72 L 223.09 338.54 L 223.06 337.63 L 224.00 336.26 L 222.52 337.23 L 222.99 333.55 L 222.01 334.86 L 221.95 330.79 L 221.60 330.68 L 222.62 328.47 L 220.89 330.90 L 219.83 326.31 L 219.23 325.04 L 219.05 321.62 L 218.34 319.85 L 218.16 317.94 L 213.42 318.33 L 186.03 301.96 L 212.53 357.33 L 213.32 346.89 L 212.41 338.25 L 213.27 330.54 L 216.57 326.08 L 212.51 330.44 L 195.46 299.73 L 194.60 377.87 L 208.89 349.64 L 214.40 353.22 L 213.87 350.47 L 213.89 348.57 L 215.88 345.38 L 214.71 347.93 L 214.67 343.02 L 215.36 342.77 L 216.13 343.77 L 213.89 343.16 L 214.75 342.74 L 213.12 341.04 L 213.64 344.76 L 210.86 339.37 L 212.68 350.61 L 204.91 343.33 L 205.72 390.31 L 241.20 371.19 L 231.79 332.47 L 225.49 335.71 L 225.82 328.17 L 217.87 326.46 L 219.91 321.93 L 197.20 310.43 L 200.64 374.47 L 225.72 357.69 L 220.03 348.45 L 222.46 340.61 L 219.52 336.78 L 220.03 325.00 L 220.36 320.90 L 186.81 355.56 L 218.73 356.35 L 221.43 350.62 L 222.15 353.31 L 219.94 345.95 L 221.40 343.42 L 222.11 338.73 L 222.57 340.74 L 221.35 335.50 L 222.61 335.83 L 220.36 334.16 L 218.73 328.68 L 220.37 322.14 L 219.07 324.81 L 192.40 305.40 L 206.73 374.13 L 212.69 351.27 L 218.49 346.74 L 219.46 349.83 L 218.06 344.67 L 220.38 343.65 L 219.75 342.52 L 219.70 341.94 L 219.77 337.31 L 221.54 339.52 L 219.71 338.06 L 220.02 337.03 L 219.69 334.65 L 219.88 334.89 L 219.36 332.27 L 220.10 332.33 L 219.20 332.75 L 217.59 330.63 L 217.85 327.96 L 217.53 326.22 L 217.83 326.41 L 215.93 324.51 L 214.74 325.04 L 208.27 317.37 L 200.91 294.40 L 197.09 371.20 L 208.94 349.50 L 210.78 340.93 L 215.21 341.64 L 213.27 341.05 L 213.49 341.58 L 211.32 337.17 L 212.48 337.46 L 210.64 335.66 L 210.04 335.30 L 209.50 336.37 L 203.38 336.81 L 203.71 337.23 L 181.99 337.68 L 194.98 427.90 L 241.89 381.84 L 223.90 353.51 L 232.16 353.16 L 220.89 341.36 L 226.52 332.47 L 223.00 327.69 L 192.58 325.50 L 215.58 375.90 L 217.56 359.07 L 220.97 350.16 L 223.88 351.76 L 222.07 349.34 L 222.76 345.44 L 223.71 344.68 L 222.04 343.09 L 223.13 339.08 L 223.25 338.28 L 223.81 338.94 L 220.91 336.66 L 222.04 333.42 L 220.11 331.00 L 221.35 327.49 L 220.09 325.71 L 218.17 325.91 L 185.67 319.53 L 218.36 363.24 L 217.73 355.88 L 218.22 349.79 L 218.83 344.15 L 221.20 341.86 L 221.79 342.31 L 221.08 341.49 L 221.41 339.63 L 220.63 338.75 L 221.18 336.31 L 220.93 335.00" fill="none" stroke="#4080ff" stroke-width="1.0" opacity="1.0"/>
<path d="M 565.85 328.49 L 583.90 351.48 L 590.69 357.49 L 595.94 354.31 L 597.41 348.81 L 597.29 347.06 L 600.06 344.53 L 604.91 345.19 L 596.79 344.86 L 598.85 342.25 L 598.42 336.66 L 599.68 353.98 L 600.12 347.62 L 601.93 345.25 L 603.72 344.12 L 597.15 344.93 L 598.90 343.36 L 598.60 341.95 L 586.61 341.26 L 599.61 340.45 L 601.66 338.88 L 602.89 336.65 L 597.62 343.50 L 599.41 342.02 L 599.99 340.67 L 600.53 343.61 L 600.69 347.67 L 601.80 346.51 L 603.03 344.58 L 597.49 341.47 L 599.91 340.67 L 599.37 339.37 L 599.41 333.18 L 599.65 345.94 L 600.93 344.45 L 601.76 343.00 L 606.91 341.93 L 597.16 341.59 L 596.61 340.85 L 596.49 339.08 L 593.09 338.66 L 599.00 337.89 L 601.59 334.59 L 606.62 327.42 L 598.50 341.35 L 599.11 338.78 L 599.14 333.12 L 600.22 343.27 L 600.77 345.60 L 601.74 344.66 L 603.92 338.54 L 597.54 350.14 L 598.83 345.13 L 597.81 342.87 L 586.85 324.12 L 598.86 347.98 L 600.51 346.78 L 601.28 345.98 L 596.53 344.51 L 597.14 344.04 L 597.34 343.57 L 591.92 342.67 L 598.35 341.63 L 601.29 340.14 L 602.31 338.13 L 595.77 350.72 L 599.70 347.53 L 598.81 345.51 L 599.86 354.70 L 599.36 350.95 L 601.12 341.31 L 600.80 342.29 L 607.19 339.03 L 597.79 339.16 L 597.23 337.45 L 598.52 334.00 L 599.09 357.64 L 599.63 346.67 L 599.65 344.34 L 598.15 343.91 L 596.17 342.11 L 595.55 340.54 L 593.96 340.06 L 598.68 338.61 L 604.63 337.04 L 604.06 335.19 L 606.61 329.70 L 601.20 342.65 L 600.20 340.56 L 600.69 339.14 L 589.73 337.52 L 601.27 336.42 L 602.68 335.35 L 604.74 328.40 L 600.18 342.63 L 601.09 339.03 L 601.33 338.72 L 601.81 332.56 L 601.93 340.68 L 603.23 340.18 L 604.65 339.22 L 598.50 355.39 L 601.10 346.06 L 600.71 337.73 L 600.96 329.81 L 600.99 332.38 L 602.54 338.40 L 602.22 337.25 L 604.77 316.88 L 599.52 344.63 L 600.08 343.57 L 598.13 341.69 L 594.87 340.99 L 595.61 341.36 L 598.15 339.70 L 604.87 339.00 L 595.47 338.51 L 595.55 336.89 L 596.51 334.34 L 587.51 340.57 L 595.84 340.96 L 597.83 339.59 L 596.07 340.27 L 593.03 339.46 L 596.82 336.84 L 596.52 336.04 L 587.88 345.57 L 598.01 343.40 L 599.21 339.82 L 602.37 334.49 L 599.06 346.40 L 598.18 343.29 L 598.85 339.70 L 598.95 331.39 L 599.53 329.85 L 600.80 332.40 L 602.38 340.19 L 601.54 345.83 L 597.68 333.08 L 598.55 330.26 L 598.50 319.34 L 598.61 349.51 L 598.52 342.19 L 599.36 340.61 L 598.52 340.67 L 595.14 339.48 L 593.53 338.57 L 592.19 335.84 L 593.74 335.42 L 597.13 335.03 L 600.62 333.03 L 605.41 325.50 L 597.42 342.75 L 597.16 339.30 L 598.21 340.19 L 598.66 342.56 L 598.86 346.34 L 597.09 347.37 L 598.85 344.45 L 591.93 340.60 L 594.69 339.04 L 595.49 337.84 L 586.63 322.97 L 595.82 345.15 L 595.77 342.73 L 597.11 341.88 L 598.69 341.25 L 600.27 341.15 L 597.11 339.77 L 595.53 338.41 L 596.40 337.20 L 597.62 336.67 L 602.34 334.38 L 610.83 329.29 L 598.50 339.60 L 599.13 339.03 L 598.31 335.36 L 600.00 350.42 L 600.19 341.73 L 600.67 340.57 L 597.61 339.58 L 594.72 336.63 L 596.99 334.16 L 594.27 330.83 L 594.20 344.69 L 601.75 338.43 L 601.56 337.92 L 605.66 329.17 L 598.73 344.95 L 600.38 337.89 L 600.44 340.52 L 601.03 343.10 L 600.82 344.30 L 602.00 344.78 L 604.19 342.60 L 598.96 347.86 L 598.89 345.60 L 596.98 345.04 L 583.68 344.13 L 597.79 343.27 L 599.99 343.91 L 602.68 343.51 L 599.20 359.28 L 599.51 348.79 L 600.60 343.01 L 600.71 346.72 L 601.35 355.51 L 601.92 343.48 L 604.28 337.35 L 618.55 332.85 L 599.87 340.33 L 600.72 343.57 L 600.34 342.11 L 601.17 339.71 L 601.45 340.20 L 602.36 337.43 L 599.77 327.51 L 597.05 344.68 L 599.69 343.42 L 599.98 342.02 L 601.04 341.57 L 602.79 340.71 L 603.72 339.26 L 601.98 339.72 L 592.44 338.61 L 594.92 335.73 L 597.32 334.19 L 598.27 334.53 L 597.76 348.48 L 599.45 344.95 L 601.40 342.99 L 595.51 341.47 L 596.62 338.57 L 595.38 338.13 L 591.26 334.10 L 594.23 349.00 L 597.38 342.24 L 598.83 337.74 L 584.99 353.70 L 595.04 347.12 L 596.04 345.17 L 596.57 344.20 L 596.31 343.77 L 596.78 342.71 L 596.92 341.84 L 609.72 340.70 L 596.35 340.09 L 594.63 338.56 L 593.92 336.15 L 599.05 342.33 L 603.68 341.87 L 601.57 340.14 L 603.05 342.47 L 597.43 346.88 L 599.16 345.56 L 600.53 343.68 L 601.44 341.80 L 601.90 340.15 L 603.26 338.20 L 605.10 332.46 L 599.69 346.49 L 600.74 343.70 L 600.55 341.72 L 601.30 341.96 L 601.19 341.90 L 602.73 339.25 L 603.80 331.93 L 598.30 328.21 L 599.56 328.48 L 598.17 332.18 L 595.51 327.85 L 597.73 340.76 L 600.49 338.42 L 602.61 343.39 L 595.57 349.38 L 598.77 337.91 L 596.94 335.50 L 594.89 331.00 L 596.49 343.00 L 599.52 335.06 L 601.05 331.15 L 619.12 314.64 L 599.32 350.34 L 598.86 346.12 L 599.40 342.59 L 598.94 342.79 L 599.88 341.69 L 599.80 340.53 L 603.54 338.98 L 595.33 338.17 L 596.38 336.28 L 598.40 334.28 L 599.15 344.22 L 598.76 340.33 L 596.89 339.73 L 598.88 339.74 L 593.98 337.92 L 596.63 336.70 L 599.25 336.58 L 600.14 335.25 L 599.21 333.99 L 600.23 333.56 L 602.07 329.32 L 598.02 353.85 L 596.20 342.75 L 595.48 340.53 L 587.74 338.47 L 594.74 335.12 L 600.16 332.80 L 602.39 332.16 L 596.96 336.41 L 598.76 340.14 L 598.53 335.32 L 599.50 322.84 L 599.64 337.39 L 600.89 342.03 L 600.95 343.57 L 604.98 341.33 L 597.90 340.84 L 598.38 340.32 L 598.57 338.37 L 598.79 338.23 L 599.54 337.69 L 599.72 335.23 L 604.24 330.42 L 595.67 339.70 L 597.39 336.65 L 598.51 335.10 L 597.78 358.69 L 600.25 354.28 L 598.93 348.91 L 600.49 346.00 L 600.83 344.97 L 603.55 343.43 L 601.76 339.58 L 598.11 323.20 L 595.76 349.20 L 595.32 346.85 L 598.77 345.81 L 593.30 345.73 L 592.33 346.54 L 595.20 345.32 L 595.64 354.75 L 596.45 347.92 L 598.75 339.37 L 601.72 339.10 L 601.92 338.75 L 597.53 343.93 L 598.75 341.52 L 599.04 341.70 L 599.23 340.50 L 600.30 339.58 L 601.57 337.94 L 608.82 344.72 L 596.92 344.15 L 597.06 341.63 L 597.10 336.51 L 590.33 347.89 L 597.65 344.31 L 599.33 343.03 L 602.59 341.74 L 594.32 340.36 L 596.82 339.72 L 597.76 338.59 L 598.61 338.10 L 598.13 336.92 L 599.75 334.90 L 597.44 329.69 L 594.66 340.49 L 599.45 339.53 L 598.97 338.03 L 600.06 336.10 L 600.64 335.92 L 601.51 333.24 L 604.06 327.00 L 600.32 340.08 L 598.41 339.81 L 598.66 337.00 L 598.00 326.74 L 597.96 345.43 L 600.67 343.35 L 603.33 344.04 L 611.44 344.78 L 598.51 347.81 L 599.91 349.28 L 599.73 347.85 L 601.08 344.47 L 601.10 341.87 L 602.77 338.84 L 606.69 326.99 L 598.33 347.48 L 599.23 345.46 L 599.08 344.16 L 599.55 343.82 L 599.13 342.06 L 598.83 340.47 L 596.17 340.52 L 592.27 340.82 L 596.17 338.28 L 598.00 330.96 L 599.10 316.66 L 599.80 330.82 L 601.04 336.10 L 603.20 336.10 L 598.02 351.49 L 598.53 340.67 L 598.62 341.44 L 599.53 340.41 L 599.41 340.67 L 600.34 337.23 L 601.94 339.82 L 596.46 359.30 L 596.89 342.46 L 594.34 340.68 L 593.74 337.15 L 599.02 337.17 L 603.64 335.09 L 603.83 327.31 L 619.66 323.71 L 599.34 329.56 L 600.26 333.82 L 600.85 322.90 L 601.12 346.56 L 601.24 343.18 L 602.70 344.43 L 605.77 341.69 L 597.69 340.46 L 598.56 340.70 L 594.79 340.79 L 593.26 356.91 L 600.49 345.10 L 600.78 340.24 L 602.40 334.38 L 594.21 347.44 L 598.95 344.52 L 598.36 343.05 L 589.89 343.06 L 598.78 342.31 L 601.03 340.52 L 602.54 339.90 L 596.77 339.41 L 597.90 338.05 L 595.41 335.55 L 594.89 328.35 L 597.46 342.13 L 602.35 341.10 L 602.67 340.22 L 592.25 339.73 L 592.92 338.31 L 595.32 337.92 L 597.03 337.68 L 596.45 336.58 L 599.13 333.84 L 601.15 332.30 L 619.92 328.47 L 598.03 347.65 L 598.71 344.34 L 599.54 340.99 L 599.65 339.45 L 600.61 339.07 L 602.11 338.82 L 606.72 336.45 L 598.46 333.16 L 598.82 330.20 L 599.41 329.45 L 599.25 347.20 L 599.55 346.20 L 600.64 345.91 L 602.23 337.18 L 595.45 353.20 L 598.18 346.50 L 598.14 346.46 L 598.54 346.95 L 598.38 344.28 L 599.39 342.25 L 600.05 339.94 L 589.34 347.49 L 596.73 348.03 L 597.64 346.51 L 599.01 356.81 L 598.78 355.43 L 599.97 348.91 L 600.55 348.34 L 593.70 343.27 L 597.17 343.15 L 596.91 340.64 L 595.65 334.93 L 595.80 347.83 L 597.62 346.06 L 597.30 344.09 L 609.49 343.48 L 596.77 342.82 L 596.97 341.93 L 598.37 340.30 L 597.71 339.74 L 599.76 338.86 L 596.76 336.81 L 603.94 332.13 L 601.56 341.61 L 602.20 340.72 L 600.53 339.64 L 601.26 339.54 L 601.00 338.80 L 601.70 337.68 L 604.70 333.36 L 598.03 346.11 L 597.77 339.19 L 595.98 337.22 L 594.78 317.40 L 596.03 342.42 L 598.57 341.27 L 603.00 340.37 L 599.30 337.15 L 598.43 335.82 L 597.48 336.24 L 591.85 329.47 L 598.74 345.49 L 600.08 338.78 L 601.89 335.03 L 597.31 342.66 L 598.68 341.57 L 598.92 335.89 L 598.54 330.73 L 598.86 332.22 L 600.99 338.66 L 602.09 340.29 L 614.56 338.23 L 599.94 336.79 L 599.77 336.62 L 600.85 332.33 L 600.50 361.18 L 601.68 348.42 L 602.61 341.54 L 608.54 334.82 L 600.13 332.28 L 599.38 334.10 L 600.02 337.11 L 600.16 338.21 L 601.00 336.08 L 601.30 334.23 L 603.40 330.36 L 597.99 344.11 L 598.56 340.72 L 599.25 341.09 L 599.26 340.45 L 599.85 341.88 L 601.00 338.89 L 603.18 345.80 L 599.56 348.68 L 596.70 336.46 L 597.88 335.52 L 590.86 329.77 L 597.28 338.58 L 600.66 337.13 L 601.78 337.94 L 593.22 353.30 L 598.22 343.60 L 599.47 339.55 L 594.66 337.05 L 592.14 335.63 L 594.50 332.21 L 598.41 329.93 L 606.78 312.91 L 595.74 350.23 L 597.10 343.42 L 598.09 341.29 L 598.15 341.85 L 598.63 341.30 L 600.56 338.40 L 604.61 336.79 L 597.44 334.54 L 596.91 332.43 L 597.54 332.53 L 597.97 334.26 L 598.20 345.55 L 599.13 346.15 L 599.33 346.15 L 594.79 344.22 L 595.46 341.00 L 593.43 338.89 L 594.69 345.04 L 601.95 346.22 L 602.74 344.39 L 604.20 338.42 L 600.87 350.45 L 598.12 345.66 L 599.11 345.36 L 599.50 343.57 L 599.36 342.66 L 598.04 341.99 L 597.72 340.74 L 605.59 339.30 L 593.90 338.98 L 595.93 337.42 L 593.97 333.36 L 593.06 342.48 L 597.39 341.53 L 600.75 340.01 L 605.83 339.15 L 598.42 339.57 L 599.49 338.08 L 598.89 336.85 L 600.29 336.09 L 600.80 335.19 L 602.46 331.24 L 604.68 325.12 L 598.00 347.13 L 599.26 341.17 L 598.51 337.75 L 599.58 341.58 L 598.75 348.15 L 600.08 346.62 L 594.86 342.65 L 592.24 341.21 L 599.10 341.75 L 598.46 340.92 L 600.51 338.20 L 601.08 345.86 L 602.23 338.88 L 603.85 340.48 L 599.68 342.36 L 599.99 347.44 L 600.45 345.76 L 600.74 342.76 L 601.02 339.78 L 601.84 337.19 L 603.39 329.24 L 619.26 315.43 L 598.73 339.31 L 598.81 344.23 L 596.89 340.44 L 599.07 355.72 L 599.66 347.18 L 600.67 345.23 L 597.13 343.46 L 597.53 342.27 L 598.64 340.85 L 598.93 336.72 L 600.20 352.06 L 600.67 345.57 L 602.91 344.53 L 604.61 343.36 L 598.36 342.78 L 599.61 341.49 L 599.53 340.79 L 600.40 339.78 L 600.50 339.11 L 601.33 337.53 L 600.72 334.72 L 595.54 340.63 L 598.35 340.43 L 598.55 339.97 L 599.67 339.15 L 600.37 337.40 L 601.36 335.14 L 602.37 332.54 L 595.68 360.18 L 598.68 349.58 L 599.12 344.32 L 598.65 337.06 L 598.22 350.80 L 599.54 347.86 L 597.24 344.74 L 618.46 344.95 L 602.00 345.45 L 600.67 341.92 L 596.92 334.47 L 599.35 330.60 L 601.40 331.08 L 601.95 333.60 L 602.35 330.07 L 589.99 341.71 L 592.16 339.48 L 591.81 339.81 L 581.34 341.09 L 596.46 339.72 L 595.84 338.40 L 598.53 338.50 L 590.77 338.78 L 593.71 335.66 L 596.34 335.04 L 598.83 328.17 L 599.00 352.43 L 599.48 347.85 L 598.62 353.47 L 594.14 353.69 L 597.30 342.51 L 598.29 343.01 L 599.35 339.63 L 599.47 338.94 L 601.35 337.34 L 602.25 334.16 L 595.59 345.32 L 599.41 341.60 L 599.30 340.83 L 599.88 338.79 L 599.94 338.14 L 601.26 337.57 L 602.20 336.33 L 618.61 334.65 L 599.04 334.67 L 597.78 331.19 L 596.71 322.58 L 597.01 346.66 L 599.45 343.37 L 600.59 341.50 L 606.92 340.87 L 599.00 346.54 L 598.65 345.43 L 599.15 343.50 L 598.93 340.93 L 599.64 339.55 L 599.14 338.12 L 600.21 331.90 L 593.95 344.86 L 596.01 343.03 L 597.75 341.96 L 598.89 340.49 L 599.67 339.67 L 599.12 339.52 L 599.41 337.58 L 594.43 336.55 L 596.49 336.28 L 597.53 334.69 L 598.45 328.80 L 599.05 338.32 L 600.17 337.85 L 600.88 335.78 L 596.83 335.01 L 597.09 335.47 L 597.66 330.00 L 597.46 320.78 L 597.06 337.08 L 596.78 337.24 L 597.24 336.95 L 603.81 317.04 L 595.38 342.81 L 591.95 341.76 L 590.15 340.54 L 589.06 338.96 L 595.17 339.38 L 599.11 338.41 L 605.68 337.20 L 597.28 335.32 L 596.14 335.06 L 594.16 332.31 L 598.57 335.75 L 604.44 337.86 L 603.27 337.46 L 606.24 329.30 L 601.56 348.18 L 599.75 343.05 L 600.22 345.75 L 591.50 353.26 L 600.63 340.61 L 600.97 336.05 L 601.79 334.51 L 596.31 361.72 L 598.02 347.49 L 600.52 343.23 L 601.34 341.74 L 602.00 337.80 L 602.23 336.64 L 604.77 337.05 L 606.29 340.49 L 600.83 342.82 L 601.47 342.88 L 601.21 337.12 L 601.80 346.63 L 602.58 343.87 L 604.56 342.43 L 610.40 340.93 L 599.85 338.91 L 599.93 337.10 L 598.56 338.00 L 595.97 342.01 L 601.03 344.54 L 602.91 343.98 L 606.90 338.06 L 600.28 345.85 L 601.77 343.31 L 600.22 344.86 L 596.36 359.61 L 595.52 350.46 L 598.17 346.11 L 602.87 344.79 L 597.10 343.27 L 596.63 340.93 L 597.76 338.14 L 597.56 324.55 L 596.76 345.57 L 596.99 343.71 L 597.64 342.92 L 583.14 340.95 L 591.70 339.00 L 595.84 337.97 L 590.51 331.91 L 596.07 350.64 L 599.56 342.11 L 601.70 334.34 L 611.96 323.59 L 598.35 335.13 L 599.35 338.14 L 599.18 340.83 L 599.66 340.94 L 600.53 338.18 L 602.69 337.49 L 606.14 343.07 L 597.45 345.06 L 598.20 342.04 L 596.71 337.55 L 593.21 352.11 L 598.63 346.32 L 601.49 345.07 L 603.96 343.72 L 597.64 343.70 L 599.06 342.82 L 598.90 342.60 L 599.73 340.43 L 600.25 342.33 L 600.94 340.08 L 602.78 345.04 L 597.25 352.06 L 598.04 342.03 L 598.38 343.02 L 597.27 339.54 L 597.86 339.88 L 597.05 338.56 L 595.40 336.75 L 588.94 335.54 L 599.61 335.54 L 597.94 331.55 L 594.77 322.17 L 598.68 347.61 L 599.49 340.91 L 602.31 334.07 L 619.18 330.54 L 599.67 335.45 L 600.36 339.61 L 599.63 338.72 L 599.92 335.33 L 600.61 334.18 L 602.56 332.53 L 606.81 320.54 L 597.27 351.71 L 595.89 346.34 L 592.95 343.50 L 586.16 343.72 L 594.26 343.15 L 598.75 341.74 L 602.80 340.82 L 597.21 339.91 L 598.04 338.50 L 597.36 336.58 L 598.82 321.30 L 598.35 342.23 L 600.61 342.23 L 596.41 340.02 L 591.61 355.94 L 599.53 344.98 L 598.49 343.93 L 600.40 343.04 L 599.07 340.94 L 600.27 338.79 L 600.76 336.34 L 586.73 350.47 L 597.63 344.23 L 598.18 343.34 L 599.19 342.57 L 599.20 341.33 L 600.49 340.68 L 601.10 340.04 L 610.76 339.17 L 598.27 338.58 L 598.64 336.91 L 598.47 334.12 L 598.95 340.62 L 600.29 341.07 L 602.18 339.93 L 606.69 339.68 L 597.18 338.20 L 597.04 338.01 L 597.39 338.03 L 589.12 355.97 L 597.49 343.07 L 597.42 338.28 L 598.61 332.12 L 593.75 347.37 L 597.55 341.90 L 600.02 342.71 L 600.39 353.10 L 601.48 352.75 L 602.69 345.85 L 601.66 343.75 L 592.70 342.05 L 593.69 341.34 L 595.85 338.01 L 597.49 333.75 L 596.75 343.02 L 598.12 342.00 L 599.03 340.69 L 582.32 341.34 L 595.61 339.85 L 596.33 338.54 L 597.80 337.59 L 596.78 337.32 L 598.35 334.88 L 599.53 332.52 L 614.92 324.18 L 595.30 348.46 L 592.92 345.45 L 590.76 342.55 L 590.75 341.00 L 601.25 340.09 L 601.12 339.50 L 607.00 338.15 L 597.84 336.72 L 596.30 334.68 L 594.73 332.40 L 581.09 341.26 L 600.31 339.38 L 601.26 337.89 L 605.81 336.53 L 599.49 335.00 L 599.87 334.89 L 600.39 334.25 L 601.43 332.51 L 601.68 329.25 L 602.65 325.83 L 604.70 324.40 L 600.44 340.25 L 600.50 343.29 L 600.59 336.38 L 600.66 327.00 L 600.93 331.19 L 601.57 330.94 L 602.84 329.88 L 587.67 337.63 L 598.87 339.83 L 600.09 332.50 L 600.34 320.59 L 601.02 337.54 L 601.79 343.00 L 603.18 343.27 L 614.41 340.03 L 599.98 340.74 L 599.46 340.41 L 600.10 338.41 L 600.59 338.20 L 601.38 338.85 L 600.39 336.15 L 600.08 329.90 L 597.08 338.75 L 596.77 337.95 L 598.29 339.66 L 587.09 342.44 L 600.24 348.36 L 601.33 348.06 L 605.28 353.31 L 599.72 363.95 L 598.90 344.87 L 600.22 344.07 L 600.64 325.55 L 601.23 350.04 L 601.46 347.40 L 604.30 347.34 L 600.87 344.77 L 599.24 343.14 L 599.66 343.06 L 599.61 342.65 L 599.73 341.13 L 600.29 339.62 L 602.04 337.43 L 592.15 335.78 L 596.76 342.76 L 598.61 342.41 L 598.04 341.22 L 599.01 339.66 L 598.26 339.69 L 599.91 338.07 L 600.25 336.67 L 597.13 335.81 L 598.50 333.80 L 599.01 325.04 L 599.51 370.04 L 600.63 353.74 L 600.83 350.82 L 604.44 348.42 L 596.06 346.87 L 597.04 345.74 L 596.84 344.43 L 574.52 343.26 L 597.43 341.96 L 597.60 340.54 L 598.55 336.78 L 599.02 346.23 L 602.42 344.23 L 601.59 343.68 L 602.05 343.26 L 602.82 342.79 L 603.01 341.32 L 605.48 340.78 L 601.76 339.90 L 601.66 338.83 L 601.95 336.92 L 597.10 332.59 L 595.06 343.16 L 596.28 341.23 L 600.78 341.53 L 598.19 355.81 L 594.84 348.58 L 597.27 344.69 L 598.23 342.52 L 598.60 341.43 L 597.63 340.24 L 597.81 337.09 L 599.95 325.94 L 592.01 344.78 L 594.69 343.76 L 596.92 342.17 L 598.52 341.99 L 599.11 340.48 L 599.87 341.13 L 601.23 339.65 L 594.91 339.65 L 597.01 337.85 L 596.75 339.50 L 583.80 335.96 L 595.28 341.71 L 596.52 338.19 L 597.60 330.78 L 588.85 346.88 L 592.87 342.11 L 591.74 340.41 L 592.30 343.08 L 594.04 344.35 L 598.14 343.32 L 600.77 336.95 L 596.36 350.92 L 595.53 345.04 L 596.40 343.44 L 590.84 339.89 L 596.14 340.28 L 599.97 338.37 L 600.47 331.08 L 605.35 327.65 L 597.87 334.13 L 598.85 338.45 L 598.67 334.00 L 599.57 339.68 L 601.02 341.32 L 602.72 340.95 L 606.76 339.21 L 598.27 339.24 L 599.43 338.27 L 599.59 337.12 L 600.85 336.86 L 600.91 336.27 L 601.92 332.26 L 603.46 324.43 L 597.80 350.88 L 598.89 344.37 L 598.32 342.26 L 586.53 342.12 L 598.92 340.96 L 600.58 337.62 L 601.53 331.51 L 596.62 326.04 L 598.33 325.99 L 597.00 329.60 L 591.03 325.16 L 597.67 336.04 L 599.14 334.76 L 600.64 334.88 L 593.76 334.05 L 598.06 333.01 L 595.19 332.79 L 595.30 324.12 L 601.49 342.38 L 604.38 336.22 L 602.74 335.07 L 610.16 315.83 L 600.45 337.56 L 600.04 336.53 L 601.31 337.34 L 601.09 358.31 L 602.75 351.96 L 603.95 350.60 L 609.17 347.55 L 600.40 344.15 L 600.41 342.19 L 601.06 341.02 L 601.80 353.67 L 601.83 349.52 L 602.88 346.97 L 605.06 356.32 L 598.88 352.59 L 599.65 342.82 L 598.62 343.97 L 587.66 340.81 L 598.43 340.46 L 600.42 338.11 L 597.57 336.17 L 592.72 342.31 L 600.92 341.62 L 599.52 341.07 L 600.58 340.75 L 600.01 339.15 L 602.03 337.90 L 602.89 338.61 L 587.23 355.41 L 599.54 344.37 L 600.12 338.32 L 600.11 331.85 L 600.64 345.96 L 603.27 343.32 L 601.62 341.47 L 602.83 340.91 L 593.04 339.15 L 594.99 338.02 L 597.92 337.33 L 598.24 336.03 L 599.50 333.29 L 601.19 332.22 L 607.48 323.19 L 598.65 349.42 L 598.03 342.79 L 599.63 342.10 L 599.68 342.60 L 600.42 340.38 L 601.08 338.78 L 604.41 338.59 L 598.69 337.30 L 598.08 334.57 L 598.12 333.18 L 587.73 323.84 L 598.79 348.27 L 599.76 344.77 L 602.68 342.28 L 598.32 340.79 L 598.54 341.23 L 598.80 339.00 L 598.78 335.19 L 599.13 333.18 L 600.00 332.66 L 602.05 330.41 L 597.95 339.26 L 596.81 344.93 L 595.60 341.83 L 593.43 335.12 L 593.51 335.82 L 597.14 341.79 L 597.76 341.92 L 599.59 340.19 L 594.93 340.50 L 595.91 340.44 L 596.02 335.00 L 596.23 346.57 L 597.73 344.14 L 595.87 342.61 L 601.13 340.47 L 599.27 351.19 L 599.29 347.66 L 595.87 350.38 L 593.50 355.90 L 601.79 343.03 L 600.80 339.50 L 605.77 335.13 L 599.22 345.34 L 599.17 341.21 L 598.35 339.38 L 589.78 338.64 L 599.26 350.64 L 599.96 346.79 L 603.20 343.57 L 600.06 343.13 L 597.96 341.58 L 599.11 340.29 L 598.82 335.25 L 598.79 344.73 L 597.42 343.65 L 597.91 343.12 L 601.09 341.66 L 593.68 341.43 L 594.92 341.16 L 594.28 337.42 L 594.45 351.00 L 595.15 342.20 L 597.08 339.96 L 588.58 325.11 L 595.84 346.82 L 596.16 344.31 L 596.90 344.09 L 598.81 343.17 L 600.65 341.64 L 602.43 339.93 L 605.38 340.07 L 598.40 339.84 L 599.11 337.30 L 600.24 330.02 L 600.66 320.33" fill="none" stroke="#ff5060" stroke-width="1.0" opacity="1.0"/>
<path d="M 495.58 420.07 L 614.72 437.06 L 596.37 394.39 L 607.21 385.49 L 602.64 371.58 L 607.80 371.14 L 604.55 360.61 L 609.92 361.65 L 606.56 359.08 L 607.59 356.82 L 606.99 351.88 L 608.51 351.80 L 607.71 349.50 L 608.26 347.88 L 608.53 347.61 L 607.00 345.89 L 607.99 343.12 L 607.75 341.86 L 608.70 342.31 L 606.81 340.29 L 608.36 339.55 L 606.42 338.31 L 607.58 336.64 L 606.75 334.86 L 608.09 335.71 L 605.76 334.60 L 606.54 332.57 L 605.76 331.33 L 606.07 330.48 L 605.54 328.84 L 605.86 328.87 L 604.47 328.58 L 603.17 325.50 L 604.01 322.87 L 603.41 322.64 L 603.13 321.66 L 600.99 320.20 L 599.53 318.10 L 594.14 310.16 L 592.11 288.70 L 575.58 362.01 L 593.54 338.91 L 596.20 332.26 L 600.27 330.78 L 596.82 332.81 L 592.86 322.55 L 593.54 304.46 L 562.07 345.14 L 594.93 355.03 L 593.69 354.40 L 594.21 346.62 L 596.07 343.76 L 597.07 344.10 L 594.77 341.03 L 598.04 338.39 L 595.15 340.61 L 596.31 337.41 L 591.97 336.53 L 595.73 331.80 L 587.93 336.27 L 589.92 320.91 L 561.02 347.71 L 589.95 394.32 L 594.61 359.11 L 598.16 366.76 L 594.77 355.59 L 597.74 367.29 L 589.64 355.99 L 593.08 403.79 L 626.81 385.38 L 619.48 342.33 L 614.49 350.30 L 614.21 339.80 L 609.38 341.56 L 611.11 332.65 L 607.88 333.73 L 609.65 327.30 L 606.52 329.11 L 603.27 325.20 L 576.81 307.59 L 601.84 367.61 L 601.69 354.83 L 603.20 345.99 L 604.51 340.51 L 606.98 339.62 L 606.18 339.77 L 605.08 337.38 L 605.71 333.81 L 604.67 334.26 L 603.92 328.59 L 604.65 326.54 L 604.74 326.64 L 597.82 323.49 L 595.00 295.26 L 571.30 359.43 L 599.88 347.46 L 600.64 352.82 L 599.88 345.57 L 601.58 342.47 L 602.96 341.62 L 601.86 340.86 L 602.87 337.10 L 603.70 338.08 L 602.37 337.92 L 602.11 334.39 L 602.60 333.69 L 602.87 332.53 L 601.85 332.76 L 602.47 329.87 L 601.05 332.11 L 600.47 326.97 L 600.23 327.31 L 600.97 324.02 L 599.36 327.50 L 597.96 322.02 L 596.43 323.17 L 594.15 315.19 L 594.12 312.27 L 592.10 304.14 L 558.45 339.12 L 586.08 339.52 L 591.04 335.61 L 566.13 335.67 L 576.96 395.63 L 599.52 364.58 L 595.87 362.61 L 600.44 355.84 L 598.34 355.46 L 600.00 352.19 L 598.61 351.52 L 598.20 348.42 L 599.92 346.16 L 597.89 349.99 L 598.17 346.17 L 594.14 349.93 L 597.65 347.12 L 582.38 366.20 L 612.52 393.25 L 626.65 341.49 L 607.00 334.97 L 598.10 303.47 L 584.44 373.14 L 605.51 353.28 L 607.28 352.14 L 606.47 353.24 L 605.76 343.17 L 608.08 345.60 L 606.52 340.94 L 607.08 340.92 L 607.54 336.88 L 606.88 340.26 L 605.11 334.51 L 605.70 333.20 L 605.94 330.54 L 605.34 330.80 L 604.57 328.65 L 602.10 327.73 L 597.69 320.72 L 590.50 296.26 L 584.95 374.74 L 596.73 349.37 L 601.65 344.50 L 603.64 341.79 L 604.42 344.48 L 602.55 340.46 L 603.49 339.38 L 603.12 335.75 L 604.06 336.45 L 603.48 333.35 L 604.37 335.15 L 602.26 333.00 L 602.70 331.03 L 602.50 329.20 L 602.84 329.29 L 601.40 328.43 L 601.63 325.94 L 600.50 327.44 L 599.00 322.33 L 599.49 322.93 L 598.10 318.98 L 596.96 322.99 L 592.16 311.87 L 594.30 317.14 L 575.11 299.49 L 568.57 360.11 L 601.06 347.60 L 591.91 339.62 L 575.68 308.62 L 579.27 382.73 L 592.68 352.93 L 596.83 355.76 L 597.53 352.41 L 595.02 350.85 L 597.54 342.84 L 596.23 345.16 L 597.01 337.72 L 596.41 339.19 L 593.93 337.43 L 562.88 328.96 L 594.12 377.60 L 592.63 369.86 L 594.26 365.47 L 592.48 359.11 L 596.99 365.29 L 589.77 362.75 L 593.98 409.90 L 629.06 386.63 L 616.95 348.62 L 614.94 354.09 L 614.13 343.33 L 612.85 347.48 L 612.11 342.45 L 610.06 341.86 L 611.53 338.41 L 609.35 338.47 L 610.79 335.96 L 608.99 335.63 L 609.89 335.26 L 607.03 332.64 L 609.25 330.69 L 607.52 330.41 L 608.18 329.84 L 606.39 327.67 L 607.34 327.50 L 604.95 325.70 L 605.71 322.57 L 605.75 322.22 L 604.58 322.76 L 602.74 319.39 L 602.73 316.22 L 602.04 316.13 L 598.57 310.89 L 600.37 304.47 L 597.36 306.14 L 566.91 291.15 L 583.70 350.72 L 587.88 323.79 L 591.10 312.09 L 562.61 360.15 L 588.69 351.29 L 595.46 345.06 L 593.37 348.98 L 592.48 339.79 L 589.40 340.82 L 585.56 320.17 L 564.67 367.74 L 599.05 387.98 L 598.33 360.63 L 602.14 364.64 L 599.66 353.89 L 603.52 354.20 L 602.26 351.15 L 603.41 351.29 L 602.27 348.21 L 603.36 347.22 L 602.53 346.05 L 603.11 343.16 L 603.80 344.30 L 602.66 342.83 L 602.64 342.73 L 602.05 338.97 L 603.11 341.17 L 601.45 337.52 L 602.91 339.76 L 600.94 337.21 L 600.98 339.30 L 599.63 333.50 L 601.04 337.65 L 599.13 334.40 L 598.29 338.52 L 597.47 333.68 L 594.04 341.19 L 594.36 332.91 L 584.28 356.73 L 614.23 386.03 L 620.72 329.39 L 602.68 320.14 L 594.92 292.15 L 589.93 368.31 L 598.87 334.89 L 602.32 323.86 L 570.42 329.97 L 599.70 372.47 L 598.50 361.35 L 601.83 349.93 L 604.02 351.49 L 603.71 347.00 L 604.12 345.46 L 606.11 342.84 L 604.16 345.60 L 604.35 339.07 L 604.57 339.80 L 605.44 337.06 L 604.12 338.43 L 604.83 334.30 L 604.03 336.63 L 603.13 332.45 L 603.44 331.86 L 603.28 330.12 L 602.98 331.01 L 600.74 328.47 L 601.82 326.59 L 598.36 326.48 L 599.74 320.88 L 594.53 323.91 L 595.03 311.10 L 566.51 333.01 L 592.51 378.59 L 602.35 346.18 L 601.99 349.34 L 602.39 339.29 L 603.19 341.74 L 600.27 335.65 L 601.28 332.29 L 600.33 326.66 L 602.07 326.56 L 596.65 323.97 L 566.60 323.35 L 598.04 360.76 L 598.80 354.09 L 597.40 346.70 L 600.20 342.73 L 598.80 340.15 L 600.60 335.79 L 600.98 335.92 L 598.46 336.31 L 594.63 325.70 L 597.32 313.01 L 563.11 343.24 L 595.89 364.85 L 594.77 360.48 L 594.89 352.91 L 599.35 350.43 L 597.17 352.51 L 599.05 348.15 L 597.95 348.95 L 600.11 349.57 L 595.56 349.20 L 599.30 347.55 L 595.05 349.06 L 598.28 354.29 L 588.18 353.21 L 597.22 400.16 L 628.97 373.07 L 615.41 336.18 L 615.60 344.46 L 612.48 334.09 L 610.93 338.43 L 609.65 330.04 L 608.73 332.40 L 607.97 326.35 L 607.77 326.91 L 607.16 325.59 L 604.06 324.84 L 601.96 319.24 L 600.09 311.01 L 599.10 299.56 L 572.12 356.00 L 598.27 341.45 L 601.04 337.51 L 601.93 339.77 L 599.82 333.14 L 600.81 334.80 L 597.26 326.76 L 600.28 327.12 L 595.01 322.56 L 596.95 322.50 L 571.67 314.88 L 582.27 380.12 L 604.34 352.50 L 598.40 348.59 L 604.35 337.04 L 600.76 342.13 L 597.27 328.68 L 595.79 309.50 L 568.71 358.72 L 599.16 359.91 L 599.37 359.10 L 598.78 353.30 L 601.46 347.76 L 602.59 348.95 L 601.56 346.33 L 603.22 343.35 L 603.09 344.86 L 602.43 342.38 L 601.87 340.41 L 603.59 337.52 L 602.65 339.84 L 602.76 336.10 L 601.94 337.52 L 601.53 334.02 L 600.22 332.95 L 601.63 328.34 L 600.99 331.03 L 598.93 329.03 L 593.45 325.54 L 577.53 301.44 L 589.27 376.64 L 593.69 355.65 L 596.59 347.87 L 599.05 347.39 L 599.29 344.80 L 599.95 347.43 L 598.65 344.21 L 597.99 346.17 L 598.29 339.50 L 598.46 346.73 L 597.49 341.04 L 595.21 350.77 L 595.41 342.78 L 584.60 373.82 L 617.43 390.64 L 625.34 338.00 L 611.25 339.30 L 613.77 331.76 L 608.02 328.24 L 610.85 327.25 L 604.57 323.33 L 607.62 318.42 L 604.22 318.73 L 599.77 315.17 L 589.71 285.90 L 574.62 354.24 L 596.41 338.31 L 598.67 339.19 L 595.77 337.66 L 594.10 325.83 L 596.11 329.80 L 579.95 312.44 L 572.21 371.91 L 604.56 368.44 L 597.91 352.89 L 601.60 346.52 L 600.04 339.08 L 602.70 334.92 L 599.47 333.12 L 566.31 342.69 L 601.17 367.05 L 601.62 361.24 L 601.62 358.54 L 602.16 351.35 L 603.45 351.13 L 603.98 345.85 L 605.71 348.29 L 604.41 345.90 L 604.42 345.69 L 604.27 341.24 L 605.39 342.30 L 604.66 339.94 L 605.38 339.88 L 604.86 339.21 L 604.12 338.18 L 604.22 335.56 L 604.83 334.79 L 604.59 335.70 L 603.50 333.18 L 604.20 333.28 L 602.82 331.49 L 603.01 330.73 L 602.79 327.43 L 603.51 330.48 L 600.59 327.24 L 601.36 325.67 L 600.66 323.34 L 599.58 324.38 L 597.91 317.21 L 599.49 317.99 L 593.57 317.44 L 576.59 289.21 L 575.65 363.17 L 589.68 340.26 L 595.17 342.18 L 590.68 342.94 L 590.18 335.66 L 586.72 328.31 L 586.44 314.35 L 562.56 382.58 L 587.93 365.85 L 580.97 365.23 L 595.08 413.31 L 624.34 377.28 L 610.87 347.75 L 608.98 351.84 L 608.16 338.22 L 606.77 343.91 L 606.69 335.59 L 602.49 340.24 L 603.26 328.06 L 598.33 336.45 L 594.17 312.83 L 571.13 358.74 L 605.28 382.82 L 603.28 355.14 L 608.11 355.78 L 605.54 347.79 L 608.95 348.49 L 605.94 343.82 L 609.04 343.79 L 605.71 341.59 L 607.63 338.78 L 606.51 336.72 L 608.03 336.74 L 605.82 335.47 L 606.61 332.99 L 605.71 332.47 L 605.04 329.83 L 605.48 327.35 L 605.53 327.39 L 604.06 327.51 L 601.71 322.64 L 603.08 319.59 L 600.67 318.26 L 599.88 312.68 L 598.70 308.02 L 593.24 308.62 L 543.56 268.58 L 580.42 405.42 L 586.79 367.39 L 595.86 357.50 L 597.17 356.37 L 598.86 351.91 L 600.53 350.07 L 601.04 351.00 L 599.69 348.16 L 600.68 344.40 L 602.32 344.01 L 601.41 344.41 L 602.07 342.18 L 601.37 342.29 L 601.90 340.87 L 600.41 339.34 L 602.81 337.58 L 600.95 339.53 L 601.67 337.52 L 599.81 336.99 L 601.47 335.61 L 599.18 335.64 L 600.87 333.83 L 599.23 335.06 L 599.11 334.93 L 597.20 332.75 L 597.85 332.99 L 596.80 331.99 L 595.25 334.78 L 595.00 331.26 L 590.75 339.91 L 590.37 331.09 L 578.76 362.96 L 616.07 375.42 L 611.36 324.65 L 601.07 315.63 L 575.09 324.33 L 592.84 373.80 L 606.30 332.43 L 602.52 332.74 L 570.07 351.62 L 601.27 359.33 L 605.03 351.72 L 603.94 351.83 L 600.60 343.55 L 601.90 331.56 L 603.54 329.64 L 571.67 324.67 L 596.71 380.06 L 597.79 360.93 L 601.65 355.01 L 604.78 353.41 L 602.98 353.33 L 605.32 347.30 L 605.35 350.00 L 605.13 346.90 L 604.41 345.11 L 606.43 342.12 L 605.78 344.04 L 605.68 341.18 L 605.75 340.71 L 605.61 339.85 L 605.05 337.94 L 605.68 336.33 L 606.15 336.29 L 604.92 336.83 L 604.82 333.47 L 604.60 333.83 L 604.68 331.17 L 604.20 331.53 L 604.88 329.31 L 603.34 331.64 L 602.50 326.94 L 602.24 326.30 L 602.81 323.48 L 601.80 324.72 L 600.99 322.12 L 598.23 322.00 L 593.89 313.76 L 587.96 291.38 L 579.12 368.03 L 592.68 343.82 L 596.79 338.56 L 599.45 336.44 L 598.77 339.50 L 597.31 334.26 L 597.27 333.47 L 597.77 329.09 L 596.29 331.51 L 596.42 323.54 L 596.29 329.29 L 592.14 322.86 L 589.48 317.95 L 590.86 303.91 L 554.92 329.04 L 583.16 355.08 L 581.21 350.65 L 562.87 335.35 L 568.40 405.05 L 596.41 384.66 L 579.58 384.22 L 601.76 422.69 L 626.90 386.49 L 612.63 354.68 L 614.69 360.36 L 611.97 348.38 L 611.69 354.10 L 610.17 343.66 L 610.38 348.19 L 608.82 340.33 L 609.31 341.55 L 609.49 337.25 L 608.52 340.04 L 606.97 335.25 L 606.46 333.47 L 606.20 330.00 L 605.77 327.32 L 605.76 326.46 L 601.07 325.41 L 573.39 312.84 L 601.01 364.84 L 602.00 355.98 L 601.58 346.95 L 603.87 343.35 L 605.25 339.66 L 606.15 342.35 L 604.71 338.75 L 605.43 338.66 L 604.58 335.75 L 604.82 334.84 L 605.18 331.76 L 605.67 333.59 L 603.81 331.99 L 603.62 328.76 L 604.24 327.86 L 602.90 327.10 L 602.38 323.86 L 602.88 321.54 L 600.99 323.88 L 595.52 313.47 L 597.78 297.43 L 564.60 339.27 L 598.00 349.90 L 595.24 347.69 L 596.52 340.83 L 598.20 336.23 L 599.60 338.63 L 597.54 334.80 L 599.52 333.76 L 597.95 333.89 L 597.20 331.47 L 596.61 328.43 L 597.54 326.68 L 596.04 328.92 L 593.75 323.66 L 592.58 325.46 L 587.26 314.66 L 587.46 314.26 L 573.16 288.28 L 531.08 394.69 L 593.33 388.62 L 593.23 373.31 L 597.44 370.80 L 594.63 368.23 L 596.50 359.46 L 596.81 363.34 L 597.30 356.59 L 595.92 367.47 L 594.79 357.26 L 587.24 396.96 L 623.29 399.20 L 623.59 348.45 L 614.53 352.97 L 616.04 345.36 L 611.16 343.79 L 613.77 341.06 L 609.43 338.94 L 612.10 336.15 L 609.68 335.09 L 610.53 335.59 L 607.06 331.03 L 609.52 329.40 L 607.12 328.60 L 606.68 326.01 L 606.19 321.45 L 605.98 323.35 L 599.21 317.14 L 595.72 290.93 L 573.41 353.83 L 600.21 343.99 L 601.61 347.05 L 598.83 340.96 L 601.80 334.57 L 601.96 334.46 L 602.40 332.64 L 600.95 330.38 L 600.79 329.59 L 594.14 324.20 L 585.40 297.67 L 585.52 376.44 L 595.54 352.80 L 598.32 345.74 L 602.17 343.24 L 602.16 344.83 L 601.45 342.98 L 601.25 340.38 L 601.54 338.26 L 602.01 337.26 L 601.56 335.55 L 602.80 335.75 L 600.25 335.47 L 601.22 332.41 L 599.56 331.42 L 601.52 330.05 L 598.05 330.64 L 600.11 326.72 L 595.92 329.53 L 596.67 321.76 L 591.90 325.92 L 589.73 308.25 L 564.13 349.24 L 596.98 378.06 L 597.99 347.22 L 601.15 352.60 L 598.72 340.65 L 602.30 343.78 L 599.42 339.45 L 599.67 339.96 L 598.36 332.94 L 599.73 335.25 L 597.02 331.55 L 596.52 328.76 L 596.90 327.43 L 588.73 327.69 L 578.04 295.61 L 565.70 371.21 L 588.34 352.04 L 576.79 362.98 L 563.43 403.99 L 621.66 395.48 L 608.14 371.84 L 609.43 369.55 L 606.73 355.60 L 609.91 355.85 L 609.65 351.72 L 608.62 353.48 L 609.01 347.29 L 608.05 349.45 L 608.38 343.54 L 608.10 344.24 L 609.61 341.50 L 607.57 343.86 L 608.03 338.91 L 607.43 339.60 L 608.05 336.96 L 607.18 336.92 L 608.07 335.08 L 606.99 336.04 L 606.32 333.63 L 606.45 331.49 L 606.71 331.59 L 606.20 330.38 L 605.62 330.07 L 605.69 328.13 L 604.24 328.72 L 604.51 323.96 L 604.56 325.68 L 604.27 323.60 L 602.41 324.70 L 602.39 319.51 L 601.47 321.37 L 600.60 315.88 L 600.85 316.70 L 599.53 314.85 L 596.56 315.31 L 592.89 305.95 L 593.28 300.02 L 588.14 288.08 L 560.54 337.78 L 583.15 321.72 L 586.00 313.96 L 538.00 303.95 L 566.30 432.26 L 589.99 374.34 L 594.67 374.89 L 597.06 366.62 L 597.60 364.54 L 599.46 358.87 L 600.34 360.63 L 598.47 355.39 L 601.61 352.76 L 600.79 352.87 L 602.12 352.11 L 600.05 350.34 L 602.60 349.13 L 599.80 348.90 L 602.27 346.15 L 600.69 346.70 L 602.28 347.33 L 599.08 345.97 L 601.24 345.50 L 598.98 344.53 L 600.07 347.19 L 597.88 343.94 L 598.08 353.48 L 593.40 346.58 L 588.98 384.96 L 626.45 385.09 L 621.66 336.10 L 614.10 342.85 L 614.28 332.35 L 609.98 333.96 L 610.30 326.74 L 608.84 325.09 L 609.54 324.82 L 604.79 323.12 L 600.93 317.83 L 584.57 292.26 L 594.74 369.84 L 598.24 344.04 L 603.17 338.93 L 603.41 334.67 L 604.41 334.33 L 604.10 330.15 L 603.49 332.57 L 599.66 324.40 L 601.82 317.77 L 601.27 317.52 L 571.49 306.27 L 591.42 368.44 L 594.04 347.60 L 599.35 342.25 L 600.44 342.75 L 599.46 341.34 L 600.18 335.96 L 601.00 339.08 L 598.40 333.99 L 599.78 333.82 L 598.18 328.96 L 599.28 333.11 L 593.02 325.12 L 596.52 326.33 L 573.63 316.16 L 578.17 382.34 L 604.98 359.06 L 599.48 356.70 L 603.37 347.80 L 600.83 347.84 L 603.54 340.67 L 602.05 343.16 L 603.30 337.06 L 602.30 340.25 L 601.22 335.41 L 599.65 333.53 L 600.39 326.89 L 600.41 326.78 L 598.00 323.99 L 564.01 333.16 L 598.77 360.12 L 598.61 356.11 L 598.23 351.81 L 599.17 346.24 L 599.53 345.98 L 600.57 341.04 L 601.19 344.52 L 600.34 341.70 L 598.67 342.76 L 599.84 336.34 L 598.97 341.49 L 598.48 335.93 L 597.01 338.62 L 598.28 336.37 L 590.91 340.74 L 593.23 329.74 L 583.40 339.74 L 570.30 388.91 L 622.09 384.82 L 603.94 358.70 L 611.54 351.55 L 608.67 346.89 L 609.65 348.20 L 607.36 340.95 L 609.23 342.35 L 607.01 339.42 L 606.70 337.14 L 607.75 333.90 L 606.94 335.60 L 606.40 333.17 L 604.87 331.52 L 605.74 329.57 L 603.34 327.65 L 605.42 324.84 L 603.18 325.82 L 602.73 324.47 L 597.75 320.42 L 597.77 311.26 L 593.07 296.72 L 573.62 360.92 L 593.22 341.70 L 598.53 336.23 L 597.38 339.29 L 595.82 330.78 L 594.41 335.15 L 582.40 313.91 L 569.89 369.70 L 604.68 374.65 L 599.73 355.64 L 604.42 354.57 L 602.10 348.05 L 604.74 346.79 L 602.98 343.50 L 605.22 340.95 L 604.14 342.20 L 603.25 338.34 L 603.43 336.38 L 603.94 333.83 L 603.02 335.12 L 601.99 328.76 L 603.48 330.35 L 599.68 327.86 L 597.24 320.06 L 598.92 305.01 L 565.12 339.60 L 597.06 357.16 L 595.59 355.04 L 596.25 343.88 L 600.08 343.63 L 599.52 343.45 L 599.04 341.55 L 599.87 339.52 L 598.56 339.81 L 597.98 336.16 L 597.95 332.49 L 599.65 333.71 L 595.73 333.24 L 592.52 330.87 L 570.12 308.64 L 590.67 381.09 L 589.62 360.85 L 594.77 358.09 L 593.02 352.33 L 596.21 361.07 L 590.70 354.62 L 589.87 398.93 L 624.56 390.16 L 618.98 341.07 L 613.51 350.12 L 614.00 338.82 L 610.19 342.68 L 611.48 335.68 L 608.28 338.07 L 609.27 331.63 L 608.24 333.00 L 608.45 331.07 L 606.33 330.76 L 606.23 327.41 L 605.84 326.81 L 604.24 325.38 L 604.79 321.93 L 603.08 323.86 L 602.23 319.72 L 598.69 319.44 L 600.29 310.93 L 594.58 318.47 L 590.76 296.08 L 566.17 332.19 L 596.31 366.05 L 593.47 329.27 L 595.90 310.31 L 566.54 357.56 L 599.17 357.39 L 595.83 355.42 L 596.77 346.37 L 597.02 337.67 L 600.39 335.36 L 596.72 330.71 L 564.78 351.46 L 598.58 364.36 L 600.90 362.56 L 599.62 358.31 L 601.38 353.96 L 601.29 351.64 L 602.64 348.19 L 604.00 347.97 L 603.53 348.44 L 603.10 346.51 L 602.86 344.03 L 604.29 343.11 L 603.12 342.59 L 604.62 341.01 L 603.30 341.75 L 603.79 340.25 L 602.26 338.48 L 604.43 337.06 L 602.78 338.08 L 603.53 336.56 L 602.23 336.06 L 602.84 335.56 L 601.26 333.85 L 602.51 332.83 L 601.93 333.15 L 600.89 333.97 L 600.23 330.60 L 599.90 331.87 L 599.66 329.31 L 598.09 330.73 L 599.51 328.00 L 595.43 333.49 L 595.77 326.72 L 591.52 330.92 L 595.31 328.30 L 579.45 345.08 L 605.06 376.36 L 620.00 326.88 L 595.44 306.10 L 586.34 259.45 L 553.38 399.03 L 594.26 361.98 L 598.52 355.36 L 600.64 356.35 L 599.24 345.84 L 602.10 349.14 L 597.20 341.93 L 600.13 338.82 L 595.70 335.36 L 597.87 330.69 L 570.32 336.90 L 589.91 395.01 L 606.04 361.34 L 602.70 363.75 L 606.74 351.60 L 605.91 356.24 L 606.04 349.20 L 605.82 349.36 L 606.62 344.81 L 606.74 345.72 L 606.41 342.59 L 607.20 342.35 L 605.93 341.72 L 606.09 338.54 L 606.06 337.63 L 607.00 336.26 L 605.52 337.23 L 605.99 333.55 L 605.01 334.86 L 604.95 330.79 L 604.60 330.68 L 605.62 328.47 L 603.89 330.90 L 602.83 326.31 L 602.23 325.04 L 602.05 321.62 L 601.34 319.85 L 601.16 317.94 L 596.42 318.33 L 569.03 301.96 L 595.53 357.33 L 596.32 346.89 L 595.41 338.25 L 596.27 330.54 L 599.57 326.08 L 595.51 330.44 L 578.46 299.73 L 577.60 377.87 L 591.89 349.64 L 597.40 353.22 L 596.87 350.47 L 596.89 348.57 L 598.88 345.38 L 597.71 347.93 L 597.67 343.02 L 598.36 342.77 L 599.13 343.77 L 596.89 343.16 L 597.75 342.74 L 596.12 341.04 L 596.64 344.76 L 593.86 339.37 L 595.68 350.61 L 587.91 343.33 L 588.72 390.31 L 624.20 371.19 L 614.79 332.47 L 608.49 335.71 L 608.82 328.17 L 600.87 326.46 L 602.91 321.93 L 580.20 310.43 L 583.64 374.47 L 608.72 357.69 L 603.03 348.45 L 605.46 340.61 L 602.52 336.78 L 603.03 325.00 L 603.36 320.90 L 569.81 355.56 L 601.73 356.35 L 604.43 350.62 L 605.15 353.31 L 602.94 345.95 L 604.40 343.42 L 605.11 338.73 L 605.57 340.74 L 604.35 335.50 L 605.61 335.83 L 603.36 334.16 L 601.73 328.68 L 603.37 322.14 L 602.07 324.81 L 575.40 305.40 L 589.73 374.13 L 595.69 351.27 L 601.49 346.74 L 602.46 349.83 L 601.06 344.67 L 603.38 343.65 L 602.75 342.52 L 602.70 341.94 L 602.77 337.31 L 604.54 339.52 L 602.71 338.06 L 603.02 337.03 L 602.69 334.65 L 602.88 334.89 L 602.36 332.27 L 603.10 332.33 L 602.20 332.75 L 600.59 330.63 L 600.85 327.96 L 600.53 326.22 L 600.83 326.41 L 598.93 324.51 L 597.74 325.04 L 591.27 317.37 L 583.91 294.40 L 580.09 371.20 L 591.94 349.50 L 593.78 340.93 L 598.21 341.64 L 596.27 341.05 L 596.49 341.58 L 594.32 337.17 L 595.48 337.46 L 593.64 335.66 L 593.04 335.30 L 592.50 336.37 L 586.38 336.81 L 586.71 337.23 L 564.99 337.68 L 577.98 427.90 L 624.89 381.84 L 606.90 353.51 L 615.16 353.16 L 603.89 341.36 L 609.52 332.47 L 606.00 327.69 L 575.58 325.50 L 598.58 375.90 L 600.56 359.07 L 603.97 350.16 L 606.88 351.76 L 605.07 349.34 L 605.76 345.44 L 606.71 344.68 L 605.04 343.09 L 606.13 339.08 L 606.25 338.28 L 606.81 338.94 L 603.91 336.66 L 605.04 333.42 L 603.11 331.00 L 604.35 327.49 L 603.09 325.71 L 601.17 325.91 L 568.67 319.53 L 601.36 363.24 L 600.73 355.88 L 601.22 349.79 L 601.83 344.15 L 604.20 341.86 L 604.79 342.31 L 604.08 341.49 L 604.41 339.63 L 603.63 338.75 L 604.18 336.31 L 603.93 335.00" fill="none" stroke="#2040a0" stroke-width="0.5" opacity="0.4"/>
<path d="M 182.85 328.49 L 200.90 351.48 L 207.69 357.49 L 212.94 354.31 L 214.41 348.81 L 214.29 347.06 L 217.06 344.53 L 221.91 345.19 L 213.79 344.86 L 215.85 342.25 L 215.42 336.66 L 216.68 353.98 L 217.12 347.62 L 218.93 345.25 L 220.72 344.12 L 214.15 344.93 L 215.90 343.36 L 215.60 341.95 L 203.61 341.26 L 216.61 340.45 L 218.66 338.88 L 219.89 336.65 L 214.62 343.50 L 216.41 342.02 L 216.99 340.67 L 217.53 343.61 L 217.69 347.67 L 218.80 346.51 L 220.03 344.58 L 214.49 341.47 L 216.91 340.67 L 216.37 339.37 L 216.41 333.18 L 216.65 345.94 L 217.93 344.45 L 218.76 343.00 L 223.91 341.93 L 214.16 341.59 L 213.61 340.85 L 213.49 339.08 L 210.09 338.66 L 216.00 337.89 L 218.59 334.59 L 223.62 327.42 L 215.50 341.35 L 216.11 338.78 L 216.14 333.12 L 217.22 343.27 L 217.77 345.60 L 218.74 344.66 L 220.92 338.54 L 214.54 350.14 L 215.83 345.13 L 214.81 342.87 L 203.85 324.12 L 215.86 347.98 L 217.51 346.78 L 218.28 345.98 L 213.53 344.51 L 214.14 344.04 L 214.34 343.57 L 208.92 342.67 L 215.35 341.63 L 218.29 340.14 L 219.31 338.13 L 212.77 350.72 L 216.70 347.53 L 215.81 345.51 L 216.86 354.70 L 216.36 350.95 L 218.12 341.31 L 217.80 342.29 L 224.19 339.03 L 214.79 339.16 L 214.23 337.45 L 215.52 334.00 L 216.09 357.64 L 216.63 346.67 L 216.65 344.34 L 215.15 343.91 L 213.17 342.11 L 212.55 340.54 L 210.96 340.06 L 215.68 338.61 L 221.63 337.04 L 221.06 335.19 L 223.61 329.70 L 218.20 342.65 L 217.20 340.56 L 217.69 339.14 L 206.73 337.52 L 218.27 336.42 L 219.68 335.35 L 221.74 328.40 L 217.18 342.63 L 218.09 339.03 L 218.33 338.72 L 218.81 332.56 L 218.93 340.68 L 220.23 340.18 L 221.65 339.22 L 215.50 355.39 L 218.10 346.06 L 217.71 337.73 L 217.96 329.81 L 217.99 332.38 L 219.54 338.40 L 219.22 337.25 L 221.77 316.88 L 216.52 344.63 L 217.08 343.57 L 215.13 341.69 L 211.87 340.99 L 212.61 341.36 L 215.15 339.70 L 221.87 339.00 L 212.47 338.51 L 212.55 336.89 L 213.51 334.34 L 204.51 340.57 L 212.84 340.96 L 214.83 339.59 L 213.07 340.27 L 210.03 339.46 L 213.82 336.84 L 213.52 336.04 L 204.88 345.57 L 215.01 343.40 L 216.21 339.82 L 219.37 334.49 L 216.06 346.40 L 215.18 343.29 L 215.85 339.70 L 215.95 331.39 L 216.53 329.85 L 217.80 332.40 L 219.38 340.19 L 218.54 345.83 L 214.68 333.08 L 215.55 330.26 L 215.50 319.34 L 215.61 349.51 L 215.52 342.19 L 216.36 340.61 L 215.52 340.67 L 212.14 339.48 L 210.53 338.57 L 209.19 335.84 L 210.74 335.42 L 214.13 335.03 L 217.62 333.03 L 222.41 325.50 L 214.42 342.75 L 214.16 339.30 L 215.21 340.19 L 215.66 342.56 L 215.86 346.34 L 214.09 347.37 L 215.85 344.45 L 208.93 340.60 L 211.69 339.04 L 212.49 337.84 L 203.63 322.97 L 212.82 345.15 L 212.77 342.73 L 214.11 341.88 L 215.69 341.25 L 217.27 341.15 L 214.11 339.77 L 212.53 338.41 L 213.40 337.20 L 214.62 336.67 L 219.34 334.38 L 227.83 329.29 L 215.50 339.60 L 216.13 339.03 L 215.31 335.36 L 217.00 350.42 L 217.19 341.73 L 217.67 340.57 L 214.61 339.58 L 211.72 336.63 L 213.99 334.16 L 211.27 330.83 L 211.20 344.69 L 218.75 338.43 L 218.56 337.92 L 222.66 329.17 L 215.73 344.95 L 217.38 337.89 L 217.44 340.52 L 218.03 343.10 L 217.82 344.30 L 219.00 344.78 L 221.19 342.60 L 215.96 347.86 L 215.89 345.60 L 213.98 345.04 L 200.68 344.13 L 214.79 343.27 L 216.99 343.91 L 219.68 343.51 L 216.20 359.28 L 216.51 348.79 L 217.60 343.01 L 217.71 346.72 L 218.35 355.51 L 218.92 343.48 L 221.28 337.35 L 235.55 332.85 L 216.87 340.33 L 217.72 343.57 L 217.34 342.11 L 218.17 339.71 L 218.45 340.20 L 219.36 337.43 L 216.77 327.51 L 214.05 344.68 L 216.69 343.42 L 216.98 342.02 L 218.04 341.57 L 219.79 340.71 L 220.72 339.26 L 218.98 339.72 L 209.44 338.61 L 211.92 335.73 L 214.32 334.19 L 215.27 334.53 L 214.76 348.48 L 216.45 344.95 L 218.40 342.99 L 212.51 341.47 L 213.62 338.57 L 212.38 338.13 L 208.26 334.10 L 211.23 349.00 L 214.38 342.24 L 215.83 337.74 L 201.99 353.70 L 212.04 347.12 L 213.04 345.17 L 213.57 344.20 L 213.31 343.77 L 213.78 342.71 L 213.92 341.84 L 226.72 340.70 L 213.35 340.09 L 211.63 338.56 L 210.92 336.15 L 216.05 342.33 L 220.68 341.87 L 218.57 340.14 L 220.05 342.47 L 214.43 346.88 L 216.16 345.56 L 217.53 343.68 L 218.44 341.80 L 218.90 340.15 L 220.26 338.20 L 222.10 332.46 L 216.69 346.49 L 217.74 343.70 L 217.55 341.72 L 218.30 341.96 L 218.19 341.90 L 219.73 339.25 L 220.80 331.93 L 215.30 328.21 L 216.56 328.48 L 215.17 332.18 L 212.51 327.85 L 214.73 340.76 L 217.49 338.42 L 219.61 343.39 L 212.57 349.38 L 215.77 337.91 L 213.94 335.50 L 211.89 331.00 L 213.49 343.00 L 216.52 335.06 L 218.05 331.15 L 236.12 314.64 L 216.32 350.34 L 215.86 346.12 L 216.40 342.59 L 215.94 342.79 L 216.88 341.69 L 216.80 340.53 L 220.54 338.98 L 212.33 338.17 L 213.38 336.28 L 215.40 334.28 L 216.15 344.22 L 215.76 340.33 L 213.89 339.73 L 215.88 339.74 L 210.98 337.92 L 213.63 336.70 L 216.25 336.58 L 217.14 335.25 L 216.21 333.99 L 217.23 333.56 L 219.07 329.32 L 215.02 353.85 L 213.20 342.75 L 212.48 340.53 L 204.74 338.47 L 211.74 335.12 L 217.16 332.80 L 219.39 332.16 L 213.96 336.41 L 215.76 340.14 L 215.53 335.32 L 216.50 322.84 L 216.64 337.39 L 217.89 342.03 L 217.95 343.57 L 221.98 341.33 L 214.90 340.84 L 215.38 340.32 L 215.57 338.37 L 215.79 338.23 L 216.54 337.69 L 216.72 335.23 L 221.24 330.42 L 212.67 339.70 L 214.39 336.65 L 215.51 335.10 L 214.78 358.69 L 217.25 354.28 L 215.93 348.91 L 217.49 346.00 L 217.83 344.97 L 220.55 343.43 L 218.76 339.58 L 215.11 323.20 L 212.76 349.20 L 212.32 346.85 L 215.77 345.81 L 210.30 345.73 L 209.33 346.54 L 212.20 345.32 L 212.64 354.75 L 213.45 347.92 L 215.75 339.37 L 218.72 339.10 L 218.92 338.75 L 214.53 343.93 L 215.75 341.52 L 216.04 341.70 L 216.23 340.50 L 217.30 339.58 L 218.57 337.94 L 225.82 344.72 L 213.92 344.15 L 214.06 341.63 L 214.10 336.51 L 207.33 347.89 L 214.65 344.31 L 216.33 343.03 L 219.59 341.74 L 211.32 340.36 L 213.82 339.72 L 214.76 338.59 L 215.61 338.10 L 215.13 336.92 L 216.75 334.90 L 214.44 329.69 L 211.66 340.49 L 216.45 339.53 L 215.97 338.03 L 217.06 336.10 L 217.64 335.92 L 218.51 333.24 L 221.06 327.00 L 217.32 340.08 L 215.41 339.81 L 215.66 337.00 L 215.00 326.74 L 214.96 345.43 L 217.67 343.35 L 220.33 344.04 L 228.44 344.78 L 215.51 347.81 L 216.91 349.28 L 216.73 347.85 L 218.08 344.47 L 218.10 341.87 L 219.77 338.84 L 223.69 326.99 L 215.33 347.48 L 216.23 345.46 L 216.08 344.16 L 216.55 343.82 L 216.13 342.06 L 215.83 340.47 L 213.17 340.52 L 209.27 340.82 L 213.17 338.28 L 215.00 330.96 L 216.10 316.66 L 216.80 330.82 L 218.04 336.10 L 220.20 336.10 L 215.02 351.49 L 215.53 340.67 L 215.62 341.44 L 216.53 340.41 L 216.41 340.67 L 217.34 337.23 L 218.94 339.82 L 213.46 359.30 L 213.89 342.46 L 211.34 340.68 L 210.74 337.15 L 216.02 337.17 L 220.64 335.09 L 220.83 327.31 L 236.66 323.71 L 216.34 329.56 L 217.26 333.82 L 217.85 322.90 L 218.12 346.56 L 218.24 343.18 L 219.70 344.43 L 222.77 341.69 L 214.69 340.46 L 215.56 340.70 L 211.79 340.79 L 210.26 356.91 L 217.49 345.10 L 217.78 340.24 L 219.40 334.38 L 211.21 347.44 L 215.95 344.52 L 215.36 343.05 L 206.89 343.06 L 215.78 342.31 L 218.03 340.52 L 219.54 339.90 L 213.77 339.41 L 214.90 338.05 L 212.41 335.55 L 211.89 328.35 L 214.46 342.13 L 219.35 341.10 L 219.67 340.22 L 209.25 339.73 L 209.92 338.31 L 212.32 337.92 L 214.03 337.68 L 213.45 336.58 L 216.13 333.84 L 218.15 332.30 L 236.92 328.47 L 215.03 347.65 L 215.71 344.34 L 216.54 340.99 L 216.65 339.45 L 217.61 339.07 L 219.11 338.82 L 223.72 336.45 L 215.46 333.16 L 215.82 330.20 L 216.41 329.45 L 216.25 347.20 L 216.55 346.20 L 217.64 345.91 L 219.23 337.18 L 212.45 353.20 L 215.18 346.50 L 215.14 346.46 L 215.54 346.95 L 215.38 344.28 L 216.39 342.25 L 217.05 339.94 L 206.34 347.49 L 213.73 348.03 L 214.64 346.51 L 216.01 356.81 L 215.78 355.43 L 216.97 348.91 L 217.55 348.34 L 210.70 343.27 L 214.17 343.15 L 213.91 340.64 L 212.65 334.93 L 212.80 347.83 L 214.62 346.06 L 214.30 344.09 L 226.49 343.48 L 213.77 342.82 L 213.97 341.93 L 215.37 340.30 L 214.71 339.74 L 216.76 338.86 L 213.76 336.81 L 220.94 332.13 L 218.56 341.61 L 219.20 340.72 L 217.53 339.64 L 218.26 339.54 L 218.00 338.80 L 218.70 337.68 L 221.70 333.36 L 215.03 346.11 L 214.77 339.19 L 212.98 337.22 L 211.78 317.40 L 213.03 342.42 L 215.57 341.27 L 220.00 340.37 L 216.30 337.15 L 215.43 335.82 L 214.48 336.24 L 208.85 329.47 L 215.74 345.49 L 217.08 338.78 L 218.89 335.03 L 214.31 342.66 L 215.68 341.57 L 215.92 335.89 L 215.54 330.73 L 215.86 332.22 L 217.99 338.66 L 219.09 340.29 L 231.56 338.23 L 216.94 336.79 L 216.77 336.62 L 217.85 332.33 L 217.50 361.18 L 218.68 348.42 L 219.61 341.54 L 225.54 334.82 L 217.13 332.28 L 216.38 334.10 L 217.02 337.11 L 217.16 338.21 L 218.00 336.08 L 218.30 334.23 L 220.40 330.36 L 214.99 344.11 L 215.56 340.72 L 216.25 341.09 L 216.26 340.45 L 216.85 341.88 L 218.00 338.89 L 220.18 345.80 L 216.56 348.68 L 213.70 336.46 L 214.88 335.52 L 207.86 329.77 L 214.28 338.58 L 217.66 337.13 L 218.78 337.94 L 210.22 353.30 L 215.22 343.60 L 216.47 339.55 L 211.66 337.05 L 209.14 335.63 L 211.50 332.21 L 215.41 329.93 L 223.78 312.91 L 212.74 350.23 L 214.10 343.42 L 215.09 341.29 L 215.15 341.85 L 215.63 341.30 L 217.56 338.40 L 221.61 336.79 L 214.44 334.54 L 213.91 332.43 L 214.54 332.53 L 214.97 334.26 L 215.20 345.55 L 216.13 346.15 L 216.33 346.15 L 211.79 344.22 L 212.46 341.00 L 210.43 338.89 L 211.69 345.04 L 218.95 346.22 L 219.74 344.39 L 221.20 338.42 L 217.87 350.45 L 215.12 345.66 L 216.11 345.36 L 216.50 343.57 L 216.36 342.66 L 215.04 341.99 L 214.72 340.74 L 222.59 339.30 L 210.90 338.98 L 212.93 337.42 L 210.97 333.36 L 210.06 342.48 L 214.39 341.53 L 217.75 340.01 L 222.83 339.15 L 215.42 339.57 L 216.49 338.08 L 215.89 336.85 L 217.29 336.09 L 217.80 335.19 L 219.46 331.24 L 221.68 325.12 L 215.00 347.13 L 216.26 341.17 L 215.51 337.75 L 216.58 341.58 L 215.75 348.15 L 217.08 346.62 L 211.86 342.65 L 209.24 341.21 L 216.10 341.75 L 215.46 340.92 L 217.51 338.20 L 218.08 345.86 L 219.23 338.88 L 220.85 340.48 L 216.68 342.36 L 216.99 347.44 L 217.45 345.76 L 217.74 342.76 L 218.02 339.78 L 218.84 337.19 L 220.39 329.24 L 236.26 315.43 L 215.73 339.31 L 215.81 344.23 L 213.89 340.44 L 216.07 355.72 L 216.66 347.18 L 217.67 345.23 L 214.13 343.46 L 214.53 342.27 L 215.64 340.85 L 215.93 336.72 L 217.20 352.06 L 217.67 345.57 L 219.91 344.53 L 221.61 343.36 L 215.36 342.78 L 216.61 341.49 L 216.53 340.79 L 217.40 339.78 L 217.50 339.11 L 218.33 337.53 L 217.72 334.72 L 212.54 340.63 L 215.35 340.43 L 215.55 339.97 L 216.67 339.15 L 217.37 337.40 L 218.36 335.14 L 219.37 332.54 L 212.68 360.18 L 215.68 349.58 L 216.12 344.32 L 215.65 337.06 L 215.22 350.80 L 216.54 347.86 L 214.24 344.74 L 235.46 344.95 L 219.00 345.45 L 217.67 341.92 L 213.92 334.47 L 216.35 330.60 L 218.40 331.08 L 218.95 333.60 L 219.35 330.07 L 206.99 341.71 L 209.16 339.48 L 208.81 339.81 L 198.34 341.09 L 213.46 339.72 L 212.84 338.40 L 215.53 338.50 L 207.77 338.78 L 210.71 335.66 L 213.34 335.04 L 215.83 328.17 L 216.00 352.43 L 216.48 347.85 L 215.62 353.47 L 211.14 353.69 L 214.30 342.51 L 215.29 343.01 L 216.35 339.63 L 216.47 338.94 L 218.35 337.34 L 219.25 334.16 L 212.59 345.32 L 216.41 341.60 L 216.30 340.83 L 216.88 338.79 L 216.94 338.14 L 218.26 337.57 L 219.20 336.33 L 235.61 334.65 L 216.04 334.67 L 214.78 331.19 L 213.71 322.58 L 214.01 346.66 L 216.45 343.37 L 217.59 341.50 L 223.92 340.87 L 216.00 346.54 L 215.65 345.43 L 216.15 343.50 L 215.93 340.93 L 216.64 339.55 L 216.14 338.12 L 217.21 331.90 L 210.95 344.86 L 213.01 343.03 L 214.75 341.96 L 215.89 340.49 L 216.67 339.67 L 216.12 339.52 L 216.41 337.58 L 211.43 336.55 L 213.49 336.28 L 214.53 334.69 L 215.45 328.80 L 216.05 338.32 L 217.17 337.85 L 217.88 335.78 L 213.83 335.01 L 214.09 335.47 L 214.66 330.00 L 214.46 320.78 L 214.06 337.08 L 213.78 337.24 L 214.24 336.95 L 220.81 317.04 L 212.38 342.81 L 208.95 341.76 L 207.15 340.54 L 206.06 338.96 L 212.17 339.38 L 216.11 338.41 L 222.68 337.20 L 214.28 335.32 L 213.14 335.06 L 211.16 332.31 L 215.57 335.75 L 221.44 337.86 L 220.27 337.46 L 223.24 329.30 L 218.56 348.18 L 216.75 343.05 L 217.22 345.75 L 208.50 353.26 L 217.63 340.61 L 217.97 336.05 L 218.79 334.51 L 213.31 361.72 L 215.02 347.49 L 217.52 343.23 L 218.34 341.74 L 219.00 337.80 L 219.23 336.64 L 221.77 337.05 L 223.29 340.49 L 217.83 342.82 L 218.47 342.88 L 218.21 337.12 L 218.80 346.63 L 219.58 343.87 L 221.56 342.43 L 227.40 340.93 L 216.85 338.91 L 216.93 337.10 L 215.56 338.00 L 212.97 342.01 L 218.03 344.54 L 219.91 343.98 L 223.90 338.06 L 217.28 345.85 L 218.77 343.31 L 217.22 344.86 L 213.36 359.61 L 212.52 350.46 L 215.17 346.11 L 219.87 344.79 L 214.10 343.27 L 213.63 340.93 L 214.76 338.14 L 214.56 324.55 L 213.76 345.57 L 213.99 343.71 L 214.64 342.92 L 200.14 340.95 L 208.70 339.00 L 212.84 337.97 L 207.51 331.91 L 213.07 350.64 L 216.56 342.11 L 218.70 334.34 L 228.96 323.59 L 215.35 335.13 L 216.35 338.14 L 216.18 340.83 L 216.66 340.94 L 217.53 338.18 L 219.69 337.49 L 223.14 343.07 L 214.45 345.06 L 215.20 342.04 L 213.71 337.55 L 210.21 352.11 L 215.63 346.32 L 218.49 345.07 L 220.96 343.72 L 214.64 343.70 L 216.06 342.82 L 215.90 342.60 L 216.73 340.43 L 217.25 342.33 L 217.94 340.08 L 219.78 345.04 L 214.25 352.06 L 215.04 342.03 L 215.38 343.02 L 214.27 339.54 L 214.86 339.88 L 214.05 338.56 L 212.40 336.75 L 205.94 335.54 L 216.61 335.54 L 214.94 331.55 L 211.77 322.17 L 215.68 347.61 L 216.49 340.91 L 219.31 334.07 L 236.18 330.54 L 216.67 335.45 L 217.36 339.61 L 216.63 338.72 L 216.92 335.33 L 217.61 334.18 L 219.56 332.53 L 223.81 320.54 L 214.27 351.71 L 212.89 346.34 L 209.95 343.50 L 203.16 343.72 L 211.26 343.15 L 215.75 341.74 L 219.80 340.82 L 214.21 339.91 L 215.04 338.50 L 214.36 336.58 L 215.82 321.30 L 215.35 342.23 L 217.61 342.23 L 213.41 340.02 L 208.61 355.94 L 216.53 344.98 L 215.49 343.93 L 217.40 343.04 L 216.07 340.94 L 217.27 338.79 L 217.76 336.34 L 203.73 350.47 L 214.63 344.23 L 215.18 343.34 L 216.19 342.57 L 216.20 341.33 L 217.49 340.68 L 218.10 340.04 L 227.76 339.17 L 215.27 338.58 L 215.64 336.91 L 215.47 334.12 L 215.95 340.62 L 217.29 341.07 L 219.18 339.93 L 223.69 339.68 L 214.18 338.20 L 214.04 338.01 L 214.39 338.03 L 206.12 355.97 L 214.49 343.07 L 214.42 338.28 L 215.61 332.12 L 210.75 347.37 L 214.55 341.90 L 217.02 342.71 L 217.39 353.10 L 218.48 352.75 L 219.69 345.85 L 218.66 343.75 L 209.70 342.05 L 210.69 341.34 L 212.85 338.01 L 214.49 333.75 L 213.75 343.02 L 215.12 342.00 L 216.03 340.69 L 199.32 341.34 L 212.61 339.85 L 213.33 338.54 L 214.80 337.59 L 213.78 337.32 L 215.35 334.88 L 216.53 332.52 L 231.92 324.18 L 212.30 348.46 L 209.92 345.45 L 207.76 342.55 L 207.75 341.00 L 218.25 340.09 L 218.12 339.50 L 224.00 338.15 L 214.84 336.72 L 213.30 334.68 L 211.73 332.40 L 198.09 341.26 L 217.31 339.38 L 218.26 337.89 L 222.81 336.53 L 216.49 335.00 L 216.87 334.89 L 217.39 334.25 L 218.43 332.51 L 218.68 329.25 L 219.65 325.83 L 221.70 324.40 L 217.44 340.25 L 217.50 343.29 L 217.59 336.38 L 217.66 327.00 L 217.93 331.19 L 218.57 330.94 L 219.84 329.88 L 204.67 337.63 L 215.87 339.83 L 217.09 332.50 L 217.34 320.59 L 218.02 337.54 L 218.79 343.00 L 220.18 343.27 L 231.41 340.03 L 216.98 340.74 L 216.46 340.41 L 217.10 338.41 L 217.59 338.20 L 218.38 338.85 L 217.39 336.15 L 217.08 329.90 L 214.08 338.75 L 213.77 337.95 L 215.29 339.66 L 204.09 342.44 L 217.24 348.36 L 218.33 348.06 L 222.28 353.31 L 216.72 363.95 L 215.90 344.87 L 217.22 344.07 L 217.64 325.55 L 218.23 350.04 L 218.46 347.40 L 221.30 347.34 L 217.87 344.77 L 216.24 343.14 L 216.66 343.06 L 216.61 342.65 L 216.73 341.13 L 217.29 339.62 L 219.04 337.43 L 209.15 335.78 L 213.76 342.76 L 215.61 342.41 L 215.04 341.22 L 216.01 339.66 L 215.26 339.69 L 216.91 338.07 L 217.25 336.67 L 214.13 335.81 L 215.50 333.80 L 216.01 325.04 L 216.51 370.04 L 217.63 353.74 L 217.83 350.82 L 221.44 348.42 L 213.06 346.87 L 214.04 345.74 L 213.84 344.43 L 191.52 343.26 L 214.43 341.96 L 214.60 340.54 L 215.55 336.78 L 216.02 346.23 L 219.42 344.23 L 218.59 343.68 L 219.05 343.26 L 219.82 342.79 L 220.01 341.32 L 222.48 340.78 L 218.76 339.90 L 218.66 338.83 L 218.95 336.92 L 214.10 332.59 L 212.06 343.16 L 213.28 341.23 L 217.78 341.53 L 215.19 355.81 L 211.84 348.58 L 214.27 344.69 L 215.23 342.52 L 215.60 341.43 L 214.63 340.24 L 214.81 337.09 L 216.95 325.94 L 209.01 344.78 L 211.69 343.76 L 213.92 342.17 L 215.52 341.99 L 216.11 340.48 L 216.87 341.13 L 218.23 339.65 L 211.91 339.65 L 214.01 337.85 L 213.75 339.50 L 200.80 335.96 L 212.28 341.71 L 213.52 338.19 L 214.60 330.78 L 205.85 346.88 L 209.87 342.11 L 208.74 340.41 L 209.30 343.08 L 211.04 344.35 L 215.14 343.32 L 217.77 336.95 L 213.36 350.92 L 212.53 345.04 L 213.40 343.44 L 207.84 339.89 L 213.14 340.28 L 216.97 338.37 L 217.47 331.08 L 222.35 327.65 L 214.87 334.13 L 215.85 338.45 L 215.67 334.00 L 216.57 339.68 L 218.02 341.32 L 219.72 340.95 L 223.76 339.21 L 215.27 339.24 L 216.43 338.27 L 216.59 337.12 L 217.85 336.86 L 217.91 336.27 L 218.92 332.26 L 220.46 324.43 L 214.80 350.88 L 215.89 344.37 L 215.32 342.26 L 203.53 342.12 L 215.92 340.96 L 217.58 337.62 L 218.53 331.51 L 213.62 326.04 L 215.33 325.99 L 214.00 329.60 L 208.03 325.16 L 214.67 336.04 L 216.14 334.76 L 217.64 334.88 L 210.76 334.05 L 215.06 333.01 L 212.19 332.79 L 212.30 324.12 L 218.49 342.38 L 221.38 336.22 L 219.74 335.07 L 227.16 315.83 L 217.45 337.56 L 217.04 336.53 L 218.31 337.34 L 218.09 358.31 L 219.75 351.96 L 220.95 350.60 L 226.17 347.55 L 217.40 344.15 L 217.41 342.19 L 218.06 341.02 L 218.80 353.67 L 218.83 349.52 L 219.88 346.97 L 222.06 356.32 L 215.88 352.59 L 216.65 342.82 L 215.62 343.97 L 204.66 340.81 L 215.43 340.46 L 217.42 338.11 L 214.57 336.17 L 209.72 342.31 L 217.92 341.62 L 216.52 341.07 L 217.58 340.75 L 217.01 339.15 L 219.03 337.90 L 219.89 338.61 L 204.23 355.41 L 216.54 344.37 L 217.12 338.32 L 217.11 331.85 L 217.64 345.96 L 220.27 343.32 L 218.62 341.47 L 219.83 340.91 L 210.04 339.15 L 211.99 338.02 L 214.92 337.33 L 215.24 336.03 L 216.50 333.29 L 218.19 332.22 L 224.48 323.19 L 215.65 349.42 L 215.03 342.79 L 216.63 342.10 L 216.68 342.60 L 217.42 340.38 L 218.08 338.78 L 221.41 338.59 L 215.69 337.30 L 215.08 334.57 L 215.12 333.18 L 204.73 323.84 L 215.79 348.27 L 216.76 344.77 L 219.68 342.28 L 215.32 340.79 L 215.54 341.23 L 215.80 339.00 L 215.78 335.19 L 216.13 333.18 L 217.00 332.66 L 219.05 330.41 L 214.95 339.26 L 213.81 344.93 L 212.60 341.83 L 210.43 335.12 L 210.51 335.82 L 214.14 341.79 L 214.76 341.92 L 216.59 340.19 L 211.93 340.50 L 212.91 340.44 L 213.02 335.00 L 213.23 346.57 L 214.73 344.14 L 212.87 342.61 L 218.13 340.47 L 216.27 351.19 L 216.29 347.66 L 212.87 350.38 L 210.50 355.90 L 218.79 343.03 L 217.80 339.50 L 222.77 335.13 L 216.22 345.34 L 216.17 341.21 L 215.35 339.38 L 206.78 338.64 L 216.26 350.64 L 216.96 346.79 L 220.20 343.57 L 217.06 343.13 L 214.96 341.58 L 216.11 340.29 L 215.82 335.25 L 215.79 344.73 L 214.42 343.65 L 214.91 343.12 L 218.09 341.66 L 210.68 341.43 L 211.92 341.16 L 211.28 337.42 L 211.45 351.00 L 212.15 342.20 L 214.08 339.96 L 205.58 325.11 L 212.84 346.82 L 213.16 344.31 L 213.90 344.09 L 215.81 343.17 L 217.65 341.64 L 219.43 339.93 L 222.38 340.07 L 215.40 339.84 L 216.11 337.30 L 217.24 330.02 L 217.66 320.33" fill="none" stroke="#601030" stroke-width="0.5" opacity="0.3"/>
<path d="M 841.0 100.0 L 841.2 279.8 L 841.5 497.5 L 841.7 502.2 L 841.9 545.0 L 842.2 525.1 L 842.4 568.0 L 842.7 565.4 L 842.9 553.1 L 843.1 556.9 L 843.4 556.0 L 843.6 576.1 L 843.8 583.7 L 844.1 590.7 L 844.3 598.5 L 844.5 570.4 L 844.8 575.1 L 845.0 574.7 L 845.2 496.6 L 845.5 586.5 L 845.7 589.4 L 846.0 607.9 L 846.2 565.3 L 846.4 579.2 L 846.7 578.2 L 846.9 585.6 L 847.1 566.9 L 847.4 572.2 L 847.6 577.7 L 847.8 564.6 L 848.1 575.5 L 848.3 581.5 L 848.5 595.0 L 848.8 545.8 L 849.0 552.9 L 849.3 555.6 L 849.5 546.6 L 849.7 547.3 L 850.0 522.5 L 850.2 453.3 L 850.4 496.8 L 850.7 596.8 L 850.9 596.5 L 851.1 589.9 L 851.4 598.7 L 851.6 562.3 L 851.8 525.1 L 852.1 399.5 L 852.3 581.9 L 852.6 570.8 L 852.8 565.0 L 853.0 606.2 L 853.3 618.8 L 853.5 610.6 L 853.7 546.2 L 854.0 596.0 L 854.2 588.8 L 854.4 564.9 L 854.7 585.7 L 854.9 568.2 L 855.1 539.6 L 855.4 442.6 L 855.6 440.4 L 855.9 552.9 L 856.1 527.6 L 856.3 612.1 L 856.6 560.5 L 856.8 563.8 L 857.0 454.9 L 857.3 425.7 L 857.5 519.1 L 857.7 542.8 L 858.0 587.5 L 858.2 559.5 L 858.5 544.5 L 858.7 573.4 L 858.9 507.0 L 859.2 556.2 L 859.4 560.1 L 859.6 449.8 L 859.9 535.2 L 860.1 568.1 L 860.3 570.6 L 860.6 594.2 L 860.8 613.2 L 861.0 609.6 L 861.3 601.8 L 861.5 589.0 L 861.8 595.3 L 862.0 588.5 L 862.2 532.2 L 862.5 590.1 L 862.7 579.5 L 862.9 500.9 L 863.2 446.1 L 863.4 599.9 L 863.6 580.9 L 863.9 583.4 L 864.1 623.5 L 864.3 624.8 L 864.6 612.2 L 864.8 561.3 L 865.1 598.2 L 865.3 619.9 L 865.5 612.7 L 865.8 619.3 L 866.0 609.5 L 866.2 614.3 L 866.5 582.9 L 866.7 585.6 L 866.9 572.4 L 867.2 578.6 L 867.4 560.6 L 867.6 576.9 L 867.9 568.7 L 868.1 555.1 L 868.4 548.8 L 868.6 544.2 L 868.8 522.0 L 869.1 454.4 L 869.3 570.8 L 869.5 586.7 L 869.8 448.5 L 870.0 412.4 L 870.2 532.5 L 870.5 537.8 L 870.7 546.2 L 871.0 588.1 L 871.2 586.8 L 871.4 566.8 L 871.7 621.3 L 871.9 615.5 L 872.1 593.8 L 872.4 578.5 L 872.6 553.2 L 872.8 575.5 L 873.1 479.3 L 873.3 452.7 L 873.5 452.6 L 873.8 576.5 L 874.0 574.9 L 874.3 511.5 L 874.5 572.9 L 874.7 567.7 L 875.0 565.1 L 875.2 564.6 L 875.4 538.8 L 875.7 541.7 L 875.9 547.2 L 876.1 566.8 L 876.4 584.6 L 876.6 598.7 L 876.8 570.0 L 877.1 568.9 L 877.3 576.1 L 877.6 570.0 L 877.8 562.6 L 878.0 537.5 L 878.3 455.5 L 878.5 504.3 L 878.7 592.1 L 879.0 586.2 L 879.2 508.3 L 879.4 578.1 L 879.7 588.3 L 879.9 590.6 L 880.1 597.1 L 880.4 601.9 L 880.6 585.6 L 880.9 575.5 L 881.1 591.7 L 881.3 593.6 L 881.6 612.0 L 881.8 581.8 L 882.0 587.5 L 882.3 582.1 L 882.5 599.5 L 882.7 532.4 L 883.0 564.7 L 883.2 553.6 L 883.5 572.3 L 883.7 542.8 L 883.9 568.8 L 884.2 471.3 L 884.4 466.3 L 884.6 597.9 L 884.9 571.4 L 885.1 435.4 L 885.3 454.0 L 885.6 560.2 L 885.8 572.9 L 886.0 591.4 L 886.3 588.2 L 886.5 602.3 L 886.8 581.1 L 887.0 592.9 L 887.2 603.2 L 887.5 597.8 L 887.7 493.8 L 887.9 508.9 L 888.2 529.7 L 888.4 538.5 L 888.6 589.4 L 888.9 570.8 L 889.1 535.3 L 889.3 407.2 L 889.6 430.9 L 889.8 537.5 L 890.1 543.4 L 890.3 584.9 L 890.5 547.8 L 890.8 561.1 L 891.0 571.3 L 891.2 567.3 L 891.5 581.9 L 891.7 578.8 L 891.9 567.6 L 892.2 545.9 L 892.4 572.0 L 892.6 561.6 L 892.9 575.0 L 893.1 580.2 L 893.4 586.7 L 893.6 576.7 L 893.8 542.2 L 894.1 550.4 L 894.3 564.3 L 894.5 574.2 L 894.8 524.8 L 895.0 528.4 L 895.2 536.8 L 895.5 522.4 L 895.7 509.6 L 895.9 518.4 L 896.2 420.7 L 896.4 566.1 L 896.7 544.1 L 896.9 529.6 L 897.1 493.0 L 897.4 589.0 L 897.6 626.5 L 897.8 604.6 L 898.1 603.1 L 898.3 585.0 L 898.5 528.3 L 898.8 342.3 L 899.0 463.1 L 899.3 550.3 L 899.5 519.5 L 899.7 589.7 L 900.0 587.3 L 900.2 591.6 L 900.4 599.3 L 900.7 600.4 L 900.9 604.0 L 901.1 615.4 L 901.4 618.9 L 901.6 611.6 L 901.8 613.5 L 902.1 591.4 L 902.3 600.3 L 902.6 613.2 L 902.8 614.4 L 903.0 617.7 L 903.3 613.7 L 903.5 619.4 L 903.7 604.2 L 904.0 593.3 L 904.2 609.3 L 904.4 608.0 L 904.7 606.6 L 904.9 607.7 L 905.1 588.4 L 905.4 510.1 L 905.6 460.2 L 905.9 494.2 L 906.1 566.4 L 906.3 495.3 L 906.6 533.7 L 906.8 626.0 L 907.0 603.6 L 907.3 331.1 L 907.5 553.2 L 907.7 577.1 L 908.0 600.6 L 908.2 587.0 L 908.4 600.4 L 908.7 598.8 L 908.9 609.5 L 909.2 570.8 L 909.4 580.9 L 909.6 588.1 L 909.9 584.6 L 910.1 597.0 L 910.3 578.5 L 910.6 597.1 L 910.8 571.6 L 911.0 585.6 L 911.3 596.9 L 911.5 607.4 L 911.8 608.7 L 912.0 604.0 L 912.2 605.5 L 912.5 515.2 L 912.7 563.9 L 912.9 527.9 L 913.2 500.4 L 913.4 478.7 L 913.6 581.8 L 913.9 570.4 L 914.1 595.7 L 914.3 602.7 L 914.6 619.4 L 914.8 595.5 L 915.1 592.5 L 915.3 575.9 L 915.5 557.2 L 915.8 389.9 L 916.0 560.9 L 916.2 582.2 L 916.5 600.3 L 916.7 612.2 L 916.9 620.4 L 917.2 624.3 L 917.4 602.6 L 917.6 609.5 L 917.9 588.5 L 918.1 553.1 L 918.4 413.9 L 918.6 584.8 L 918.8 582.7 L 919.1 588.5 L 919.3 609.1 L 919.5 580.2 L 919.8 596.1 L 920.0 540.7 L 920.2 603.7 L 920.5 621.7 L 920.7 623.2 L 920.9 614.3 L 921.2 585.1 L 921.4 579.5 L 921.7 472.2 L 921.9 415.1 L 922.1 528.7 L 922.4 544.2 L 922.6 564.2 L 922.8 546.8 L 923.1 553.0 L 923.3 563.2 L 923.5 557.9 L 923.8 567.1 L 924.0 575.5 L 924.2 555.3 L 924.5 538.4 L 924.7 522.3 L 925.0 501.3 L 925.2 516.5 L 925.4 619.4 L 925.7 608.3 L 925.9 622.1 L 926.1 588.4 L 926.4 600.5 L 926.6 588.9 L 926.8 590.6 L 927.1 576.7 L 927.3 583.8 L 927.6 466.1 L 927.8 473.5 L 928.0 576.2 L 928.3 593.2 L 928.5 603.8 L 928.7 608.4 L 929.0 599.9 L 929.2 551.4 L 929.4 428.5 L 929.7 560.2 L 929.9 553.3 L 930.1 537.8 L 930.4 607.3 L 930.6 607.4 L 930.9 616.7 L 931.1 580.1 L 931.3 600.5 L 931.6 601.7 L 931.8 601.2 L 932.0 601.5 L 932.3 618.3 L 932.5 620.5 L 932.7 583.6 L 933.0 579.5 L 933.2 586.2 L 933.4 573.0 L 933.7 584.8 L 933.9 584.8 L 934.2 568.9 L 934.4 453.8 L 934.6 504.5 L 934.9 567.9 L 935.1 570.8 L 935.3 523.4 L 935.6 581.4 L 935.8 590.2 L 936.0 590.7 L 936.3 611.5 L 936.5 625.7 L 936.7 611.6 L 937.0 617.5 L 937.2 586.7 L 937.5 594.6 L 937.7 472.3 L 937.9 463.1 L 938.2 457.4 L 938.4 527.8 L 938.6 507.6 L 938.9 567.5 L 939.1 578.7 L 939.3 615.5 L 939.6 555.0 L 939.8 582.3 L 940.0 565.3 L 940.3 485.1 L 940.5 467.8 L 940.8 596.3 L 941.0 599.6 L 941.2 568.0 L 941.5 574.8 L 941.7 589.4 L 941.9 497.0 L 942.2 492.7 L 942.4 545.4 L 942.6 582.8 L 942.9 587.6 L 943.1 584.4 L 943.4 589.8 L 943.6 594.9 L 943.8 487.6 L 944.1 543.0 L 944.3 558.1 L 944.5 565.2 L 944.8 577.4 L 945.0 573.6 L 945.2 567.1 L 945.5 534.9 L 945.7 586.1 L 945.9 609.8 L 946.2 619.7 L 946.4 550.2 L 946.7 558.9 L 946.9 568.9 L 947.1 582.4 L 947.4 583.4 L 947.6 598.7 L 947.8 606.1 L 948.1 534.1 L 948.3 570.0 L 948.5 579.3 L 948.8 591.6 L 949.0 593.6 L 949.2 587.5 L 949.5 599.9 L 949.7 581.1 L 950.0 598.7 L 950.2 603.8 L 950.4 612.4 L 950.7 525.7 L 950.9 532.2 L 951.1 522.5 L 951.4 402.8 L 951.6 505.5 L 951.8 574.3 L 952.1 606.7 L 952.3 580.5 L 952.5 572.2 L 952.8 539.5 L 953.0 509.0 L 953.3 427.6 L 953.5 548.5 L 953.7 510.2 L 954.0 432.7 L 954.2 458.0 L 954.4 564.0 L 954.7 577.7 L 954.9 540.9 L 955.1 572.0 L 955.4 568.4 L 955.6 584.8 L 955.9 547.9 L 956.1 596.4 L 956.3 520.0 L 956.6 392.4 L 956.8 482.1 L 957.0 570.4 L 957.3 550.4 L 957.5 575.1 L 957.7 565.2 L 958.0 569.4 L 958.2 579.2 L 958.4 605.0 L 958.7 596.5 L 958.9 592.5 L 959.2 588.0 L 959.4 598.7 L 959.6 596.2 L 959.9 623.2 L 960.1 559.4 L 960.3 567.9 L 960.6 563.0 L 960.8 563.9 L 961.0 553.3 L 961.3 550.1 L 961.5 552.1 L 961.7 545.1 L 962.0 533.6 L 962.2 530.9 L 962.5 270.0 L 962.7 394.6 L 962.9 502.4 L 963.2 544.0 L 963.4 582.5 L 963.6 594.1 L 963.9 579.9 L 964.1 558.1 L 964.3 574.5 L 964.6 610.0 L 964.8 617.0 L 965.0 547.7 L 965.3 607.3 L 965.5 608.1 L 965.8 599.7 L 966.0 554.3 L 966.2 591.8 L 966.5 617.8 L 966.7 587.5 L 966.9 613.5 L 967.2 616.4 L 967.4 622.8 L 967.6 614.2 L 967.9 618.8 L 968.1 616.6 L 968.4 591.6 L 968.6 591.4 L 968.8 597.9 L 969.1 597.4 L 969.3 589.0 L 969.5 574.7 L 969.8 560.4 L 970.0 471.0 L 970.2 493.8 L 970.5 532.5 L 970.7 558.4 L 970.9 532.9 L 971.2 505.0 L 971.4 592.3 L 971.7 611.4 L 971.9 490.1 L 972.1 572.4 L 972.4 576.1 L 972.6 554.1 L 972.8 572.0 L 973.1 585.2 L 973.3 599.1 L 973.5 414.1 L 973.8 526.4 L 974.0 569.2 L 974.2 577.8 L 974.5 573.3 L 974.7 580.7 L 975.0 587.8 L 975.2 584.0 L 975.4 566.8 L 975.7 566.9 L 975.9 566.8 L 976.1 571.9 L 976.4 582.4 L 976.6 585.8 L 976.8 586.3 L 977.1 564.4 L 977.3 566.2 L 977.5 552.6 L 977.8 562.0 L 978.0 582.5 L 978.3 591.7 L 978.5 604.7 L 978.7 561.4 L 979.0 560.1 L 979.2 576.0 L 979.4 569.5 L 979.7 570.7 L 979.9 559.7 L 980.1 569.2 L 980.4 564.2 L 980.6 565.6 L 980.8 547.0 L 981.1 480.0 L 981.3 507.8 L 981.6 600.5 L 981.8 605.6 L 982.0 590.3 L 982.3 627.9 L 982.5 611.3 L 982.7 614.7 L 983.0 601.3 L 983.2 599.9 L 983.4 584.8 L 983.7 577.3 L 983.9 538.7 L 984.2 530.2 L 984.4 503.9 L 984.6 356.8 L 984.9 532.8 L 985.1 515.2 L 985.3 435.2 L 985.6 365.9 L 985.8 480.3 L 986.0 441.5 L 986.3 337.0 L 986.5 419.9 L 986.7 546.7 L 987.0 534.9 L 987.2 553.0 L 987.5 555.7 L 987.7 570.9 L 987.9 568.8 L 988.2 582.8 L 988.4 582.4 L 988.6 583.9 L 988.9 522.8 L 989.1 578.2 L 989.3 570.6 L 989.6 563.2 L 989.8 523.5 L 990.0 549.3 L 990.3 561.2 L 990.5 451.6 L 990.8 549.0 L 991.0 573.8 L 991.2 591.1 L 991.5 592.6 L 991.7 595.6 L 991.9 609.0 L 992.2 614.0 L 992.4 584.9 L 992.6 594.0 L 992.9 592.0 L 993.1 589.9 L 993.3 593.4 L 993.6 605.7 L 993.8 602.9 L 994.1 561.3 L 994.3 576.2 L 994.5 569.5 L 994.8 565.9 L 995.0 583.0 L 995.2 547.0 L 995.5 505.1 L 995.7 428.8 L 995.9 625.7 L 996.2 603.8 L 996.4 611.6 L 996.6 579.5 L 996.9 598.0 L 997.1 595.5 L 997.4 509.2 L 997.6 583.0 L 997.8 588.2 L 998.1 609.0 L 998.3 612.6 L 998.5 596.8 L 998.8 569.6 L 999.0 568.9 L 999.2 534.8 L 999.5 538.0 L 999.7 418.8 L 1000.0 274.1 L 1000.2 459.4 L 1000.4 507.9 L 1000.7 517.8 L 1000.9 525.3 L 1001.1 545.8 L 1001.4 531.8 L 1001.6 531.0 L 1001.8 574.6 L 1002.1 586.8 L 1002.3 464.3 L 1002.5 393.6 L 1002.8 469.9 L 1003.0 526.0 L 1003.3 527.2 L 1003.5 557.4 L 1003.7 553.9 L 1004.0 583.6 L 1004.2 525.4 L 1004.4 564.0 L 1004.7 559.8 L 1004.9 579.0 L 1005.1 564.7 L 1005.4 582.9 L 1005.6 585.1 L 1005.8 542.1 L 1006.1 572.6 L 1006.3 580.5 L 1006.6 520.1 L 1006.8 485.3 L 1007.0 624.9 L 1007.3 609.8 L 1007.5 581.1 L 1007.7 585.2 L 1008.0 587.0 L 1008.2 587.6 L 1008.4 591.4 L 1008.7 594.8 L 1008.9 573.1 L 1009.1 481.4 L 1009.4 509.3 L 1009.6 596.0 L 1009.9 616.4 L 1010.1 608.0 L 1010.3 606.6 L 1010.6 611.5 L 1010.8 615.2 L 1011.0 586.7 L 1011.3 596.5 L 1011.5 605.5 L 1011.7 594.4 L 1012.0 617.7 L 1012.2 610.1 L 1012.5 612.9 L 1012.7 596.9 L 1012.9 612.3 L 1013.2 611.4 L 1013.4 598.3 L 1013.6 576.8 L 1013.9 580.9 L 1014.1 520.6 L 1014.3 365.6 L 1014.6 507.4 L 1014.8 588.9 L 1015.0 551.5 L 1015.3 571.4 L 1015.5 584.4 L 1015.8 625.9 L 1016.0 592.5 L 1016.2 619.5 L 1016.5 608.3 L 1016.7 612.5 L 1016.9 602.8 L 1017.2 571.9 L 1017.4 535.9 L 1017.6 423.5 L 1017.9 399.2 L 1018.1 554.4 L 1018.3 476.5 L 1018.6 385.8 L 1018.8 401.3 L 1019.1 498.6 L 1019.3 500.1 L 1019.5 563.6 L 1019.8 552.6 L 1020.0 567.5 L 1020.2 570.1 L 1020.5 576.4 L 1020.7 573.4 L 1020.9 598.7 L 1021.2 613.0 L 1021.4 576.8 L 1021.6 593.0 L 1021.9 588.3 L 1022.1 588.2 L 1022.4 589.2 L 1022.6 605.2 L 1022.8 605.3 L 1023.1 585.7 L 1023.3 589.6 L 1023.5 577.3 L 1023.8 555.8 L 1024.0 571.8 L 1024.2 579.1 L 1024.5 594.8 L 1024.7 566.0 L 1025.0 560.9 L 1025.2 558.5 L 1025.4 496.3 L 1025.7 531.4 L 1025.9 534.3 L 1026.1 548.4 L 1026.4 532.7 L 1026.6 542.2 L 1026.8 548.5 L 1027.1 597.4 L 1027.3 490.7 L 1027.5 476.8 L 1027.8 431.4 L 1028.0 493.1 L 1028.3 550.9 L 1028.5 527.7 L 1028.7 298.4 L 1029.0 294.8 L 1029.2 504.2 L 1029.4 483.1 L 1029.7 455.8 L 1029.9 527.9 L 1030.1 558.1 L 1030.4 561.0 L 1030.6 579.4 L 1030.8 579.0 L 1031.1 575.5 L 1031.3 590.4 L 1031.6 605.9 L 1031.8 593.8 L 1032.0 586.4 L 1032.3 571.5 L 1032.5 617.5 L 1032.7 620.8 L 1033.0 599.5 L 1033.2 607.4 L 1033.4 624.1 L 1033.7 612.6 L 1033.9 613.5 L 1034.1 589.2 L 1034.4 579.2 L 1034.6 468.5 L 1034.9 419.7 L 1035.1 485.9 L 1035.3 535.1 L 1035.6 524.3 L 1035.8 553.9 L 1036.0 540.1 L 1036.3 539.3 L 1036.5 500.2 L 1036.7 576.8 L 1037.0 579.1 L 1037.2 509.4 L 1037.4 549.3 L 1037.7 616.8 L 1037.9 612.4 L 1038.2 533.7 L 1038.4 601.1 L 1038.6 590.2 L 1038.9 598.4 L 1039.1 592.1 L 1039.3 572.6 L 1039.6 577.4 L 1039.8 411.0 L 1040.0 562.1 L 1040.3 618.0 L 1040.5 591.1 L 1040.8 543.7 L 1041.0 597.9 L 1041.2 608.2 L 1041.5 617.6 L 1041.7 608.2 L 1041.9 610.6 L 1042.2 603.1 L 1042.4 588.9 L 1042.6 562.5 L 1042.9 569.6 L 1043.1 469.5 L 1043.3 507.7 L 1043.6 571.1 L 1043.8 585.3 L 1044.1 605.6 L 1044.3 603.8 L 1044.5 609.2 L 1044.8 605.1 L 1045.0 519.7 L 1045.2 598.6 L 1045.5 596.9 L 1045.7 598.5 L 1045.9 579.4 L 1046.2 581.8 L 1046.4 571.3 L 1046.6 346.9 L 1046.9 555.3 L 1047.1 563.4 L 1047.4 568.7 L 1047.6 610.5 L 1047.8 612.4 L 1048.1 619.5 L 1048.3 592.8 L 1048.5 607.4 L 1048.8 610.8 L 1049.0 614.1 L 1049.2 552.2 L 1049.5 604.5 L 1049.7 627.3 L 1049.9 615.1 L 1050.2 601.3 L 1050.4 580.4 L 1050.7 529.1 L 1050.9 409.9 L 1051.1 463.1 L 1051.4 584.8 L 1051.6 564.5 L 1051.8 532.1 L 1052.1 530.7 L 1052.3 559.8 L 1052.5 553.1 L 1052.8 566.8 L 1053.0 575.5 L 1053.2 572.3 L 1053.5 480.0 L 1053.7 560.8 L 1054.0 572.9 L 1054.2 574.5 L 1054.4 578.1 L 1054.7 574.9 L 1054.9 598.0 L 1055.1 556.4 L 1055.4 531.7 L 1055.6 507.9 L 1055.8 470.5 L 1056.1 505.6 L 1056.3 581.2 L 1056.6 610.7 L 1056.8 571.8 L 1057.0 606.0 L 1057.3 618.5 L 1057.5 531.7 L 1057.7 510.4 L 1058.0 504.9 L 1058.2 567.8 L 1058.4 566.9 L 1058.7 582.1 L 1058.9 579.3 L 1059.1 594.3 L 1059.4 592.8 L 1059.6 582.7 L 1059.9 586.5 L 1060.1 587.8 L 1060.3 599.3 L 1060.6 597.8 L 1060.8 602.3 L 1061.0 609.4 L 1061.3 616.2 L 1061.5 584.1 L 1061.7 540.6 L 1062.0 493.7 L 1062.2 568.9 L 1062.4 547.3 L 1062.7 545.6 L 1062.9 608.2 L 1063.2 616.2 L 1063.4 604.3 L 1063.6 542.2 L 1063.9 620.9 L 1064.1 612.7 L 1064.3 605.7 L 1064.6 613.4 L 1064.8 590.7 L 1065.0 579.0 L 1065.3 434.7 L 1065.5 478.2 L 1065.7 539.6 L 1066.0 562.6 L 1066.2 580.4 L 1066.5 579.7 L 1066.7 561.9 L 1066.9 446.5 L 1067.2 454.6 L 1067.4 508.0 L 1067.6 547.0 L 1067.9 537.1 L 1068.1 570.1 L 1068.3 557.1 L 1068.6 589.9 L 1068.8 561.8 L 1069.1 565.3 L 1069.3 562.6 L 1069.5 572.1 L 1069.8 568.3 L 1070.0 574.3 L 1070.2 586.1 L 1070.5 539.8 L 1070.7 554.2 L 1070.9 548.3 L 1071.2 554.4 L 1071.4 530.1 L 1071.6 553.1 L 1071.9 474.3 L 1072.1 423.6 L 1072.4 525.0 L 1072.6 595.7 L 1072.8 575.6 L 1073.1 426.3 L 1073.3 614.6 L 1073.5 595.8 L 1073.8 583.2 L 1074.0 597.6 L 1074.2 588.7 L 1074.5 582.4 L 1074.7 564.7 L 1074.9 552.0 L 1075.2 551.1 L 1075.4 555.1 L 1075.7 599.7 L 1075.9 603.4 L 1076.1 613.1 L 1076.4 609.9 L 1076.6 609.9 L 1076.8 612.0 L 1077.1 610.6 L 1077.3 611.1 L 1077.5 614.3 L 1077.8 608.5 L 1078.0 580.9 L 1078.2 576.3 L 1078.5 592.7 L 1078.7 603.0 L 1079.0 562.6 L 1079.2 563.0 L 1079.4 587.7 L 1079.7 593.2 L 1079.9 599.2 L 1080.1 590.9 L 1080.4 601.6 L 1080.6 601.6 L 1080.8 560.2 L 1081.1 578.1 L 1081.3 582.5 L 1081.5 590.9 L 1081.8 586.7 L 1082.0 592.3 L 1082.3 574.3 L 1082.5 593.5 L 1082.7 595.3 L 1083.0 523.8 L 1083.2 440.0 L 1083.4 472.1 L 1083.7 518.6 L 1083.9 373.5 L 1084.1 349.7 L 1084.4 560.6 L 1084.6 564.0 L 1084.9 561.8 L 1085.1 598.2 L 1085.3 598.7 L 1085.6 602.4 L 1085.8 582.3 L 1086.0 596.4 L 1086.3 584.9 L 1086.5 505.7 L 1086.7 436.5 L 1087.0 542.3 L 1087.2 515.9 L 1087.4 546.5 L 1087.7 539.2 L 1087.9 572.8 L 1088.2 561.4 L 1088.4 583.8 L 1088.6 592.3 L 1088.9 607.0 L 1089.1 618.8 L 1089.3 583.0 L 1089.6 589.7 L 1089.8 590.9 L 1090.0 592.8 L 1090.3 602.0 L 1090.5 605.0 L 1090.7 592.6 L 1091.0 548.0 L 1091.2 571.3 L 1091.5 564.9 L 1091.7 518.1 L 1091.9 574.0 L 1092.2 585.3 L 1092.4 595.6 L 1092.6 594.3 L 1092.9 597.3 L 1093.1 590.7 L 1093.3 474.7 L 1093.6 555.0 L 1093.8 584.7 L 1094.0 596.3 L 1094.3 610.6 L 1094.5 604.3 L 1094.8 621.6 L 1095.0 497.7 L 1095.2 440.4 L 1095.5 541.4 L 1095.7 559.3 L 1095.9 485.5 L 1096.2 586.2 L 1096.4 598.5 L 1096.6 587.3 L 1096.9 573.1 L 1097.1 588.6 L 1097.4 592.5 L 1097.6 554.3 L 1097.8 613.3 L 1098.1 603.8 L 1098.3 600.3 L 1098.5 561.0 L 1098.8 592.7 L 1099.0 538.7 L 1099.2 476.3 L 1099.5 464.1 L 1099.7 531.8 L 1099.9 563.9 L 1100.2 494.9 L 1100.4 579.3 L 1100.7 571.9 L 1100.9 492.3 L 1101.1 505.8 L 1101.4 557.1 L 1101.6 596.8 L 1101.8 600.5 L 1102.1 612.8 L 1102.3 584.9 L 1102.5 568.5 L 1102.8 524.8 L 1103.0 586.4 L 1103.2 580.0 L 1103.5 549.6 L 1103.7 616.1 L 1104.0 623.1 L 1104.2 606.9 L 1104.4 613.4 L 1104.7 560.6 L 1104.9 565.4 L 1105.1 595.4 L 1105.4 596.9 L 1105.6 584.8 L 1105.8 603.8 L 1106.1 426.7 L 1106.3 528.8 L 1106.5 597.4 L 1106.8 610.4 L 1107.0 599.8 L 1107.3 614.6 L 1107.5 608.2 L 1107.7 613.1 L 1108.0 600.9 L 1108.2 600.1 L 1108.4 585.4 L 1108.7 527.0 L 1108.9 583.4 L 1109.1 590.7 L 1109.4 604.4 L 1109.6 591.7 L 1109.8 588.6 L 1110.1 600.2 L 1110.3 610.8 L 1110.6 609.1 L 1110.8 607.4 L 1111.0 614.3 L 1111.3 578.5 L 1111.5 560.8 L 1111.7 541.2 L 1112.0 477.6 L 1112.2 482.9 L 1112.4 588.8 L 1112.7 605.7 L 1112.9 620.3 L 1113.2 621.7 L 1113.4 624.7 L 1113.6 617.3 L 1113.9 598.1 L 1114.1 591.6 L 1114.3 599.4 L 1114.6 576.0 L 1114.8 537.5 L 1115.0 545.9 L 1115.3 438.4 L 1115.5 363.4 L 1115.7 436.2 L 1116.0 569.0 L 1116.2 545.6 L 1116.5 598.6 L 1116.7 560.5 L 1116.9 568.6 L 1117.2 532.9 L 1117.4 542.3 L 1117.6 587.3 L 1117.9 606.7 L 1118.1 579.1 L 1118.3 579.3 L 1118.6 586.1 L 1118.8 572.2 L 1119.0 591.8 L 1119.3 575.1 L 1119.5 576.9 L 1119.8 594.1 L 1120.0 566.1 L 1120.2 563.2 L 1120.5 572.2 L 1120.7 528.9 L 1120.9 555.4 L 1121.2 575.4 L 1121.4 508.2 L 1121.6 564.0 L 1121.9 581.3 L 1122.1 597.3 L 1122.3 611.5 L 1122.6 608.6 L 1122.8 613.6 L 1123.1 620.7 L 1123.3 593.7 L 1123.5 602.2 L 1123.8 597.8 L 1124.0 575.4 " fill="none" stroke="#c09030" stroke-width="0.8"/>
<text x="907.3" y="327.1" font-family="monospace" font-size="9" fill="#ff8040" text-anchor="middle" opacity="0.8">★</text>
<text x="962.5" y="266.0" font-family="monospace" font-size="9" fill="#ff8040" text-anchor="middle" opacity="0.8">★</text>
<text x="986.3" y="333.0" font-family="monospace" font-size="9" fill="#ff8040" text-anchor="middle" opacity="0.8">★</text>
<text x="1000.0" y="270.1" font-family="monospace" font-size="9" fill="#ff8040" text-anchor="middle" opacity="0.8">★</text>
<text x="1029.0" y="290.8" font-family="monospace" font-size="9" fill="#ff8040" text-anchor="middle" opacity="0.8">★</text>
<circle cx="187.4" cy="330.0" r="3.5" fill="none" stroke="#ff8040" stroke-width="0.8" opacity="0.7"/>
<circle cx="619.1" cy="314.6" r="3.5" fill="none" stroke="#ff8040" stroke-width="0.8" opacity="0.7"/>
<circle cx="160.6" cy="268.6" r="3.5" fill="none" stroke="#ff8040" stroke-width="0.8" opacity="0.7"/>
<circle cx="591.9" cy="329.5" r="3.5" fill="none" stroke="#ff8040" stroke-width="0.8" opacity="0.7"/>
<circle cx="218.8" cy="422.7" r="3.5" fill="none" stroke="#ff8040" stroke-width="0.8" opacity="0.7"/>
<circle cx="600.5" cy="338.2" r="3.5" fill="none" stroke="#ff8040" stroke-width="0.8" opacity="0.7"/>
<circle cx="148.1" cy="394.7" r="3.5" fill="none" stroke="#ff8040" stroke-width="0.8" opacity="0.7"/>
<circle cx="581.3" cy="341.1" r="3.5" fill="none" stroke="#ff8040" stroke-width="0.8" opacity="0.7"/>
<circle cx="183.3" cy="432.3" r="3.5" fill="none" stroke="#ff8040" stroke-width="0.8" opacity="0.7"/>
<circle cx="596.1" cy="350.6" r="3.5" fill="none" stroke="#ff8040" stroke-width="0.8" opacity="0.7"/>
<line x1="216" y1="50" x2="216" y2="630" stroke="#1a1a28" stroke-width="0.4" stroke-dasharray="2,3"/>
<line x1="50" y1="340" x2="382" y2="340" stroke="#1a1a28" stroke-width="0.4" stroke-dasharray="2,3"/>
<line x1="599" y1="50" x2="599" y2="630" stroke="#1a1a28" stroke-width="0.4" stroke-dasharray="2,3"/>
<line x1="433" y1="340" x2="765" y2="340" stroke="#1a1a28" stroke-width="0.4" stroke-dasharray="2,3"/>
<text x="50" y="672" font-family="monospace" font-size="8" fill="#444">Input: "the zero divisor boundary"  ·  max wobble = 0.5857  ·  ZD crossings (wobble peaks) = 5  ·  oscillators: 1200 steps over T=2π×53</text>
<text x="982" y="622" font-family="monospace" font-size="8" fill="#c09030" text-anchor="middle">max=0.5857  ·  mean=0.0761</text>
</svg>