<?xml version="1.0" encoding="UTF-8"?>
<svg xmlns="http://www.w3.org/2000/svg" width="1100" height="750" viewBox="0 0 1100 750">
<rect width="1100" height="750" fill="#050508"/>
<defs>
  <marker id="arr" markerWidth="6" markerHeight="6" refX="5" refY="3"          orient="auto">
    <path d="M0,0 L6,3 L0,6 Z" fill="#80ff30" opacity="0.7"/>
  </marker>
  <filter id="glow">
    <feGaussianBlur stdDeviation="3" result="b"/>
    <feMerge><feMergeNode in="b"/><feMergeNode in="SourceGraphic"/></feMerge>
  </filter>
</defs>
<rect x="50.0" y="70" width="40.0" height="610" fill="#666" opacity="0.04"/>
<rect x="90.0" y="70" width="40.0" height="610" fill="#4080ff" opacity="0.04"/>
<rect x="130.0" y="70" width="80.0" height="610" fill="#40c080" opacity="0.04"/>
<rect x="210.0" y="70" width="160.1" height="610" fill="#c09030" opacity="0.04"/>
<rect x="370.1" y="70" width="320.1" height="610" fill="#ff5060" opacity="0.04"/>
<line x1="70" y1="750.3" x2="1030" y2="750.3" stroke="#ffffff" stroke-width="0.3" opacity="0.08"/>
<text x="66" y="753.3" font-family="monospace" font-size="6" fill="#333" text-anchor="end">γ=14.1</text>
<line x1="70" y1="701.4" x2="1030" y2="701.4" stroke="#ffffff" stroke-width="0.3" opacity="0.08"/>
<text x="66" y="704.4" font-family="monospace" font-size="6" fill="#333" text-anchor="end">γ=21.0</text>
<line x1="70" y1="680.0" x2="1030" y2="680.0" stroke="#ffffff" stroke-width="0.3" opacity="0.08"/>
<text x="66" y="683.0" font-family="monospace" font-size="6" fill="#333" text-anchor="end">γ=25.0</text>
<line x1="70" y1="655.8" x2="1030" y2="655.8" stroke="#ffffff" stroke-width="0.3" opacity="0.08"/>
<text x="66" y="658.8" font-family="monospace" font-size="6" fill="#333" text-anchor="end">γ=30.4</text>
<line x1="70" y1="646.1" x2="1030" y2="646.1" stroke="#ffffff" stroke-width="0.3" opacity="0.08"/>
<text x="66" y="649.1" font-family="monospace" font-size="6" fill="#333" text-anchor="end">γ=32.9</text>
<line x1="70" y1="629.8" x2="1030" y2="629.8" stroke="#ffffff" stroke-width="0.3" opacity="0.08"/>
<text x="66" y="632.8" font-family="monospace" font-size="6" fill="#333" text-anchor="end">γ=37.6</text>
<line x1="70" y1="619.3" x2="1030" y2="619.3" stroke="#ffffff" stroke-width="0.3" opacity="0.08"/>
<text x="66" y="622.3" font-family="monospace" font-size="6" fill="#333" text-anchor="end">γ=40.9</text>
<line x1="70" y1="612.3" x2="1030" y2="612.3" stroke="#ffffff" stroke-width="0.3" opacity="0.08"/>
<text x="66" y="615.3" font-family="monospace" font-size="6" fill="#333" text-anchor="end">γ=43.3</text>
<line x1="70" y1="599.6" x2="1030" y2="599.6" stroke="#ffffff" stroke-width="0.3" opacity="0.08"/>
<text x="66" y="602.6" font-family="monospace" font-size="6" fill="#333" text-anchor="end">γ=48.0</text>
<line x1="70" y1="595.2" x2="1030" y2="595.2" stroke="#ffffff" stroke-width="0.3" opacity="0.08"/>
<text x="66" y="598.2" font-family="monospace" font-size="6" fill="#333" text-anchor="end">γ=49.8</text>
<line x1="70" y1="587.5" x2="1030" y2="587.5" stroke="#ffffff" stroke-width="0.3" opacity="0.08"/>
<text x="66" y="590.5" font-family="monospace" font-size="6" fill="#333" text-anchor="end">γ=53.0</text>
<text x="1034" y="82" font-family="monospace" font-size="7" fill="#c09030" opacity="0.5">σ=½</text>
<line x1="70.0" y1="70" x2="70.0" y2="680" stroke="#666" stroke-width="0.4" opacity="0.2"/>
<text x="70.0" y="694" font-family="monospace" font-size="7" fill="#666" opacity="0.7" text-anchor="middle">p=2</text>
<text x="70.0" y="704" font-family="monospace" font-size="8" fill="#666" opacity="0.5" text-anchor="middle">ℝ</text>
<line x1="110.0" y1="70" x2="110.0" y2="680" stroke="#4080ff" stroke-width="0.4" opacity="0.2"/>
<text x="110.0" y="694" font-family="monospace" font-size="7" fill="#4080ff" opacity="0.7" text-anchor="middle">p=3</text>
<text x="110.0" y="704" font-family="monospace" font-size="8" fill="#4080ff" opacity="0.5" text-anchor="middle">ℂ</text>
<line x1="150.0" y1="70" x2="150.0" y2="680" stroke="#40c080" stroke-width="0.4" opacity="0.2"/>
<text x="150.0" y="694" font-family="monospace" font-size="7" fill="#40c080" opacity="0.7" text-anchor="middle">p=5</text>
<text x="150.0" y="704" font-family="monospace" font-size="8" fill="#40c080" opacity="0.5" text-anchor="middle">ℍ</text>
<line x1="190.0" y1="70" x2="190.0" y2="680" stroke="#40c080" stroke-width="0.4" opacity="0.2"/>
<text x="190.0" y="694" font-family="monospace" font-size="7" fill="#40c080" opacity="0.7" text-anchor="middle">p=7</text>
<text x="190.0" y="704" font-family="monospace" font-size="8" fill="#40c080" opacity="0.5" text-anchor="middle">ℍ</text>
<line x1="230.1" y1="70" x2="230.1" y2="680" stroke="#c09030" stroke-width="0.4" opacity="0.2"/>
<text x="230.1" y="694" font-family="monospace" font-size="7" fill="#c09030" opacity="0.7" text-anchor="middle">p=11</text>
<text x="230.1" y="704" font-family="monospace" font-size="8" fill="#c09030" opacity="0.5" text-anchor="middle">𝕆</text>
<line x1="270.1" y1="70" x2="270.1" y2="680" stroke="#c09030" stroke-width="0.4" opacity="0.2"/>
<text x="270.1" y="694" font-family="monospace" font-size="7" fill="#c09030" opacity="0.7" text-anchor="middle">p=13</text>
<text x="270.1" y="704" font-family="monospace" font-size="8" fill="#c09030" opacity="0.5" text-anchor="middle">𝕆</text>
<line x1="310.1" y1="70" x2="310.1" y2="680" stroke="#c09030" stroke-width="0.4" opacity="0.2"/>
<text x="310.1" y="694" font-family="monospace" font-size="7" fill="#c09030" opacity="0.7" text-anchor="middle">p=17</text>
<text x="310.1" y="704" font-family="monospace" font-size="8" fill="#c09030" opacity="0.5" text-anchor="middle">𝕆</text>
<line x1="350.1" y1="70" x2="350.1" y2="680" stroke="#c09030" stroke-width="0.4" opacity="0.2"/>
<text x="350.1" y="694" font-family="monospace" font-size="7" fill="#c09030" opacity="0.7" text-anchor="middle">p=19</text>
<text x="350.1" y="704" font-family="monospace" font-size="8" fill="#c09030" opacity="0.5" text-anchor="middle">𝕆</text>
<line x1="390.1" y1="70" x2="390.1" y2="680" stroke="#ff5060" stroke-width="0.4" opacity="0.2"/>
<text x="390.1" y="694" font-family="monospace" font-size="7" fill="#ff5060" opacity="0.7" text-anchor="middle">p=23</text>
<text x="390.1" y="704" font-family="monospace" font-size="8" fill="#ff5060" opacity="0.5" text-anchor="middle">𝕊</text>
<line x1="430.1" y1="70" x2="430.1" y2="680" stroke="#ff5060" stroke-width="0.4" opacity="0.2"/>
<text x="430.1" y="694" font-family="monospace" font-size="7" fill="#ff5060" opacity="0.7" text-anchor="middle">p=29</text>
<text x="430.1" y="704" font-family="monospace" font-size="8" fill="#ff5060" opacity="0.5" text-anchor="middle">𝕊</text>
<line x1="470.1" y1="70" x2="470.1" y2="680" stroke="#ff5060" stroke-width="0.4" opacity="0.2"/>
<text x="470.1" y="694" font-family="monospace" font-size="7" fill="#ff5060" opacity="0.7" text-anchor="middle">p=31</text>
<text x="470.1" y="704" font-family="monospace" font-size="8" fill="#ff5060" opacity="0.5" text-anchor="middle">𝕊</text>
<line x1="510.2" y1="70" x2="510.2" y2="680" stroke="#ff5060" stroke-width="0.4" opacity="0.2"/>
<text x="510.2" y="694" font-family="monospace" font-size="7" fill="#ff5060" opacity="0.7" text-anchor="middle">p=37</text>
<text x="510.2" y="704" font-family="monospace" font-size="8" fill="#ff5060" opacity="0.5" text-anchor="middle">𝕊</text>
<line x1="550.2" y1="70" x2="550.2" y2="680" stroke="#ff5060" stroke-width="0.4" opacity="0.2"/>
<text x="550.2" y="694" font-family="monospace" font-size="7" fill="#ff5060" opacity="0.7" text-anchor="middle">p=41</text>
<text x="550.2" y="704" font-family="monospace" font-size="8" fill="#ff5060" opacity="0.5" text-anchor="middle">𝕊</text>
<line x1="590.2" y1="70" x2="590.2" y2="680" stroke="#ff5060" stroke-width="0.4" opacity="0.2"/>
<text x="590.2" y="694" font-family="monospace" font-size="7" fill="#ff5060" opacity="0.7" text-anchor="middle">p=43</text>
<text x="590.2" y="704" font-family="monospace" font-size="8" fill="#ff5060" opacity="0.5" text-anchor="middle">𝕊</text>
<line x1="630.2" y1="70" x2="630.2" y2="680" stroke="#ff5060" stroke-width="0.4" opacity="0.2"/>
<text x="630.2" y="694" font-family="monospace" font-size="7" fill="#ff5060" opacity="0.7" text-anchor="middle">p=47</text>
<text x="630.2" y="704" font-family="monospace" font-size="8" fill="#ff5060" opacity="0.5" text-anchor="middle">𝕊</text>
<line x1="670.2" y1="70" x2="670.2" y2="680" stroke="#ff5060" stroke-width="0.4" opacity="0.2"/>
<text x="670.2" y="694" font-family="monospace" font-size="7" fill="#ff5060" opacity="0.7" text-anchor="middle">p=53</text>
<text x="670.2" y="704" font-family="monospace" font-size="8" fill="#ff5060" opacity="0.5" text-anchor="middle">𝕊</text>
<path d="M 150.0 680.0 C 225.9 678.8 677.3 469.2 753.2 467.9" fill="none" stroke="#40c080" stroke-width="1.56" opacity="0.68" marker-end="url(#arr)"/>
<text x="462.1" y="596.5" font-family="monospace" font-size="6" fill="#40c080" opacity="0.35" text-anchor="middle">Δγ=114.7</text>
<path d="M 753.2 467.9 C 770.5 456.3 776.2 427.3 793.6 415.7" fill="none" stroke="#444" stroke-width="0.78" opacity="0.53" marker-end="url(#arr)"/>
<text x="774.8" y="442.1" font-family="monospace" font-size="6" fill="#444" opacity="0.35" text-anchor="middle">Δγ=73.7</text>
<path d="M 793.6 415.7 C 811.5 403.3 817.0 373.0 834.9 360.6" fill="none" stroke="#444" stroke-width="0.72" opacity="0.53" marker-end="url(#arr)"/>
<text x="815.7" y="388.5" font-family="monospace" font-size="6" fill="#444" opacity="0.35" text-anchor="middle">Δγ=120.3</text>
<path d="M 834.9 360.6 C 846.9 352.2 850.5 331.8 862.5 323.4" fill="none" stroke="#444" stroke-width="0.68" opacity="0.51" marker-end="url(#arr)"/>
<text x="849.7" y="342.2" font-family="monospace" font-size="6" fill="#444" opacity="0.35" text-anchor="middle">Δγ=117.6</text>
<path d="M 862.5 323.4 C 868.1 319.3 869.6 309.5 875.2 305.4" fill="none" stroke="#444" stroke-width="0.66" opacity="0.46" marker-end="url(#arr)"/>
<text x="869.3" y="314.5" font-family="monospace" font-size="6" fill="#444" opacity="0.35" text-anchor="middle">Δγ=71.0</text>
<path d="M 875.2 305.4 C 811.4 346.6 757.0 491.1 693.2 532.3" fill="none" stroke="#444" stroke-width="0.65" opacity="0.63" marker-end="url(#arr)"/>
<text x="777.0" y="416.1" font-family="monospace" font-size="6" fill="#444" opacity="0.35" text-anchor="middle">Δγ=439.5</text>
<path d="M 693.2 532.3 C 701.9 526.9 705.2 512.9 713.9 507.6" fill="none" stroke="#444" stroke-width="0.90" opacity="0.48" marker-end="url(#arr)"/>
<text x="704.3" y="520.1" font-family="monospace" font-size="6" fill="#444" opacity="0.35" text-anchor="middle">Δγ=18.4</text>
<path d="M 713.9 507.6 C 713.9 507.6 713.9 507.6 713.9 507.6" fill="none" stroke="#444" stroke-width="0.85" opacity="0.25" marker-end="url(#arr)"/>
<text x="713.9" y="507.6" font-family="monospace" font-size="6" fill="#444" opacity="0.35" text-anchor="middle">Δγ=0.0</text>
<path d="M 713.9 507.6 C 722.9 503.1 727.5 489.7 736.5 485.3" fill="none" stroke="#444" stroke-width="0.85" opacity="0.48" marker-end="url(#arr)"/>
<text x="725.9" y="496.7" font-family="monospace" font-size="6" fill="#444" opacity="0.35" text-anchor="middle">Δγ=20.1</text>
<path d="M 736.5 485.3 C 799.1 442.5 827.9 325.1 890.6 282.3" fill="none" stroke="#444" stroke-width="0.81" opacity="0.62" marker-end="url(#arr)"/>
<text x="819.4" y="385.2" font-family="monospace" font-size="6" fill="#444" opacity="0.35" text-anchor="middle">Δγ=508.9</text>
<path d="M 890.6 282.3 C 895.5 278.5 896.7 269.8 901.6 266.1" fill="none" stroke="#444" stroke-width="0.64" opacity="0.45" marker-end="url(#arr)"/>
<text x="896.5" y="274.2" font-family="monospace" font-size="6" fill="#444" opacity="0.35" text-anchor="middle">Δγ=88.4</text>
<path d="M 901.6 266.1 C 828.8 287.6 502.9 573.6 430.1 595.2" fill="none" stroke="#444" stroke-width="0.63" opacity="0.67" marker-end="url(#arr)"/>
<text x="651.6" y="414.3" font-family="monospace" font-size="6" fill="#444" opacity="0.35" text-anchor="middle">Δγ=668.9</text>
<path d="M 430.1 595.2 C 500.4 566.6 944.8 122.5 1015.1 93.9" fill="none" stroke="#ff5060" stroke-width="1.09" opacity="0.69" marker-end="url(#arr)"/>
<text x="744.8" y="366.8" font-family="monospace" font-size="6" fill="#ff5060" opacity="0.35" text-anchor="middle">Δγ=2856.4</text>
<path d="M 1015.1 93.9 C 995.9 109.3 992.2 144.0 973.1 159.4" fill="none" stroke="#444" stroke-width="0.61" opacity="0.54" marker-end="url(#arr)"/>
<text x="992.4" y="126.5" font-family="monospace" font-size="6" fill="#444" opacity="0.35" text-anchor="middle">Δγ=1198.3</text>
<path d="M 973.1 159.4 C 923.0 197.8 911.4 286.1 861.3 324.5" fill="none" stroke="#444" stroke-width="0.61" opacity="0.60" marker-end="url(#arr)"/>
<text x="912.8" y="241.4" font-family="monospace" font-size="6" fill="#444" opacity="0.35" text-anchor="middle">Δγ=1260.4</text>
<path d="M 861.3 324.5 C 921.3 277.9 948.0 151.3 1007.9 104.8" fill="none" stroke="#444" stroke-width="0.66" opacity="0.62" marker-end="url(#arr)"/>
<text x="941.0" y="216.0" font-family="monospace" font-size="6" fill="#444" opacity="0.35" text-anchor="middle">Δγ=2213.1</text>
<path d="M 1007.9 104.8 C 948.1 151.4 922.3 276.8 862.5 323.4" fill="none" stroke="#444" stroke-width="0.61" opacity="0.62" marker-end="url(#arr)"/>
<text x="928.9" y="212.8" font-family="monospace" font-size="6" fill="#444" opacity="0.35" text-anchor="middle">Δγ=2209.2</text>
<path d="M 862.5 323.4 C 922.4 276.9 942.0 160.9 1002.0 114.3" fill="none" stroke="#444" stroke-width="0.66" opacity="0.62" marker-end="url(#arr)"/>
<text x="938.0" y="219.9" font-family="monospace" font-size="6" fill="#444" opacity="0.35" text-anchor="middle">Δγ=2010.4</text>
<path d="M 1002.0 114.3 C 940.1 158.2 775.8 463.7 713.9 507.6" fill="none" stroke="#444" stroke-width="0.61" opacity="0.66" marker-end="url(#arr)"/>
<text x="842.7" y="302.7" font-family="monospace" font-size="6" fill="#444" opacity="0.35" text-anchor="middle">Δγ=2360.5</text>
<path d="M 713.9 507.6 C 775.5 463.3 968.4 114.3 1030.0 70.0" fill="none" stroke="#444" stroke-width="0.85" opacity="0.67" marker-end="url(#arr)"/>
<text x="889.4" y="298.4" font-family="monospace" font-size="6" fill="#444" opacity="0.35" text-anchor="middle">Δγ=3426.3</text>
<path d="M 1030.0 70.0 C 969.5 115.9 854.0 369.8 793.6 415.7" fill="none" stroke="#444" stroke-width="0.61" opacity="0.65" marker-end="url(#arr)"/>
<text x="899.1" y="237.1" font-family="monospace" font-size="6" fill="#444" opacity="0.35" text-anchor="middle">Δγ=3314.1</text>
<path d="M 793.6 415.7 C 776.2 427.3 770.5 456.3 753.2 467.9" fill="none" stroke="#444" stroke-width="0.72" opacity="0.53" marker-end="url(#arr)"/>
<text x="771.9" y="441.5" font-family="monospace" font-size="6" fill="#444" opacity="0.35" text-anchor="middle">Δγ=73.7</text>
<path d="M 753.2 467.9 C 677.3 469.2 225.9 678.8 150.0 680.0" fill="none" stroke="#444" stroke-width="0.78" opacity="0.68" marker-end="url(#arr)"/>
<text x="441.1" y="551.4" font-family="monospace" font-size="6" fill="#444" opacity="0.35" text-anchor="middle">Δγ=114.7</text>
<circle cx="150.0" cy="680.0" r="19.3" fill="#40c080" opacity="0.12" filter="url(#glow)"/>
<circle cx="150.0" cy="680.0" r="7.7" fill="#40c080" opacity="0.9"/>
<circle cx="150.0" cy="680.0" r="2" fill="#ffffff" opacity="0.7"/>
<text x="150.0" y="668.0" font-family="monospace" font-size="8" fill="#40c080" text-anchor="middle" opacity="0.9">glozed</text>
<text x="150.0" y="677.0" font-family="monospace" font-size="6" fill="#40c080" text-anchor="middle" opacity="0.55">E=0.1205</text>
<circle cx="753.2" cy="467.9" r="4.3" fill="#444" opacity="0.9"/>
<circle cx="753.2" cy="467.9" r="2" fill="#ffffff" opacity="0.7"/>
<text x="753.2" y="481.9" font-family="monospace" font-size="8" fill="#444" text-anchor="middle" opacity="0.9">defective</text>
<text x="753.2" y="490.9" font-family="monospace" font-size="6" fill="#444" text-anchor="middle" opacity="0.55">E=0.0223</text>
<circle cx="793.6" cy="415.7" r="4.0" fill="#444" opacity="0.9"/>
<circle cx="793.6" cy="415.7" r="2" fill="#ffffff" opacity="0.7"/>
<text x="793.6" y="403.7" font-family="monospace" font-size="8" fill="#444" text-anchor="middle" opacity="0.9">site</text>
<text x="793.6" y="412.7" font-family="monospace" font-size="6" fill="#444" text-anchor="middle" opacity="0.55">E=0.0146</text>
<circle cx="834.9" cy="360.6" r="3.8" fill="#444" opacity="0.9"/>
<circle cx="834.9" cy="360.6" r="2" fill="#ffffff" opacity="0.7"/>
<text x="834.9" y="374.6" font-family="monospace" font-size="8" fill="#444" text-anchor="middle" opacity="0.9">darted</text>
<text x="834.9" y="383.6" font-family="monospace" font-size="6" fill="#444" text-anchor="middle" opacity="0.55">E=0.0094</text>
<circle cx="862.5" cy="323.4" r="3.7" fill="#444" opacity="0.9"/>
<circle cx="862.5" cy="323.4" r="2" fill="#ffffff" opacity="0.7"/>
<text x="862.5" y="311.4" font-family="monospace" font-size="8" fill="#444" text-anchor="middle" opacity="0.9">god's</text>
<text x="862.5" y="320.4" font-family="monospace" font-size="6" fill="#444" text-anchor="middle" opacity="0.55">E=0.0069</text>
<circle cx="875.2" cy="305.4" r="3.7" fill="#444" opacity="0.9"/>
<circle cx="875.2" cy="305.4" r="2" fill="#ffffff" opacity="0.7"/>
<text x="875.2" y="319.4" font-family="monospace" font-size="8" fill="#444" text-anchor="middle" opacity="0.9">carrying</text>
<text x="875.2" y="328.4" font-family="monospace" font-size="6" fill="#444" text-anchor="middle" opacity="0.55">E=0.0060</text>
<circle cx="693.2" cy="532.3" r="4.8" fill="#444" opacity="0.9"/>
<circle cx="693.2" cy="532.3" r="2" fill="#ffffff" opacity="0.7"/>
<text x="693.2" y="520.3" font-family="monospace" font-size="8" fill="#444" text-anchor="middle" opacity="0.9">sikeloi</text>
<text x="693.2" y="529.3" font-family="monospace" font-size="6" fill="#444" text-anchor="middle" opacity="0.55">E=0.0374</text>
<circle cx="713.9" cy="507.6" r="4.6" fill="#444" opacity="0.9"/>
<circle cx="713.9" cy="507.6" r="2" fill="#ffffff" opacity="0.7"/>
<text x="713.9" y="521.6" font-family="monospace" font-size="8" fill="#444" text-anchor="middle" opacity="0.9">strangeness</text>
<text x="713.9" y="530.6" font-family="monospace" font-size="6" fill="#444" text-anchor="middle" opacity="0.55">E=0.0307</text>
<circle cx="713.9" cy="507.6" r="4.6" fill="#444" opacity="0.9"/>
<circle cx="713.9" cy="507.6" r="2" fill="#ffffff" opacity="0.7"/>
<text x="713.9" y="495.6" font-family="monospace" font-size="8" fill="#444" text-anchor="middle" opacity="0.9">autochthony</text>
<text x="713.9" y="504.6" font-family="monospace" font-size="6" fill="#444" text-anchor="middle" opacity="0.55">E=0.0307</text>
<circle cx="736.5" cy="485.3" r="4.4" fill="#444" opacity="0.9"/>
<circle cx="736.5" cy="485.3" r="2" fill="#ffffff" opacity="0.7"/>
<text x="736.5" y="499.3" font-family="monospace" font-size="8" fill="#444" text-anchor="middle" opacity="0.9">adhesion</text>
<text x="736.5" y="508.3" font-family="monospace" font-size="6" fill="#444" text-anchor="middle" opacity="0.55">E=0.0257</text>
<circle cx="890.6" cy="282.3" r="3.7" fill="#444" opacity="0.9"/>
<circle cx="890.6" cy="282.3" r="2" fill="#ffffff" opacity="0.7"/>
<text x="890.6" y="270.3" font-family="monospace" font-size="8" fill="#444" text-anchor="middle" opacity="0.9">coupling</text>
<text x="890.6" y="279.3" font-family="monospace" font-size="6" fill="#444" text-anchor="middle" opacity="0.55">E=0.0050</text>
<circle cx="901.6" cy="266.1" r="3.7" fill="#444" opacity="0.9"/>
<circle cx="901.6" cy="266.1" r="2" fill="#ffffff" opacity="0.7"/>
<text x="901.6" y="280.1" font-family="monospace" font-size="8" fill="#444" text-anchor="middle" opacity="0.9">right</text>
<text x="901.6" y="289.1" font-family="monospace" font-size="6" fill="#444" text-anchor="middle" opacity="0.55">E=0.0044</text>
<circle cx="430.1" cy="595.2" r="14.2" fill="#ff5060" opacity="0.12" filter="url(#glow)"/>
<circle cx="430.1" cy="595.2" r="5.7" fill="#ff5060" opacity="0.9"/>
<circle cx="430.1" cy="595.2" r="2" fill="#ffffff" opacity="0.7"/>
<text x="430.1" y="583.2" font-family="monospace" font-size="8" fill="#ff5060" text-anchor="middle" opacity="0.9">kindnesses</text>
<text x="430.1" y="592.2" font-family="monospace" font-size="6" fill="#ff5060" text-anchor="middle" opacity="0.55">E=0.0618</text>
<circle cx="1015.1" cy="93.9" r="3.5" fill="#444" opacity="0.9"/>
<circle cx="1015.1" cy="93.9" r="2" fill="#ffffff" opacity="0.7"/>
<text x="1015.1" y="107.9" font-family="monospace" font-size="8" fill="#444" text-anchor="middle" opacity="0.9">context</text>
<text x="1015.1" y="116.9" font-family="monospace" font-size="6" fill="#444" text-anchor="middle" opacity="0.55">E=0.0011</text>
<circle cx="973.1" cy="159.4" r="3.6" fill="#444" opacity="0.9"/>
<circle cx="973.1" cy="159.4" r="2" fill="#ffffff" opacity="0.7"/>
<text x="973.1" y="147.4" font-family="monospace" font-size="8" fill="#444" text-anchor="middle" opacity="0.9">world</text>
<text x="973.1" y="156.4" font-family="monospace" font-size="6" fill="#444" text-anchor="middle" opacity="0.55">E=0.0018</text>
<circle cx="861.3" cy="324.5" r="3.7" fill="#444" opacity="0.9"/>
<circle cx="861.3" cy="324.5" r="2" fill="#ffffff" opacity="0.7"/>
<text x="861.3" y="338.5" font-family="monospace" font-size="8" fill="#444" text-anchor="middle" opacity="0.9">poetry</text>
<text x="861.3" y="347.5" font-family="monospace" font-size="6" fill="#444" text-anchor="middle" opacity="0.55">E=0.0070</text>
<circle cx="1007.9" cy="104.8" r="3.5" fill="#444" opacity="0.9"/>
<circle cx="1007.9" cy="104.8" r="2" fill="#ffffff" opacity="0.7"/>
<text x="1007.9" y="92.8" font-family="monospace" font-size="8" fill="#444" text-anchor="middle" opacity="0.9">function</text>
<text x="1007.9" y="101.8" font-family="monospace" font-size="6" fill="#444" text-anchor="middle" opacity="0.55">E=0.0012</text>
<circle cx="862.5" cy="323.4" r="3.7" fill="#444" opacity="0.9"/>
<circle cx="862.5" cy="323.4" r="2" fill="#ffffff" opacity="0.7"/>
<text x="862.5" y="337.4" font-family="monospace" font-size="8" fill="#444" text-anchor="middle" opacity="0.9">liquid</text>
<text x="862.5" y="346.4" font-family="monospace" font-size="6" fill="#444" text-anchor="middle" opacity="0.55">E=0.0069</text>
<circle cx="1002.0" cy="114.3" r="3.5" fill="#444" opacity="0.9"/>
<circle cx="1002.0" cy="114.3" r="2" fill="#ffffff" opacity="0.7"/>
<text x="1002.0" y="102.3" font-family="monospace" font-size="8" fill="#444" text-anchor="middle" opacity="0.9">style</text>
<text x="1002.0" y="111.3" font-family="monospace" font-size="6" fill="#444" text-anchor="middle" opacity="0.55">E=0.0013</text>
<circle cx="713.9" cy="507.6" r="4.6" fill="#444" opacity="0.9"/>
<circle cx="713.9" cy="507.6" r="2" fill="#ffffff" opacity="0.7"/>
<text x="713.9" y="521.6" font-family="monospace" font-size="8" fill="#444" text-anchor="middle" opacity="0.9">strangeness</text>
<text x="713.9" y="530.6" font-family="monospace" font-size="6" fill="#444" text-anchor="middle" opacity="0.55">E=0.0307</text>
<circle cx="1030.0" cy="70.0" r="3.5" fill="#444" opacity="0.9"/>
<circle cx="1030.0" cy="70.0" r="2" fill="#ffffff" opacity="0.7"/>
<text x="1030.0" y="58.0" font-family="monospace" font-size="8" fill="#444" text-anchor="middle" opacity="0.9">math</text>
<text x="1030.0" y="67.0" font-family="monospace" font-size="6" fill="#444" text-anchor="middle" opacity="0.55">E=0.0009</text>
<circle cx="793.6" cy="415.7" r="4.0" fill="#444" opacity="0.9"/>
<circle cx="793.6" cy="415.7" r="2" fill="#ffffff" opacity="0.7"/>
<text x="793.6" y="429.7" font-family="monospace" font-size="8" fill="#444" text-anchor="middle" opacity="0.9">site</text>
<text x="793.6" y="438.7" font-family="monospace" font-size="6" fill="#444" text-anchor="middle" opacity="0.55">E=0.0146</text>
<circle cx="753.2" cy="467.9" r="4.3" fill="#444" opacity="0.9"/>
<circle cx="753.2" cy="467.9" r="2" fill="#ffffff" opacity="0.7"/>
<text x="753.2" y="455.9" font-family="monospace" font-size="8" fill="#444" text-anchor="middle" opacity="0.9">defective</text>
<text x="753.2" y="464.9" font-family="monospace" font-size="6" fill="#444" text-anchor="middle" opacity="0.55">E=0.0223</text>
<circle cx="150.0" cy="680.0" r="19.3" fill="#40c080" opacity="0.12" filter="url(#glow)"/>
<circle cx="150.0" cy="680.0" r="7.7" fill="#40c080" opacity="0.9"/>
<circle cx="150.0" cy="680.0" r="2" fill="#ffffff" opacity="0.7"/>
<text x="150.0" y="694.0" font-family="monospace" font-size="8" fill="#40c080" text-anchor="middle" opacity="0.9">glozed</text>
<text x="150.0" y="703.0" font-family="monospace" font-size="6" fill="#40c080" text-anchor="middle" opacity="0.55">E=0.1205</text>
<circle cx="861.3" cy="324.5" r="22" fill="none" stroke="#80ff30" stroke-width="1.0" opacity="0.15"/>
<circle cx="861.3" cy="324.5" r="14" fill="none" stroke="#80ff30" stroke-width="1.0" opacity="0.25"/>
<circle cx="861.3" cy="324.5" r="8" fill="none" stroke="#80ff30" stroke-width="1.0" opacity="0.4"/>
<circle cx="1007.9" cy="104.8" r="22" fill="none" stroke="#80ff30" stroke-width="1.0" opacity="0.15"/>
<circle cx="1007.9" cy="104.8" r="14" fill="none" stroke="#80ff30" stroke-width="1.0" opacity="0.25"/>
<circle cx="1007.9" cy="104.8" r="8" fill="none" stroke="#80ff30" stroke-width="1.0" opacity="0.4"/>
<circle cx="862.5" cy="323.4" r="22" fill="none" stroke="#80ff30" stroke-width="1.0" opacity="0.15"/>
<circle cx="862.5" cy="323.4" r="14" fill="none" stroke="#80ff30" stroke-width="1.0" opacity="0.25"/>
<circle cx="862.5" cy="323.4" r="8" fill="none" stroke="#80ff30" stroke-width="1.0" opacity="0.4"/>
<circle cx="1002.0" cy="114.3" r="22" fill="none" stroke="#80ff30" stroke-width="1.0" opacity="0.15"/>
<circle cx="1002.0" cy="114.3" r="14" fill="none" stroke="#80ff30" stroke-width="1.0" opacity="0.25"/>
<circle cx="1002.0" cy="114.3" r="8" fill="none" stroke="#80ff30" stroke-width="1.0" opacity="0.4"/>
<text x="550" y="22" font-family="monospace" font-size="13" fill="#aaa" text-anchor="middle" font-weight="bold">HOW DO YOU SPEAK HOLCUS — THE PATH</text>
<text x="550" y="36" font-family="monospace" font-size="8" fill="#555" text-anchor="middle">words AND edges · point by point · x=prime channel · y=log(γ) · size=E(σ=½)</text>
<text x="70" y="744" font-family="monospace" font-size="7" fill="#333">Δγ = distance jumped per edge = information per speech act  ·  node size = energy at σ=½  ·  path closes: glozed→...→glozed</text>
<text x="910" y="86" font-family="monospace" font-size="7" fill="#80ff30" opacity="0.6">◎ = ENGINE SPEAKS</text>
<text x="910" y="98" font-family="monospace" font-size="7" fill="#80ff30" opacity="0.4">  poetry·function·liquid·style</text>
</svg>