<?xml version="1.0" encoding="UTF-8"?>
<svg xmlns="http://www.w3.org/2000/svg" width="1100" height="750" viewBox="0 0 1100 750">
<rect width="1100" height="750" fill="#050508"/>
<defs>
  <marker id="arr" markerWidth="6" markerHeight="6"           refX="5" refY="3" orient="auto">
    <path d="M0,0 L6,3 L0,6 Z" fill="#80ff30" opacity="0.7"/>
  </marker>
  <filter id="glow">
    <feGaussianBlur stdDeviation="3" result="b"/>
    <feMerge><feMergeNode in="b"/><feMergeNode in="SourceGraphic"/></feMerge>
  </filter>
</defs>
<rect x="46.1" y="70" width="47.7" height="610" fill="#666" opacity="0.04"/>
<rect x="93.9" y="70" width="47.7" height="610" fill="#4080ff" opacity="0.04"/>
<rect x="141.6" y="70" width="95.4" height="610" fill="#40c080" opacity="0.04"/>
<rect x="237.0" y="70" width="190.8" height="610" fill="#c09030" opacity="0.04"/>
<rect x="427.8" y="70" width="381.7" height="610" fill="#ff5060" opacity="0.04"/>
<line x1="70" y1="680.0" x2="1030" y2="680.0" stroke="#fff" stroke-width="0.3" opacity="0.07"/>
<text x="66" y="683.0" font-family="monospace" font-size="6" fill="#333" text-anchor="end">γ=25.0</text>
<line x1="70" y1="640.7" x2="1030" y2="640.7" stroke="#fff" stroke-width="0.3" opacity="0.07"/>
<text x="66" y="643.7" font-family="monospace" font-size="6" fill="#333" text-anchor="end">γ=30.4</text>
<line x1="70" y1="624.8" x2="1030" y2="624.8" stroke="#fff" stroke-width="0.3" opacity="0.07"/>
<text x="66" y="627.8" font-family="monospace" font-size="6" fill="#333" text-anchor="end">γ=32.9</text>
<line x1="70" y1="598.2" x2="1030" y2="598.2" stroke="#fff" stroke-width="0.3" opacity="0.07"/>
<text x="66" y="601.2" font-family="monospace" font-size="6" fill="#333" text-anchor="end">γ=37.6</text>
<line x1="70" y1="581.2" x2="1030" y2="581.2" stroke="#fff" stroke-width="0.3" opacity="0.07"/>
<text x="66" y="584.2" font-family="monospace" font-size="6" fill="#333" text-anchor="end">γ=40.9</text>
<line x1="70" y1="569.7" x2="1030" y2="569.7" stroke="#fff" stroke-width="0.3" opacity="0.07"/>
<text x="66" y="572.7" font-family="monospace" font-size="6" fill="#333" text-anchor="end">γ=43.3</text>
<line x1="70" y1="549.1" x2="1030" y2="549.1" stroke="#fff" stroke-width="0.3" opacity="0.07"/>
<text x="66" y="552.1" font-family="monospace" font-size="6" fill="#333" text-anchor="end">γ=48.0</text>
<line x1="70" y1="541.9" x2="1030" y2="541.9" stroke="#fff" stroke-width="0.3" opacity="0.07"/>
<text x="66" y="544.9" font-family="monospace" font-size="6" fill="#333" text-anchor="end">γ=49.8</text>
<line x1="70" y1="529.4" x2="1030" y2="529.4" stroke="#fff" stroke-width="0.3" opacity="0.07"/>
<text x="66" y="532.4" font-family="monospace" font-size="6" fill="#333" text-anchor="end">γ=53.0</text>
<line x1="70.0" y1="70" x2="70.0" y2="680" stroke="#666" stroke-width="0.4" opacity="0.2"/>
<text x="70.0" y="694" font-family="monospace" font-size="7" fill="#666" opacity="0.7" text-anchor="middle">p=2</text>
<text x="70.0" y="704" font-family="monospace" font-size="8" fill="#666" opacity="0.5" text-anchor="middle">ℝ</text>
<line x1="117.7" y1="70" x2="117.7" y2="680" stroke="#4080ff" stroke-width="0.4" opacity="0.2"/>
<text x="117.7" y="694" font-family="monospace" font-size="7" fill="#4080ff" opacity="0.7" text-anchor="middle">p=3</text>
<text x="117.7" y="704" font-family="monospace" font-size="8" fill="#4080ff" opacity="0.5" text-anchor="middle">ℂ</text>
<line x1="165.4" y1="70" x2="165.4" y2="680" stroke="#40c080" stroke-width="0.4" opacity="0.2"/>
<text x="165.4" y="694" font-family="monospace" font-size="7" fill="#40c080" opacity="0.7" text-anchor="middle">p=5</text>
<text x="165.4" y="704" font-family="monospace" font-size="8" fill="#40c080" opacity="0.5" text-anchor="middle">ℍ</text>
<line x1="213.1" y1="70" x2="213.1" y2="680" stroke="#40c080" stroke-width="0.4" opacity="0.2"/>
<text x="213.1" y="694" font-family="monospace" font-size="7" fill="#40c080" opacity="0.7" text-anchor="middle">p=7</text>
<text x="213.1" y="704" font-family="monospace" font-size="8" fill="#40c080" opacity="0.5" text-anchor="middle">ℍ</text>
<line x1="260.8" y1="70" x2="260.8" y2="680" stroke="#c09030" stroke-width="0.4" opacity="0.2"/>
<text x="260.8" y="694" font-family="monospace" font-size="7" fill="#c09030" opacity="0.7" text-anchor="middle">p=11</text>
<text x="260.8" y="704" font-family="monospace" font-size="8" fill="#c09030" opacity="0.5" text-anchor="middle">𝕆</text>
<line x1="308.5" y1="70" x2="308.5" y2="680" stroke="#c09030" stroke-width="0.4" opacity="0.2"/>
<text x="308.5" y="694" font-family="monospace" font-size="7" fill="#c09030" opacity="0.7" text-anchor="middle">p=13</text>
<text x="308.5" y="704" font-family="monospace" font-size="8" fill="#c09030" opacity="0.5" text-anchor="middle">𝕆</text>
<line x1="356.2" y1="70" x2="356.2" y2="680" stroke="#c09030" stroke-width="0.4" opacity="0.2"/>
<text x="356.2" y="694" font-family="monospace" font-size="7" fill="#c09030" opacity="0.7" text-anchor="middle">p=17</text>
<text x="356.2" y="704" font-family="monospace" font-size="8" fill="#c09030" opacity="0.5" text-anchor="middle">𝕆</text>
<line x1="403.9" y1="70" x2="403.9" y2="680" stroke="#c09030" stroke-width="0.4" opacity="0.2"/>
<text x="403.9" y="694" font-family="monospace" font-size="7" fill="#c09030" opacity="0.7" text-anchor="middle">p=19</text>
<text x="403.9" y="704" font-family="monospace" font-size="8" fill="#c09030" opacity="0.5" text-anchor="middle">𝕆</text>
<line x1="451.7" y1="70" x2="451.7" y2="680" stroke="#ff5060" stroke-width="0.4" opacity="0.2"/>
<text x="451.7" y="694" font-family="monospace" font-size="7" fill="#ff5060" opacity="0.7" text-anchor="middle">p=23</text>
<text x="451.7" y="704" font-family="monospace" font-size="8" fill="#ff5060" opacity="0.5" text-anchor="middle">𝕊</text>
<line x1="499.4" y1="70" x2="499.4" y2="680" stroke="#ff5060" stroke-width="0.4" opacity="0.2"/>
<text x="499.4" y="694" font-family="monospace" font-size="7" fill="#ff5060" opacity="0.7" text-anchor="middle">p=29</text>
<text x="499.4" y="704" font-family="monospace" font-size="8" fill="#ff5060" opacity="0.5" text-anchor="middle">𝕊</text>
<line x1="547.1" y1="70" x2="547.1" y2="680" stroke="#ff5060" stroke-width="0.4" opacity="0.2"/>
<text x="547.1" y="694" font-family="monospace" font-size="7" fill="#ff5060" opacity="0.7" text-anchor="middle">p=31</text>
<text x="547.1" y="704" font-family="monospace" font-size="8" fill="#ff5060" opacity="0.5" text-anchor="middle">𝕊</text>
<line x1="594.8" y1="70" x2="594.8" y2="680" stroke="#ff5060" stroke-width="0.4" opacity="0.2"/>
<text x="594.8" y="694" font-family="monospace" font-size="7" fill="#ff5060" opacity="0.7" text-anchor="middle">p=37</text>
<text x="594.8" y="704" font-family="monospace" font-size="8" fill="#ff5060" opacity="0.5" text-anchor="middle">𝕊</text>
<line x1="642.5" y1="70" x2="642.5" y2="680" stroke="#ff5060" stroke-width="0.4" opacity="0.2"/>
<text x="642.5" y="694" font-family="monospace" font-size="7" fill="#ff5060" opacity="0.7" text-anchor="middle">p=41</text>
<text x="642.5" y="704" font-family="monospace" font-size="8" fill="#ff5060" opacity="0.5" text-anchor="middle">𝕊</text>
<line x1="690.2" y1="70" x2="690.2" y2="680" stroke="#ff5060" stroke-width="0.4" opacity="0.2"/>
<text x="690.2" y="694" font-family="monospace" font-size="7" fill="#ff5060" opacity="0.7" text-anchor="middle">p=43</text>
<text x="690.2" y="704" font-family="monospace" font-size="8" fill="#ff5060" opacity="0.5" text-anchor="middle">𝕊</text>
<line x1="737.9" y1="70" x2="737.9" y2="680" stroke="#ff5060" stroke-width="0.4" opacity="0.2"/>
<text x="737.9" y="694" font-family="monospace" font-size="7" fill="#ff5060" opacity="0.7" text-anchor="middle">p=47</text>
<text x="737.9" y="704" font-family="monospace" font-size="8" fill="#ff5060" opacity="0.5" text-anchor="middle">𝕊</text>
<line x1="785.6" y1="70" x2="785.6" y2="680" stroke="#ff5060" stroke-width="0.4" opacity="0.2"/>
<text x="785.6" y="694" font-family="monospace" font-size="7" fill="#ff5060" opacity="0.7" text-anchor="middle">p=53</text>
<text x="785.6" y="704" font-family="monospace" font-size="8" fill="#ff5060" opacity="0.5" text-anchor="middle">𝕊</text>
<path d="M 165.4 680.0 C 405.1 564.9 756.6 406.4 884.5 334.7" fill="none" stroke="#40c080" stroke-width="4.33" opacity="0.07" filter="url(#glow)"/>
<path d="M 165.4 680.0 C 405.1 564.9 756.6 406.4 884.5 334.7" fill="none" stroke="#40c080" stroke-width="1.44" opacity="0.80" marker-end="url(#arr)"/>
<path d="M 165.4 680.0 C 405.1 564.9 756.6 406.4 884.5 334.7" fill="none" stroke="#40c080" stroke-width="1.44" opacity="0.80" marker-end="url(#arr)"/>
<text x="566.9" y="491.1" font-family="monospace" font-size="6" fill="#40c080" opacity="0.3" text-anchor="middle">Δγ=114.7</text>
<path d="M 884.5 334.7 C 1012.4 262.9 916.4 278.7 932.7 249.6" fill="none" stroke="#444" stroke-width="2.27" opacity="0.07" filter="url(#glow)"/>
<path d="M 884.5 334.7 C 1012.4 262.9 916.4 278.7 932.7 249.6" fill="none" stroke="#444" stroke-width="0.76" opacity="0.64" marker-end="url(#arr)"/>
<path d="M 884.5 334.7 C 1012.4 262.9 916.4 278.7 932.7 249.6" fill="none" stroke="#444" stroke-width="0.76" opacity="0.64" marker-end="url(#arr)"/>
<text x="950.4" y="276.2" font-family="monospace" font-size="6" fill="#444" opacity="0.3" text-anchor="middle">Δγ=73.7</text>
<path d="M 932.7 249.6 C 948.9 220.5 968.3 185.0 982.0 159.9" fill="none" stroke="#444" stroke-width="2.11" opacity="0.07" filter="url(#glow)"/>
<path d="M 932.7 249.6 C 948.9 220.5 968.3 185.0 982.0 159.9" fill="none" stroke="#444" stroke-width="0.70" opacity="0.65" marker-end="url(#arr)"/>
<path d="M 932.7 249.6 C 948.9 220.5 968.3 185.0 982.0 159.9" fill="none" stroke="#444" stroke-width="0.70" opacity="0.65" marker-end="url(#arr)"/>
<text x="958.3" y="203.2" font-family="monospace" font-size="6" fill="#444" opacity="0.3" text-anchor="middle">Δγ=120.3</text>
<path d="M 982.0 159.9 C 995.6 134.9 1006.8 114.3 1014.8 99.3" fill="none" stroke="#444" stroke-width="2.00" opacity="0.07" filter="url(#glow)"/>
<path d="M 982.0 159.9 C 995.6 134.9 1006.8 114.3 1014.8 99.3" fill="none" stroke="#444" stroke-width="0.67" opacity="0.62" marker-end="url(#arr)"/>
<path d="M 982.0 159.9 C 995.6 134.9 1006.8 114.3 1014.8 99.3" fill="none" stroke="#444" stroke-width="0.67" opacity="0.62" marker-end="url(#arr)"/>
<text x="1000.5" y="125.8" font-family="monospace" font-size="6" fill="#444" opacity="0.3" text-anchor="middle">Δγ=117.6</text>
<path d="M 1014.8 99.3 C 1022.8 84.3 1063.6 13.3 1030.0 70.0" fill="none" stroke="#444" stroke-width="1.95" opacity="0.07" filter="url(#glow)"/>
<path d="M 1014.8 99.3 C 1022.8 84.3 1063.6 13.3 1030.0 70.0" fill="none" stroke="#444" stroke-width="0.65" opacity="0.56" marker-end="url(#arr)"/>
<path d="M 1014.8 99.3 C 1022.8 84.3 1063.6 13.3 1030.0 70.0" fill="none" stroke="#444" stroke-width="0.65" opacity="0.56" marker-end="url(#arr)"/>
<text x="1038.0" y="57.8" font-family="monospace" font-size="6" fill="#444" opacity="0.3" text-anchor="middle">Δγ=71.0</text>
<path d="M 1030.0 70.0 C 996.4 126.7 845.1 384.6 813.1 439.4" fill="none" stroke="#444" stroke-width="1.93" opacity="0.07" filter="url(#glow)"/>
<path d="M 1030.0 70.0 C 996.4 126.7 845.1 384.6 813.1 439.4" fill="none" stroke="#444" stroke-width="0.64" opacity="0.75" marker-end="url(#arr)"/>
<path d="M 1030.0 70.0 C 996.4 126.7 845.1 384.6 813.1 439.4" fill="none" stroke="#444" stroke-width="0.64" opacity="0.75" marker-end="url(#arr)"/>
<text x="920.9" y="255.4" font-family="monospace" font-size="6" fill="#444" opacity="0.3" text-anchor="middle">Δγ=439.5</text>
<path d="M 813.1 439.4 C 781.0 494.3 829.5 412.6 837.7 399.2" fill="none" stroke="#444" stroke-width="2.59" opacity="0.07" filter="url(#glow)"/>
<path d="M 813.1 439.4 C 781.0 494.3 829.5 412.6 837.7 399.2" fill="none" stroke="#444" stroke-width="0.86" opacity="0.59" marker-end="url(#arr)"/>
<path d="M 813.1 439.4 C 781.0 494.3 829.5 412.6 837.7 399.2" fill="none" stroke="#444" stroke-width="0.86" opacity="0.59" marker-end="url(#arr)"/>
<text x="810.3" y="444.9" font-family="monospace" font-size="6" fill="#444" opacity="0.3" text-anchor="middle">Δγ=18.4</text>
<circle cx="165.4" cy="680.0" r="19.3" fill="#40c080" opacity="0.1" filter="url(#glow)"/>
<circle cx="165.4" cy="680.0" r="7.7" fill="#40c080" opacity="0.9"/>
<circle cx="165.4" cy="680.0" r="2" fill="#fff" opacity="0.7"/>
<text x="165.4" y="668.3" font-family="monospace" font-size="8" fill="#40c080" text-anchor="middle" opacity="0.9">glozed</text>
<text x="165.4" y="697.7" font-family="monospace" font-size="6" fill="#40c080" text-anchor="middle" opacity="0.5">E=0.1205</text>
<circle cx="884.5" cy="334.7" r="4.3" fill="#444" opacity="0.9"/>
<circle cx="884.5" cy="334.7" r="2" fill="#fff" opacity="0.7"/>
<text x="884.5" y="326.4" font-family="monospace" font-size="8" fill="#444" text-anchor="middle" opacity="0.9">defective</text>
<text x="884.5" y="349.0" font-family="monospace" font-size="6" fill="#444" text-anchor="middle" opacity="0.5">E=0.0223</text>
<circle cx="932.7" cy="249.6" r="4.0" fill="#444" opacity="0.9"/>
<circle cx="932.7" cy="249.6" r="2" fill="#fff" opacity="0.7"/>
<text x="932.7" y="241.6" font-family="monospace" font-size="8" fill="#444" text-anchor="middle" opacity="0.9">site</text>
<text x="932.7" y="263.6" font-family="monospace" font-size="6" fill="#444" text-anchor="middle" opacity="0.5">E=0.0146</text>
<circle cx="982.0" cy="159.9" r="3.8" fill="#444" opacity="0.9"/>
<circle cx="982.0" cy="159.9" r="2" fill="#fff" opacity="0.7"/>
<text x="982.0" y="152.1" font-family="monospace" font-size="8" fill="#444" text-anchor="middle" opacity="0.9">darted</text>
<text x="982.0" y="173.8" font-family="monospace" font-size="6" fill="#444" text-anchor="middle" opacity="0.5">E=0.0094</text>
<circle cx="1014.8" cy="99.3" r="3.7" fill="#444" opacity="0.9"/>
<circle cx="1014.8" cy="99.3" r="2" fill="#fff" opacity="0.7"/>
<text x="1014.8" y="91.6" font-family="monospace" font-size="8" fill="#444" text-anchor="middle" opacity="0.9">god's</text>
<text x="1014.8" y="113.1" font-family="monospace" font-size="6" fill="#444" text-anchor="middle" opacity="0.5">E=0.0069</text>
<circle cx="1030.0" cy="70.0" r="3.7" fill="#444" opacity="0.9"/>
<circle cx="1030.0" cy="70.0" r="2" fill="#fff" opacity="0.7"/>
<text x="1030.0" y="62.3" font-family="monospace" font-size="8" fill="#444" text-anchor="middle" opacity="0.9">carrying</text>
<text x="1030.0" y="83.7" font-family="monospace" font-size="6" fill="#444" text-anchor="middle" opacity="0.5">E=0.0060</text>
<circle cx="813.1" cy="439.4" r="4.8" fill="#444" opacity="0.9"/>
<circle cx="813.1" cy="439.4" r="2" fill="#fff" opacity="0.7"/>
<text x="813.1" y="430.6" font-family="monospace" font-size="8" fill="#444" text-anchor="middle" opacity="0.9">sikeloi</text>
<text x="813.1" y="454.3" font-family="monospace" font-size="6" fill="#444" text-anchor="middle" opacity="0.5">E=0.0374</text>
<circle cx="837.7" cy="399.2" r="4.6" fill="#444" opacity="0.9"/>
<circle cx="837.7" cy="399.2" r="2" fill="#fff" opacity="0.7"/>
<text x="837.7" y="390.6" font-family="monospace" font-size="8" fill="#444" text-anchor="middle" opacity="0.9">strangeness</text>
<text x="837.7" y="413.8" font-family="monospace" font-size="6" fill="#444" text-anchor="middle" opacity="0.5">E=0.0307</text>
<text x="550" y="22" font-family="monospace" font-size="13" fill="#aaa" text-anchor="middle" font-weight="bold">PCAD ENGINE — Edges Make Pathways</text>
<text x="550" y="36" font-family="monospace" font-size="8" fill="#555" text-anchor="middle">G¹ Catmull-Rom · SVG is pathways · CAD is edges · edge.to_svg_path() IS the path</text>
<text x="70" y="744" font-family="monospace" font-size="7" fill="#333">x=prime channel · y=log(γ) · node size=E(σ=½) · edge width=E · Δγ=information per edge · G1: tangent continuous</text>
</svg>