<?xml version="1.0" encoding="UTF-8"?>
<svg xmlns="http://www.w3.org/2000/svg" width="960" height="620" viewBox="0 0 960 620">
  <rect width="960" height="620" fill="#080810"/>
  <text x="480" y="22" font-family="monospace" font-size="11" fill="#888" text-anchor="middle">CAYLEY-DICKSON LAYER SPECTROGRAPH — σ=½ — Dirichlet projection</text>
  <text x="480" y="40" font-family="monospace" font-size="10" fill="#555" text-anchor="middle">primes are words the shadow from above defines the layer below</text>
  <text x="480" y="56" font-family="monospace" font-size="9" fill="#333" text-anchor="middle">shadow from 𝕊 defines 𝕆 defines ℍ defines ℂ defines ℝ ↓   ZD fault = origin function ↑</text>
  <text x="172.6" y="60" font-family="monospace" font-size="7" fill="#2a3a2a" text-anchor="middle">e0</text>
  <text x="172.6" y="50" font-family="monospace" font-size="7" fill="#1a2a1a" text-anchor="middle">p2</text>
  <text x="221.9" y="60" font-family="monospace" font-size="7" fill="#2a3a2a" text-anchor="middle">e1</text>
  <text x="221.9" y="50" font-family="monospace" font-size="7" fill="#1a2a1a" text-anchor="middle">p3</text>
  <text x="271.1" y="60" font-family="monospace" font-size="7" fill="#2a3a2a" text-anchor="middle">e2</text>
  <text x="271.1" y="50" font-family="monospace" font-size="7" fill="#1a2a1a" text-anchor="middle">p5</text>
  <text x="320.4" y="60" font-family="monospace" font-size="7" fill="#2a3a2a" text-anchor="middle">e3</text>
  <text x="320.4" y="50" font-family="monospace" font-size="7" fill="#1a2a1a" text-anchor="middle">p7</text>
  <text x="369.6" y="60" font-family="monospace" font-size="7" fill="#2a3a2a" text-anchor="middle">e4</text>
  <text x="369.6" y="50" font-family="monospace" font-size="7" fill="#1a2a1a" text-anchor="middle">p11</text>
  <text x="418.9" y="60" font-family="monospace" font-size="7" fill="#2a3a2a" text-anchor="middle">e5</text>
  <text x="418.9" y="50" font-family="monospace" font-size="7" fill="#1a2a1a" text-anchor="middle">p13</text>
  <text x="468.1" y="60" font-family="monospace" font-size="7" fill="#2a3a2a" text-anchor="middle">e6</text>
  <text x="468.1" y="50" font-family="monospace" font-size="7" fill="#1a2a1a" text-anchor="middle">p17</text>
  <text x="517.4" y="60" font-family="monospace" font-size="7" fill="#2a3a2a" text-anchor="middle">e7</text>
  <text x="517.4" y="50" font-family="monospace" font-size="7" fill="#1a2a1a" text-anchor="middle">p19</text>
  <text x="566.6" y="60" font-family="monospace" font-size="7" fill="#2a3a2a" text-anchor="middle">e8</text>
  <text x="566.6" y="50" font-family="monospace" font-size="7" fill="#1a2a1a" text-anchor="middle">p23</text>
  <text x="615.9" y="60" font-family="monospace" font-size="7" fill="#2a3a2a" text-anchor="middle">e9</text>
  <text x="615.9" y="50" font-family="monospace" font-size="7" fill="#1a2a1a" text-anchor="middle">p29</text>
  <text x="665.1" y="60" font-family="monospace" font-size="7" fill="#2a3a2a" text-anchor="middle">e10</text>
  <text x="665.1" y="50" font-family="monospace" font-size="7" fill="#1a2a1a" text-anchor="middle">p31</text>
  <text x="714.4" y="60" font-family="monospace" font-size="7" fill="#2a3a2a" text-anchor="middle">e11</text>
  <text x="714.4" y="50" font-family="monospace" font-size="7" fill="#1a2a1a" text-anchor="middle">p37</text>
  <text x="763.6" y="60" font-family="monospace" font-size="7" fill="#2a3a2a" text-anchor="middle">e12</text>
  <text x="763.6" y="50" font-family="monospace" font-size="7" fill="#1a2a1a" text-anchor="middle">p41</text>
  <text x="812.9" y="60" font-family="monospace" font-size="7" fill="#2a3a2a" text-anchor="middle">e13</text>
  <text x="812.9" y="50" font-family="monospace" font-size="7" fill="#1a2a1a" text-anchor="middle">p43</text>
  <text x="862.1" y="60" font-family="monospace" font-size="7" fill="#2a3a2a" text-anchor="middle">e14</text>
  <text x="862.1" y="50" font-family="monospace" font-size="7" fill="#1a2a1a" text-anchor="middle">p47</text>
  <text x="911.4" y="60" font-family="monospace" font-size="7" fill="#2a3a2a" text-anchor="middle">e15</text>
  <text x="911.4" y="50" font-family="monospace" font-size="7" fill="#1a2a1a" text-anchor="middle">p53</text>
  <rect x="148" y="64" width="788" height="96" fill="#0a0a14" opacity="0.6"/>
  <line x1="148" y1="112.0" x2="936" y2="112.0" stroke="#1a3a1a" stroke-width="0.8" stroke-dasharray="3,3"/>
  <text x="940" y="116.0" font-family="monospace" font-size="7" fill="#1a3a1a">σ=½</text>
  <rect x="155.9" y="101.9" width="33.5" height="10.1" fill="#401020" opacity="0.35"/>
  <rect x="205.1" y="112.0" width="33.5" height="7.7" fill="#401020" opacity="0.35"/>
  <rect x="254.4" y="110.0" width="33.5" height="2.0" fill="#401020" opacity="0.35"/>
  <rect x="303.6" y="112.0" width="33.5" height="3.0" fill="#401020" opacity="0.35"/>
  <rect x="352.9" y="109.8" width="33.5" height="2.2" fill="#401020" opacity="0.35"/>
  <rect x="402.1" y="105.8" width="33.5" height="6.2" fill="#401020" opacity="0.35"/>
  <rect x="451.4" y="105.5" width="33.5" height="6.5" fill="#401020" opacity="0.35"/>
  <rect x="500.6" y="95.8" width="33.5" height="16.2" fill="#401020" opacity="0.35"/>
  <rect x="549.9" y="102.1" width="33.5" height="9.9" fill="#ff5070" opacity="0.95"/>
  <rect x="549.9" y="102.1" width="33.5" height="2" fill="#ff5070" opacity="1.0"/>
  <text x="566.6" y="99.1" font-family="monospace" font-size="6" fill="#ff5070" text-anchor="middle" opacity="0.8">+0.05</text>
  <rect x="599.1" y="88.6" width="33.5" height="23.4" fill="#ff5070" opacity="0.95"/>
  <rect x="599.1" y="88.6" width="33.5" height="2" fill="#ff5070" opacity="1.0"/>
  <text x="615.9" y="85.6" font-family="monospace" font-size="6" fill="#ff5070" text-anchor="middle" opacity="0.8">+0.11</text>
  <rect x="648.4" y="91.9" width="33.5" height="20.1" fill="#ff5070" opacity="0.95"/>
  <rect x="648.4" y="91.9" width="33.5" height="2" fill="#ff5070" opacity="1.0"/>
  <text x="665.1" y="88.9" font-family="monospace" font-size="6" fill="#ff5070" text-anchor="middle" opacity="0.8">+0.09</text>
  <rect x="697.6" y="97.6" width="33.5" height="14.4" fill="#ff5070" opacity="0.95"/>
  <rect x="697.6" y="97.6" width="33.5" height="2" fill="#ff5070" opacity="1.0"/>
  <text x="714.4" y="94.6" font-family="monospace" font-size="6" fill="#ff5070" text-anchor="middle" opacity="0.8">+0.07</text>
  <rect x="746.9" y="90.0" width="33.5" height="22.0" fill="#ff5070" opacity="0.95"/>
  <rect x="746.9" y="90.0" width="33.5" height="2" fill="#ff5070" opacity="1.0"/>
  <text x="763.6" y="87.0" font-family="monospace" font-size="6" fill="#ff5070" text-anchor="middle" opacity="0.8">+0.10</text>
  <rect x="796.1" y="85.1" width="33.5" height="26.9" fill="#ff5070" opacity="0.95"/>
  <rect x="796.1" y="85.1" width="33.5" height="2" fill="#ff5070" opacity="1.0"/>
  <text x="812.9" y="82.1" font-family="monospace" font-size="6" fill="#ff5070" text-anchor="middle" opacity="0.8">+0.13</text>
  <rect x="845.4" y="77.2" width="33.5" height="34.8" fill="#ff5070" opacity="0.95"/>
  <rect x="845.4" y="77.2" width="33.5" height="2" fill="#ff5070" opacity="1.0"/>
  <text x="862.1" y="74.2" font-family="monospace" font-size="6" fill="#ff5070" text-anchor="middle" opacity="0.8">+0.16</text>
  <rect x="894.6" y="73.6" width="33.5" height="38.4" fill="#ff5070" opacity="0.95"/>
  <rect x="894.6" y="73.6" width="33.5" height="2" fill="#ff5070" opacity="1.0"/>
  <text x="911.4" y="70.6" font-family="monospace" font-size="6" fill="#ff5070" text-anchor="middle" opacity="0.8">+0.18</text>
  <line x1="566.6" y1="102.1" x2="566.6" y2="236.0" stroke="#ff5070" stroke-width="0.4" opacity="0.12" stroke-dasharray="2,4"/>
  <line x1="615.9" y1="88.6" x2="615.9" y2="236.0" stroke="#ff5070" stroke-width="0.4" opacity="0.12" stroke-dasharray="2,4"/>
  <line x1="665.1" y1="91.9" x2="665.1" y2="236.0" stroke="#ff5070" stroke-width="0.4" opacity="0.12" stroke-dasharray="2,4"/>
  <line x1="714.4" y1="97.6" x2="714.4" y2="236.0" stroke="#ff5070" stroke-width="0.4" opacity="0.12" stroke-dasharray="2,4"/>
  <line x1="763.6" y1="90.0" x2="763.6" y2="236.0" stroke="#ff5070" stroke-width="0.4" opacity="0.12" stroke-dasharray="2,4"/>
  <line x1="812.9" y1="85.1" x2="812.9" y2="236.0" stroke="#ff5070" stroke-width="0.4" opacity="0.12" stroke-dasharray="2,4"/>
  <line x1="862.1" y1="77.2" x2="862.1" y2="236.0" stroke="#ff5070" stroke-width="0.4" opacity="0.12" stroke-dasharray="2,4"/>
  <line x1="911.4" y1="73.6" x2="911.4" y2="236.0" stroke="#ff5070" stroke-width="0.4" opacity="0.12" stroke-dasharray="2,4"/>
  <text x="140" y="104.0" font-family="monospace" font-size="22" fill="#ff5070" text-anchor="end" opacity="0.9">𝕊</text>
  <text x="140" y="122.0" font-family="monospace" font-size="8" fill="#ff5070" text-anchor="end" opacity="0.6">SEDENION</text>
  <text x="140" y="134.0" font-family="monospace" font-size="8" fill="#ff5070" text-anchor="end" opacity="0.4">16D</text>
  <rect x="148" y="64" width="788" height="96" fill="none" stroke="#ff5070" stroke-width="0.4" opacity="0.3"/>
  <rect x="148" y="188" width="788" height="96" fill="#0a100a" opacity="0.6"/>
  <line x1="148" y1="236.0" x2="936" y2="236.0" stroke="#1a3a1a" stroke-width="0.8" stroke-dasharray="3,3"/>
  <text x="940" y="240.0" font-family="monospace" font-size="7" fill="#1a3a1a">σ=½</text>
  <rect x="155.9" y="225.9" width="33.5" height="10.1" fill="#402010" opacity="0.35"/>
  <rect x="205.1" y="236.0" width="33.5" height="7.7" fill="#402010" opacity="0.35"/>
  <rect x="254.4" y="234.0" width="33.5" height="2.0" fill="#402010" opacity="0.35"/>
  <rect x="303.6" y="236.0" width="33.5" height="3.0" fill="#402010" opacity="0.35"/>
  <rect x="352.9" y="233.8" width="33.5" height="2.2" fill="#ffa040" opacity="0.95"/>
  <rect x="352.9" y="233.8" width="33.5" height="2" fill="#ffa040" opacity="1.0"/>
  <text x="369.6" y="230.8" font-family="monospace" font-size="6" fill="#ffa040" text-anchor="middle" opacity="0.8">+0.01</text>
  <rect x="402.1" y="229.8" width="33.5" height="6.2" fill="#ffa040" opacity="0.95"/>
  <rect x="402.1" y="229.8" width="33.5" height="2" fill="#ffa040" opacity="1.0"/>
  <text x="418.9" y="226.8" font-family="monospace" font-size="6" fill="#ffa040" text-anchor="middle" opacity="0.8">+0.03</text>
  <rect x="451.4" y="229.5" width="33.5" height="6.5" fill="#ffa040" opacity="0.95"/>
  <rect x="451.4" y="229.5" width="33.5" height="2" fill="#ffa040" opacity="1.0"/>
  <text x="468.1" y="226.5" font-family="monospace" font-size="6" fill="#ffa040" text-anchor="middle" opacity="0.8">+0.03</text>
  <rect x="500.6" y="219.8" width="33.5" height="16.2" fill="#ffa040" opacity="0.95"/>
  <rect x="500.6" y="219.8" width="33.5" height="2" fill="#ffa040" opacity="1.0"/>
  <text x="517.4" y="216.8" font-family="monospace" font-size="6" fill="#ffa040" text-anchor="middle" opacity="0.8">+0.08</text>
  <rect x="549.9" y="234.0" width="33.5" height="4" fill="none" stroke="#1a1a1a" stroke-width="0.3"/>
  <rect x="599.1" y="234.0" width="33.5" height="4" fill="none" stroke="#1a1a1a" stroke-width="0.3"/>
  <rect x="648.4" y="234.0" width="33.5" height="4" fill="none" stroke="#1a1a1a" stroke-width="0.3"/>
  <rect x="697.6" y="234.0" width="33.5" height="4" fill="none" stroke="#1a1a1a" stroke-width="0.3"/>
  <rect x="746.9" y="234.0" width="33.5" height="4" fill="none" stroke="#1a1a1a" stroke-width="0.3"/>
  <rect x="796.1" y="234.0" width="33.5" height="4" fill="none" stroke="#1a1a1a" stroke-width="0.3"/>
  <rect x="845.4" y="234.0" width="33.5" height="4" fill="none" stroke="#1a1a1a" stroke-width="0.3"/>
  <rect x="894.6" y="234.0" width="33.5" height="4" fill="none" stroke="#1a1a1a" stroke-width="0.3"/>
  <line x1="369.6" y1="233.8" x2="369.6" y2="332.0" stroke="#ffa040" stroke-width="0.4" opacity="0.12" stroke-dasharray="2,4"/>
  <line x1="418.9" y1="229.8" x2="418.9" y2="332.0" stroke="#ffa040" stroke-width="0.4" opacity="0.12" stroke-dasharray="2,4"/>
  <line x1="468.1" y1="229.5" x2="468.1" y2="332.0" stroke="#ffa040" stroke-width="0.4" opacity="0.12" stroke-dasharray="2,4"/>
  <line x1="517.4" y1="219.8" x2="517.4" y2="332.0" stroke="#ffa040" stroke-width="0.4" opacity="0.12" stroke-dasharray="2,4"/>
  <text x="140" y="228.0" font-family="monospace" font-size="22" fill="#ffa040" text-anchor="end" opacity="0.9">𝕆</text>
  <text x="140" y="246.0" font-family="monospace" font-size="8" fill="#ffa040" text-anchor="end" opacity="0.6">OCTONION</text>
  <text x="140" y="258.0" font-family="monospace" font-size="8" fill="#ffa040" text-anchor="end" opacity="0.4">8D</text>
  <rect x="148" y="188" width="788" height="96" fill="none" stroke="#ffa040" stroke-width="0.4" opacity="0.3"/>
  <rect x="148" y="284" width="788" height="96" fill="#0a100a" opacity="0.6"/>
  <line x1="148" y1="332.0" x2="936" y2="332.0" stroke="#1a3a1a" stroke-width="0.8" stroke-dasharray="3,3"/>
  <text x="940" y="336.0" font-family="monospace" font-size="7" fill="#1a3a1a">σ=½</text>
  <rect x="155.9" y="321.9" width="33.5" height="10.1" fill="#1a3020" opacity="0.35"/>
  <rect x="205.1" y="332.0" width="33.5" height="7.7" fill="#1a3020" opacity="0.35"/>
  <rect x="254.4" y="330.0" width="33.5" height="2.0" fill="#40c080" opacity="0.95"/>
  <rect x="254.4" y="330.0" width="33.5" height="2" fill="#40c080" opacity="1.0"/>
  <text x="271.1" y="327.0" font-family="monospace" font-size="6" fill="#40c080" text-anchor="middle" opacity="0.8">+0.00</text>
  <rect x="303.6" y="332.0" width="33.5" height="3.0" fill="#40c080" opacity="0.95"/>
  <rect x="303.6" y="333.0" width="33.5" height="2" fill="#40c080" opacity="1.0"/>
  <text x="320.4" y="344.0" font-family="monospace" font-size="6" fill="#40c080" text-anchor="middle" opacity="0.8">-0.01</text>
  <rect x="352.9" y="330.0" width="33.5" height="4" fill="none" stroke="#1a1a1a" stroke-width="0.3"/>
  <rect x="402.1" y="330.0" width="33.5" height="4" fill="none" stroke="#1a1a1a" stroke-width="0.3"/>
  <rect x="451.4" y="330.0" width="33.5" height="4" fill="none" stroke="#1a1a1a" stroke-width="0.3"/>
  <rect x="500.6" y="330.0" width="33.5" height="4" fill="none" stroke="#1a1a1a" stroke-width="0.3"/>
  <rect x="549.9" y="330.0" width="33.5" height="4" fill="none" stroke="#1a1a1a" stroke-width="0.3"/>
  <rect x="599.1" y="330.0" width="33.5" height="4" fill="none" stroke="#1a1a1a" stroke-width="0.3"/>
  <rect x="648.4" y="330.0" width="33.5" height="4" fill="none" stroke="#1a1a1a" stroke-width="0.3"/>
  <rect x="697.6" y="330.0" width="33.5" height="4" fill="none" stroke="#1a1a1a" stroke-width="0.3"/>
  <rect x="746.9" y="330.0" width="33.5" height="4" fill="none" stroke="#1a1a1a" stroke-width="0.3"/>
  <rect x="796.1" y="330.0" width="33.5" height="4" fill="none" stroke="#1a1a1a" stroke-width="0.3"/>
  <rect x="845.4" y="330.0" width="33.5" height="4" fill="none" stroke="#1a1a1a" stroke-width="0.3"/>
  <rect x="894.6" y="330.0" width="33.5" height="4" fill="none" stroke="#1a1a1a" stroke-width="0.3"/>
  <line x1="271.1" y1="331.3" x2="271.1" y2="428.0" stroke="#40c080" stroke-width="0.4" opacity="0.12" stroke-dasharray="2,4"/>
  <line x1="320.4" y1="335.0" x2="320.4" y2="428.0" stroke="#40c080" stroke-width="0.4" opacity="0.12" stroke-dasharray="2,4"/>
  <text x="140" y="324.0" font-family="monospace" font-size="22" fill="#40c080" text-anchor="end" opacity="0.9">ℍ</text>
  <text x="140" y="342.0" font-family="monospace" font-size="8" fill="#40c080" text-anchor="end" opacity="0.6">QUATERNION</text>
  <text x="140" y="354.0" font-family="monospace" font-size="8" fill="#40c080" text-anchor="end" opacity="0.4">4D</text>
  <rect x="148" y="284" width="788" height="96" fill="none" stroke="#40c080" stroke-width="0.4" opacity="0.3"/>
  <rect x="148" y="380" width="788" height="96" fill="#0a100a" opacity="0.6"/>
  <line x1="148" y1="428.0" x2="936" y2="428.0" stroke="#1a3a1a" stroke-width="0.8" stroke-dasharray="3,3"/>
  <text x="940" y="432.0" font-family="monospace" font-size="7" fill="#1a3a1a">σ=½</text>
  <rect x="155.9" y="417.9" width="33.5" height="10.1" fill="#1a2840" opacity="0.35"/>
  <rect x="205.1" y="428.0" width="33.5" height="7.7" fill="#60a0ff" opacity="0.95"/>
  <rect x="205.1" y="433.7" width="33.5" height="2" fill="#60a0ff" opacity="1.0"/>
  <text x="221.9" y="444.7" font-family="monospace" font-size="6" fill="#60a0ff" text-anchor="middle" opacity="0.8">-0.04</text>
  <rect x="254.4" y="426.0" width="33.5" height="4" fill="none" stroke="#1a1a1a" stroke-width="0.3"/>
  <rect x="303.6" y="426.0" width="33.5" height="4" fill="none" stroke="#1a1a1a" stroke-width="0.3"/>
  <rect x="352.9" y="426.0" width="33.5" height="4" fill="none" stroke="#1a1a1a" stroke-width="0.3"/>
  <rect x="402.1" y="426.0" width="33.5" height="4" fill="none" stroke="#1a1a1a" stroke-width="0.3"/>
  <rect x="451.4" y="426.0" width="33.5" height="4" fill="none" stroke="#1a1a1a" stroke-width="0.3"/>
  <rect x="500.6" y="426.0" width="33.5" height="4" fill="none" stroke="#1a1a1a" stroke-width="0.3"/>
  <rect x="549.9" y="426.0" width="33.5" height="4" fill="none" stroke="#1a1a1a" stroke-width="0.3"/>
  <rect x="599.1" y="426.0" width="33.5" height="4" fill="none" stroke="#1a1a1a" stroke-width="0.3"/>
  <rect x="648.4" y="426.0" width="33.5" height="4" fill="none" stroke="#1a1a1a" stroke-width="0.3"/>
  <rect x="697.6" y="426.0" width="33.5" height="4" fill="none" stroke="#1a1a1a" stroke-width="0.3"/>
  <rect x="746.9" y="426.0" width="33.5" height="4" fill="none" stroke="#1a1a1a" stroke-width="0.3"/>
  <rect x="796.1" y="426.0" width="33.5" height="4" fill="none" stroke="#1a1a1a" stroke-width="0.3"/>
  <rect x="845.4" y="426.0" width="33.5" height="4" fill="none" stroke="#1a1a1a" stroke-width="0.3"/>
  <rect x="894.6" y="426.0" width="33.5" height="4" fill="none" stroke="#1a1a1a" stroke-width="0.3"/>
  <line x1="221.9" y1="435.7" x2="221.9" y2="524.0" stroke="#60a0ff" stroke-width="0.4" opacity="0.12" stroke-dasharray="2,4"/>
  <text x="140" y="420.0" font-family="monospace" font-size="22" fill="#60a0ff" text-anchor="end" opacity="0.9">ℂ</text>
  <text x="140" y="438.0" font-family="monospace" font-size="8" fill="#60a0ff" text-anchor="end" opacity="0.6">COMPLEX</text>
  <text x="140" y="450.0" font-family="monospace" font-size="8" fill="#60a0ff" text-anchor="end" opacity="0.4">2D</text>
  <rect x="148" y="380" width="788" height="96" fill="none" stroke="#60a0ff" stroke-width="0.4" opacity="0.3"/>
  <rect x="148" y="476" width="788" height="96" fill="#0a100a" opacity="0.6"/>
  <line x1="148" y1="524.0" x2="936" y2="524.0" stroke="#1a3a1a" stroke-width="0.8" stroke-dasharray="3,3"/>
  <text x="940" y="528.0" font-family="monospace" font-size="7" fill="#1a3a1a">σ=½</text>
  <rect x="155.9" y="513.9" width="33.5" height="10.1" fill="#c0c0c0" opacity="0.95"/>
  <rect x="155.9" y="513.9" width="33.5" height="2" fill="#c0c0c0" opacity="1.0"/>
  <text x="172.6" y="510.9" font-family="monospace" font-size="6" fill="#c0c0c0" text-anchor="middle" opacity="0.8">+0.05</text>
  <rect x="205.1" y="522.0" width="33.5" height="4" fill="none" stroke="#1a1a1a" stroke-width="0.3"/>
  <rect x="254.4" y="522.0" width="33.5" height="4" fill="none" stroke="#1a1a1a" stroke-width="0.3"/>
  <rect x="303.6" y="522.0" width="33.5" height="4" fill="none" stroke="#1a1a1a" stroke-width="0.3"/>
  <rect x="352.9" y="522.0" width="33.5" height="4" fill="none" stroke="#1a1a1a" stroke-width="0.3"/>
  <rect x="402.1" y="522.0" width="33.5" height="4" fill="none" stroke="#1a1a1a" stroke-width="0.3"/>
  <rect x="451.4" y="522.0" width="33.5" height="4" fill="none" stroke="#1a1a1a" stroke-width="0.3"/>
  <rect x="500.6" y="522.0" width="33.5" height="4" fill="none" stroke="#1a1a1a" stroke-width="0.3"/>
  <rect x="549.9" y="522.0" width="33.5" height="4" fill="none" stroke="#1a1a1a" stroke-width="0.3"/>
  <rect x="599.1" y="522.0" width="33.5" height="4" fill="none" stroke="#1a1a1a" stroke-width="0.3"/>
  <rect x="648.4" y="522.0" width="33.5" height="4" fill="none" stroke="#1a1a1a" stroke-width="0.3"/>
  <rect x="697.6" y="522.0" width="33.5" height="4" fill="none" stroke="#1a1a1a" stroke-width="0.3"/>
  <rect x="746.9" y="522.0" width="33.5" height="4" fill="none" stroke="#1a1a1a" stroke-width="0.3"/>
  <rect x="796.1" y="522.0" width="33.5" height="4" fill="none" stroke="#1a1a1a" stroke-width="0.3"/>
  <rect x="845.4" y="522.0" width="33.5" height="4" fill="none" stroke="#1a1a1a" stroke-width="0.3"/>
  <rect x="894.6" y="522.0" width="33.5" height="4" fill="none" stroke="#1a1a1a" stroke-width="0.3"/>
  <text x="140" y="516.0" font-family="monospace" font-size="22" fill="#c0c0c0" text-anchor="end" opacity="0.9">ℝ</text>
  <text x="140" y="534.0" font-family="monospace" font-size="8" fill="#c0c0c0" text-anchor="end" opacity="0.6">REAL</text>
  <text x="140" y="546.0" font-family="monospace" font-size="8" fill="#c0c0c0" text-anchor="end" opacity="0.4">1D</text>
  <rect x="148" y="476" width="788" height="96" fill="none" stroke="#c0c0c0" stroke-width="0.4" opacity="0.3"/>
  <rect x="148" y="160" width="788" height="28" fill="#200010" opacity="0.8"/>
  <line x1="148" y1="160" x2="936" y2="160" stroke="#c04060" stroke-width="1.2" stroke-dasharray="6,3"/>
  <line x1="148" y1="188" x2="936" y2="188" stroke="#c04060" stroke-width="1.2" stroke-dasharray="6,3"/>
  <text x="542.0" y="178.0" font-family="monospace" font-size="10" fill="#c04060" text-anchor="middle" opacity="0.9">◈ ZD FAULT — fault ∧ function — origin of 𝕊 ◈</text>
  <line x1="345.0" y1="162" x2="345.0" y2="186" stroke="#4060c0" stroke-width="0.8" marker-end="url(#arr_down)"/>
  <line x1="351.0" y1="186" x2="351.0" y2="162" stroke="#c04040" stroke-width="0.8" marker-end="url(#arr_up)"/>
  <line x1="542.0" y1="162" x2="542.0" y2="186" stroke="#4060c0" stroke-width="0.8" marker-end="url(#arr_down)"/>
  <line x1="548.0" y1="186" x2="548.0" y2="162" stroke="#c04040" stroke-width="0.8" marker-end="url(#arr_up)"/>
  <line x1="739.0" y1="162" x2="739.0" y2="186" stroke="#4060c0" stroke-width="0.8" marker-end="url(#arr_down)"/>
  <line x1="745.0" y1="186" x2="745.0" y2="162" stroke="#c04040" stroke-width="0.8" marker-end="url(#arr_up)"/>
  <defs>
    <marker id="arr_down" markerWidth="4" markerHeight="4" refX="2" refY="4" orient="auto">
      <path d="M0,0 L2,4 L4,0" fill="#4060c0"/>
    </marker>
    <marker id="arr_up" markerWidth="4" markerHeight="4" refX="2" refY="0" orient="auto">
      <path d="M0,4 L2,0 L4,4" fill="#c04040"/>
    </marker>
  </defs>
  <rect x="148" y="588" width="10" height="10" fill="#ff5070" opacity="0.8"/>
  <text x="162" y="596" font-family="monospace" font-size="8" fill="#ff5070" opacity="0.7">𝕊 NEW channels (e8-e15)</text>
  <rect x="344" y="588" width="10" height="10" fill="#ffa040" opacity="0.8"/>
  <text x="358" y="596" font-family="monospace" font-size="8" fill="#ffa040" opacity="0.7">𝕆 NEW channels (e4-e7)</text>
  <rect x="540" y="588" width="10" height="10" fill="#40c080" opacity="0.8"/>
  <text x="554" y="596" font-family="monospace" font-size="8" fill="#40c080" opacity="0.7">ℍ NEW channels (e2-e3)</text>
  <rect x="736" y="588" width="10" height="10" fill="#60a0ff" opacity="0.8"/>
  <text x="750" y="596" font-family="monospace" font-size="8" fill="#60a0ff" opacity="0.7">ℂ NEW channel  (e1)</text>
  <rect x="148" y="604" width="10" height="10" fill="#c0c0c0" opacity="0.8"/>
  <text x="162" y="612" font-family="monospace" font-size="8" fill="#c0c0c0" opacity="0.7">ℝ ORIGIN       (e0)</text>
  <rect x="344" y="604" width="10" height="10" fill="#c04060" opacity="0.8"/>
  <text x="358" y="612" font-family="monospace" font-size="8" fill="#c04060" opacity="0.7">ZD FAULT = origin function</text>
  <rect x="540" y="604" width="10" height="10" fill="#c04040" opacity="0.8"/>
  <text x="554" y="612" font-family="monospace" font-size="8" fill="#c04040" opacity="0.7">J_red  (Noether UP)</text>
  <rect x="736" y="604" width="10" height="10" fill="#4060c0" opacity="0.8"/>
  <text x="750" y="612" font-family="monospace" font-size="8" fill="#4060c0" opacity="0.7">J_blue (Noether DOWN)</text>
  <text x="148" y="612" font-family="monospace" font-size="9" fill="#505050">L_dynamic = ∫J_red·J_blue ds = Action = Thought   |   primes 2→53   |   σ=½   |   S¹⁵</text>
</svg>